<svg width="611" height="459" viewBox="0 0 611 459" fill="none" xmlns="http://www.w3.org/2000/svg">
<path opacity="0.8" d="M366.897 382.21C288.584 262.459 601.507 469.964 429.242 297.048L578.014 297.163C634.194 299.549 588.924 134.796 401.231 46.2676C213.539 -42.2608 75.0504 55.7976 29.2678 115.893C4.28891 154.76 -13.8753 230.6 113.299 223.021C272.266 213.547 70.5436 342.42 160.792 406.862C251.041 471.303 410.554 448.968 366.897 382.21Z" fill="#F1F5F9"/>
<path d="M434.188 90.3819C436.176 90.3819 437.788 88.7703 437.788 86.7822C437.788 84.7942 436.176 83.1826 434.188 83.1826C432.2 83.1826 430.589 84.7942 430.589 86.7822C430.589 88.7703 432.2 90.3819 434.188 90.3819Z" fill="#B2B2B2"/>
<path d="M494.468 151.299C496.456 151.299 498.068 149.687 498.068 147.699C498.068 145.711 496.456 144.1 494.468 144.1C492.48 144.1 490.869 145.711 490.869 147.699C490.869 149.687 492.48 151.299 494.468 151.299Z" fill="#B2B2B2"/>
<path d="M245.58 321.962C247.568 321.962 249.18 320.35 249.18 318.362C249.18 316.374 247.568 314.763 245.58 314.763C243.592 314.763 241.981 316.374 241.981 318.362C241.981 320.35 243.592 321.962 245.58 321.962Z" fill="#B2B2B2"/>
<path d="M464.85 318.838C466.838 318.838 468.45 317.226 468.45 315.238C468.45 313.25 466.838 311.639 464.85 311.639C462.862 311.639 461.251 313.25 461.251 315.238C461.251 317.226 462.862 318.838 464.85 318.838Z" fill="#B2B2B2"/>
<path d="M346.661 55.4134C346.661 55.8202 346.541 56.2179 346.315 56.5561C346.089 56.8944 345.767 57.158 345.392 57.3137C345.016 57.4694 344.602 57.5101 344.203 57.4308C343.804 57.3514 343.438 57.1555 343.15 56.8678C342.862 56.5802 342.666 56.2137 342.587 55.8147C342.508 55.4157 342.548 55.0021 342.704 54.6262C342.86 54.2504 343.123 53.9291 343.462 53.7031C343.8 53.4771 344.198 53.3564 344.604 53.3564C345.15 53.3564 345.673 53.5732 346.059 53.9589C346.445 54.3447 346.661 54.8678 346.661 55.4134Z" fill="#B2B2B2"/>
<path d="M203.529 183.22C205.517 183.22 207.128 181.608 207.128 179.62C207.128 177.632 205.517 176.021 203.529 176.021C201.541 176.021 199.929 177.632 199.929 179.62C199.929 181.608 201.541 183.22 203.529 183.22Z" fill="#B2B2B2"/>
<path d="M463.131 91.2563C464.119 91.2563 464.919 90.4556 464.919 89.468C464.919 88.4803 464.119 87.6797 463.131 87.6797C462.143 87.6797 461.343 88.4803 461.343 89.468C461.343 90.4556 462.143 91.2563 463.131 91.2563Z" fill="#B2B2B2"/>
<path d="M222.67 296.097C223.658 296.097 224.459 295.296 224.459 294.309C224.459 293.321 223.658 292.521 222.67 292.521C221.683 292.521 220.882 293.321 220.882 294.309C220.882 295.296 221.683 296.097 222.67 296.097Z" fill="#078DEE"/>
<path d="M486.44 281.375C487.428 281.375 488.229 280.575 488.229 279.587C488.229 278.599 487.428 277.799 486.44 277.799C485.453 277.799 484.652 278.599 484.652 279.587C484.652 280.575 485.453 281.375 486.44 281.375Z" fill="#078DEE"/>
<path d="M321.917 328.892C321.918 329.246 321.815 329.592 321.619 329.888C321.424 330.183 321.145 330.413 320.818 330.55C320.492 330.686 320.132 330.723 319.784 330.655C319.437 330.586 319.118 330.417 318.867 330.167C318.616 329.917 318.445 329.598 318.375 329.251C318.306 328.904 318.341 328.544 318.476 328.217C318.611 327.89 318.84 327.61 319.134 327.413C319.429 327.216 319.775 327.111 320.129 327.111C320.602 327.111 321.055 327.299 321.39 327.632C321.726 327.966 321.915 328.419 321.917 328.892Z" fill="#078DEE"/>
<path d="M230.391 265.841C230.391 266.195 230.286 266.54 230.09 266.835C229.893 267.129 229.614 267.358 229.287 267.493C228.961 267.629 228.601 267.664 228.254 267.595C227.907 267.526 227.589 267.356 227.339 267.106C227.088 266.855 226.918 266.537 226.849 266.19C226.78 265.843 226.816 265.483 226.951 265.157C227.086 264.83 227.315 264.551 227.61 264.354C227.904 264.158 228.249 264.053 228.603 264.053C229.077 264.055 229.53 264.244 229.865 264.579C230.2 264.914 230.389 265.367 230.391 265.841Z" fill="#B2B2B2"/>
<path d="M304.349 351.503C304.349 351.857 304.244 352.203 304.047 352.497C303.851 352.791 303.571 353.02 303.245 353.155C302.918 353.291 302.558 353.326 302.211 353.257C301.865 353.188 301.546 353.018 301.296 352.768C301.046 352.518 300.875 352.199 300.806 351.852C300.737 351.505 300.773 351.146 300.908 350.819C301.043 350.492 301.273 350.213 301.567 350.016C301.861 349.82 302.207 349.715 302.56 349.715C302.795 349.714 303.028 349.759 303.246 349.849C303.463 349.938 303.661 350.07 303.827 350.236C303.993 350.403 304.125 350.6 304.215 350.818C304.304 351.035 304.35 351.268 304.349 351.503Z" fill="#B2B2B2"/>
<path d="M407.233 63.6106C407.233 63.9643 407.128 64.31 406.932 64.6041C406.735 64.8982 406.456 65.1274 406.129 65.2627C405.803 65.3981 405.443 65.4335 405.096 65.3645C404.749 65.2955 404.431 65.1252 404.18 64.8751C403.93 64.625 403.76 64.3063 403.691 63.9594C403.622 63.6125 403.657 63.253 403.793 62.9262C403.928 62.5994 404.157 62.3201 404.451 62.1236C404.746 61.9271 405.091 61.8223 405.445 61.8223C405.919 61.8223 406.374 62.0107 406.71 62.346C407.045 62.6814 407.233 63.1363 407.233 63.6106Z" fill="#078DEE"/>
<path d="M410.319 258.973C410.319 259.327 410.214 259.672 410.017 259.966C409.821 260.26 409.541 260.49 409.215 260.625C408.888 260.76 408.528 260.796 408.181 260.727C407.835 260.658 407.516 260.487 407.266 260.237C407.016 259.987 406.845 259.669 406.776 259.322C406.707 258.975 406.743 258.615 406.878 258.289C407.014 257.962 407.243 257.682 407.537 257.486C407.831 257.289 408.177 257.185 408.53 257.185C408.766 257.184 408.999 257.229 409.216 257.319C409.433 257.408 409.631 257.54 409.797 257.706C409.963 257.872 410.095 258.07 410.185 258.287C410.274 258.505 410.32 258.738 410.319 258.973Z" fill="#B2B2B2"/>
<path d="M492.358 189.521C492.358 189.875 492.253 190.221 492.056 190.515C491.859 190.809 491.579 191.039 491.252 191.174C490.925 191.309 490.565 191.344 490.218 191.274C489.871 191.204 489.552 191.033 489.302 190.783C489.052 190.532 488.883 190.212 488.815 189.865C488.746 189.517 488.783 189.158 488.919 188.831C489.056 188.504 489.286 188.226 489.582 188.03C489.877 187.835 490.223 187.731 490.577 187.732C491.05 187.734 491.503 187.924 491.837 188.259C492.17 188.594 492.358 189.048 492.358 189.521Z" fill="#B2B2B2"/>
<path d="M199.944 259.778C200.932 259.778 201.733 258.977 201.733 257.989C201.733 257.002 200.932 256.201 199.944 256.201C198.957 256.201 198.156 257.002 198.156 257.989C198.156 258.977 198.957 259.778 199.944 259.778Z" fill="#078DEE"/>
<path d="M359.133 340.765C360.121 340.765 360.922 339.964 360.922 338.977C360.922 337.989 360.121 337.188 359.133 337.188C358.146 337.188 357.345 337.989 357.345 338.977C357.345 339.964 358.146 340.765 359.133 340.765Z" fill="#B2B2B2"/>
<path d="M294.34 271.068C295.328 271.068 296.129 270.267 296.129 269.279C296.129 268.292 295.328 267.491 294.34 267.491C293.353 267.491 292.552 268.292 292.552 269.279C292.552 270.267 293.353 271.068 294.34 271.068Z" fill="#078DEE"/>
<path d="M413.435 124.965C413.435 125.319 413.33 125.665 413.133 125.959C412.936 126.254 412.656 126.483 412.329 126.618C412.002 126.753 411.642 126.788 411.295 126.718C410.948 126.649 410.629 126.478 410.379 126.227C410.129 125.976 409.96 125.657 409.892 125.309C409.823 124.962 409.86 124.602 409.997 124.275C410.133 123.949 410.363 123.67 410.659 123.474C410.954 123.279 411.3 123.175 411.654 123.177C411.889 123.177 412.121 123.223 412.337 123.313C412.554 123.403 412.751 123.535 412.916 123.701C413.081 123.867 413.212 124.064 413.301 124.281C413.39 124.498 413.436 124.731 413.435 124.965Z" fill="#078DEE"/>
<path d="M261.598 311.531V280.831H272.704V283.064H264.515V294.577H271.192V296.703H264.515V309.359H272.781V311.524L261.598 311.531Z" fill="#B2B2B2"/>
<path d="M276.726 311.531V280.831H283.634C285.197 280.75 286.756 281.07 288.162 281.759C289.239 282.356 290.074 283.308 290.526 284.453C291.037 285.79 291.282 287.213 291.247 288.644C291.255 289.727 291.129 290.807 290.871 291.86C290.65 292.809 290.208 293.692 289.582 294.438C288.905 295.184 287.996 295.679 287.003 295.843L291.708 311.539H288.899L284.416 296.411H279.604V311.531H276.726ZM279.604 294.316H283.511C284.548 294.374 285.582 294.151 286.504 293.671C287.224 293.241 287.768 292.569 288.039 291.775C288.374 290.764 288.53 289.701 288.5 288.636C288.604 287.151 288.259 285.67 287.509 284.384C286.857 283.455 285.552 282.987 283.61 282.987H279.627L279.604 294.316Z" fill="#B2B2B2"/>
<path d="M296.129 311.531V280.831H303.036C304.602 280.753 306.163 281.072 307.572 281.76C308.649 282.356 309.485 283.308 309.936 284.453C310.447 285.79 310.693 287.214 310.658 288.644C310.665 289.727 310.539 290.808 310.281 291.86C310.06 292.809 309.619 293.693 308.992 294.439C308.315 295.184 307.407 295.679 306.413 295.843L311.11 311.539H308.309L303.827 296.411H299.014V311.531H296.129ZM299.014 294.316H302.921C303.959 294.373 304.992 294.15 305.914 293.671C306.635 293.241 307.179 292.569 307.449 291.776C307.784 290.764 307.94 289.702 307.91 288.636C308.014 287.152 307.669 285.67 306.92 284.384C306.26 283.456 304.963 282.988 303.013 282.988H299.037L299.014 294.316Z" fill="#B2B2B2"/>
<path d="M322.784 311.907C321.114 311.999 319.456 311.585 318.026 310.718C316.867 309.907 316.013 308.732 315.6 307.379C315.107 305.789 314.868 304.131 314.894 302.467V289.734C314.866 288.077 315.126 286.428 315.662 284.86C316.104 283.549 316.971 282.423 318.125 281.66C319.579 280.913 321.189 280.523 322.823 280.523C324.456 280.523 326.067 280.913 327.52 281.66C328.673 282.421 329.535 283.548 329.968 284.86C330.48 286.433 330.724 288.08 330.69 289.734V302.505C330.715 304.162 330.48 305.811 329.991 307.394C329.577 308.738 328.729 309.906 327.581 310.718C326.141 311.593 324.467 312.008 322.784 311.907ZM322.784 309.605C323.881 309.679 324.973 309.394 325.893 308.791C326.623 308.208 327.136 307.398 327.351 306.489C327.631 305.38 327.765 304.24 327.75 303.096V289.204C327.766 288.066 327.632 286.93 327.351 285.827C327.133 284.943 326.618 284.16 325.893 283.609C324.938 283.1 323.873 282.833 322.792 282.833C321.71 282.833 320.645 283.1 319.691 283.609C318.954 284.154 318.431 284.938 318.21 285.827C317.932 286.931 317.8 288.066 317.818 289.204V303.112C317.801 304.255 317.932 305.395 318.21 306.504C318.427 307.418 318.949 308.23 319.691 308.807C320.61 309.398 321.695 309.675 322.784 309.597V309.605Z" fill="#B2B2B2"/>
<path d="M335.44 311.531V280.831H342.348C343.912 280.75 345.47 281.07 346.876 281.759C347.952 282.359 348.79 283.31 349.248 284.453C349.756 285.791 350 287.214 349.969 288.644C349.973 289.727 349.847 290.807 349.593 291.86C349.369 292.808 348.928 293.69 348.304 294.438C347.626 295.182 346.718 295.677 345.725 295.843L350.422 311.539H347.621L343.139 296.411H338.326V311.531H335.44ZM338.326 294.316H342.225C343.263 294.374 344.297 294.151 345.219 293.671C345.938 293.24 346.482 292.569 346.754 291.775C347.085 290.763 347.238 289.701 347.206 288.636C347.312 287.152 346.97 285.671 346.224 284.384C345.564 283.455 344.267 282.987 342.317 282.987H338.342L338.326 294.316Z" fill="#B2B2B2"/>
<path d="M362.587 311.531V280.831H369.94C371.453 280.75 372.958 281.104 374.276 281.851C375.321 282.527 376.114 283.528 376.533 284.699C377.014 286.074 377.245 287.525 377.216 288.981C377.231 290.346 376.994 291.701 376.518 292.98C376.074 294.175 375.269 295.203 374.215 295.92C372.951 296.703 371.479 297.085 369.994 297.017H365.473V311.531H362.587ZM365.473 294.876H369.149C370.183 294.915 371.213 294.726 372.166 294.323C372.942 293.945 373.545 293.287 373.854 292.481C374.25 291.364 374.43 290.181 374.384 288.997C374.428 287.76 374.273 286.523 373.923 285.336C373.802 284.94 373.6 284.573 373.329 284.26C373.058 283.947 372.725 283.694 372.35 283.517C371.342 283.133 370.265 282.96 369.188 283.01H365.473V294.876Z" fill="#B2B2B2"/>
<path d="M377.669 311.531L384.154 280.831H387.224L393.748 311.531H390.901L389.366 303.304H382.044L380.509 311.531H377.669ZM382.45 301.216H388.967L385.666 284.653L382.45 301.216Z" fill="#B2B2B2"/>
<path d="M404.286 311.946C402.684 312.034 401.095 311.609 399.75 310.733C398.627 309.873 397.817 308.668 397.448 307.302C396.964 305.635 396.734 303.904 396.764 302.168V290.187C396.733 288.457 396.956 286.732 397.425 285.067C397.809 283.718 398.636 282.536 399.773 281.713C401.174 280.962 402.734 280.555 404.323 280.525C405.913 280.496 407.486 280.845 408.914 281.545C409.995 282.257 410.805 283.311 411.217 284.538C411.73 286.089 411.971 287.717 411.93 289.35V290.417H409.221V289.35C409.247 288.125 409.112 286.902 408.822 285.712C408.622 284.856 408.134 284.095 407.441 283.555C406.565 283.015 405.542 282.763 404.516 282.834C403.393 282.752 402.277 283.073 401.37 283.74C400.638 284.392 400.151 285.275 399.988 286.242C399.761 287.441 399.653 288.659 399.666 289.88V302.505C399.641 303.796 399.775 305.085 400.065 306.343C400.266 307.297 400.789 308.153 401.546 308.768C402.446 309.384 403.528 309.679 404.616 309.605C405.631 309.714 406.649 309.434 407.465 308.821C408.282 308.209 408.835 307.309 409.014 306.304C409.311 305.047 409.45 303.758 409.428 302.467V298.867H404.885V296.711H412.084V311.531H410.227L409.889 308.039C409.558 309.154 408.904 310.145 408.008 310.886C406.929 311.661 405.612 312.036 404.286 311.946Z" fill="#B2B2B2"/>
<path d="M417.019 311.531V280.831H428.125V283.064H419.966V294.577H426.644V296.703H419.966V309.359H428.232V311.524L417.019 311.531Z" fill="#B2B2B2"/>
<path d="M249.441 269.456V231.794H203.651V209.467L243.562 116.184H274.024V210.979H289.728V231.794H274.04V269.456H249.441ZM225.594 210.979H249.441V144.374L225.594 210.979ZM343.484 271.72C334.53 271.72 327.11 269.829 321.226 266.048C315.357 262.249 310.753 256.787 308.002 250.36C305.039 243.667 303.558 235.972 303.558 227.273V159.326C303.558 150.371 304.978 142.52 307.818 135.771C310.433 129.283 314.99 123.763 320.865 119.968C326.729 116.181 334.266 114.288 343.476 114.288C352.686 114.288 360.223 116.181 366.087 119.968C371.959 123.767 376.515 129.286 379.135 135.771C381.975 142.52 383.394 150.371 383.394 159.326V227.258C383.394 235.956 381.911 243.652 378.943 250.345C376.191 256.78 371.581 262.248 365.703 266.048C359.845 269.834 352.438 271.725 343.484 271.72ZM343.484 249.209C347.393 249.209 350.294 248.009 352.187 245.609C354.142 243.061 355.441 240.072 355.971 236.905C356.592 233.597 356.908 230.24 356.915 226.874V159.702C356.916 156.184 356.632 152.673 356.063 149.202C355.611 146.001 354.339 142.972 352.372 140.406C350.484 138.012 347.521 136.812 343.484 136.807C339.447 136.802 336.482 138.002 334.588 140.406C332.638 142.977 331.38 146.006 330.935 149.202C330.367 152.673 330.082 156.184 330.083 159.702V226.874C330.091 230.245 330.441 233.606 331.127 236.905C331.712 240.072 333.041 243.055 335.003 245.609C336.896 248.014 339.723 249.214 343.484 249.209ZM445.854 269.456V231.794H400.057V209.467L439.968 116.184H470.43V210.979H486.141V231.794H470.445V269.456H445.854ZM422.008 210.979H445.854V144.374L422.008 210.979Z" fill="#078DEE" stroke="#263238" stroke-miterlimit="10"/>
<g opacity="0.3">
<path d="M402.083 228.201L402.183 228.293C402.319 228.404 402.462 228.504 402.613 228.593L402.736 228.654C402.871 228.734 403.012 228.803 403.158 228.861L403.311 228.923C403.513 229.005 403.721 229.072 403.933 229.122H404.04C404.24 229.168 404.447 229.207 404.677 229.237H404.892C405.161 229.237 405.445 229.299 405.752 229.307C406.835 229.336 407.911 229.14 408.914 228.731C409.449 228.524 409.963 228.267 410.449 227.963C410.783 227.752 411.106 227.524 411.416 227.28C411.577 227.158 411.731 227.027 411.884 226.889C412.195 226.618 412.49 226.328 412.767 226.022C415.315 223.228 416.812 218.876 415.568 213.741C415.261 212.467 414.931 211.27 414.586 210.119C414.049 208.33 413.406 206.574 412.66 204.861C412.475 204.447 412.291 204.04 412.092 203.649C411.657 202.762 411.173 201.901 410.641 201.07C410.303 200.54 409.95 200.034 409.59 199.535C408.776 198.454 407.809 197.497 406.719 196.695C406.466 196.511 406.205 196.342 405.952 196.189C405.886 196.147 405.816 196.111 405.744 196.081L400.049 209.382V224.264C400.594 225.799 400.963 227.142 401.93 228.102L402.083 228.201Z" fill="black"/>
<path d="M383.41 224.264V197.916C382.642 197.916 381.967 197.977 381.361 198.015C381.442 193.853 380.975 189.699 379.971 185.659C379.959 183.162 379.446 180.694 378.464 178.399C377.482 176.104 376.05 174.029 374.253 172.296C373.893 167.2 371.045 161.244 367.86 157.069C367.939 157.076 368.019 157.076 368.098 157.069C369.372 156.931 370.17 155.334 370.731 152.587C370.807 152.21 370.869 151.857 370.915 151.52C372.063 150.812 373.034 149.851 373.755 148.711C374.16 147.843 374.42 146.915 374.522 145.963C375.925 145.116 377.195 144.066 378.29 142.847C379.321 141.631 379.996 140.154 380.24 138.579C379.91 137.62 379.549 136.676 379.165 135.755C377.544 131.881 375.247 128.326 372.381 125.255C371.551 124.819 370.676 124.474 369.771 124.227C368.95 124.006 368.104 123.887 367.254 123.874C362.598 122.949 357.87 122.436 353.124 122.339C350.821 122.285 348.772 122.339 346.922 122.408C345.332 121.717 343.588 121.452 341.864 121.641C340.802 121.752 339.765 122.037 338.794 122.485C336.092 121.761 333.283 121.521 330.498 121.779C329.914 121.848 329.339 121.917 328.778 122.001C328.778 121.71 328.74 121.418 328.702 121.126C328.64 120.566 328.556 120.013 328.456 119.468C328.517 118.446 328.517 117.421 328.456 116.398C325.752 117.242 323.171 118.44 320.781 119.96C314.906 123.755 310.348 129.275 307.733 135.763C304.894 142.512 303.474 150.363 303.474 159.318V166.056C306.221 169.61 309.537 173.593 311.724 175.121L312.2 175.612C312.354 178.26 312.822 184.223 313.973 186.188C313.973 186.188 313.068 189.35 314.603 190.954C314.134 194.5 313.513 203.38 317.197 212.13C320.06 218.922 324.941 222.591 329.96 223.758V159.701C330 156.181 330.326 152.669 330.935 149.202C331.391 146.002 332.663 142.973 334.627 140.406C336.52 138.012 339.485 136.812 343.522 136.807C347.559 136.801 350.522 138.001 352.41 140.406C354.377 142.971 355.649 146.001 356.102 149.202C356.67 152.673 356.955 156.184 356.954 159.701V226.874C356.954 228.01 356.9 229.176 356.831 230.297C356.869 230.512 356.915 230.719 356.969 230.911C357.031 231.123 357.108 231.331 357.199 231.533C357.214 231.572 357.232 231.611 357.253 231.648C357.319 231.787 357.396 231.92 357.483 232.047L357.552 232.139C357.651 232.276 357.764 232.402 357.89 232.515C358.008 232.62 358.137 232.713 358.274 232.791L358.381 232.853L358.765 233.037H358.842C359.003 233.098 359.172 233.152 359.356 233.206H359.479C359.625 233.252 359.786 233.29 359.947 233.329L360.124 233.375L360.699 233.505C363.478 234.15 368.221 230.381 369.433 226.597C369.687 225.774 369.877 224.933 370.001 224.08L370.462 224.011C374.724 224.906 379.116 224.992 383.41 224.264ZM365.795 154.674L365.841 154.344C365.803 154.421 365.795 154.559 365.795 154.643V154.674ZM366.033 152.763C366.079 152.372 366.133 151.996 366.179 151.612C366.141 151.988 366.079 152.372 366.033 152.732V152.763Z" fill="black"/>
<path d="M274.04 168.436C273.05 170.915 272.175 173.148 271.737 174.391C270.325 178.359 268.844 182.834 268.874 185.398C268.905 187.961 270.494 191.246 271.737 191.353C272.98 191.461 273.863 190.64 274.04 188.913V168.436Z" fill="black"/>
</g>
<path d="M362.503 176.05C362.976 179.892 363.217 183.76 363.224 187.632C363.178 193.465 364.544 193.587 367.33 194.232C370.117 194.877 374.852 191.108 376.065 187.325C377.277 183.541 377.162 176.226 377.162 176.226L362.503 176.05Z" fill="#DEDEDE"/>
<path d="M367.998 194.685C367.74 194.688 367.483 194.662 367.231 194.609L366.97 194.547C364.069 193.879 362.787 193.342 362.833 187.64C362.824 183.791 362.586 179.947 362.119 176.127L362.058 175.689L377.531 175.866V176.242C377.531 176.541 377.63 183.656 376.41 187.463C375.19 191.27 370.999 194.685 367.998 194.685ZM362.94 176.442C363.378 180.156 363.601 183.892 363.608 187.632C363.562 193.004 364.613 193.212 367.154 193.772L367.415 193.833C369.986 194.432 374.553 190.763 375.696 187.179C376.725 183.979 376.786 178.115 376.778 176.58L362.94 176.442Z" fill="#263238"/>
<path d="M375.197 183.08C375.067 185.667 374.299 189.819 370.454 191.861C369.382 192.435 368.175 192.71 366.959 192.657C365.744 192.604 364.565 192.226 363.547 191.561C364.115 193.588 365.366 193.787 367.3 194.232C370.078 194.877 374.821 191.109 376.034 187.325C377.247 183.541 377.132 176.227 377.132 176.227H375.42C375.389 178.122 375.282 181.338 375.197 183.08Z" fill="#DEDEDE"/>
<path d="M367.998 194.685C367.74 194.688 367.483 194.662 367.231 194.608L366.977 194.547C365.204 194.14 363.808 193.818 363.201 191.661L362.925 190.694L363.777 191.239C364.737 191.858 365.844 192.21 366.985 192.26C368.126 192.31 369.26 192.056 370.27 191.523C373.77 189.658 374.668 185.889 374.806 183.08C374.898 181.215 375.013 177.654 375.059 176.211V175.835H377.523V176.211C377.523 176.51 377.623 183.625 376.402 187.432C375.182 191.239 370.999 194.685 367.998 194.685ZM364.353 192.382C364.905 193.257 365.795 193.465 367.154 193.779L367.415 193.833C369.986 194.432 374.553 190.763 375.696 187.179C376.725 183.978 376.786 178.114 376.778 176.579H375.819C375.765 178.199 375.666 181.361 375.581 183.088C375.435 186.12 374.453 190.157 370.638 192.191C369.679 192.711 368.612 193.001 367.521 193.038C366.43 193.076 365.345 192.859 364.353 192.406V192.382Z" fill="#263238"/>
<path d="M349.279 181.553C352.986 181.305 356.634 180.497 360.1 179.159C366.356 176.856 373.378 171.614 371.874 166.495C370.37 161.375 362.219 159.956 359.003 160.301C356.677 160.596 354.37 161.029 352.095 161.598C352.095 161.598 352.878 176.012 349.279 181.553Z" fill="#DEDEDE"/>
<path d="M348.588 181.952L348.979 181.345C352.471 175.973 351.773 161.758 351.765 161.613V161.298L352.072 161.221C354.363 160.651 356.685 160.215 359.026 159.916C362.28 159.571 370.707 160.93 372.312 166.387C373.808 171.483 367.246 176.955 360.3 179.519C356.788 180.885 353.086 181.701 349.325 181.936L348.588 181.952ZM352.548 161.889C352.633 164.015 352.97 175.62 350 181.13C353.427 180.8 356.796 180.026 360.024 178.828C366.632 176.387 372.926 171.283 371.536 166.632C370.078 161.682 362.027 160.392 359.072 160.715C356.869 160.978 354.683 161.37 352.525 161.889H352.548Z" fill="#263238"/>
<path d="M346.285 183.648C348.869 183.024 351.184 181.584 352.886 179.542C355.38 176.288 356.301 171.038 354.966 167.523C353.63 164.008 346.285 183.648 346.285 183.648Z" fill="#078DEE"/>
<path d="M345.648 184.162L345.894 183.51C347.368 179.573 352.349 166.724 354.498 166.717C354.697 166.717 355.073 166.801 355.265 167.385C356.631 170.992 355.695 176.433 353.132 179.772C351.377 181.894 348.979 183.387 346.301 184.024L345.648 184.162ZM354.475 167.469C353.423 167.469 349.77 175.443 346.876 183.065C349.099 182.4 351.074 181.088 352.548 179.296C354.966 176.149 355.856 171.03 354.582 167.653C354.563 167.583 354.526 167.52 354.475 167.469Z" fill="#263238"/>
<path d="M321.595 150.001C321.595 150.001 319.185 161.514 323.897 172.788C328.61 184.063 338.971 186.742 346.224 183.649C353.477 180.556 355.211 170.34 355.288 163.548C355.365 156.755 355.165 153.67 355.165 153.67C355.165 153.67 330.789 156.049 321.595 150.001Z" fill="#DEDEDE"/>
<path d="M340.322 185.222C338.202 185.218 336.102 184.809 334.136 184.017C330.897 182.705 326.461 179.711 323.575 172.934C318.839 161.683 321.188 150.04 321.218 149.909L321.334 149.356L321.802 149.663C330.782 155.573 354.912 153.294 355.158 153.271L355.549 153.232V153.631C355.549 153.631 355.749 156.817 355.672 163.54C355.618 168.521 354.597 180.479 346.37 183.986C344.457 184.8 342.4 185.22 340.322 185.222ZM321.902 150.631C321.51 153.04 320.251 162.987 324.312 172.643C327.067 179.174 331.35 182.045 334.458 183.303C338.197 184.841 342.392 184.841 346.132 183.303C353.945 179.972 354.912 168.383 354.966 163.555C355.027 158.183 354.912 155.113 354.866 154.1C351.581 154.376 330.828 155.957 321.871 150.631H321.902Z" fill="#263238"/>
<path d="M320.704 146.846C320.704 146.846 319.622 150.622 321.809 152.011C323.997 153.4 335.287 160.032 348.672 157.491C356.163 156.071 354.513 153.876 354.383 152.671C354.252 151.466 320.704 146.846 320.704 146.846Z" fill="#078DEE"/>
<path d="M342.548 158.451C335.142 158.317 327.908 156.197 321.602 152.311C319.208 150.776 320.29 146.885 320.336 146.716L320.428 146.394L320.758 146.44C320.842 146.44 329.254 147.614 337.566 148.903C354.674 151.559 354.743 152.142 354.789 152.61C354.812 152.76 354.843 152.909 354.881 153.056C355.012 153.416 355.062 153.801 355.028 154.183C354.993 154.565 354.875 154.935 354.682 155.266C353.953 156.402 352.072 157.223 348.772 157.845C346.721 158.242 344.637 158.445 342.548 158.451ZM320.996 147.276C320.812 148.167 320.443 150.692 322.017 151.689C324.135 153.033 335.371 159.625 348.626 157.116C351.627 156.548 353.446 155.796 354.037 154.875C354.17 154.628 354.247 154.355 354.264 154.076C354.282 153.796 354.238 153.516 354.137 153.255C354.096 153.112 354.065 152.974 354.045 152.841C352.425 151.889 333.192 148.957 320.996 147.276Z" fill="#263238"/>
<path d="M318.878 134.98C318.878 134.98 319.208 144.298 320.704 146.846C322.201 149.394 342.018 157.138 352.08 154.958C362.142 152.779 378.521 143.814 380.516 137.229C382.512 130.644 377.323 120.282 372.442 115.293C367.561 110.305 365.419 109.322 365.419 109.322C365.419 109.322 353.462 125.256 338.61 130.536C323.759 135.817 318.878 134.98 318.878 134.98Z" fill="white"/>
<path d="M348.012 155.726C337.321 155.726 321.817 149.494 320.382 147.038C318.847 144.436 318.509 135.379 318.501 134.996V134.528L318.962 134.604C319.008 134.604 323.943 135.333 338.48 130.176C353.016 125.018 365.02 109.253 365.135 109.092L365.327 108.847L365.604 108.977C365.696 109.016 367.868 110.052 372.741 115.025C377.615 119.999 383.018 130.375 380.908 137.344C378.797 144.313 362.019 153.209 352.187 155.335C350.813 155.611 349.414 155.742 348.012 155.726ZM319.277 135.403C319.369 137.26 319.783 144.521 321.034 146.654C322.285 148.788 341.811 156.785 352.003 154.583C362.457 152.28 378.283 143.269 380.148 137.122C382.143 130.529 376.702 120.19 372.166 115.562C368.328 111.679 366.225 110.244 365.527 109.821C363.869 111.932 352.479 126.016 338.718 130.897C326.253 135.318 320.804 135.479 319.277 135.403Z" fill="#263238"/>
<path d="M397.87 158.52C397.87 158.52 408.4 154.398 412.606 156.923C416.812 159.448 420.028 165.366 422.238 174.446C424.449 183.525 417.986 190.218 412.406 190.011C406.826 189.803 407.801 186.173 405.629 182.481C403.457 178.79 400.786 176.641 400.61 176.249C400.433 175.858 403.081 164.192 397.87 158.52Z" fill="white"/>
<path d="M412.667 190.402H412.391C408.147 190.249 407.425 188.1 406.581 185.697C406.256 184.65 405.824 183.639 405.291 182.681C404.091 180.685 402.638 178.851 400.97 177.224C400.699 177.004 400.462 176.745 400.264 176.457C400.188 176.295 400.211 176.142 400.326 175.229C400.702 172.312 401.861 163.44 397.593 158.827L397.21 158.413L397.731 158.213C398.169 158.036 408.477 154.045 412.805 156.678C417.134 159.311 420.373 165.167 422.606 174.377C423.165 176.448 423.234 178.62 422.808 180.722C422.382 182.824 421.472 184.798 420.15 186.488C419.265 187.648 418.136 188.6 416.843 189.276C415.55 189.952 414.125 190.337 412.667 190.402ZM400.986 176.127C401.07 176.226 401.3 176.457 401.515 176.679C403.234 178.348 404.728 180.234 405.959 182.29C406.511 183.292 406.964 184.346 407.31 185.437C408.116 187.793 408.707 189.489 412.422 189.627C414.954 189.719 417.618 188.361 419.559 185.981C420.807 184.383 421.664 182.516 422.064 180.528C422.463 178.54 422.394 176.487 421.862 174.53C419.675 165.52 416.489 159.702 412.406 157.254C408.929 155.158 400.663 157.914 398.522 158.689C402.582 163.647 401.462 172.358 401.086 175.282C401.039 175.62 401.001 175.973 400.986 176.127Z" fill="#263238"/>
<path d="M412.606 156.923C411.238 156.259 409.712 155.993 408.2 156.156C410.334 157.737 414.54 161.59 417.295 168.92C421.133 179.074 419.383 184.416 417.433 186.388C415.484 188.361 411.355 189.082 409.566 188.867L408.569 188.752C409.336 189.52 410.48 189.98 412.406 190.049C417.986 190.256 424.448 183.594 422.238 174.484C420.028 165.374 416.812 159.449 412.606 156.923Z" fill="white"/>
<path d="M412.667 190.402H412.391C410.511 190.332 409.213 189.887 408.3 188.989L407.494 188.222L409.613 188.475C411.24 188.667 415.261 188.022 417.157 186.103C419.329 183.908 420.404 178.283 416.935 169.042C414.241 161.866 410.165 158.074 407.97 156.447L407.103 155.802L408.185 155.756C409.771 155.596 411.369 155.894 412.79 156.616C417.057 159.179 420.358 165.15 422.591 174.376C423.15 176.447 423.219 178.619 422.793 180.722C422.367 182.824 421.457 184.798 420.135 186.487C419.252 187.645 418.125 188.596 416.835 189.272C415.545 189.948 414.122 190.334 412.667 190.402ZM410.165 189.25C410.893 189.492 411.655 189.619 412.422 189.626C414.954 189.718 417.618 188.36 419.559 185.981C420.807 184.382 421.664 182.515 422.064 180.527C422.463 178.539 422.394 176.486 421.862 174.529C419.675 165.519 416.489 159.701 412.406 157.253C411.462 156.746 410.407 156.483 409.336 156.485C413.132 159.777 416.002 164.002 417.664 168.742C422.192 180.8 418.846 185.474 417.71 186.618C415.822 188.521 412.176 189.266 410.165 189.25Z" fill="#263238"/>
<path d="M375.612 184.354C375.612 184.354 385.543 187.209 394.8 183.494C404.056 179.78 409.451 173.639 407.417 166.133C405.384 158.627 401.554 158.366 393.165 158.458C384.776 158.55 383.087 159.279 383.087 159.279C383.087 159.279 382.773 180.516 375.612 184.354Z" fill="white"/>
<path d="M384.193 185.804C381.264 185.82 378.345 185.467 375.504 184.753L374.599 184.499L375.428 184.047C382.335 180.301 382.665 159.525 382.665 159.31V159.064L382.888 158.964C382.965 158.964 384.738 158.197 393.111 158.112C401.485 158.028 405.637 158.312 407.74 166.064C409.705 173.309 405.023 179.802 394.899 183.885C391.484 185.198 387.851 185.849 384.193 185.804ZM376.564 184.223C379.142 184.799 387.171 186.173 394.615 183.172C404.34 179.257 408.86 173.094 407.011 166.286C405.046 159.049 401.546 158.803 393.134 158.903C386.487 158.98 384.108 159.44 383.433 159.624C383.371 162.096 382.757 179.549 376.564 184.223Z" fill="#263238"/>
<path d="M386.537 148.473C387.491 138.362 380.697 129.451 371.362 128.57C362.027 127.689 353.686 135.172 352.732 145.284C351.778 155.395 358.572 164.306 367.907 165.187C377.242 166.067 385.583 158.584 386.537 148.473Z" fill="#078DEE"/>
<path d="M369.395 165.65C368.882 165.652 368.37 165.626 367.86 165.573C358.328 164.675 351.366 155.557 352.341 145.25C353.316 134.942 361.858 127.29 371.383 128.188C373.696 128.414 375.936 129.122 377.959 130.267C379.981 131.412 381.741 132.968 383.126 134.834C386.082 138.747 387.453 143.632 386.963 148.511C386.004 158.259 378.298 165.65 369.395 165.65ZM369.879 128.886C361.367 128.886 353.999 135.963 353.116 145.326C352.187 155.212 358.834 163.954 367.944 164.813C377.055 165.673 385.221 158.328 386.157 148.442C386.641 143.756 385.336 139.06 382.504 135.295C381.186 133.518 379.511 132.036 377.587 130.944C375.662 129.852 373.531 129.175 371.329 128.955C370.848 128.909 370.365 128.886 369.879 128.886Z" fill="#263238"/>
<path d="M390.127 169.721C390.993 160.547 384.832 152.462 376.366 151.663C367.901 150.864 360.336 157.654 359.471 166.829C358.605 176.003 364.766 184.088 373.232 184.887C381.697 185.685 389.262 178.896 390.127 169.721Z" fill="#078DEE"/>
<path d="M374.591 185.336C374.131 185.336 373.67 185.336 373.202 185.267C371.105 185.061 369.074 184.417 367.24 183.378C365.407 182.339 363.811 180.928 362.557 179.235C359.873 175.674 358.636 171.229 359.095 166.793C359.978 157.43 367.745 150.461 376.41 151.29C385.075 152.118 391.407 160.392 390.525 169.764C389.688 178.628 382.681 185.336 374.591 185.336ZM375.029 151.988C367.353 151.988 360.661 158.397 359.855 166.87C359.421 171.111 360.602 175.359 363.163 178.766C364.355 180.376 365.871 181.719 367.613 182.708C369.355 183.696 371.285 184.309 373.279 184.507C381.514 185.275 388.913 178.636 389.757 169.687C390.601 160.738 384.584 152.802 376.341 152.034C375.904 152.011 375.451 151.988 375.029 151.988Z" fill="#263238"/>
<path d="M388.007 158.781C388.007 158.781 388.698 143.93 381.445 135.756C374.192 127.582 357.698 134.267 354.958 146.501C352.218 158.735 358.028 177.071 365.573 181.806C373.117 186.542 379.542 181.914 383.847 175.344C388.153 168.774 388.007 158.781 388.007 158.781Z" fill="white"/>
<path d="M371.759 184.163C369.479 184.114 367.26 183.414 365.366 182.144C357.514 177.224 351.873 158.535 354.582 146.432C356.294 138.757 362.933 133.86 368.758 132.348C374 130.99 378.736 132.148 381.729 135.518C388.967 143.653 388.422 158.021 388.391 158.789C388.391 159.349 388.445 169.035 384.17 175.574C381.798 179.189 377.492 184.163 371.759 184.163ZM372.926 132.563C371.583 132.572 370.248 132.75 368.95 133.092C363.355 134.543 356.969 139.279 355.334 146.601C352.679 158.451 358.143 176.718 365.772 181.492C374.161 186.749 380.493 179.772 383.525 175.152C387.708 168.759 387.623 158.881 387.623 158.789C387.623 158.635 388.222 143.999 381.153 136.055C380.115 134.914 378.842 134.011 377.422 133.409C376.001 132.806 374.468 132.517 372.926 132.563Z" fill="#263238"/>
<path d="M285.537 117.189C285.537 117.189 279.796 131.081 278.384 135.042C276.972 139.002 275.483 143.484 275.521 146.048C275.559 148.611 277.14 151.896 278.376 152.004C279.612 152.111 280.51 151.282 280.679 149.54C280.847 147.798 280.778 147.076 281.653 146.117C282.88 144.99 284.211 143.983 285.629 143.108C285.982 142.947 286.251 144.267 285.422 145.71C284.593 147.153 282.774 148.458 283.887 149.924C285 151.39 287.295 149.678 288.492 148.442C289.933 146.896 290.955 145.007 291.462 142.955C291.961 140.813 291.715 136.293 291.715 136.293L301.862 126.714C301.862 126.714 288.484 125.102 285.537 117.189Z" fill="#DEDEDE"/>
<path d="M278.599 152.403H278.345C276.764 152.265 275.168 148.657 275.137 146.071C275.106 143.484 276.503 139.163 278.015 134.934C279.42 131.005 285.122 117.197 285.176 117.051L285.552 116.153L285.898 117.067C288.73 124.665 301.847 126.33 302.015 126.346L302.829 126.446L292.222 136.462C292.26 137.337 292.398 141.067 291.938 143.062C291.41 145.18 290.354 147.129 288.868 148.726C288.2 149.402 286.473 150.975 284.984 150.891C284.724 150.878 284.469 150.808 284.24 150.684C284.01 150.561 283.811 150.387 283.657 150.177C282.628 148.857 283.557 147.66 284.378 146.6C284.654 146.26 284.91 145.904 285.146 145.534C285.504 144.955 285.671 144.278 285.621 143.599C284.334 144.425 283.119 145.36 281.991 146.393C281.339 147.107 281.285 147.652 281.185 148.857C281.185 149.087 281.139 149.325 281.116 149.624C280.894 151.351 279.972 152.403 278.599 152.403ZM285.545 118.172C284.278 121.242 279.934 131.826 278.744 135.172C277.317 139.163 275.874 143.569 275.905 146.04C275.905 148.703 277.54 151.543 278.414 151.62C279.857 151.75 280.226 150.346 280.31 149.502C280.31 149.241 280.356 148.995 280.379 148.78C280.487 147.521 280.556 146.762 281.392 145.856C282.651 144.699 284.021 143.671 285.483 142.786C285.588 142.737 285.705 142.724 285.818 142.749C285.93 142.774 286.031 142.836 286.105 142.924C286.512 143.377 286.481 144.689 285.767 145.933C285.524 146.336 285.252 146.72 284.954 147.084C284.094 148.197 283.603 148.911 284.232 149.724C284.32 149.847 284.435 149.948 284.568 150.02C284.701 150.092 284.849 150.132 285 150.139C285.959 150.192 287.302 149.179 288.285 148.205C289.677 146.71 290.665 144.884 291.155 142.901C291.639 140.836 291.408 136.393 291.408 136.346V136.17L301.11 127.006C298.232 126.507 288.638 124.488 285.545 118.172Z" fill="#263238"/>
<path d="M289.705 146.976C288.108 146.938 286.965 146.554 286.32 145.84C285.974 145.475 285.782 144.992 285.783 144.489L286.55 144.551C286.568 144.841 286.694 145.115 286.903 145.318C287.256 145.694 288.024 146.147 289.72 146.185L289.705 146.976Z" fill="#263238"/>
<path d="M280.817 146.562C279.741 146.555 278.696 146.203 277.836 145.558C276.975 144.912 276.344 144.008 276.035 142.978L276.803 142.778C277.099 143.786 277.759 144.648 278.656 145.196C279.553 145.744 280.621 145.938 281.653 145.741L281.753 146.508C281.442 146.546 281.13 146.564 280.817 146.562Z" fill="#263238"/>
<path d="M278.368 149.409C277.45 149.386 276.563 149.071 275.836 148.511L276.304 147.905C276.396 147.974 278.553 149.601 280.195 147.79L280.763 148.304C280.468 148.651 280.101 148.929 279.687 149.12C279.274 149.311 278.824 149.409 278.368 149.409Z" fill="#263238"/>
<path d="M290.856 136.699C287.348 136.699 284.716 135.817 282.95 134.074C281.644 132.756 280.903 130.98 280.886 129.124H281.653C281.688 130.77 282.35 132.34 283.503 133.514C285.238 135.241 288.016 136.032 291.769 135.878L291.807 136.646L290.856 136.699Z" fill="#263238"/>
<path d="M288.407 113.067C288.407 113.067 285.706 113.113 285.537 117.189C285.368 121.264 288.607 127.543 294.885 128.579C301.163 129.615 305.039 125.885 306.175 122.807C307.311 119.729 292.69 110.673 288.407 113.067Z" fill="#078DEE"/>
<path d="M296.981 129.147C296.258 129.145 295.536 129.083 294.824 128.963C288.323 127.881 284.977 121.288 285.153 117.167C285.314 113.26 287.747 112.753 288.292 112.692C291.554 110.965 299.659 114.994 303.85 118.556C305.346 119.83 307.027 121.626 306.536 122.946C305.766 124.831 304.438 126.436 302.73 127.544C301.022 128.653 299.016 129.212 296.981 129.147ZM288.415 113.452C288.308 113.452 286.113 113.575 285.921 117.205C285.752 121.042 288.876 127.183 294.947 128.203C301.509 129.293 304.924 125.064 305.815 122.677C306.014 122.148 305.469 120.943 303.359 119.139C299.344 115.731 291.378 111.817 288.592 113.398L288.507 113.444L288.415 113.452Z" fill="#263238"/>
<path d="M295.438 101.978C295.438 101.978 288.807 109.952 287.648 114.004C286.489 118.057 289.382 125.517 296.735 126.415C304.088 127.313 308.462 121.211 308.462 121.211L295.438 101.978Z" fill="#DEDEDE"/>
<path d="M298.216 126.89C297.703 126.89 297.191 126.859 296.681 126.798C295.114 126.611 293.606 126.084 292.264 125.253C290.923 124.421 289.779 123.306 288.914 121.986C287.241 119.445 286.611 116.276 287.272 113.904C288.438 109.813 294.862 102.061 295.131 101.731L295.461 101.34L308.923 121.211L308.769 121.433C308.731 121.487 304.794 126.89 298.216 126.89ZM295.407 102.622C294.064 104.272 288.991 110.688 288.016 114.134C287.41 116.268 288.016 119.261 289.551 121.587C290.347 122.821 291.409 123.863 292.658 124.635C293.907 125.408 295.313 125.892 296.773 126.054C303.044 126.821 307.127 122.262 307.971 121.218L295.407 102.622Z" fill="#263238"/>
<path d="M299.229 95.5461C296.272 98.2814 294.462 102.036 294.164 106.053C293.834 112.554 299.82 120.053 307.634 119.331C315.447 118.61 305.661 95.2314 299.229 95.5461Z" fill="#078DEE"/>
<path d="M306.597 119.761C303.409 119.727 300.361 118.45 298.101 116.2C296.718 114.903 295.62 113.332 294.876 111.588C294.132 109.844 293.759 107.965 293.78 106.069C294.075 101.953 295.938 98.1074 298.984 95.3238L299.083 95.2471H299.36C304.341 95.2471 310.412 107.397 310.872 114.089C311.118 117.566 309.974 119.592 307.664 119.807C307.311 119.746 306.958 119.761 306.597 119.761ZM299.383 95.9225C296.568 98.5879 294.845 102.204 294.547 106.069C294.526 107.862 294.878 109.639 295.581 111.288C296.284 112.937 297.322 114.422 298.631 115.647C299.796 116.817 301.203 117.718 302.752 118.288C304.302 118.858 305.957 119.083 307.603 118.948C309.944 118.733 310.266 116.169 310.113 114.051C309.621 107.067 303.596 95.9532 299.383 95.9225Z" fill="#263238"/>
<path d="M302.537 100.357C302.537 100.357 299.014 104.533 301.002 111.578C302.217 115.816 304.636 119.61 307.964 122.5C307.964 122.5 317.58 136.315 321.618 138.472C325.655 140.629 332.8 140.698 347.275 134.819C361.751 128.94 367.461 120.336 369.679 115.923C371.897 111.509 358.88 91.1627 354.383 88.2078C350.012 85.4952 344.875 84.2851 339.754 84.7617C336.991 85.0913 334.252 85.6041 331.557 86.2967L302.537 100.357Z" fill="#078DEE"/>
<path d="M327.865 140.199C325.635 140.27 323.421 139.793 321.418 138.81C317.419 136.691 308.37 123.789 307.657 122.769C304.285 119.834 301.837 115.984 300.611 111.686C298.585 104.54 302.023 100.288 302.146 100.112L302.276 100.012L331.396 85.9204C334.13 85.2185 336.91 84.7056 339.715 84.3854C344.925 83.9088 350.149 85.14 354.597 87.8929C359.11 90.8555 372.419 111.356 370.032 116.099C367.169 121.778 360.929 129.707 347.429 135.187C339.14 138.541 332.739 140.199 327.865 140.199ZM302.745 100.695C302.345 101.232 299.598 105.216 301.378 111.509C302.579 115.671 304.95 119.401 308.209 122.254L308.286 122.331C308.386 122.469 317.895 136.108 321.809 138.18C326.568 140.705 334.857 139.508 347.137 134.519C360.415 129.147 366.54 121.364 369.341 115.8C371.352 111.793 358.727 91.5693 354.168 88.5837C349.871 85.9224 344.825 84.7316 339.792 85.1913C337.05 85.5244 334.332 86.0371 331.657 86.7263L302.745 100.695Z" fill="#263238"/>
<path d="M299.92 98.0474C299.92 98.0474 296.443 102.238 298.439 109.268C299.654 113.506 302.072 117.299 305.4 120.19C305.4 120.19 315.017 134.005 319.054 136.154C323.091 138.303 330.237 138.38 344.712 132.509C359.187 126.637 364.89 118.026 367.116 113.605C369.341 109.184 356.317 88.8527 351.819 85.8977C347.448 83.1814 342.307 81.971 337.183 82.4516C334.422 82.7817 331.686 83.2945 328.993 83.9866L299.92 98.0474Z" fill="white"/>
<path d="M325.325 137.889C323.094 137.961 320.88 137.484 318.878 136.499C314.879 134.373 305.83 121.479 305.116 120.451C301.743 117.521 299.295 113.673 298.07 109.376C296.044 102.23 299.483 97.9781 299.605 97.8016L299.736 97.7018L328.801 83.6103C331.536 82.9084 334.316 82.3955 337.121 82.0753C342.331 81.5948 347.556 82.8262 352.003 85.5828C356.516 88.5454 369.825 109.046 367.438 113.789C364.575 119.468 358.335 127.397 344.835 132.869C336.569 136.231 330.168 137.889 325.325 137.889ZM300.173 98.3926C299.774 98.9298 297.027 102.913 298.807 109.207C300.001 113.372 302.373 117.104 305.638 119.952L305.715 120.036C305.815 120.174 315.324 133.813 319.238 135.885C323.997 138.411 332.286 137.206 344.566 132.224C357.852 126.852 363.976 119.069 366.77 113.505C368.789 109.498 356.163 89.2746 351.604 86.2889C347.308 83.6276 342.262 82.4369 337.229 82.8966C334.486 83.2296 331.768 83.7424 329.093 84.4316L300.173 98.3926Z" fill="#263238"/>
<path d="M334.686 90.1455C337.995 78.5311 331.262 66.4337 319.647 63.1253C308.033 59.8168 295.935 66.5501 292.627 78.1646C289.318 89.779 296.052 101.876 307.666 105.185C319.281 108.493 331.378 101.76 334.686 90.1455Z" fill="#078DEE"/>
<path d="M313.612 106.406C307.815 106.395 302.251 104.123 298.104 100.073C293.956 96.0235 291.552 90.5152 291.404 84.7201C291.255 78.9251 293.372 73.3006 297.307 69.043C301.241 64.7854 306.681 62.2307 312.469 61.9222C318.258 61.6137 323.939 63.5758 328.303 67.3912C332.668 71.2065 335.371 76.5741 335.839 82.3521C336.307 88.1301 334.502 93.8627 330.808 98.3305C327.115 102.798 321.824 105.649 316.061 106.276C315.248 106.365 314.43 106.408 313.612 106.406ZM313.697 62.6581C312.907 62.6597 312.118 62.7032 311.333 62.7886C305.798 63.4028 300.722 66.1519 297.183 70.4511C293.644 74.7504 291.921 80.2607 292.382 85.8101C292.843 91.3596 295.45 96.5104 299.65 100.167C303.849 103.824 309.31 105.698 314.87 105.391C320.43 105.084 325.651 102.621 329.423 98.5238C333.194 94.4271 335.219 89.0206 335.066 83.4542C334.913 77.8877 332.595 72.6005 328.604 68.7168C324.614 64.8332 319.265 62.6595 313.697 62.6581Z" fill="#263238"/>
<path d="M329.897 93.7517C338.341 83.0443 336.506 67.519 325.799 59.075C315.091 50.631 299.566 52.4657 291.122 63.1731C282.678 73.8805 284.513 89.4058 295.22 97.8498C305.928 106.294 321.453 104.459 329.897 93.7517Z" fill="#ABABAB"/>
<path d="M310.466 103.544C305.624 103.534 300.888 102.124 296.831 99.482C292.773 96.8401 289.568 93.08 287.601 88.6559C285.634 84.2317 284.99 79.3327 285.746 74.5504C286.503 69.7682 288.628 65.3073 291.865 61.7065C295.101 58.1057 299.311 55.519 303.986 54.2588C308.661 52.9986 313.601 53.1188 318.209 54.6049C322.817 56.091 326.896 58.8794 329.954 62.6334C333.012 66.3873 334.917 70.9463 335.44 75.7597C336.152 82.3752 334.208 89.0026 330.033 94.1842C325.859 99.3658 319.798 102.677 313.183 103.39C312.28 103.489 311.373 103.541 310.466 103.544ZM310.527 54.1543C309.645 54.1576 308.764 54.2063 307.887 54.3001C303.108 54.82 298.59 56.7451 294.905 59.8322C291.221 62.9193 288.534 67.0297 287.185 71.6437C285.836 76.2577 285.885 81.1681 287.327 85.754C288.769 90.3399 291.537 94.3953 295.284 97.4076C299.03 100.42 303.585 102.254 308.374 102.677C313.162 103.101 317.969 102.095 322.186 99.7868C326.402 97.4787 329.84 93.9722 332.064 89.7105C334.288 85.4487 335.199 80.6233 334.681 75.8441C334.027 69.8909 331.203 64.3873 326.747 60.3859C322.291 56.3844 316.516 54.1658 310.527 54.1543Z" fill="#263238"/>
<path d="M327.451 81.9611C327.845 81.1535 328.014 80.2549 327.942 79.3592C327.788 77.5019 325.708 74.0788 324.872 73.1501C324.035 72.2214 322.669 73.3189 322.669 73.3189L321.134 70.5636C320.268 68.9573 319.092 67.5389 317.674 66.3908C316.256 65.2428 314.624 64.3879 312.872 63.8759C311.121 63.3638 309.285 63.2048 307.472 63.408C305.658 63.6112 303.904 64.1726 302.309 65.0596C300.714 65.9466 299.312 67.1416 298.183 68.5751C297.054 70.0086 296.221 71.6521 295.732 73.4102C295.244 75.1682 295.109 77.0058 295.337 78.8163C295.564 80.6268 296.149 82.374 297.057 83.9566L300.235 89.6746L298.454 86.7887C298.454 86.7887 296.827 87.349 297.157 88.5694C297.487 89.7897 299.298 93.3663 300.795 94.4715C301.562 95.0505 302.484 95.3873 303.443 95.4386L307.641 102.983C309.49 103.191 311.357 103.191 313.206 102.983C317.147 102.556 320.928 101.184 324.226 98.9852C327.525 96.7861 330.245 93.8239 332.155 90.35L327.451 81.9611Z" fill="#263238"/>
<path d="M310.535 103.536C309.545 103.537 308.556 103.481 307.572 103.367H307.38L303.19 95.8304C302.231 95.7336 301.317 95.381 300.542 94.8096C298.915 93.6046 297.096 89.9282 296.766 88.6695C296.685 88.222 296.769 87.7606 297.002 87.3701C297.235 86.9795 297.6 86.686 298.032 86.5435L296.697 84.1489C294.942 80.8729 294.545 77.0384 295.592 73.4726C296.639 69.9068 299.046 66.8955 302.294 65.0885C305.541 63.2815 309.369 62.8235 312.951 63.8133C316.533 64.8032 319.582 67.1616 321.441 70.3797L322.777 72.7667C323.115 72.518 323.53 72.3943 323.95 72.4166C324.369 72.439 324.769 72.6061 325.079 72.8895C325.954 73.8182 328.149 77.3027 328.28 79.3212C328.356 80.219 328.206 81.1217 327.842 81.9461L332.532 90.3887L332.432 90.5806C330.487 94.105 327.722 97.11 324.372 99.342C321.022 101.574 317.184 102.968 313.183 103.406C312.303 103.498 311.419 103.541 310.535 103.536ZM307.856 102.623C312.597 103.145 317.386 102.258 321.626 100.074C325.865 97.8903 329.368 94.5055 331.695 90.3427L327.013 81.9001L327.105 81.7158C327.471 80.9738 327.628 80.1458 327.558 79.3212C327.412 77.5636 325.378 74.225 324.557 73.35C323.951 72.6976 322.93 73.5112 322.884 73.5495L322.531 73.8335L320.773 70.7635C319.917 69.2269 318.766 67.8742 317.386 66.7824C316.007 65.6907 314.426 64.8814 312.733 64.4006C311.041 63.9199 309.27 63.7772 307.523 63.9807C305.776 64.1842 304.085 64.7299 302.549 65.5866C301.012 66.4434 299.659 67.5943 298.568 68.9739C297.476 70.3534 296.667 71.9344 296.186 73.6267C295.215 77.0445 295.642 80.7079 297.372 83.8112L300.549 89.5291L299.889 89.9128L298.278 87.311C297.917 87.5029 297.341 87.8943 297.51 88.5083C297.825 89.6673 299.59 93.1594 301.01 94.2032C301.717 94.7353 302.567 95.0451 303.451 95.0935H303.666L307.856 102.623Z" fill="#263238"/>
<path d="M320.957 75.0533C319.613 72.6421 317.366 70.8632 314.711 70.1076C312.056 69.3521 309.209 69.6816 306.797 71.0238L304.917 72.0677C302.505 73.412 300.726 75.6587 299.971 78.3139C299.215 80.9692 299.545 83.8158 300.887 86.2282L310.304 103.113C311.255 103.12 312.206 103.074 313.152 102.975C316.654 102.595 320.034 101.468 323.064 99.6703C326.093 97.8722 328.702 95.445 330.713 92.5525L320.957 75.0533Z" fill="white"/>
<path d="M310.535 103.535H310.113L300.58 86.4123C299.191 83.91 298.851 80.9587 299.635 78.2061C300.419 75.4535 302.264 73.1244 304.763 71.7299L306.643 70.686C309.145 69.2972 312.095 68.9575 314.846 69.7418C317.598 70.5261 319.925 72.3701 321.318 74.869L331.196 92.6138L331.058 92.8133C329.012 95.7471 326.361 98.2088 323.285 100.033C320.208 101.857 316.777 103.002 313.221 103.39C312.329 103.488 311.432 103.537 310.535 103.535ZM311.878 70.0951C310.178 70.0938 308.505 70.5271 307.02 71.3538L305.139 72.4053C302.817 73.6983 301.103 75.86 300.374 78.4157C299.644 80.9714 299.958 83.7122 301.248 86.0362L310.565 102.768C311.424 102.768 312.283 102.722 313.137 102.63C316.544 102.258 319.834 101.169 322.79 99.4346C325.747 97.7004 328.303 95.3602 330.29 92.5677L320.651 75.245C319.78 73.6825 318.508 72.3811 316.965 71.4756C315.423 70.5701 313.666 70.0934 311.878 70.0951Z" fill="#263238"/>
<path d="M309.445 85.3459C309.798 85.983 309.775 86.6737 309.391 86.8809C309.007 87.0882 308.409 86.7581 308.056 86.1134C307.703 85.4687 307.726 84.7856 308.109 84.5784C308.493 84.3712 309.053 84.6705 309.445 85.3459Z" fill="#263238"/>
<path d="M317.212 80.9634C317.565 81.6005 317.542 82.2912 317.158 82.4985C316.775 82.7057 316.176 82.368 315.815 81.731C315.454 81.0939 315.493 80.4108 315.877 80.1959C316.26 79.981 316.859 80.3341 317.212 80.9634Z" fill="#263238"/>
<path d="M313.904 89.0145L313.582 88.3161L316.782 86.8425L313.083 82.2374L313.682 81.7539L317.995 87.1342L313.904 89.0145Z" fill="#263238"/>
<path d="M319.33 91.1015C319.457 91.3282 319.514 91.5875 319.494 91.8465C319.473 92.1056 319.376 92.3527 319.215 92.5566C319.054 92.7606 318.836 92.9121 318.589 92.992C318.342 93.0719 318.076 93.0766 317.826 93.0055C317.576 92.9344 317.353 92.7906 317.185 92.5926C317.017 92.3945 316.911 92.1509 316.882 91.8927C316.852 91.6346 316.9 91.3734 317.019 91.1424C317.138 90.9113 317.322 90.7208 317.55 90.5949C317.853 90.4269 318.211 90.3858 318.545 90.4808C318.878 90.5757 319.161 90.7988 319.33 91.1015Z" fill="#263238"/>
<path d="M304.349 84.5017L303.581 84.3252C303.581 84.3252 304.272 81.6082 307.741 81.3779L307.787 82.1454C304.901 82.3373 304.356 84.4787 304.349 84.5017Z" fill="#263238"/>
<path d="M313.19 78.9062L312.461 78.6606C312.461 78.6606 313.459 75.7594 317.166 76.5653L317.005 77.3328C313.989 76.6574 313.221 78.8141 313.19 78.9062Z" fill="#263238"/>
<path d="M318.594 100.25C317.382 100.219 316.178 100.042 315.009 99.7208L315.217 98.9533C316.665 99.3627 318.177 99.5007 319.676 99.3601C321.197 99.0985 322.584 98.3303 323.613 97.1803C324.296 95.9662 324.839 94.6788 325.233 93.3428L326 93.5807C325.954 93.7035 325.002 96.6507 324.25 97.6255C323.11 98.9311 321.554 99.8017 319.845 100.089C319.434 100.185 319.015 100.239 318.594 100.25Z" fill="#263238"/>
<path d="M292.345 92.7295C291.775 87.618 292.817 82.4564 295.324 77.9657C297.83 73.475 301.677 69.8794 306.327 67.6814C310.977 65.4834 316.197 64.7926 321.258 65.7057C326.32 66.6188 330.969 69.09 334.558 72.7742C333.688 69.0656 331.971 65.6087 329.543 62.6737C327.115 59.7388 324.04 57.4056 320.56 55.8565C317.08 54.3074 313.289 53.5845 309.483 53.7444C305.677 53.9043 301.96 54.9426 298.622 56.7781C295.284 58.6137 292.416 61.1966 290.243 64.3248C288.069 67.4531 286.649 71.0418 286.093 74.8103C285.537 78.5788 285.861 82.4248 287.039 86.0474C288.216 89.67 290.216 92.971 292.882 95.692C292.644 94.716 292.465 93.7267 292.345 92.7295Z" fill="white"/>
<path d="M293.557 96.9731L292.56 95.9984C289.858 93.2349 287.833 89.8843 286.64 86.2083C285.448 82.5323 285.122 78.6305 285.688 74.8077C286.253 70.9848 287.695 67.3445 289.901 64.1711C292.106 60.9977 295.015 58.3772 298.401 56.5142C301.787 54.6513 305.557 53.5964 309.418 53.4319C313.279 53.2674 317.126 53.9979 320.658 55.5661C324.19 57.1344 327.311 59.498 329.778 62.4724C332.245 65.4467 333.992 68.9512 334.88 72.7121L335.195 74.0553L334.266 73.0652C330.733 69.4489 326.161 67.0245 321.185 66.1298C316.209 65.235 311.079 65.9144 306.507 68.0734C301.936 70.2323 298.152 73.7633 295.682 78.1744C293.212 82.5855 292.18 87.6571 292.729 92.6827C292.838 93.6749 293.01 94.6593 293.243 95.63L293.557 96.9731ZM310.527 54.1537C309.645 54.1566 308.764 54.2053 307.887 54.2996C301.481 55.0044 295.617 58.221 291.579 63.2439C287.542 68.2668 285.662 74.6859 286.351 81.0933C286.873 86.046 288.919 90.7147 292.207 94.4557C292.107 93.8877 292.022 93.3274 291.969 92.7671C291.418 87.7024 292.424 82.5902 294.853 78.1116C297.281 73.633 301.016 70.0006 305.561 67.6982C310.105 65.3959 315.244 64.533 320.291 65.2244C325.338 65.9159 330.055 68.1288 333.813 71.5685C332.325 66.5449 329.255 62.136 325.059 58.9982C320.863 55.8603 315.766 54.1612 310.527 54.1537Z" fill="#263238"/>
<path d="M351.251 107.275C357.353 106.612 361.693 100.485 360.944 93.5913C360.195 86.6971 354.641 81.6457 348.539 82.3085C342.437 82.9714 338.098 89.0976 338.847 95.9918C339.596 102.886 345.149 107.937 351.251 107.275Z" fill="#078DEE"/>
<path d="M350.177 107.718C344.321 107.718 339.186 102.706 338.464 96.0291C338.067 92.7021 338.899 89.3445 340.805 86.5887C341.668 85.2922 342.804 84.201 344.135 83.3926C345.466 82.5841 346.958 82.0781 348.506 81.9104C350.054 81.7427 351.62 81.9174 353.093 82.4222C354.566 82.9269 355.911 83.7493 357.03 84.8312C359.456 87.1366 360.984 90.229 361.341 93.5566C361.698 96.8842 360.862 100.23 358.98 102.998C358.014 104.449 356.705 105.639 355.17 106.464C353.634 107.288 351.919 107.722 350.177 107.726V107.718ZM349.624 82.6284C349.275 82.627 348.927 82.6449 348.58 82.6821C347.147 82.8544 345.768 83.332 344.535 84.0827C343.303 84.8335 342.245 85.8398 341.435 87.0339C339.632 89.6333 338.845 92.804 339.224 95.9447C339.946 102.622 345.364 107.534 351.213 106.897C352.645 106.724 354.024 106.246 355.257 105.495C356.489 104.745 357.547 103.739 358.358 102.545C360.122 99.9258 360.902 96.7669 360.561 93.6275C360.22 90.4881 358.779 87.5706 356.493 85.3914C354.631 83.6413 352.179 82.655 349.624 82.6284Z" fill="#263238"/>
<path d="M375.451 84.8626C370.312 83.6941 365.063 83.0842 359.793 83.0436C350.092 82.8133 344.39 83.7497 342.548 88.5773C340.706 93.4049 341.128 101.203 347.107 103.782C350.445 105.217 355.342 104.388 358.911 103.574C362.48 102.761 371.191 99.1152 373.969 94.7327C376.748 90.3502 376.771 86.8811 375.451 84.8626Z" fill="white"/>
<path d="M351.658 104.917C350.059 104.961 348.467 104.684 346.976 104.104C340.675 101.387 340.414 93.1361 342.218 88.4083C344.175 83.2659 350.161 82.3987 359.87 82.6289C365.179 82.6872 370.466 83.3099 375.643 84.4863L375.781 84.5323L375.865 84.6551C377.446 87.1112 376.901 90.8489 374.33 94.9091C371.46 99.5141 362.349 103.152 359.034 103.912C356.62 104.519 354.146 104.856 351.658 104.917ZM357.176 83.3657C349.394 83.3657 344.558 84.4249 342.931 88.6846C341.235 93.1284 341.442 100.88 347.275 103.398C350.568 104.81 355.457 103.943 358.849 103.167C362.073 102.4 370.915 98.8848 373.67 94.4946C375.973 90.8336 376.556 87.3721 375.259 85.1924C370.184 84.0668 365.007 83.465 359.809 83.3964C358.872 83.3811 357.998 83.3657 357.153 83.3657H357.176Z" fill="#263238"/>
<path d="M385.636 92.2526C385.636 92.2526 382.427 86.4733 376.425 84.8615C370.423 83.2497 364.959 87.164 362.472 91.0016C359.985 94.8391 361.091 96.0978 361.091 96.0978C361.091 96.0978 369.856 91.7077 374.392 90.8864C378.927 90.0652 385.636 92.2526 385.636 92.2526Z" fill="#078DEE"/>
<path d="M361.014 96.5745L360.822 96.3519C360.691 96.1984 359.602 94.7401 362.173 90.7951C364.882 86.6275 370.546 82.8821 376.548 84.4939C382.55 86.1056 385.835 91.8236 385.973 92.0615L386.449 92.9211L385.52 92.6141C385.451 92.6141 378.866 90.4804 374.484 91.271C370.101 92.0615 361.367 96.3979 361.282 96.444L361.014 96.5745ZM373.655 84.8776C369.05 84.8776 364.967 87.9476 362.817 91.2096C361.167 93.7347 361.175 95.0471 361.282 95.5767C363.009 94.7324 370.262 91.2403 374.33 90.5111C377.907 89.8664 382.688 91.01 384.738 91.5856C383.602 89.9508 380.716 86.4126 376.333 85.2307C375.46 84.996 374.559 84.8773 373.655 84.8776Z" fill="#263238"/>
<path d="M360.868 99.9898C360.868 99.9898 359.456 95.9527 365.128 90.7106C370.8 85.4685 381.245 87.3565 384.599 90.8564C387.953 94.3562 387.593 100.527 384.899 103.513C383.433 105.214 381.594 106.553 379.526 107.427C379.526 107.427 374.269 98.4317 360.868 99.9898Z" fill="white"/>
<path d="M379.373 107.895L379.211 107.618C379.165 107.534 373.885 98.861 360.937 100.373H360.63L360.523 100.081C360.469 99.9048 359.103 95.7372 364.89 90.3954C370.677 85.0535 381.222 86.7497 384.899 90.5489C388.46 94.2253 387.969 100.649 385.213 103.727C383.705 105.481 381.807 106.858 379.672 107.749L379.373 107.895ZM363.907 99.452C373.931 99.452 378.728 105.592 379.695 106.974C381.582 106.098 383.266 104.838 384.638 103.274C387.194 100.442 387.623 94.5246 384.354 91.1475C381.284 87.9624 371.145 85.7136 365.412 91.0171C360.876 95.2077 361.022 98.6077 361.183 99.5978C362.098 99.493 363.017 99.4366 363.938 99.429L363.907 99.452Z" fill="#263238"/>
<path d="M356.163 107.925C356.163 107.925 358.335 102.23 360.868 99.9892C363.401 97.748 371.061 96.8424 376.755 98.8072C382.45 100.772 381.445 107.327 380.378 109.376C379.311 111.425 376.049 113.075 376.049 113.075L356.163 107.925Z" fill="white"/>
<path d="M376.118 113.482L355.649 108.186L355.802 107.787C355.895 107.549 358.036 101.954 360.638 99.7054C363.24 97.4566 370.938 96.3821 376.901 98.439C377.836 98.7262 378.694 99.2204 379.412 99.8848C380.129 100.549 380.688 101.367 381.046 102.277C381.898 104.651 381.788 107.266 380.739 109.56C379.634 111.702 376.379 113.352 376.249 113.398L376.118 113.482ZM356.677 107.665L376.026 112.669C376.625 112.346 379.181 110.896 380.063 109.2C380.998 107.1 381.094 104.721 380.332 102.553C380.013 101.749 379.517 101.027 378.88 100.441C378.244 99.8548 377.483 99.4198 376.656 99.1682C371.014 97.2264 363.554 98.1934 361.137 100.281C359.072 102.077 357.222 106.337 356.677 107.665Z" fill="#263238"/>
<path d="M356.808 106.997C355.922 107.251 355.124 107.748 354.505 108.432C353.439 109.696 352.135 110.739 350.668 111.502C348.365 112.83 345.871 112.884 346.784 115.34C347.698 117.796 351.105 117.45 352.778 117.051C354.452 116.652 355.142 116.038 356.432 115.04C357.721 114.043 358.696 107.166 358.734 106.828C358.773 106.49 356.808 106.997 356.808 106.997Z" fill="white"/>
<path d="M350.43 117.781C348.856 117.781 347.061 117.343 346.4 115.532C345.587 113.345 347.114 112.7 348.703 112.017C349.292 111.781 349.866 111.509 350.422 111.203C351.681 110.568 352.806 109.698 353.738 108.64L354.198 108.164C354.873 107.426 355.743 106.893 356.708 106.629C358.612 106.215 358.849 106.452 358.965 106.568L359.11 106.713V106.982C359.11 106.982 359.11 107.128 359.057 107.304C358.289 112.101 357.483 114.757 356.639 115.417L356.347 115.64C355.352 116.543 354.146 117.181 352.84 117.497C352.05 117.681 351.241 117.777 350.43 117.781ZM356.885 107.373C356.07 107.61 355.337 108.067 354.766 108.694L354.321 109.169C353.333 110.276 352.149 111.192 350.829 111.871C350.244 112.189 349.642 112.473 349.025 112.723C347.275 113.49 346.585 113.821 347.114 115.263C347.997 117.643 351.581 116.998 352.663 116.737C353.864 116.45 354.971 115.861 355.879 115.026L356.163 114.803C356.478 114.557 357.299 113.337 358.297 107.174C357.822 107.218 357.35 107.293 356.885 107.396V107.373Z" fill="#263238"/>
<path d="M362.91 104.718C362.91 104.718 359.486 103.95 357.806 105.271C356.125 106.591 356.271 111.894 356.401 115.102C356.532 118.311 357.675 120.882 358.903 121.242C359.387 121.435 359.911 121.506 360.428 121.45C360.946 121.394 361.442 121.212 361.873 120.92C362.365 120.437 361.873 115.762 362.196 111.963C362.518 108.164 362.91 104.718 362.91 104.718Z" fill="white"/>
<path d="M360.185 121.871C359.708 121.872 359.234 121.797 358.78 121.649C357.314 121.165 356.155 118.417 356.017 115.117C355.833 110.658 355.895 106.337 357.552 104.978C359.356 103.505 362.833 104.311 362.979 104.349L363.309 104.426L363.27 104.763C363.27 104.763 362.894 108.279 362.557 112.032C362.403 113.812 362.434 115.816 362.457 117.404C362.457 119.991 362.457 120.858 362.134 121.203C361.591 121.662 360.895 121.9 360.185 121.871ZM360.691 104.863C359.758 104.803 358.83 105.051 358.051 105.569C356.439 106.874 356.685 112.63 356.785 115.086C356.915 118.279 358.051 120.597 359.018 120.919C359.438 121.085 359.89 121.151 360.339 121.111C360.788 121.071 361.221 120.926 361.605 120.689C361.739 119.612 361.773 118.526 361.705 117.443C361.705 115.816 361.651 113.782 361.812 111.97C362.088 108.9 362.388 106.007 362.487 105.063C361.895 104.949 361.294 104.882 360.691 104.863Z" fill="#263238"/>
<path d="M362.91 104.717C361.951 107.139 361.286 109.667 360.929 112.247C360.484 116.084 362.549 121.211 363.347 121.656C364.145 122.102 366.417 121.971 366.916 120.843C367.415 119.715 367.054 115.862 367.116 113.605C367.177 111.349 368.259 106.506 368.098 105.017C367.937 103.528 364.59 103.351 362.91 104.717Z" fill="white"/>
<path d="M364.552 122.285C364.072 122.303 363.595 122.203 363.163 121.994C362.111 121.403 360.093 115.923 360.546 112.2C360.907 109.587 361.58 107.025 362.549 104.571L362.587 104.479L362.664 104.418C363.327 103.921 364.101 103.592 364.918 103.458C365.736 103.324 366.574 103.39 367.361 103.65C367.649 103.74 367.906 103.908 368.104 104.136C368.302 104.364 368.433 104.642 368.482 104.94C368.464 106.448 368.307 107.951 368.014 109.43C367.771 110.807 367.6 112.195 367.499 113.59C367.499 114.303 367.499 115.178 367.538 116.107C367.599 118.172 367.653 120.121 367.269 120.973C367.126 121.238 366.929 121.47 366.691 121.655C366.453 121.84 366.18 121.974 365.888 122.048C365.457 122.196 365.007 122.276 364.552 122.285ZM363.224 104.955C362.304 107.318 361.663 109.781 361.313 112.292C360.868 116.13 362.971 120.996 363.539 121.326C364.221 121.571 364.967 121.571 365.65 121.326C365.84 121.282 366.019 121.2 366.178 121.085C366.336 120.97 366.469 120.825 366.571 120.658C366.885 119.975 366.824 117.934 366.77 116.138C366.77 115.201 366.716 114.311 366.732 113.574C366.829 112.149 367.004 110.729 367.254 109.322C367.531 107.908 367.687 106.473 367.722 105.032C367.683 104.686 367.346 104.479 367.069 104.364C366.426 104.165 365.745 104.114 365.079 104.216C364.413 104.319 363.778 104.571 363.224 104.955Z" fill="#263238"/>
<path d="M368.098 105.016C368.098 105.016 370.147 104.042 371.628 104.847C373.11 105.653 373.463 107.871 373.263 108.969C373.064 110.066 372.365 116.59 371.889 118.179C371.414 119.768 370.209 120.482 369.234 120.405C368.259 120.328 367.584 119.077 367.43 117.696C367.277 116.314 367.116 113.635 367.116 113.635L368.098 105.016Z" fill="white"/>
<path d="M369.41 120.766H369.188C367.921 120.628 367.208 119.131 367.054 117.696C366.901 116.261 366.732 113.644 366.732 113.613L367.776 104.763L367.967 104.671C368.06 104.625 370.209 103.62 371.843 104.51C373.478 105.4 373.877 107.918 373.67 109.038C373.609 109.384 373.486 110.343 373.348 111.448C373.11 113.737 372.756 116.011 372.289 118.264C372.141 118.935 371.781 119.54 371.263 119.99C370.745 120.441 370.095 120.713 369.41 120.766ZM367.499 113.651C367.499 113.651 367.668 116.284 367.814 117.627C367.96 118.97 368.581 119.929 369.272 119.991C369.963 120.052 371.099 119.423 371.529 118.041C371.836 117.021 372.296 113.613 372.55 111.356C372.703 110.19 372.818 109.269 372.887 108.9C373.048 108.002 372.795 105.915 371.444 105.186C370.4 104.618 368.965 105.078 368.459 105.285L367.499 113.651Z" fill="#263238"/>
<path d="M373.256 106.928C374.487 107.205 375.684 107.617 376.825 108.156C377.638 108.708 377.945 110.504 377.385 113.252C376.825 116 376.026 117.596 374.752 117.734C373.478 117.872 372.45 116.261 372.45 115.294C372.45 114.327 373.494 109.138 373.256 106.928Z" fill="white"/>
<path d="M374.591 118.126C374.051 118.11 373.537 117.894 373.148 117.52C372.51 116.948 372.119 116.149 372.058 115.294C372.058 114.949 372.173 114.197 372.327 113.153C372.603 111.265 373.033 108.417 372.872 107.013L372.81 106.468L373.348 106.598C374.626 106.88 375.867 107.307 377.047 107.872C378.068 108.578 378.329 110.582 377.761 113.368C377.116 116.522 376.226 117.973 374.791 118.157L374.591 118.126ZM373.67 107.435C373.62 109.391 373.425 111.341 373.087 113.268C372.949 114.197 372.826 115.002 372.826 115.294C372.884 115.931 373.184 116.521 373.662 116.944C373.799 117.081 373.962 117.188 374.141 117.258C374.321 117.328 374.514 117.359 374.706 117.351C375.704 117.244 376.456 115.877 377.009 113.176C377.592 110.305 377.162 108.847 376.61 108.471C375.674 108.011 374.687 107.663 373.67 107.435Z" fill="#263238"/>
<path d="M336.83 109.007C338.557 111.794 337.942 115.301 335.463 116.836C332.984 118.371 329.569 117.358 327.842 114.534C326.115 111.709 326.722 108.24 329.208 106.705C331.695 105.17 335.095 106.214 336.83 109.007Z" fill="#078DEE"/>
<path d="M332.923 117.934C331.828 117.906 330.757 117.602 329.811 117.049C328.865 116.496 328.074 115.713 327.512 114.772C326.638 113.387 326.302 111.729 326.568 110.113C326.686 109.358 326.965 108.636 327.384 107.997C327.804 107.358 328.355 106.815 329.001 106.406C331.664 104.764 335.318 105.838 337.152 108.801C338.025 110.186 338.363 111.842 338.104 113.459C337.984 114.216 337.705 114.937 337.284 115.577C336.863 116.216 336.31 116.758 335.663 117.167C334.839 117.673 333.89 117.939 332.923 117.934ZM331.749 106.421C330.923 106.416 330.112 106.642 329.408 107.074C328.853 107.425 328.379 107.891 328.019 108.44C327.659 108.99 327.421 109.61 327.32 110.259C327.089 111.691 327.392 113.158 328.172 114.38C329.784 116.99 332.961 117.949 335.256 116.529C335.811 116.178 336.285 115.712 336.645 115.163C337.005 114.613 337.243 113.993 337.344 113.344C337.577 111.913 337.276 110.447 336.5 109.223C336.011 108.39 335.318 107.694 334.487 107.202C333.656 106.709 332.714 106.435 331.749 106.406V106.421Z" fill="#263238"/>
<path d="M323.26 118.402C324.473 120.359 324.028 122.815 322.308 123.889C320.589 124.964 318.179 124.258 316.936 122.301C315.692 120.343 316.168 117.887 317.887 116.805C319.607 115.723 322.017 116.445 323.26 118.402Z" fill="#263238"/>
<path d="M334.358 123.077C335.571 125.034 335.126 127.49 333.407 128.564C331.687 129.639 329.277 128.933 328.034 126.975C326.791 125.018 327.266 122.562 328.986 121.48C330.705 120.398 333.153 121.119 334.358 123.077Z" fill="#ABABAB"/>
<path d="M331.618 129.454C331.215 129.452 330.815 129.392 330.429 129.278C329.31 128.922 328.356 128.178 327.738 127.18C327.12 126.182 326.879 124.996 327.059 123.836C327.144 123.291 327.346 122.771 327.651 122.311C327.955 121.851 328.355 121.462 328.824 121.171C329.292 120.879 329.818 120.693 330.365 120.623C330.912 120.553 331.468 120.602 331.994 120.766C333.12 121.113 334.079 121.861 334.688 122.869C336.008 125.003 335.525 127.697 333.606 128.886C333.009 129.257 332.321 129.454 331.618 129.454ZM330.805 121.365C330.246 121.36 329.697 121.514 329.224 121.81C328.846 122.046 328.524 122.361 328.28 122.733C328.036 123.105 327.876 123.526 327.811 123.967C327.656 124.946 327.856 125.949 328.375 126.793C328.895 127.638 329.699 128.269 330.643 128.572C331.066 128.707 331.513 128.751 331.954 128.699C332.395 128.647 332.819 128.502 333.199 128.272C334.734 127.305 335.133 125.08 334.036 123.307C333.525 122.462 332.722 121.833 331.779 121.541C331.465 121.434 331.137 121.375 330.805 121.365Z" fill="#263238"/>
</svg>
