<svg width="424" height="402" viewBox="0 0 424 402" fill="none" xmlns="http://www.w3.org/2000/svg">
<g opacity="0.3">
<path d="M357.35 85.7705C352.89 83.3405 350.86 85.3605 349.24 83.3405C347.62 81.3205 353.7 76.0405 341.54 70.7705C341.54 70.7705 340.73 59.4205 324.11 59.0105C307.49 58.6005 311.91 70.3605 307.48 73.2005C303.05 76.0405 301.81 71.5805 297.35 74.4205C292.89 77.2605 294.92 82.9305 291.27 83.7405C287.62 84.5505 282.75 80.0905 278.27 82.9305C273.79 85.7705 273.82 88.2005 271.79 88.2005C269.76 88.2005 265.71 86.5805 263.27 88.2005C260.83 89.8205 258 91.8505 258 91.8505H360.59C360.59 91.8505 361.81 88.2005 357.35 85.7705Z" fill="rgb(7, 141, 238)"/>
<path opacity="0.5" d="M357.35 85.7705C352.89 83.3405 350.86 85.3605 349.24 83.3405C347.62 81.3205 353.7 76.0405 341.54 70.7705C341.54 70.7705 340.73 59.4205 324.11 59.0105C307.49 58.6005 311.91 70.3605 307.48 73.2005C303.05 76.0405 301.81 71.5805 297.35 74.4205C292.89 77.2605 294.92 82.9305 291.27 83.7405C287.62 84.5505 282.75 80.0905 278.27 82.9305C273.79 85.7705 273.82 88.2005 271.79 88.2005C269.76 88.2005 265.71 86.5805 263.27 88.2005C260.83 89.8205 258 91.8505 258 91.8505H360.59C360.59 91.8505 361.81 88.2005 357.35 85.7705Z" fill="rgb(7, 141, 238)"/>
</g>
<g opacity="0.3">
<path d="M41.53 130C41.53 130 15.22 192.79 48.23 256.93C81.24 321.07 151.8 355.71 208.23 385.28C264.66 414.85 324.37 401.74 353.8 355.1C383.23 308.46 345.41 274.29 347.1 207.19C348.79 140.09 359.44 122.46 324.26 65.19C289.08 7.92 199.46 -5.93 130.36 35.11C61.26 76.15 41.53 130 41.53 130Z" fill="rgb(7, 141, 238)"/>
<path opacity="0.7" d="M41.53 130C41.53 130 15.22 192.79 48.23 256.93C81.24 321.07 151.8 355.71 208.23 385.28C264.66 414.85 324.37 401.74 353.8 355.1C383.23 308.46 345.41 274.29 347.1 207.19C348.79 140.09 359.44 122.46 324.26 65.19C289.08 7.92 199.46 -5.93 130.36 35.11C61.26 76.15 41.53 130 41.53 130Z" fill="white"/>
</g>
<path d="M406.3 32.66C400.87 29.66 398.4 32.16 396.42 29.66C394.44 27.16 401.85 20.77 387.04 14.35C387.04 14.35 386.04 0.520014 365.81 0.030014C345.58 -0.459986 351 13.89 345.56 17.35C340.12 20.81 338.65 15.35 333.22 18.83C327.79 22.31 330.22 29.2 325.81 30.19C321.4 31.18 315.44 25.75 310.01 29.19C304.58 32.63 304.58 35.61 302.11 35.61C299.64 35.61 294.7 33.61 291.74 35.61C288.78 37.61 285.32 40.06 285.32 40.06H410.25C410.25 40.06 411.73 35.62 406.3 32.66Z" fill="rgb(7, 141, 238)"/>
<g opacity="0.5">
<path d="M406.3 32.66C400.87 29.66 398.4 32.16 396.42 29.66C394.44 27.16 401.85 20.77 387.04 14.35C387.04 14.35 386.04 0.520014 365.81 0.030014C345.58 -0.459986 351 13.89 345.56 17.35C340.12 20.81 338.65 15.35 333.22 18.83C327.79 22.31 330.22 29.2 325.81 30.19C321.4 31.18 315.44 25.75 310.01 29.19C304.58 32.63 304.58 35.61 302.11 35.61C299.64 35.61 294.7 33.61 291.74 35.61C288.78 37.61 285.32 40.06 285.32 40.06H410.25C410.25 40.06 411.73 35.62 406.3 32.66Z" fill="white"/>
</g>
<path d="M337.09 94.9C333.76 93.09 332.25 94.6 331.09 93.09C329.93 91.58 334.42 87.65 325.35 83.72C325.35 83.72 324.75 75.26 312.35 74.96C299.95 74.66 303.29 83.42 299.96 85.54C296.63 87.66 295.73 84.33 292.41 86.44C289.09 88.55 290.6 92.79 287.88 93.39C285.16 93.99 281.53 90.67 278.21 92.79C274.89 94.91 274.88 96.71 273.37 96.71C271.86 96.71 268.84 95.51 267.03 96.71C265.22 97.91 263.1 99.43 263.1 99.43H339.5C339.5 99.43 340.41 96.71 337.09 94.9Z" fill="rgb(7, 141, 238)"/>
<g opacity="0.5">
<path d="M337.09 94.9C333.76 93.09 332.25 94.6 331.09 93.09C329.93 91.58 334.42 87.65 325.35 83.72C325.35 83.72 324.75 75.26 312.35 74.96C299.95 74.66 303.29 83.42 299.96 85.54C296.63 87.66 295.73 84.33 292.41 86.44C289.09 88.55 290.6 92.79 287.88 93.39C285.16 93.99 281.53 90.67 278.21 92.79C274.89 94.91 274.88 96.71 273.37 96.71C271.86 96.71 268.84 95.51 267.03 96.71C265.22 97.91 263.1 99.43 263.1 99.43H339.5C339.5 99.43 340.41 96.71 337.09 94.9Z" fill="white"/>
</g>
<path d="M186.7 193.18C186.7 193.18 212.94 195.77 226.24 212.04C226.24 212.04 240.29 193.19 265.53 193.58C271.694 186.14 275.618 177.103 276.845 167.52C278.072 157.937 276.552 148.203 272.461 139.45C268.371 130.698 261.879 123.287 253.74 118.081C245.602 112.874 236.152 110.087 226.491 110.043C216.829 109.999 207.355 112.7 199.169 117.831C190.983 122.963 184.423 130.314 180.253 139.029C176.083 147.744 174.474 157.464 175.614 167.058C176.753 176.652 180.594 185.724 186.69 193.22L186.7 193.18Z" fill="rgb(7, 141, 238)"/>
<path opacity="0.5" d="M186.7 193.18C186.7 193.18 212.94 195.77 226.24 212.04C226.24 212.04 240.29 193.19 265.53 193.58C271.694 186.14 275.618 177.103 276.845 167.52C278.072 157.937 276.552 148.203 272.461 139.45C268.371 130.698 261.879 123.287 253.74 118.081C245.602 112.874 236.152 110.087 226.491 110.043C216.829 109.999 207.355 112.7 199.169 117.831C190.983 122.963 184.423 130.314 180.253 139.029C176.083 147.744 174.474 157.464 175.614 167.058C176.753 176.652 180.594 185.724 186.69 193.22L186.7 193.18Z" fill="white"/>
<path d="M225.37 113.62L224.49 379.86H228.92L225.37 113.62Z" fill="#828282"/>
<path d="M226.7 207.08C226.7 207.08 235.56 191.13 251.51 186.26C251.51 186.26 234.67 190.26 226.26 203.98L226.7 207.08Z" fill="#828282"/>
<path d="M225.74 162.33C225.74 162.33 235.56 145.95 251.51 141.08C251.51 141.08 234.15 146.08 225.74 159.81V162.33Z" fill="#828282"/>
<path d="M226.08 185.63C226.08 185.63 235.56 168.54 251.51 163.63C251.51 163.63 234.27 168.41 225.85 182.14L226.08 185.63Z" fill="#828282"/>
<path d="M225.39 173.42C225.39 173.42 216.84 157.47 201.45 152.6C201.45 152.6 217.69 156.6 225.82 170.32L225.39 173.42Z" fill="#828282"/>
<path d="M225.39 195.56C225.39 195.56 216.84 179.62 201.45 174.75C201.45 174.75 217.69 178.75 225.82 192.46L225.39 195.56Z" fill="#828282"/>
<path d="M36.08 154.36C36.08 154.36 81.91 158.89 105.14 187.3C105.14 187.3 129.68 154.39 173.76 155.07C184.531 142.075 191.389 126.288 193.535 109.547C195.682 92.8054 193.028 75.7988 185.884 60.507C178.74 45.2152 167.399 32.2675 153.181 23.1715C138.963 14.0754 122.454 9.2052 105.576 9.12798C88.6981 9.05076 72.1452 13.7697 57.845 22.7353C43.5447 31.7009 32.0856 44.5443 24.8017 59.77C17.5178 74.9958 14.7089 91.9774 16.702 108.738C18.6952 125.498 25.4084 141.347 36.06 154.44L36.08 154.36Z" fill="rgb(7, 141, 238)"/>
<path opacity="0.3" d="M36.08 154.36C36.08 154.36 81.91 158.89 105.14 187.3C105.14 187.3 129.68 154.39 173.76 155.07C184.531 142.075 191.389 126.288 193.535 109.547C195.682 92.8054 193.028 75.7988 185.884 60.507C178.74 45.2152 167.399 32.2675 153.181 23.1715C138.963 14.0754 122.454 9.2052 105.576 9.12798C88.6981 9.05076 72.1452 13.7697 57.845 22.7353C43.5447 31.7009 32.0856 44.5443 24.8017 59.77C17.5178 74.9958 14.7089 91.9774 16.702 108.738C18.6952 125.498 25.4084 141.347 36.06 154.44L36.08 154.36Z" fill="white"/>
<path d="M103.62 15.42L102.07 379.86H109.81L103.62 15.42Z" fill="#828282"/>
<path d="M105.94 178.65C105.94 178.65 121.41 150.8 149.26 142.29C149.26 142.29 119.87 149.29 105.17 173.23L105.94 178.65Z" fill="#828282"/>
<path d="M104.78 101.29C104.78 101.29 121.41 71.89 149.26 63.38C149.26 63.38 119.59 71.45 104.89 95.43L104.78 101.29Z" fill="#828282"/>
<path d="M105.24 140.19C105.24 140.19 121.41 111.34 149.24 102.83C149.24 102.83 119.85 109.83 105.15 133.78L105.24 140.19Z" fill="#828282"/>
<path d="M103.65 119.85C103.65 119.85 88.72 92 61.85 83.49C61.85 83.49 90.21 90.49 104.39 114.44L103.65 119.85Z" fill="#828282"/>
<path d="M103.65 158.53C103.65 158.53 88.72 130.68 61.85 122.17C61.85 122.17 90.21 129.17 104.39 153.17L103.65 158.53Z" fill="#828282"/>
<path d="M365.45 244.72C365.4 244.72 366.04 241.53 366.11 241.34C366.85 239.05 369.62 235.08 372.3 235.09C372.746 235.103 373.184 235.209 373.586 235.403C373.988 235.596 374.344 235.872 374.632 236.213C374.92 236.554 375.133 236.951 375.257 237.38C375.38 237.808 375.412 238.258 375.35 238.7C375.16 240.58 373.47 242.19 371.93 243.12C370.14 244.21 365.45 244.72 365.45 244.72Z" fill="rgb(7, 141, 238)"/>
<path d="M360.25 223.22C362.78 224.12 364.03 228.8 363.95 231.22C363.95 231.42 363.47 234.65 363.42 234.63H363.37C363.58 235.37 363.79 236.16 364 237.03C364.38 238.64 364.79 240.47 365.11 242.48C365.473 244.648 365.71 246.835 365.82 249.03C365.963 251.486 365.879 253.95 365.57 256.39C365.57 256.39 365.57 256.45 365.57 256.48C365.9 255.76 366.89 253.8 366.99 253.66C368.3 251.66 371.99 248.55 374.61 249.26C375.037 249.39 375.432 249.608 375.769 249.901C376.107 250.194 376.378 250.554 376.567 250.959C376.756 251.363 376.857 251.803 376.865 252.25C376.872 252.696 376.785 253.139 376.61 253.55C375.93 255.32 373.87 256.42 372.15 256.91C370.2 257.47 365.87 256.81 365.53 256.76C365.161 259.236 364.627 261.685 363.93 264.09C363.54 265.5 363.09 266.9 362.63 268.3L363.26 267.08C364.58 265.08 368.26 261.97 370.89 262.69C371.317 262.82 371.712 263.038 372.049 263.331C372.387 263.624 372.658 263.984 372.847 264.389C373.036 264.793 373.137 265.233 373.145 265.68C373.152 266.126 373.065 266.569 372.89 266.98C372.2 268.74 370.15 269.85 368.42 270.34C366.69 270.83 362.97 270.34 361.99 270.21L361.45 271.82C360.56 274.38 359.67 276.94 358.86 279.47C358.58 280.36 358.34 281.25 358.09 282.14C358.36 281.6 358.59 281.14 358.64 281.14C359.95 279.14 363.64 276.03 366.26 276.74C366.687 276.87 367.082 277.088 367.419 277.381C367.757 277.674 368.028 278.034 368.217 278.439C368.406 278.844 368.507 279.283 368.515 279.73C368.522 280.176 368.435 280.619 368.26 281.03C367.58 282.8 365.52 283.9 363.8 284.39C362.08 284.88 358.71 284.45 357.54 284.29C357.31 285.21 357.08 286.13 356.91 287.03C356.8 287.65 356.65 288.23 356.57 288.86C356.49 289.49 356.4 290.09 356.32 290.7C356.2 291.87 356.06 293.08 355.97 294.23C355.91 295.03 355.86 295.79 355.8 296.55C356.07 295.66 356.64 293.93 356.71 293.79C357.656 291.906 359.067 290.296 360.81 289.11C360.911 288.898 361.028 288.694 361.16 288.5C361.402 288.125 361.721 287.806 362.095 287.563C362.47 287.32 362.891 287.159 363.332 287.09C363.773 287.021 364.223 287.046 364.653 287.164C365.084 287.281 365.485 287.487 365.83 287.77C367.83 289.52 367.36 294.34 366.42 296.55C366.37 296.68 365.61 298.02 365.12 298.86C365.48 298.41 365.83 297.97 366.21 297.51C366.96 296.6 367.73 295.71 368.56 294.75L369.81 293.39C370.22 292.92 370.72 292.48 371.17 292.03C372.25 291.03 373.38 290.03 374.55 289.03C373.76 288.37 370.95 286.03 370.15 284.4C369.35 282.77 368.77 280.53 369.61 278.83C369.795 278.424 370.063 278.062 370.397 277.767C370.731 277.471 371.123 277.249 371.549 277.115C371.974 276.982 372.423 276.939 372.866 276.989C373.309 277.04 373.736 277.183 374.12 277.41C376.39 278.83 376.62 283.67 376.03 285.99C376.03 286.14 375.38 287.76 375.03 288.64C375.74 288.06 376.44 287.47 377.18 286.9C379.3 285.26 381.5 283.67 383.69 282.06C384.36 281.58 385.02 281.06 385.69 280.58C385.4 280.35 382.01 277.58 381.11 275.81C380.31 274.21 379.73 271.95 380.57 270.25C380.744 269.844 381 269.479 381.322 269.177C381.645 268.876 382.027 268.645 382.444 268.499C382.86 268.353 383.303 268.296 383.743 268.33C384.183 268.365 384.611 268.491 385 268.7C387.27 270.13 387.5 274.96 386.91 277.29C386.91 277.46 385.99 279.79 385.73 280.37C387.2 279.29 388.64 278.19 390.03 277.05C391.905 275.517 393.679 273.863 395.34 272.1C395.21 271.99 391.65 269.1 390.73 267.3C389.93 265.7 389.35 263.44 390.19 261.74C390.375 261.334 390.643 260.972 390.977 260.677C391.311 260.381 391.703 260.159 392.128 260.024C392.553 259.889 393.001 259.845 393.444 259.894C393.887 259.944 394.315 260.085 394.7 260.31C396.97 261.74 397.2 266.58 396.61 268.9C396.61 269.05 395.9 270.83 395.56 271.67L395.69 271.75C397.316 269.932 398.776 267.97 400.05 265.89C400.77 264.76 401.39 263.63 401.97 262.53C401.26 262.06 397.97 259.92 396.97 258.35C395.97 256.78 395.18 254.66 395.82 252.88C395.962 252.453 396.193 252.061 396.498 251.729C396.803 251.398 397.174 251.135 397.588 250.957C398.002 250.78 398.449 250.692 398.899 250.699C399.349 250.706 399.792 250.809 400.2 251C402.62 252.17 403.37 257 403.04 259.33C403.04 259.46 402.7 260.75 402.44 261.69C402.7 261.19 402.97 260.69 403.2 260.18C404.09 258.35 404.78 256.63 405.39 255.09C405.72 254.21 406.01 253.41 406.27 252.66C405.81 251.84 403.97 248.52 403.79 246.66C403.61 244.8 403.9 242.56 405.3 241.28C405.617 240.966 405.997 240.722 406.415 240.565C406.833 240.408 407.279 240.341 407.725 240.368C408.171 240.396 408.605 240.517 409.001 240.724C409.396 240.931 409.744 241.219 410.02 241.57C411.62 243.72 410.09 248.31 408.7 250.27C408.58 250.44 406.4 252.87 406.38 252.82V252.77C406.15 253.5 405.88 254.28 405.58 255.12C405.01 256.67 404.35 258.42 403.5 260.28C402.611 262.285 401.609 264.238 400.5 266.13C399.258 268.253 397.829 270.261 396.23 272.13L396.17 272.2C396.84 271.79 398.75 270.69 398.9 270.63C401.11 269.68 405.9 269.15 407.68 271.17C407.964 271.514 408.173 271.914 408.293 272.344C408.412 272.774 408.44 273.225 408.374 273.666C408.308 274.108 408.149 274.53 407.909 274.906C407.669 275.283 407.353 275.604 406.98 275.85C405.43 276.94 403.11 276.73 401.4 276.19C399.48 275.57 396.22 272.64 395.97 272.41C394.297 274.273 392.499 276.02 390.59 277.64C389.49 278.64 388.34 279.52 387.18 280.43L388.38 279.76C390.59 278.82 395.38 278.28 397.17 280.31C397.454 280.654 397.662 281.054 397.78 281.483C397.899 281.913 397.926 282.363 397.859 282.804C397.792 283.244 397.632 283.666 397.391 284.041C397.15 284.416 396.833 284.736 396.46 284.98C394.91 286.08 392.59 285.86 390.88 285.32C389.17 284.78 386.33 282.32 385.59 281.67L384.25 282.67C382.1 284.32 379.94 285.96 377.87 287.67C377.14 288.26 376.45 288.86 375.75 289.47L376.75 288.89C378.95 287.94 383.75 287.41 385.53 289.43C385.813 289.775 386.02 290.175 386.139 290.605C386.258 291.034 386.285 291.484 386.219 291.925C386.153 292.366 385.995 292.789 385.756 293.165C385.517 293.541 385.201 293.863 384.83 294.11C383.28 295.2 380.96 294.99 379.25 294.45C377.54 293.91 374.97 291.69 374.09 290.91C373.39 291.55 372.69 292.19 372.09 292.84C371.66 293.3 371.21 293.71 370.8 294.19L369.57 295.58C368.83 296.49 368.05 297.43 367.34 298.33C366.84 298.96 366.34 299.57 365.91 300.18C366.63 299.58 368.06 298.45 368.19 298.37C370.19 297.1 374.9 295.84 376.95 297.58C377.282 297.878 377.547 298.243 377.729 298.65C377.91 299.058 378.004 299.499 378.004 299.945C378.004 300.391 377.91 300.832 377.729 301.24C377.547 301.647 377.282 302.012 376.95 302.31C375.58 303.62 373.25 303.76 371.48 303.49C369.54 303.18 366.01 300.88 365.57 300.59C364.8 301.59 364.06 302.59 363.38 303.59C361.01 306.87 359.16 309.69 357.89 311.68L357.76 311.88L356.1 311L356.36 310.61C357.68 308.61 359.61 305.81 362.08 302.55C362.86 301.55 363.71 300.43 364.59 299.33C363.685 298.325 362.837 297.27 362.05 296.17C360.16 296.91 356.23 296.94 355.72 296.94C355.64 298.21 355.57 299.44 355.53 300.61C355.36 304.61 355.37 308.03 355.41 310.39V310.66L353.61 309.79C353.61 307.44 353.7 304.27 353.94 300.53C354.02 299.24 354.13 297.86 354.25 296.45C353.75 296.32 349.67 295.27 348.13 294.04C346.59 292.81 345.25 291.11 345.3 289.22C345.298 288.774 345.389 288.332 345.569 287.923C345.748 287.514 346.011 287.148 346.341 286.847C346.671 286.547 347.06 286.318 347.484 286.178C347.907 286.037 348.356 285.987 348.8 286.03C351.46 286.37 353.7 290.67 354.13 293.03C354.13 293.17 354.27 294.71 354.33 295.68C354.38 295.1 354.43 294.54 354.49 293.95C354.61 292.78 354.76 291.61 354.92 290.35L355.22 288.52C355.31 287.91 355.47 287.27 355.6 286.64C355.92 285.18 356.32 283.72 356.76 282.25C355.76 282.15 352.09 281.72 350.53 280.82C348.97 279.92 347.25 278.36 347.01 276.48C346.939 276.037 346.963 275.585 347.079 275.152C347.195 274.719 347.402 274.315 347.685 273.968C347.968 273.62 348.322 273.336 348.723 273.135C349.123 272.934 349.562 272.82 350.01 272.8C352.69 272.74 355.55 276.65 356.34 278.91C356.39 279.05 356.78 280.74 356.97 281.67C357.24 280.79 357.5 279.91 357.8 279.03C358.67 276.49 359.62 273.95 360.56 271.41C360.85 270.63 361.13 269.85 361.41 269.07C361.04 269.07 356.7 268.62 354.96 267.62C353.4 266.73 351.68 265.16 351.44 263.28C351.369 262.837 351.393 262.385 351.509 261.952C351.625 261.519 351.832 261.115 352.115 260.768C352.399 260.42 352.752 260.136 353.153 259.935C353.553 259.734 353.992 259.62 354.44 259.6C357.12 259.53 359.98 263.44 360.77 265.71C360.83 265.88 361.38 268.31 361.49 268.93C362.11 267.22 362.71 265.5 363.24 263.79C363.958 261.476 364.525 259.117 364.94 256.73C364.77 256.73 360.24 256.3 358.45 255.27C356.9 254.38 355.17 252.81 354.93 250.93C354.859 250.487 354.883 250.035 354.999 249.602C355.115 249.169 355.322 248.765 355.605 248.418C355.889 248.07 356.242 247.786 356.643 247.585C357.043 247.384 357.482 247.27 357.93 247.25C360.62 247.19 363.47 251.1 364.26 253.36C364.32 253.51 364.74 255.36 364.92 256.24H365C365.351 253.827 365.488 251.387 365.41 248.95C365.41 247.61 365.28 246.33 365.15 245.09C364.3 245.09 360.4 245.09 358.69 244.35C356.98 243.61 355.16 242.26 354.69 240.42C354.567 239.989 354.537 239.537 354.602 239.093C354.666 238.649 354.824 238.225 355.065 237.846C355.306 237.468 355.625 237.146 356 236.9C356.375 236.654 356.797 236.49 357.24 236.42C359.9 236.06 363.17 239.63 364.24 241.79C364.3 241.91 364.74 243.17 365.05 244.09C364.98 243.53 364.92 242.95 364.85 242.41C364.58 240.41 364.2 238.58 363.85 236.96C363.65 236.05 363.45 235.22 363.25 234.45C362.41 234.03 359.04 232.26 357.89 230.84C356.74 229.42 355.71 227.36 356.17 225.52C356.27 225.091 356.458 224.688 356.723 224.336C356.987 223.984 357.321 223.69 357.705 223.474C358.088 223.258 358.513 223.124 358.951 223.08C359.389 223.036 359.831 223.084 360.25 223.22Z" fill="rgb(7, 141, 238)"/>
<path d="M408.79 264.6C406.68 264.52 402.49 262.37 402.49 262.37C402.49 262.37 404.75 260.03 404.91 259.9C406.78 258.41 411.28 256.62 413.52 258.11C413.884 258.367 414.189 258.697 414.417 259.08C414.645 259.462 414.79 259.888 414.843 260.33C414.896 260.773 414.855 261.221 414.724 261.646C414.592 262.072 414.373 262.465 414.08 262.8C412.87 264.27 410.57 264.68 408.79 264.6Z" fill="rgb(7, 141, 238)"/>
<g opacity="0.5">
<path d="M365.45 244.72C365.4 244.72 366.04 241.53 366.11 241.34C366.85 239.05 369.62 235.08 372.3 235.09C372.746 235.103 373.184 235.209 373.586 235.403C373.988 235.596 374.344 235.872 374.632 236.213C374.92 236.554 375.133 236.951 375.257 237.38C375.38 237.808 375.412 238.258 375.35 238.7C375.16 240.58 373.47 242.19 371.93 243.12C370.14 244.21 365.45 244.72 365.45 244.72Z" fill="white"/>
<path d="M360.25 223.22C362.78 224.12 364.03 228.8 363.95 231.22C363.95 231.42 363.47 234.65 363.42 234.63H363.37C363.58 235.37 363.79 236.16 364 237.03C364.38 238.64 364.79 240.47 365.11 242.48C365.473 244.648 365.71 246.835 365.82 249.03C365.963 251.486 365.879 253.95 365.57 256.39C365.57 256.39 365.57 256.45 365.57 256.48C365.9 255.76 366.89 253.8 366.99 253.66C368.3 251.66 371.99 248.55 374.61 249.26C375.037 249.39 375.432 249.608 375.769 249.901C376.107 250.194 376.378 250.554 376.567 250.959C376.756 251.363 376.857 251.803 376.865 252.25C376.872 252.696 376.785 253.139 376.61 253.55C375.93 255.32 373.87 256.42 372.15 256.91C370.2 257.47 365.87 256.81 365.53 256.76C365.161 259.236 364.627 261.685 363.93 264.09C363.54 265.5 363.09 266.9 362.63 268.3L363.26 267.08C364.58 265.08 368.26 261.97 370.89 262.69C371.317 262.82 371.712 263.038 372.049 263.331C372.387 263.624 372.658 263.984 372.847 264.389C373.036 264.793 373.137 265.233 373.145 265.68C373.152 266.126 373.065 266.569 372.89 266.98C372.2 268.74 370.15 269.85 368.42 270.34C366.69 270.83 362.97 270.34 361.99 270.21L361.45 271.82C360.56 274.38 359.67 276.94 358.86 279.47C358.58 280.36 358.34 281.25 358.09 282.14C358.36 281.6 358.59 281.14 358.64 281.14C359.95 279.14 363.64 276.03 366.26 276.74C366.687 276.87 367.082 277.088 367.419 277.381C367.757 277.674 368.028 278.034 368.217 278.439C368.406 278.844 368.507 279.283 368.515 279.73C368.522 280.176 368.435 280.619 368.26 281.03C367.58 282.8 365.52 283.9 363.8 284.39C362.08 284.88 358.71 284.45 357.54 284.29C357.31 285.21 357.08 286.13 356.91 287.03C356.8 287.65 356.65 288.23 356.57 288.86C356.49 289.49 356.4 290.09 356.32 290.7C356.2 291.87 356.06 293.08 355.97 294.23C355.91 295.03 355.86 295.79 355.8 296.55C356.07 295.66 356.64 293.93 356.71 293.79C357.656 291.906 359.067 290.296 360.81 289.11C360.911 288.898 361.028 288.694 361.16 288.5C361.402 288.125 361.721 287.806 362.095 287.563C362.47 287.32 362.891 287.159 363.332 287.09C363.773 287.021 364.223 287.046 364.653 287.164C365.084 287.281 365.485 287.487 365.83 287.77C367.83 289.52 367.36 294.34 366.42 296.55C366.37 296.68 365.61 298.02 365.12 298.86C365.48 298.41 365.83 297.97 366.21 297.51C366.96 296.6 367.73 295.71 368.56 294.75L369.81 293.39C370.22 292.92 370.72 292.48 371.17 292.03C372.25 291.03 373.38 290.03 374.55 289.03C373.76 288.37 370.95 286.03 370.15 284.4C369.35 282.77 368.77 280.53 369.61 278.83C369.795 278.424 370.063 278.062 370.397 277.767C370.731 277.471 371.123 277.249 371.549 277.115C371.974 276.982 372.423 276.939 372.866 276.989C373.309 277.04 373.736 277.183 374.12 277.41C376.39 278.83 376.62 283.67 376.03 285.99C376.03 286.14 375.38 287.76 375.03 288.64C375.74 288.06 376.44 287.47 377.18 286.9C379.3 285.26 381.5 283.67 383.69 282.06C384.36 281.58 385.02 281.06 385.69 280.58C385.4 280.35 382.01 277.58 381.11 275.81C380.31 274.21 379.73 271.95 380.57 270.25C380.744 269.844 381 269.479 381.322 269.177C381.645 268.876 382.027 268.645 382.444 268.499C382.86 268.353 383.303 268.296 383.743 268.33C384.183 268.365 384.611 268.491 385 268.7C387.27 270.13 387.5 274.96 386.91 277.29C386.91 277.46 385.99 279.79 385.73 280.37C387.2 279.29 388.64 278.19 390.03 277.05C391.905 275.517 393.679 273.863 395.34 272.1C395.21 271.99 391.65 269.1 390.73 267.3C389.93 265.7 389.35 263.44 390.19 261.74C390.375 261.334 390.643 260.972 390.977 260.677C391.311 260.381 391.703 260.159 392.128 260.024C392.553 259.889 393.001 259.845 393.444 259.894C393.887 259.944 394.315 260.085 394.7 260.31C396.97 261.74 397.2 266.58 396.61 268.9C396.61 269.05 395.9 270.83 395.56 271.67L395.69 271.75C397.316 269.932 398.776 267.97 400.05 265.89C400.77 264.76 401.39 263.63 401.97 262.53C401.26 262.06 397.97 259.92 396.97 258.35C395.97 256.78 395.18 254.66 395.82 252.88C395.962 252.453 396.193 252.061 396.498 251.729C396.803 251.398 397.174 251.135 397.588 250.957C398.002 250.78 398.449 250.692 398.899 250.699C399.349 250.706 399.792 250.809 400.2 251C402.62 252.17 403.37 257 403.04 259.33C403.04 259.46 402.7 260.75 402.44 261.69C402.7 261.19 402.97 260.69 403.2 260.18C404.09 258.35 404.78 256.63 405.39 255.09C405.72 254.21 406.01 253.41 406.27 252.66C405.81 251.84 403.97 248.52 403.79 246.66C403.61 244.8 403.9 242.56 405.3 241.28C405.617 240.966 405.997 240.722 406.415 240.565C406.833 240.408 407.279 240.341 407.725 240.368C408.171 240.396 408.605 240.517 409.001 240.724C409.396 240.931 409.744 241.219 410.02 241.57C411.62 243.72 410.09 248.31 408.7 250.27C408.58 250.44 406.4 252.87 406.38 252.82V252.77C406.15 253.5 405.88 254.28 405.58 255.12C405.01 256.67 404.35 258.42 403.5 260.28C402.611 262.285 401.609 264.238 400.5 266.13C399.258 268.253 397.829 270.261 396.23 272.13L396.17 272.2C396.84 271.79 398.75 270.69 398.9 270.63C401.11 269.68 405.9 269.15 407.68 271.17C407.964 271.514 408.173 271.914 408.293 272.344C408.412 272.774 408.44 273.225 408.374 273.666C408.308 274.108 408.149 274.53 407.909 274.906C407.669 275.283 407.353 275.604 406.98 275.85C405.43 276.94 403.11 276.73 401.4 276.19C399.48 275.57 396.22 272.64 395.97 272.41C394.297 274.273 392.499 276.02 390.59 277.64C389.49 278.64 388.34 279.52 387.18 280.43L388.38 279.76C390.59 278.82 395.38 278.28 397.17 280.31C397.454 280.654 397.662 281.054 397.78 281.483C397.899 281.913 397.926 282.363 397.859 282.804C397.792 283.244 397.632 283.666 397.391 284.041C397.15 284.416 396.833 284.736 396.46 284.98C394.91 286.08 392.59 285.86 390.88 285.32C389.17 284.78 386.33 282.32 385.59 281.67L384.25 282.67C382.1 284.32 379.94 285.96 377.87 287.67C377.14 288.26 376.45 288.86 375.75 289.47L376.75 288.89C378.95 287.94 383.75 287.41 385.53 289.43C385.813 289.775 386.02 290.175 386.139 290.605C386.258 291.034 386.285 291.484 386.219 291.925C386.153 292.366 385.995 292.789 385.756 293.165C385.517 293.541 385.201 293.863 384.83 294.11C383.28 295.2 380.96 294.99 379.25 294.45C377.54 293.91 374.97 291.69 374.09 290.91C373.39 291.55 372.69 292.19 372.09 292.84C371.66 293.3 371.21 293.71 370.8 294.19L369.57 295.58C368.83 296.49 368.05 297.43 367.34 298.33C366.84 298.96 366.34 299.57 365.91 300.18C366.63 299.58 368.06 298.45 368.19 298.37C370.19 297.1 374.9 295.84 376.95 297.58C377.282 297.878 377.547 298.243 377.729 298.65C377.91 299.058 378.004 299.499 378.004 299.945C378.004 300.391 377.91 300.832 377.729 301.24C377.547 301.647 377.282 302.012 376.95 302.31C375.58 303.62 373.25 303.76 371.48 303.49C369.54 303.18 366.01 300.88 365.57 300.59C364.8 301.59 364.06 302.59 363.38 303.59C361.01 306.87 359.16 309.69 357.89 311.68L357.76 311.88L356.1 311L356.36 310.61C357.68 308.61 359.61 305.81 362.08 302.55C362.86 301.55 363.71 300.43 364.59 299.33C363.685 298.325 362.837 297.27 362.05 296.17C360.16 296.91 356.23 296.94 355.72 296.94C355.64 298.21 355.57 299.44 355.53 300.61C355.36 304.61 355.37 308.03 355.41 310.39V310.66L353.61 309.79C353.61 307.44 353.7 304.27 353.94 300.53C354.02 299.24 354.13 297.86 354.25 296.45C353.75 296.32 349.67 295.27 348.13 294.04C346.59 292.81 345.25 291.11 345.3 289.22C345.298 288.774 345.389 288.332 345.569 287.923C345.748 287.514 346.011 287.148 346.341 286.847C346.671 286.547 347.06 286.318 347.484 286.178C347.907 286.037 348.356 285.987 348.8 286.03C351.46 286.37 353.7 290.67 354.13 293.03C354.13 293.17 354.27 294.71 354.33 295.68C354.38 295.1 354.43 294.54 354.49 293.95C354.61 292.78 354.76 291.61 354.92 290.35L355.22 288.52C355.31 287.91 355.47 287.27 355.6 286.64C355.92 285.18 356.32 283.72 356.76 282.25C355.76 282.15 352.09 281.72 350.53 280.82C348.97 279.92 347.25 278.36 347.01 276.48C346.939 276.037 346.963 275.585 347.079 275.152C347.195 274.719 347.402 274.315 347.685 273.968C347.968 273.62 348.322 273.336 348.723 273.135C349.123 272.934 349.562 272.82 350.01 272.8C352.69 272.74 355.55 276.65 356.34 278.91C356.39 279.05 356.78 280.74 356.97 281.67C357.24 280.79 357.5 279.91 357.8 279.03C358.67 276.49 359.62 273.95 360.56 271.41C360.85 270.63 361.13 269.85 361.41 269.07C361.04 269.07 356.7 268.62 354.96 267.62C353.4 266.73 351.68 265.16 351.44 263.28C351.369 262.837 351.393 262.385 351.509 261.952C351.625 261.519 351.832 261.115 352.115 260.768C352.399 260.42 352.752 260.136 353.153 259.935C353.553 259.734 353.992 259.62 354.44 259.6C357.12 259.53 359.98 263.44 360.77 265.71C360.83 265.88 361.38 268.31 361.49 268.93C362.11 267.22 362.71 265.5 363.24 263.79C363.958 261.476 364.525 259.117 364.94 256.73C364.77 256.73 360.24 256.3 358.45 255.27C356.9 254.38 355.17 252.81 354.93 250.93C354.859 250.487 354.883 250.035 354.999 249.602C355.115 249.169 355.322 248.765 355.605 248.418C355.889 248.07 356.242 247.786 356.643 247.585C357.043 247.384 357.482 247.27 357.93 247.25C360.62 247.19 363.47 251.1 364.26 253.36C364.32 253.51 364.74 255.36 364.92 256.24H365C365.351 253.827 365.488 251.387 365.41 248.95C365.41 247.61 365.28 246.33 365.15 245.09C364.3 245.09 360.4 245.09 358.69 244.35C356.98 243.61 355.16 242.26 354.69 240.42C354.567 239.989 354.537 239.537 354.602 239.093C354.666 238.649 354.824 238.225 355.065 237.846C355.306 237.468 355.625 237.146 356 236.9C356.375 236.654 356.797 236.49 357.24 236.42C359.9 236.06 363.17 239.63 364.24 241.79C364.3 241.91 364.74 243.17 365.05 244.09C364.98 243.53 364.92 242.95 364.85 242.41C364.58 240.41 364.2 238.58 363.85 236.96C363.65 236.05 363.45 235.22 363.25 234.45C362.41 234.03 359.04 232.26 357.89 230.84C356.74 229.42 355.71 227.36 356.17 225.52C356.27 225.091 356.458 224.688 356.723 224.336C356.987 223.984 357.321 223.69 357.705 223.474C358.088 223.258 358.513 223.124 358.951 223.08C359.389 223.036 359.831 223.084 360.25 223.22Z" fill="white"/>
<path d="M408.79 264.6C406.68 264.52 402.49 262.37 402.49 262.37C402.49 262.37 404.75 260.03 404.91 259.9C406.78 258.41 411.28 256.62 413.52 258.11C413.884 258.367 414.189 258.697 414.417 259.08C414.645 259.462 414.79 259.888 414.843 260.33C414.896 260.773 414.855 261.221 414.724 261.646C414.592 262.072 414.373 262.465 414.08 262.8C412.87 264.27 410.57 264.68 408.79 264.6Z" fill="white"/>
</g>
<path d="M384.29 317.14C384.29 317.14 371.56 286.45 364.43 287.79C357.3 289.13 376.65 336.71 376.65 336.71C376.65 336.71 354.25 294.46 338.97 294.46C323.69 294.46 344.57 341.16 363.92 356.73C363.92 356.73 333.37 323.81 315.55 330.93C297.73 338.05 351.19 371.41 351.19 371.41C351.19 371.41 320.13 361.62 323.7 369.18C327.27 376.74 336.93 378.08 336.93 378.08L301.8 379.86H424L396.51 377.19C396.51 377.19 425.02 362.96 417.38 357.19C409.74 351.42 392.94 363.87 392.94 363.87C392.94 363.87 421.94 331.87 416.36 319.87C410.78 307.87 385.81 341.67 385.81 341.67C385.81 341.67 406.18 298.52 402.11 290.96C398.04 283.4 384.29 317.14 384.29 317.14Z" fill="rgb(7, 141, 238)"/>
<path opacity="0.4" d="M384.29 317.14C384.29 317.14 371.56 286.45 364.43 287.79C357.3 289.13 376.65 336.71 376.65 336.71C376.65 336.71 354.25 294.46 338.97 294.46C323.69 294.46 344.57 341.16 363.92 356.73C363.92 356.73 333.37 323.81 315.55 330.93C297.73 338.05 351.19 371.41 351.19 371.41C351.19 371.41 320.13 361.62 323.7 369.18C327.27 376.74 336.93 378.08 336.93 378.08L301.8 379.86H424L396.51 377.19C396.51 377.19 425.02 362.96 417.38 357.19C409.74 351.42 392.94 363.87 392.94 363.87C392.94 363.87 421.94 331.87 416.36 319.87C410.78 307.87 385.81 341.67 385.81 341.67C385.81 341.67 406.18 298.52 402.11 290.96C398.04 283.4 384.29 317.14 384.29 317.14Z" fill="white"/>
<path d="M388.36 318.76C377.16 351.86 377.16 375.28 377.16 375.28C377.16 375.28 390.4 375.79 404.16 365.6" stroke="#787878" stroke-width="1.15613" stroke-linecap="round" stroke-linejoin="round"/>
<path d="M382.76 336.58C380.449 326.693 377.383 316.998 373.59 307.58" stroke="#787878" stroke-width="1.15613" stroke-linecap="round" stroke-linejoin="round"/>
<path d="M349.66 317.23L378.18 359.49C378.18 359.49 397.52 343.2 404.18 334.03" stroke="#787878" stroke-width="1.15613" stroke-linecap="round" stroke-linejoin="round"/>
<path d="M377.67 369.68C377.67 369.68 347.67 355.42 335.41 347.27" stroke="#787878" stroke-width="1.15613" stroke-linecap="round" stroke-linejoin="round"/>
<path d="M349.9 286.32C349.9 286.32 349.23 309.67 352.13 320.32C355.03 330.97 361.24 354.56 362.35 359.45C363.46 364.34 361.91 372.12 361.91 372.12C361.91 372.12 351.01 377.02 349.68 377.46C348.35 377.9 349.9 379.24 352.35 379.68C354.8 380.12 372.35 381.02 373.25 378.79C374.15 376.56 373.91 368.79 374.8 364.79C375.69 360.79 381.7 346.79 378.8 336.79C375.9 326.79 374.8 317.89 375.68 313.89C376.56 309.89 379.46 299.66 380.35 298.55C381.24 297.44 385.91 294.33 387.69 291.21C388.828 288.999 389.509 286.58 389.69 284.1C389.69 284.1 363.69 289.21 349.9 286.32Z" fill="white" stroke="#263238" stroke-width="1.15613" stroke-linecap="round" stroke-linejoin="round"/>
<path d="M387.7 291.21C388.838 288.999 389.519 286.58 389.7 284.1C389.7 284.1 363.7 289.21 349.9 286.32C349.9 286.32 349.23 309.67 352.13 320.32C355.03 330.97 361.24 354.56 362.35 359.45C362.579 360.539 362.706 361.647 362.73 362.76C366.674 364.233 370.95 364.579 375.08 363.76C376.52 358.76 381.49 346.06 378.81 336.76C375.92 326.76 374.81 317.86 375.69 313.86C376.57 309.86 379.47 299.63 380.36 298.52C381.25 297.41 385.92 294.33 387.7 291.21Z" fill="#263238" stroke="#263238" stroke-width="1.15613" stroke-linecap="round" stroke-linejoin="round"/>
<path d="M365.47 375.26L361.91 372.14C361.91 372.14 351.01 377.04 349.68 377.48C348.35 377.92 349.9 379.26 352.35 379.7C354.8 380.14 372.35 381.04 373.25 378.81C373.694 377.094 373.932 375.332 373.96 373.56L365.47 375.26Z" fill="rgb(7, 141, 238)" stroke="#263238" stroke-width="1.15613" stroke-linecap="round" stroke-linejoin="round"/>
<path d="M354.79 199.83C356.496 202.624 357.129 205.944 356.57 209.17C355.68 214.73 349.23 223.62 344.34 228.07C339.45 232.52 339.67 240.07 342.34 243.85C345.01 247.63 346.34 247.63 346.34 247.63L337.9 286.77C337.9 286.77 352.57 289.66 363.24 289.66C373.91 289.66 377.03 289.43 382.36 288.1C387.69 286.77 397 284.54 397 284.54C397 284.54 389 252.97 389 244.54C389 236.11 389.89 227.42 389.89 227.42C389.89 227.42 391.45 218.97 384.11 206.52C376.77 194.07 365 192.94 360.35 194.05C358.983 194.412 357.741 195.142 356.761 196.161C355.78 197.181 355.098 198.45 354.79 199.83Z" fill="rgb(7, 141, 238)" stroke="#263238" stroke-width="1.15613" stroke-linecap="round" stroke-linejoin="round"/>
<path d="M346.34 247.63C346.34 247.63 352.13 250.3 357.91 247.86" stroke="#263238" stroke-width="1.15613" stroke-linecap="round" stroke-linejoin="round"/>
<path d="M352.57 249.63V259.2" stroke="#263238" stroke-width="1.15613" stroke-linecap="round" stroke-linejoin="round"/>
<path d="M350.12 248.97L348.35 272.98" stroke="#263238" stroke-width="1.15613" stroke-linecap="round" stroke-linejoin="round"/>
<path d="M384.14 206.5C376.81 194.05 365.02 192.94 360.35 194.05C358.983 194.412 357.741 195.142 356.761 196.161C355.78 197.181 355.098 198.45 354.79 199.83C356.496 202.624 357.129 205.944 356.57 209.17C355.82 213.85 351.13 220.89 346.74 225.66C348.34 226.01 351.17 225.66 355.02 221.4C361.24 214.5 366.13 210.5 371.91 208.72C376.11 207.43 381.48 209.54 384.91 207.81C384.63 207.37 384.4 207 384.14 206.5Z" fill="white" stroke="#263238" stroke-width="1.15613" stroke-linecap="round" stroke-linejoin="round"/>
<path d="M346.57 172C346.57 172 345.01 176.44 345.23 179.11C345.45 181.78 346.34 183.11 345.01 185.56C343.68 188.01 341.23 189.56 341.9 190.67C342.57 191.78 345.9 192.67 345.9 192.67C345.9 192.67 347.23 200.89 348.79 201.78C350.35 202.67 360.13 198.22 362.13 197.56C364.13 196.9 366.8 191.11 365.24 182.21C363.68 173.31 353 168.26 346.57 172Z" fill="white" stroke="#263238" stroke-width="1.15613" stroke-linecap="round" stroke-linejoin="round"/>
<path d="M349.68 185C349.68 185.8 349.33 186.45 348.9 186.45C348.47 186.45 348.12 185.8 348.12 185C348.12 184.2 348.47 183.56 348.9 183.56C349.33 183.56 349.68 184.25 349.68 185Z" fill="#263238"/>
<path d="M347.46 181.38C347.46 181.38 350.12 179.6 351.46 182.49" stroke="#263238" stroke-width="1.15613" stroke-linecap="round" stroke-linejoin="round"/>
<path d="M342.88 169.41C342.588 169.763 342.437 170.211 342.456 170.669C342.474 171.127 342.661 171.561 342.98 171.89C344.725 173.728 346.75 175.277 348.98 176.48C352.98 178.48 358.32 181.82 358.32 185.6C358.32 189.38 356.1 200.27 358.32 204.05C360.54 207.83 366.55 211.39 370.11 211.84C373.67 212.29 378.78 216.06 380.11 222.29C381.44 228.52 383.48 236.52 391 235C398.52 233.48 400.11 222.77 397 217.88C393.89 212.99 391 212.77 393.44 207.43C395.88 202.09 394.33 194.98 388.99 190.53C383.65 186.08 379.43 188.53 378.99 183.19C378.55 177.85 376.69 170.42 372.76 165.19C368.29 159.13 352.38 157.68 342.88 169.41Z" fill="#263238" stroke="#263238" stroke-width="1.15613" stroke-linecap="round" stroke-linejoin="round"/>
<path d="M363.46 277.65C363.46 277.65 362.35 290.1 361.46 291.43C360.57 292.76 356.79 296.1 356.13 297.66C355.47 299.22 357 305 357 305C357 305 358.33 306.33 359.44 305.89C360.55 305.45 360.11 304.55 360.11 304.55C360.11 304.55 359.44 303.22 360.11 302.77C360.78 302.32 363.44 301.66 364.33 299.44C364.925 297.854 365.374 296.217 365.67 294.55L371.23 279.65L363.46 277.65Z" fill="white" stroke="#263238" stroke-width="1.15613" stroke-linecap="round" stroke-linejoin="round"/>
<path d="M359.46 227C359.46 227 359.02 238.33 359.68 243C360.34 247.67 360.8 261.46 359.46 266.79C358.12 272.12 359.02 279.25 359.02 279.25C359.02 279.25 366.13 282.58 369.69 282.14C373.25 281.7 375.69 281.25 375.69 281.25C375.69 281.25 379.69 263.9 380.36 256.12C381.03 248.34 379.47 223.88 379.47 223.88" fill="rgb(7, 141, 238)"/>
<path d="M359.46 227C359.46 227 359.02 238.33 359.68 243C360.34 247.67 360.8 261.46 359.46 266.79C358.12 272.12 359.02 279.25 359.02 279.25C359.02 279.25 366.13 282.58 369.69 282.14C373.25 281.7 375.69 281.25 375.69 281.25C375.69 281.25 379.69 263.9 380.36 256.12C381.03 248.34 379.47 223.88 379.47 223.88" stroke="#263238" stroke-width="1.15613" stroke-linecap="round" stroke-linejoin="round"/>
<path d="M269.71 218.08H243.45V247.01H269.71V218.08Z" fill="rgb(7, 141, 238)" stroke="#263238" stroke-width="1.15613" stroke-linecap="round" stroke-linejoin="round"/>
<path d="M258.967 242.733C264.112 241.523 267.303 236.372 266.093 231.227C264.883 226.082 259.732 222.891 254.587 224.101C249.442 225.311 246.251 230.462 247.461 235.607C248.671 240.752 253.822 243.943 258.967 242.733Z" fill="white"/>
<path d="M250.61 228.56C252.813 229.629 255.179 230.326 257.61 230.62C261.61 231.09 263.43 230.53 263.43 230.53C262.952 232.792 262.707 235.098 262.7 237.41C262.78 239.26 256.7 239.64 253.48 238.41C252.053 237.879 250.707 237.152 249.48 236.25C249.48 236.25 249.67 230.81 250.61 228.56Z" fill="white" stroke="#263238" stroke-width="1.15613" stroke-linecap="round" stroke-linejoin="round"/>
<path d="M250.33 230.62C250.33 230.62 255.02 234.19 262.91 232.78" stroke="#263238" stroke-width="1.15613" stroke-linecap="round" stroke-linejoin="round"/>
<path d="M249.86 232.69C249.86 232.69 253.65 236.84 262.51 234.91" stroke="#263238" stroke-width="1.15613" stroke-linecap="round" stroke-linejoin="round"/>
<path d="M249.58 234.94C249.58 234.94 257.09 239.54 262.63 236.94" stroke="#263238" stroke-width="1.15613" stroke-linecap="round" stroke-linejoin="round"/>
<path d="M263.47 230.53C263.47 230.53 266.47 227.24 267.32 229.31C268.17 231.38 266.95 236.31 262.91 237.76" stroke="#263238" stroke-width="1.15613" stroke-linecap="round" stroke-linejoin="round"/>
<path d="M250.61 228.56C250.61 228.56 250.71 225.83 249.11 225.36C247.51 224.89 247.98 232.22 249.48 235.79" stroke="#263238" stroke-width="1.15613" stroke-linecap="round" stroke-linejoin="round"/>
<path d="M199.69 190.61C198.128 193.1 196.747 195.701 195.56 198.39C194.56 201.06 193.61 205.44 193.61 205.44L184.61 200.82L190.44 185.5L199.69 190.61Z" fill="white" stroke="#263238" stroke-width="1.15613" stroke-linecap="round" stroke-linejoin="round"/>
<path d="M208.2 167.27C208.2 167.27 211.85 168.49 213.31 164.11C214.77 159.73 209.17 155.6 201.39 153.41C193.61 151.22 181 158.76 178.54 164.6C176.08 170.44 178.3 176.75 175.14 181.13C171.98 185.51 160.55 186.48 159.33 198.13C158.11 209.78 165.41 214.13 163.71 218.3C162.01 222.47 154.96 224.87 156.17 234.11C157.38 243.35 171 248.21 177.08 244.56C183.16 240.91 185.35 233.13 183.4 223.65C181.45 214.17 180.49 204.45 185.59 200.8C190.69 197.15 196.53 190.1 197.02 186.7C197.51 183.3 196.29 182.57 199.21 181.59C202.13 180.61 207.47 174.08 208.2 167.27Z" fill="#263238" stroke="#263238" stroke-width="1.15613" stroke-linecap="round" stroke-linejoin="round"/>
<path d="M190.34 267.32C190.34 267.32 193.81 289.32 194.97 304.03C196.13 318.74 194.55 329.47 194.97 338.42C195.434 349.18 196.593 359.899 198.44 370.51C198.44 370.51 209.44 375.13 210.86 376C212.28 376.87 214.33 376.87 214.33 378C214.33 379.13 206 381.2 201 379.18C198.53 378.18 192.62 379.47 190 378.31C188.33 377.57 190 373.11 190 370.22C190 367.33 185.14 352 184 344.78C182.86 337.56 181.69 335.25 182.56 330.04C183.135 326.305 183.522 322.544 183.72 318.77C183.72 318.77 175.24 286.6 173.72 282.02C172.745 279.096 171.941 276.117 171.31 273.1" fill="#263238"/>
<path d="M190.34 267.32C190.34 267.32 193.81 289.32 194.97 304.03C196.13 318.74 194.55 329.47 194.97 338.42C195.434 349.18 196.593 359.899 198.44 370.51C198.44 370.51 209.44 375.13 210.86 376C212.28 376.87 214.33 376.87 214.33 378C214.33 379.13 206 381.2 201 379.18C198.53 378.18 192.62 379.47 190 378.31C188.33 377.57 190 373.11 190 370.22C190 367.33 185.14 352 184 344.78C182.86 337.56 181.69 335.25 182.56 330.04C183.135 326.305 183.522 322.544 183.72 318.77C183.72 318.77 175.24 286.6 173.72 282.02C172.745 279.096 171.941 276.117 171.31 273.1" stroke="#263238" stroke-width="1.15613" stroke-linecap="round" stroke-linejoin="round"/>
<path d="M210.86 376C209.42 375.13 198.44 370.51 198.44 370.51C198.44 370.51 197.36 364.88 196.36 355.93C193.521 357.505 190.233 358.073 187.03 357.54C188.56 363.25 190.03 368.62 190.03 370.22C190.03 373.11 188.36 377.57 190.03 378.31C192.64 379.47 198.55 378.16 201.03 379.18C205.94 381.18 214.32 379.18 214.32 378.02C214.32 376.86 212.31 376.87 210.86 376Z" fill="white" stroke="#263238" stroke-width="1.15613" stroke-linecap="round" stroke-linejoin="round"/>
<path d="M189.84 372.49C189.45 375.03 188.78 377.75 190.05 378.31C192.66 379.47 198.57 378.16 201.05 379.18C205.96 381.18 214.34 379.18 214.34 378.02C214.34 376.86 212.34 376.87 210.87 376.02C209.4 375.17 198.45 370.53 198.45 370.53L197.28 374L189.84 372.49Z" fill="white" stroke="#263238" stroke-width="1.15613" stroke-linecap="round" stroke-linejoin="round"/>
<path d="M183.65 196.44C185.273 196.144 186.94 196.208 188.535 196.628C190.13 197.048 191.614 197.813 192.88 198.87C197.5 202.52 198.48 208.6 202.37 214.68C206.26 220.76 206.74 226.1 205.28 229.51C203.82 232.92 199.21 243.85 196.77 250.66C194.33 257.47 193.37 268.41 191.91 275.66C190.45 282.91 178.3 283.44 173.68 281.98C169.06 280.52 164.24 274.44 163.75 266.42C163.26 258.4 167.4 254.78 168.38 252.83C169.36 250.88 179.51 235.3 177.08 227.52C174.65 219.74 175.62 210.52 177.33 205.89C179.04 201.26 182.19 197.17 183.65 196.44Z" fill="#263238" stroke="#263238" stroke-width="1.15613" stroke-linecap="round" stroke-linejoin="round"/>
<path d="M192.88 198.87C191.614 197.813 190.131 197.048 188.535 196.628C186.94 196.208 185.273 196.144 183.65 196.44C182.19 197.17 179.03 201.31 177.33 205.93C175.63 210.55 174.65 219.78 177.08 227.56C179.51 235.34 169.35 250.93 168.38 252.87C168.38 252.87 175.54 260.7 194.38 260.73C194.913 257.314 195.718 253.947 196.79 250.66C199.23 243.85 203.79 232.91 205.3 229.51C206.81 226.11 206.3 220.75 202.39 214.68C198.48 208.61 197.5 202.52 192.88 198.87Z" fill="rgb(7, 141, 238)" stroke="#263238" stroke-width="1.15613" stroke-linecap="round" stroke-linejoin="round"/>
<path d="M240.05 238.26L203.58 241.91C203.58 241.91 200.66 241.18 199.93 239.72C199.33 238.51 187.81 219 183.93 212.44C182.644 210.346 182.102 207.88 182.39 205.44C182.72 203.01 184 200.58 187.77 200.58C193.89 200.58 198.5 209.79 200.01 213.24C200.54 214.45 201.12 215.63 201.73 216.8L207.73 228.29L241.53 232.42C241.53 232.42 247.12 229.02 248.09 228.53C249.06 228.04 252.22 227.81 253.93 227.53C255.64 227.25 256.84 225.83 256.84 227.29C256.84 228.75 255.63 228.99 254.9 229.23L251.25 230.45L260.25 232.65C260.508 232.703 260.734 232.856 260.88 233.075C261.026 233.294 261.08 233.562 261.03 233.82C261.014 233.951 260.972 234.077 260.907 234.192C260.842 234.306 260.755 234.407 260.651 234.488C260.547 234.569 260.428 234.628 260.301 234.663C260.173 234.698 260.041 234.707 259.91 234.69L253.44 234.07L259.55 237.02C259.77 237.138 259.938 237.333 260.021 237.568C260.104 237.803 260.097 238.06 260 238.29C259.903 238.485 259.746 238.644 259.551 238.741C259.356 238.839 259.134 238.87 258.92 238.83L252.47 237.43L257.28 240.19L258.36 241.19C258 242.75 256.42 241.86 255.56 241.46L251.63 239.63L255 243.35C253.921 243.332 252.874 242.983 252 242.35L248.32 239.72L242.2 237.92L240.05 238.26Z" fill="white" stroke="#263238" stroke-width="1.15613" stroke-linecap="round" stroke-linejoin="round"/>
<path d="M202.33 217.94L201.74 216.8C201.13 215.63 200.55 214.45 200.02 213.24C198.51 209.78 193.9 200.58 187.78 200.58C184.01 200.58 182.73 203.01 182.4 205.44C182.112 207.88 182.654 210.346 183.94 212.44L190.76 224L202.33 217.94Z" fill="rgb(7, 141, 238)" stroke="#263238" stroke-width="1.15613" stroke-linecap="round" stroke-linejoin="round"/>
<path d="M168.38 271.66C168.38 271.66 168.38 284.95 169.53 296.51C170.68 308.07 170.98 321.08 169.82 323.11C168.66 325.14 162.89 335.25 161.73 340.16C160.57 345.07 159.73 365.59 157.97 370.22C156.21 374.85 155.66 378.02 156.82 378.6C157.98 379.18 171.93 379.82 174.93 380.18C177.93 380.54 181.58 379.61 181.66 378.42C181.74 377.23 176.41 375.23 172.07 372.17C167.73 369.11 168.07 365.3 168.07 362.41C168.07 359.52 174.72 341.6 180.21 328.6C185.7 315.6 190.61 283.22 190.61 278.02V269.35" fill="#263238"/>
<path d="M168.38 271.66C168.38 271.66 168.38 284.95 169.53 296.51C170.68 308.07 170.98 321.08 169.82 323.11C168.66 325.14 162.89 335.25 161.73 340.16C160.57 345.07 159.73 365.59 157.97 370.22C156.21 374.85 155.66 378.02 156.82 378.6C157.98 379.18 171.93 379.82 174.93 380.18C177.93 380.54 181.58 379.61 181.66 378.42C181.74 377.23 176.41 375.23 172.07 372.17C167.73 369.11 168.07 365.3 168.07 362.41C168.07 359.52 174.72 341.6 180.21 328.6C185.7 315.6 190.61 283.22 190.61 278.02V269.35" stroke="#263238" stroke-width="1.15613" stroke-linecap="round" stroke-linejoin="round"/>
<path d="M172.07 372.17C167.72 369.11 168.07 365.3 168.07 362.41C168.141 361.579 168.299 360.758 168.54 359.96C165.529 359.972 162.546 359.377 159.77 358.21C159.26 363.46 158.68 368.26 157.95 370.21C156.22 374.83 155.64 378.01 156.8 378.59C157.96 379.17 171.91 379.81 174.91 380.17C177.91 380.53 181.56 379.6 181.64 378.41C181.72 377.22 176.41 375.23 172.07 372.17Z" fill="white" stroke="#263238" stroke-width="1.15613" stroke-linecap="round" stroke-linejoin="round"/>
<path d="M181.66 378.42C181.75 377.23 176.41 375.23 172.07 372.17C170.528 371.167 169.344 369.7 168.69 367.98C168.156 367.968 167.636 368.145 167.22 368.48C166.06 369.64 165.78 373.11 165.78 373.11L157.62 371.21C156.17 375.29 155.75 378.06 156.82 378.6C157.89 379.14 171.93 379.82 174.93 380.18C177.93 380.54 181.58 379.61 181.66 378.42Z" fill="white" stroke="#263238" stroke-width="1.15613" stroke-linecap="round" stroke-linejoin="round"/>
<path d="M206.74 163.14C206.74 163.14 209.9 168 209.9 170.67C209.9 173.34 209.17 175.54 209.17 177.24C209.17 178.94 210.63 180.88 210.63 182.34C210.63 183.8 208.44 190.12 206.99 191.82C205.54 193.52 204.07 195.23 201.39 194.98C198.71 194.73 191.39 187.69 191.39 187.69C191.39 187.69 187.74 190.37 186.52 185.99C185.3 181.61 185.31 179.43 187.25 178.94C187.818 178.806 188.412 178.828 188.968 179.004C189.524 179.18 190.023 179.503 190.41 179.94C190.41 179.94 199.89 179.46 203.06 174.11C205.014 170.739 206.266 167.007 206.74 163.14Z" fill="white" stroke="#263238" stroke-width="1.15613" stroke-linecap="round" stroke-linejoin="round"/>
<path d="M191.43 187.69C191.43 187.69 198.72 194.74 201.43 194.98C204.14 195.22 205.57 193.53 207.03 191.82C208.49 190.11 210.67 183.82 210.67 182.34C210.5 181.235 210.163 180.163 209.67 179.16C201.77 181.16 190.5 179.91 190.5 179.91L198.77 182.59L197.31 188.91L191.43 187.69Z" fill="rgb(7, 141, 238)" stroke="#263238" stroke-width="1.15613" stroke-linecap="round" stroke-linejoin="round"/>
<path d="M207.08 177.37C207.08 178.31 206.76 179.07 206.38 179.07C206 179.07 205.68 178.31 205.68 177.37C205.68 176.43 205.99 175.67 206.38 175.67C206.77 175.67 207.08 176.44 207.08 177.37Z" fill="#263238"/>
<path d="M204.48 174.28C204.48 174.28 205.48 171.08 207.88 173.48" stroke="#263238" stroke-width="1.15613" stroke-linecap="round" stroke-linejoin="round"/>
<path d="M299.54 368.36C299.54 368.36 289.14 374.26 286.29 375.63C283.44 377 281.54 378.07 286.73 379.5C291.92 380.93 306.47 379.93 308.9 379.8C311.33 379.67 312.34 380.35 312.2 377.68C312.06 375.01 312.2 368.43 312.2 368.43C312.2 368.43 301 369 299.54 368.36Z" fill="white" stroke="#263238" stroke-width="1.15613" stroke-linecap="round" stroke-linejoin="round"/>
<path d="M300.34 209.94C300.34 209.94 292.8 223.31 292.56 226.94C292.32 230.57 292.32 232.53 292.32 232.53C292.32 232.53 286.48 246.39 284.54 253.68C282.6 260.97 286 271.43 287.46 274.83C288.92 278.23 290.62 281.4 290.62 281.4C290.62 281.4 293.29 308.4 293.53 316.4C293.77 324.4 296.45 335.4 297.42 342.65C298.39 349.9 300.83 362.35 300.83 362.35C300.83 362.35 298.15 364.05 298.15 365.26C298.15 366.47 297.91 368.91 297.91 368.91C299.582 369.072 301.22 369.483 302.77 370.13C306.18 371.34 312.77 370.37 312.77 370.37C313.56 365.787 314.047 361.157 314.23 356.51C314.23 351.16 316.17 334.87 315.44 329.28C314.71 323.69 313.99 314.45 314.23 313.28C314.47 312.11 316.9 287.28 316.9 287.28C320.501 282.061 322.449 275.88 322.49 269.54C322.49 259.08 322.01 256.89 322.01 256.89C322.01 256.89 324.68 225.53 323.47 214.59C322.26 203.65 316.39 201 316.39 201L300.34 209.94Z" fill="#263238" stroke="#263238" stroke-width="1.15613" stroke-linecap="round" stroke-linejoin="round"/>
<path d="M323.44 214.56C322.22 203.62 316.39 200.95 316.39 200.95L300.34 209.95C300.34 209.95 292.8 223.32 292.56 226.95C292.32 230.58 292.32 232.54 292.32 232.54C292.32 232.54 286.48 246.4 284.54 253.69C284.045 255.704 283.857 257.78 283.98 259.85C286.78 262.03 292.98 265.37 304.23 264.85C313.84 264.42 319.33 261.85 322.23 259.8C322.195 258.795 322.101 257.794 321.95 256.8C321.95 256.8 324.65 225.5 323.44 214.56Z" fill="white" stroke="#263238" stroke-width="1.15613" stroke-linecap="round" stroke-linejoin="round"/>
<path d="M297.18 157.92C297.18 157.92 287.94 162.05 286.97 166.92C286 171.79 287.7 179.08 287.7 180.29C287.7 181.5 284.3 184.91 285.51 185.88C285.842 186.164 286.23 186.376 286.648 186.501C287.066 186.627 287.506 186.664 287.94 186.61C288.984 189.44 290.203 192.202 291.59 194.88C291.973 195.622 292.574 196.23 293.312 196.621C294.05 197.013 294.89 197.169 295.72 197.07C296.45 197.07 299.13 196.58 299.13 196.58L302.29 205.82L313.71 196.82C313.71 196.82 311.77 191.48 312.71 188.56C313.65 185.64 318.3 180.78 319.03 173.73C319.76 166.68 312.95 157.93 307.12 156.95C303.781 156.34 300.338 156.676 297.18 157.92Z" fill="white" stroke="#263238" stroke-width="1.15613" stroke-linecap="round" stroke-linejoin="round"/>
<path d="M307.15 156.94C303.789 156.328 300.323 156.675 297.15 157.94C297.15 157.94 296.33 158.31 295.15 158.94C297.15 158.1 300.59 157.19 301.27 160.61C302.27 165.47 295.93 168.61 296.9 170.82C297.87 173.03 301.52 173.74 302.49 176.41C303.46 179.08 304.68 180.3 305.65 179.09C306.62 177.88 306.14 175.44 307.84 174.95C309.54 174.46 312 178.1 312 181C312 183.9 308.84 185.14 308.84 185.14C309.293 185.837 309.902 186.42 310.619 186.841C311.336 187.263 312.14 187.512 312.97 187.57C313.03 187.565 313.09 187.565 313.15 187.57C314.62 184.57 318.4 180.03 319.05 173.71C319.79 166.67 313 157.92 307.15 156.94Z" fill="#B2B2B2" stroke="#263238" stroke-width="1.15613" stroke-linecap="round" stroke-linejoin="round"/>
<path d="M287.94 186.6C287.94 186.6 295.72 184.42 297.94 185.39C300.16 186.36 296.94 189.04 294.29 189.52C291.64 190 287.94 190.49 287.94 186.6Z" fill="#B2B2B2" stroke="#263238" stroke-width="1.15613" stroke-linecap="round" stroke-linejoin="round"/>
<path d="M292.08 178.34C292.08 179.41 291.75 180.28 291.35 180.28C290.95 180.28 290.62 179.41 290.62 178.34C290.62 177.27 290.94 176.34 291.35 176.34C291.76 176.34 292.08 177.26 292.08 178.34Z" fill="#263238"/>
<path d="M289.4 174.45C289.953 173.977 290.668 173.737 291.394 173.782C292.12 173.827 292.8 174.153 293.29 174.69" stroke="#263238" stroke-width="1.15613" stroke-linecap="round" stroke-linejoin="round"/>
<path d="M299.13 196.57C299.13 196.57 305.2 195.11 307.63 190.01" stroke="#263238" stroke-width="1.15613" stroke-linecap="round" stroke-linejoin="round"/>
<path d="M297.67 207L299.37 212.34L318.37 200.67L316.18 193.87C316.18 193.87 299.37 203.87 297.67 207Z" fill="white" stroke="#263238" stroke-width="1.15613" stroke-linecap="round" stroke-linejoin="round"/>
<path d="M305.2 245.44C305.2 245.44 285.27 246.65 280.89 246.65C277.684 246.536 274.502 246.046 271.41 245.19C271.41 245.19 268.98 241.79 268.01 240.82C267.04 239.85 264.85 239.6 262.66 239.6C260.47 239.6 258.53 238.6 258.53 240.09C258.53 241.58 259.53 241.55 260.47 242.03L263.39 243.49C263.39 243.49 256.09 243.74 255.12 243.74C254.15 243.74 251.96 242.28 252.2 244.22C252.44 246.16 254.15 246.41 255.85 246.41C257.55 246.41 263.14 249.08 264.85 249.08C266.56 249.08 270.92 249.33 270.92 249.33C270.92 249.33 280.92 251.27 287.46 253.95C294 256.63 309.34 257.59 311.04 256.38C312.74 255.17 313 245.44 313 245.44H305.2Z" fill="white" stroke="#263238" stroke-width="1.15613" stroke-linecap="round" stroke-linejoin="round"/>
<path d="M302.29 222.59L300.58 245C302.736 246.658 305.401 247.517 308.12 247.43C311.397 247.372 314.659 246.967 317.85 246.22C317.85 246.22 319.55 223.61 318.57 218.99C317.59 214.37 316.63 213.64 314.44 213.64" fill="white"/>
<path d="M302.29 222.59L300.58 245C302.736 246.658 305.401 247.517 308.12 247.43C311.397 247.372 314.659 246.967 317.85 246.22C317.85 246.22 319.55 223.61 318.57 218.99C317.59 214.37 316.63 213.64 314.44 213.64" stroke="#263238" stroke-width="1.15613" stroke-linecap="round" stroke-linejoin="round"/>
<path d="M82.46 367.8C82.46 367.8 70.72 373.91 67.82 375.34C64.92 376.77 62.99 377.91 68.28 379.44C73.57 380.97 88.4 379.93 90.87 379.8C93.34 379.67 94.38 380.39 94.23 377.56C94.08 374.73 93.73 369.1 93.73 369.1C93.73 369.1 84 368.5 82.46 367.8Z" fill="white" stroke="#263238" stroke-width="1.15613" stroke-linecap="round" stroke-linejoin="round"/>
<path d="M134.37 366.51C133.567 368.717 132.514 370.824 131.23 372.79C129.57 375.01 124.76 377.79 124.76 378.89V380H143.89C143.89 380 146.01 378.33 146.01 377C146.01 375.67 144.9 367.58 144.9 367.58L134.37 366.51Z" fill="white" stroke="#263238" stroke-width="1.15613" stroke-linecap="round" stroke-linejoin="round"/>
<path d="M94.84 265.09C94.84 265.09 90.96 277.29 87.45 289.66C83.94 302.03 79.69 316.66 78.95 322.73C78.21 328.8 83.2 363.18 83.2 363.18C82.7942 363.435 82.4619 363.791 82.2357 364.214C82.0095 364.637 81.8972 365.111 81.91 365.59C81.978 366.351 82.1636 367.096 82.46 367.8C82.46 367.8 88.74 369.47 90.4 369.47C91.5193 369.453 92.6343 369.329 93.73 369.1C93.73 369.1 94.65 333.1 94.65 328.83C94.694 326.727 94.5703 324.623 94.28 322.54L110.39 284.71L113.31 285.41C113.31 285.41 116.08 319.41 116.82 323.47C117.56 327.53 133.26 362.47 133.26 362.47C133.26 362.47 132.71 365.24 133.26 366.53C133.555 367.109 133.744 367.735 133.82 368.38C135.329 368.746 136.877 368.93 138.43 368.93C140.632 368.773 142.806 368.339 144.9 367.64C144.9 367.64 144.53 365.05 143.98 362.47C143.367 360.098 142.626 357.762 141.76 355.47L132.89 319.47C132.89 319.47 135.89 274.22 135.66 269.6C135.484 266.569 134.864 263.581 133.82 260.73C133.82 260.73 111.09 270.45 94.84 265.09Z" fill="#263238" stroke="#263238" stroke-width="1.15613" stroke-linecap="round" stroke-linejoin="round"/>
<path d="M92.46 204.06C92.46 204.06 82.86 203.58 78.05 206.7C73.24 209.82 72.77 220.63 72.05 222.07C71.33 223.51 66.77 242.24 66.29 244.89C65.81 247.54 70.61 252.81 72.53 251.61C74.45 250.41 82.38 230 82.38 230C82.38 230 93.9 251.14 94.86 253.3C95.82 255.46 94.38 266.99 94.38 266.99C94.38 266.99 97.03 271.99 109.76 271.55C122.49 271.11 134.76 264.35 134.76 264.35C134.76 264.35 132.6 251.14 132.12 248.5C131.64 245.86 130.2 222.32 127.56 213.19C124.92 204.06 119.63 200.7 115.56 200.7C110.747 200.663 105.936 200.903 101.15 201.42C98.2085 202.145 95.3077 203.026 92.46 204.06Z" fill="white" stroke="#263238" stroke-width="1.15613" stroke-linecap="round" stroke-linejoin="round"/>
<path d="M87.18 205.5C87.18 205.5 96.31 218.71 98.71 219.67C101.11 220.63 104.71 205.5 104.71 205.5L102.79 194.21C102.79 194.21 92.46 195.89 88.14 197.81C83.82 199.73 87.18 205.5 87.18 205.5Z" fill="white" stroke="#263238" stroke-width="1.15613" stroke-linecap="round" stroke-linejoin="round"/>
<path d="M83.58 204.06C83.58 204.06 89.82 211.98 93.42 212.46C97.02 212.94 99.42 212.46 101.11 208.38C102.06 206.06 102.31 197.09 102.31 197.09L82.14 202.09L83.58 204.06Z" fill="white" stroke="#263238" stroke-width="1.15613" stroke-linecap="round" stroke-linejoin="round"/>
<path d="M83.1 172.84C80.407 174.736 78.2533 177.3 76.85 180.28C74.93 184.84 79.49 195.17 79.49 195.17C79.49 195.17 78.05 203.58 80.49 204.3C82.93 205.02 91.06 205.3 96.11 203.1C101.16 200.9 104.03 197.1 104.27 196.1C104.51 195.1 103.79 187.94 103.79 187.94C103.79 187.94 103 180 99.19 174C97.71 171.73 86.94 169.71 83.1 172.84Z" fill="#263238" stroke="#263238" stroke-width="1.15613" stroke-linecap="round" stroke-linejoin="round"/>
<path d="M86.7 176.44C86.7 176.44 84.78 176.92 81.7 180.76C78.62 184.6 78.57 190.61 78.57 190.61L77.98 191.02C78.76 193.4 79.53 195.17 79.53 195.17C79.53 195.17 78.09 203.58 80.53 204.3C82.97 205.02 91.1 205.3 96.15 203.1C101.2 200.9 104.07 197.1 104.31 196.1C104.55 195.1 103.83 187.94 103.83 187.94C97.27 176.92 86.7 176.44 86.7 176.44Z" fill="white" stroke="#263238" stroke-width="1.15613" stroke-linecap="round" stroke-linejoin="round"/>
<path d="M104.23 196.13C104.47 195.13 103.75 187.97 103.75 187.97C103.75 187.97 103.75 187.9 103.75 187.79C92.25 198.56 79.51 195.17 79.51 195.17C79.51 195.17 78.07 203.58 80.51 204.3C82.95 205.02 91.08 205.3 96.13 203.1C101.18 200.9 104 197.09 104.23 196.13Z" fill="#263238" stroke="#263238" stroke-width="1.15613" stroke-linecap="round" stroke-linejoin="round"/>
<path d="M70 229.23C68.45 235.3 66.56 243.23 66.26 244.89C65.77 247.53 70.58 252.81 72.5 251.61C73.72 250.85 77.35 242.35 79.85 236.24L70 229.23Z" fill="white" stroke="#263238" stroke-width="1.15613" stroke-linecap="round" stroke-linejoin="round"/>
<path d="M66.53 242.24C66.53 242.24 64.6 251.85 64.84 255.93C65.08 260.01 78.77 280.67 78.77 280.67L79.97 275.67C79.97 275.67 75.65 256.21 75.17 252.61C74.8726 250.288 74.7124 247.951 74.69 245.61" fill="white"/>
<path d="M66.53 242.24C66.53 242.24 64.6 251.85 64.84 255.93C65.08 260.01 78.77 280.67 78.77 280.67L79.97 275.67C79.97 275.67 75.65 256.21 75.17 252.61C74.8726 250.288 74.7124 247.951 74.69 245.61" stroke="#263238" stroke-width="1.15613" stroke-linecap="round" stroke-linejoin="round"/>
<path d="M76.8 288.47C76.6419 289.414 76.7745 290.383 77.18 291.25C77.85 292.39 81.78 293.54 81.87 292.87C81.96 292.2 81.97 290 81.97 290L76.8 288.47Z" fill="white" stroke="#263238" stroke-width="1.15613" stroke-linecap="round" stroke-linejoin="round"/>
<path d="M76.51 286.65C76.3582 287.595 76.4941 288.563 76.9 289.43C77.57 290.58 81.49 291.72 81.59 291.05C81.69 290.38 81.68 288.18 81.68 288.18L76.51 286.65Z" fill="white" stroke="#263238" stroke-width="1.15613" stroke-linecap="round" stroke-linejoin="round"/>
<path d="M76.13 284.16C75.972 285.104 76.1045 286.073 76.51 286.94C77.18 288.09 81.11 289.24 81.2 288.57C81.29 287.9 81.3 285.69 81.3 285.69L76.13 284.16Z" fill="white" stroke="#263238" stroke-width="1.15613" stroke-linecap="round" stroke-linejoin="round"/>
<path d="M79.49 274.43C79.49 274.43 75.89 282.35 75.89 283.55C75.89 284.75 80.89 287.15 80.89 287.15L81.13 271.78L79.49 274.43Z" fill="white" stroke="#263238" stroke-width="1.15613" stroke-linecap="round" stroke-linejoin="round"/>
<path d="M129.6 270.8H79.47V315.8H129.6V270.8Z" fill="rgb(7, 141, 238)" stroke="#263238" stroke-width="1.15613" stroke-linecap="round" stroke-linejoin="round"/>
<path d="M107.425 310.682C115.195 308.836 119.998 301.042 118.153 293.272C116.307 285.502 108.513 280.699 100.743 282.544C92.9727 284.39 88.1699 292.184 90.0152 299.954C91.8605 307.724 99.6552 312.527 107.425 310.682Z" fill="white"/>
<path d="M94.73 289.34C98.0768 290.969 101.674 292.023 105.37 292.46C111.47 293.17 114.17 292.32 114.17 292.32C113.445 295.736 113.073 299.218 113.06 302.71C113.17 305.51 103.95 306.08 99.13 304.23C96.9412 303.455 94.8763 302.367 93 301C93 301 93.32 292.74 94.73 289.34Z" fill="white" stroke="#263238" stroke-width="1.15613" stroke-linecap="round" stroke-linejoin="round"/>
<path d="M94.31 292.46C94.31 292.46 101.4 297.85 113.31 295.72" stroke="#263238" stroke-width="1.15613" stroke-linecap="round" stroke-linejoin="round"/>
<path d="M93.6 295.58C93.6 295.58 99.33 301.86 112.7 298.93" stroke="#263238" stroke-width="1.15613" stroke-linecap="round" stroke-linejoin="round"/>
<path d="M93.17 299C93.17 299 104.52 305.95 112.89 302" stroke="#263238" stroke-width="1.15613" stroke-linecap="round" stroke-linejoin="round"/>
<path d="M114.17 292.32C114.17 292.32 118.71 287.32 119.98 290.47C121.25 293.62 119.41 301.11 113.32 303.24" stroke="#263238" stroke-width="1.15613" stroke-linecap="round" stroke-linejoin="round"/>
<path d="M94.73 289.34C94.73 289.34 94.88 285.23 92.46 284.52C90.04 283.81 90.76 294.87 93.03 300.26" stroke="#263238" stroke-width="1.15613" stroke-linecap="round" stroke-linejoin="round"/>
<path d="M108.28 270.8H100.78V278.69H108.28V270.8Z" fill="white" stroke="#263238" stroke-width="1.15613" stroke-linecap="round" stroke-linejoin="round"/>
<path d="M113.25 277.16L132.81 249.45C133.488 248.889 133.99 248.145 134.254 247.305C134.519 246.466 134.534 245.568 134.3 244.72C133.81 243.23 125.03 208.08 125.03 208.08C125.03 208.08 120.13 199.75 114.95 204.84C110.75 208.98 113.8 218.42 115.09 221.84C115.54 223.03 115.95 224.23 116.32 225.45L121 245.5L107.7 275.5C107.7 275.5 102.12 278.44 101.24 279C100.36 279.56 98.59 282.06 97.55 283.35C96.51 284.64 94.7 284.92 95.9 285.64C97.1 286.36 97.9 285.47 98.47 284.99L101.28 282.58L98.63 291.14C98.5538 291.38 98.5712 291.641 98.6787 291.869C98.7863 292.097 98.976 292.276 99.21 292.37C99.4468 292.466 99.7114 292.468 99.9495 292.375C100.188 292.282 100.381 292.101 100.49 291.87L103.17 286.21L102.59 292.72C102.57 292.96 102.645 293.199 102.798 293.386C102.951 293.572 103.17 293.692 103.41 293.72C103.624 293.745 103.839 293.696 104.021 293.582C104.203 293.467 104.341 293.294 104.41 293.09L106.41 287.09L106.31 292.42L106.57 293.79C108.04 294.27 108.09 292.52 108.18 291.61L108.61 287.46L110.02 292.08C110.567 291.18 110.815 290.13 110.73 289.08L110.37 284.74L111.91 278.79L113.25 277.16Z" fill="white" stroke="#263238" stroke-width="1.15613" stroke-linecap="round" stroke-linejoin="round"/>
<path d="M116.68 226.6L116.32 225.42C115.95 224.2 115.54 223 115.09 221.81C113.8 218.42 110.75 208.98 114.95 204.81C120.13 199.72 125.03 208.05 125.03 208.05C125.03 208.05 126.83 215.33 128.73 222.93L116.68 226.6Z" fill="white" stroke="#263238" stroke-width="1.15613" stroke-linecap="round" stroke-linejoin="round"/>
<path d="M139.65 315.9H68.41V379.85H139.65V315.9Z" fill="rgb(7, 141, 238)" stroke="#263238" stroke-width="1.15613" stroke-linecap="round" stroke-linejoin="round"/>
<path d="M102.97 370.1C113.695 370.1 122.39 361.405 122.39 350.68C122.39 339.955 113.695 331.26 102.97 331.26C92.2447 331.26 83.55 339.955 83.55 350.68C83.55 361.405 92.2447 370.1 102.97 370.1Z" fill="white"/>
<path d="M90.44 340.88C94.935 343.069 99.7653 344.489 104.73 345.08C112.93 346.03 116.55 344.89 116.55 344.89C116.55 344.89 114.82 352.89 115.06 358.89C115.21 362.65 102.83 363.41 96.35 360.89C93.4223 359.835 90.6634 358.359 88.16 356.51C88.16 356.51 88.54 345.46 90.44 340.88Z" fill="white" stroke="#263238" stroke-width="1.15613" stroke-linecap="round" stroke-linejoin="round"/>
<path d="M89.8701 345.08C89.8701 345.08 99.4 352.32 115.4 349.46" stroke="#263238" stroke-width="1.15613" stroke-linecap="round" stroke-linejoin="round"/>
<path d="M88.92 349.27C88.92 349.27 96.62 357.7 114.58 353.77" stroke="#263238" stroke-width="1.15613" stroke-linecap="round" stroke-linejoin="round"/>
<path d="M88.35 353.84C88.35 353.84 103.59 363.18 114.83 357.84" stroke="#263238" stroke-width="1.15613" stroke-linecap="round" stroke-linejoin="round"/>
<path d="M116.55 344.89C116.55 344.89 122.64 338.22 124.36 342.41C126.08 346.6 123.6 356.7 115.36 359.56" stroke="#263238" stroke-width="1.15613" stroke-linecap="round" stroke-linejoin="round"/>
<path d="M90.4401 340.88C90.4401 340.88 90.6401 335.36 87.4401 334.41C84.2401 333.46 85.1501 348.32 88.2001 355.56" stroke="#263238" stroke-width="1.15613" stroke-linecap="round" stroke-linejoin="round"/>
<path d="M108.29 315.9H101.97V326.5H108.29V315.9Z" fill="white" stroke="#263238" stroke-width="1.15613" stroke-linecap="round" stroke-linejoin="round"/>
<path d="M73.5601 289.37H23.4301V334.37H73.5601V289.37Z" fill="rgb(7, 141, 238)" stroke="#263238" stroke-width="1.15613" stroke-linecap="round" stroke-linejoin="round"/>
<path d="M51.9301 329.275C59.6863 327.373 64.4318 319.543 62.5296 311.787C60.6274 304.031 52.7977 299.285 45.0415 301.188C37.2853 303.09 32.5397 310.92 34.442 318.676C36.3442 326.432 44.1739 331.178 51.9301 329.275Z" fill="white"/>
<path d="M39.1601 307.93C42.5049 309.564 46.1026 310.619 49.8001 311.05C55.9001 311.76 58.6001 310.91 58.6001 310.91C57.8746 314.329 57.5027 317.814 57.4901 321.31C57.6001 324.1 48.3801 324.67 43.5601 322.83C41.38 322.044 39.3253 320.946 37.4601 319.57C37.4601 319.57 37.7501 311.34 39.1601 307.93Z" fill="white" stroke="#263238" stroke-width="1.15613" stroke-linecap="round" stroke-linejoin="round"/>
<path d="M38.74 311.05C38.74 311.05 45.83 316.44 57.74 314.32" stroke="#263238" stroke-width="1.15613" stroke-linecap="round" stroke-linejoin="round"/>
<path d="M38 314.18C38 314.18 43.73 320.46 57.11 317.53" stroke="#263238" stroke-width="1.15613" stroke-linecap="round" stroke-linejoin="round"/>
<path d="M37.6001 317.58C37.6001 317.58 48.9501 324.53 57.3201 320.58" stroke="#263238" stroke-width="1.15613" stroke-linecap="round" stroke-linejoin="round"/>
<path d="M58.6001 310.91C58.6001 310.91 63.1401 305.91 64.4101 309.07C65.6801 312.23 63.8501 319.71 57.7501 321.84" stroke="#263238" stroke-width="1.15613" stroke-linecap="round" stroke-linejoin="round"/>
<path d="M39.16 307.93C39.16 307.93 39.31 303.82 36.9 303.11C34.49 302.4 35.19 313.47 37.46 318.86" stroke="#263238" stroke-width="1.15613" stroke-linecap="round" stroke-linejoin="round"/>
<path d="M52.2401 289.37H44.7401V297.26H52.2401V289.37Z" fill="white" stroke="#263238" stroke-width="1.15613" stroke-linecap="round" stroke-linejoin="round"/>
<path d="M73.5601 334.85H23.4301V379.85H73.5601V334.85Z" fill="rgb(7, 141, 238)" stroke="#263238" stroke-width="1.15613" stroke-linecap="round" stroke-linejoin="round"/>
<path d="M58.2766 371.344C64.1551 365.938 64.5385 356.791 59.1329 350.912C53.7274 345.034 44.5798 344.65 38.7013 350.056C32.8228 355.461 32.4395 364.609 37.845 370.487C43.2506 376.366 52.3981 376.749 58.2766 371.344Z" fill="white"/>
<path d="M39.1601 353.41C42.5069 355.039 46.1037 356.093 49.8001 356.53C55.9001 357.24 58.6001 356.39 58.6001 356.39C57.8753 359.806 57.5034 363.288 57.4901 366.78C57.6001 369.58 48.3801 370.15 43.5601 368.3C41.38 367.514 39.3253 366.416 37.4601 365.04C37.4601 365.04 37.7501 356.81 39.1601 353.41Z" fill="white" stroke="#263238" stroke-width="1.15613" stroke-linecap="round" stroke-linejoin="round"/>
<path d="M38.74 356.53C38.74 356.53 45.83 361.92 57.74 359.79" stroke="#263238" stroke-width="1.15613" stroke-linecap="round" stroke-linejoin="round"/>
<path d="M38 359.65C38 359.65 43.73 365.93 57.11 363" stroke="#263238" stroke-width="1.15613" stroke-linecap="round" stroke-linejoin="round"/>
<path d="M37.6001 363.05C37.6001 363.05 49.0001 370 57.3201 366" stroke="#263238" stroke-width="1.15613" stroke-linecap="round" stroke-linejoin="round"/>
<path d="M58.6001 356.39C58.6001 356.39 63.1401 351.39 64.4101 354.54C65.6801 357.69 63.8501 365.18 57.7501 367.31" stroke="#263238" stroke-width="1.15613" stroke-linecap="round" stroke-linejoin="round"/>
<path d="M39.16 353.41C39.16 353.41 39.31 349.3 36.9 348.59C34.49 347.88 35.19 358.94 37.46 364.33" stroke="#263238" stroke-width="1.15613" stroke-linecap="round" stroke-linejoin="round"/>
<path d="M52.2401 334.85H44.7401V342.74H52.2401V334.85Z" fill="white" stroke="#263238" stroke-width="1.15613" stroke-linecap="round" stroke-linejoin="round"/>
<path d="M1.13 380.26H421.58" stroke="#263238" stroke-width="1.15613" stroke-linecap="round" stroke-linejoin="round"/>
</svg>
