<svg width="66" height="67" viewBox="0 0 66 67" fill="none" xmlns="http://www.w3.org/2000/svg">
<path fill-rule="evenodd" clip-rule="evenodd" d="M22.9731 59.3401C10.29 59.3401 0 49.0498 0 36.368C0 23.676 10.29 13.3937 22.9731 13.3937C35.6644 13.3937 45.9461 23.676 45.9461 36.368C45.9461 49.0498 35.6644 59.3401 22.9731 59.3401Z" fill="#078DEE" fill-opacity="0.22"/>
<path d="M38.8337 56.005H46.7497C46.0635 54.6246 45.6234 53.4461 45.3714 52.3193C45.0571 50.9427 45.035 49.5877 45.3068 48.2938C45.3475 48.1005 45.4913 47.9457 45.6805 47.8916C47.7276 47.3025 49.5279 46.1227 50.8876 44.4789C52.2385 42.841 53.0563 40.8661 53.2519 38.7684C53.2717 38.5536 53.4189 38.3726 53.625 38.3086C54.7833 37.95 55.8345 37.2166 56.5848 36.2428C57.3781 35.1963 57.7989 33.9571 57.7989 32.6614V25.42H53.8246C53.5301 25.42 53.2921 25.1814 53.2921 24.8869V21.9224H32.3094V24.8869C32.3094 25.1814 32.0708 25.42 31.7763 25.42H27.8026V32.6614C27.8026 33.9635 28.2228 35.2021 29.0179 36.244C29.7583 37.2143 30.8095 37.9477 31.9765 38.3086C32.1826 38.3726 32.3298 38.5536 32.3496 38.7684C32.544 40.8655 33.3618 42.8405 34.7139 44.4801C36.0899 46.1361 37.8914 47.3159 39.9233 47.8904C40.1137 47.9445 40.2586 48.0993 40.2994 48.2932C40.5636 49.5434 40.5392 50.8379 40.2248 52.2506C39.9658 53.4071 39.5101 54.638 38.8337 56.005ZM47.1228 57.0706H38.4676C38.0055 57.0706 37.6289 56.6962 37.6289 56.2355C37.6289 56.0878 37.665 55.9443 37.7342 55.819C38.4531 54.413 38.9274 53.1697 39.1847 52.0189C39.4391 50.8758 39.4827 49.8257 39.3151 48.8211C37.2051 48.1576 35.3361 46.8962 33.8932 45.1594C32.4777 43.4435 31.5941 41.3946 31.3258 39.2131C30.0842 38.7567 28.9731 37.9419 28.171 36.8907C27.2327 35.6613 26.7368 34.1992 26.7368 32.6614V25.1895C26.7368 24.7291 27.1134 24.3543 27.5767 24.3543H31.2437V21.7018C31.2437 21.2356 31.6174 20.8567 32.0772 20.8567H53.5191C53.9818 20.8567 54.3578 21.2356 54.3578 21.7018V24.3543H58.0242C58.4875 24.3543 58.8647 24.7291 58.8647 25.1895V32.6614C58.8647 34.1911 58.3688 35.6538 57.4317 36.8895C56.6191 37.9448 55.5091 38.7591 54.2757 39.2131C54.0062 41.3958 53.1227 43.4446 51.7089 45.1582C50.2822 46.8829 48.4144 48.1436 46.2916 48.8199C46.1118 49.8775 46.1514 50.9491 46.411 52.0847C46.6618 53.2092 47.1222 54.4008 47.8597 55.8375C48.0751 56.2284 47.9313 56.7316 47.5355 56.9669C47.5128 56.9799 47.4901 56.9917 47.4668 57.0016C47.3533 57.0481 47.241 57.0706 47.1228 57.0706Z" fill="#100F0D"/>
<path d="M54.3576 27.8361V35.1857C54.5662 34.9942 54.7509 34.7794 54.9066 34.547C55.3311 33.9321 55.5527 33.2218 55.5527 32.4864V27.8361H54.3576ZM53.8246 36.74C53.7291 36.74 53.6336 36.7144 53.5495 36.6638C53.3893 36.5672 53.2915 36.3939 53.2915 36.2075V27.3031C53.2915 27.0093 53.5302 26.7706 53.8246 26.7706H56.0857C56.3801 26.7706 56.6188 27.0093 56.6188 27.3031V32.4864C56.6188 33.4388 56.3318 34.3583 55.788 35.1454C55.3652 35.7785 54.7702 36.3109 54.0735 36.6786C53.995 36.7195 53.9098 36.74 53.8246 36.74Z" fill="#100F0D"/>
<path d="M30.0482 27.8361V32.4863C30.0482 33.2201 30.2686 33.931 30.6859 34.5426C30.8463 34.7792 31.0338 34.996 31.2438 35.1882V27.8361H30.0482ZM31.7765 36.74C31.6914 36.74 31.6073 36.7201 31.5295 36.6794C30.8379 36.3185 30.2414 35.7868 29.8048 35.1417C29.2668 34.3541 28.9827 33.4353 28.9827 32.4863V27.3033C28.9827 27.0093 29.2208 26.7706 29.5154 26.7706H31.7765C32.0706 26.7706 32.3093 27.0093 32.3093 27.3033V36.2072C32.3093 36.3937 32.2116 36.5666 32.0523 36.6632C31.9677 36.7144 31.8721 36.74 31.7765 36.74Z" fill="#100F0D"/>
<path d="M34.7229 62.249H50.8773V57.0709H34.7229V62.249ZM51.4104 63.3149H34.1903C33.8962 63.3149 33.6577 63.0762 33.6577 62.7818V56.5377C33.6577 56.2437 33.8962 56.0052 34.1903 56.0052H51.4104C51.7045 56.0052 51.943 56.2437 51.943 56.5377V62.7818C51.943 63.0762 51.7045 63.3149 51.4104 63.3149Z" fill="#100F0D"/>
<path d="M32.9806 65.1266H52.6154V63.3147H32.9806V65.1266ZM53.1486 66.1921H32.4479C32.1535 66.1921 31.9153 65.9538 31.9153 65.6594V62.7816C31.9153 62.4873 32.1535 62.2488 32.4479 62.2488H53.1486C53.4425 62.2488 53.6813 62.4873 53.6813 62.7816V65.6594C53.6813 65.9538 53.4425 66.1921 53.1486 66.1921Z" fill="#100F0D"/>
<path d="M53.8246 24.6897H41.2345C40.9406 24.6897 40.7017 24.4513 40.7017 24.1564C40.7017 23.8625 40.9406 23.6236 41.2345 23.6236H53.8246C54.119 23.6236 54.3579 23.8625 54.3579 24.1564C54.3579 24.4513 54.119 24.6897 53.8246 24.6897Z" fill="#100F0D"/>
<path d="M38.6323 24.6897H36.0813C35.7867 24.6897 35.5483 24.4514 35.5483 24.1567C35.5483 23.8626 35.7867 23.6238 36.0813 23.6238H38.6323C38.927 23.6238 39.1653 23.8626 39.1653 24.1567C39.1653 24.4514 38.927 24.6897 38.6323 24.6897Z" fill="#100F0D"/>
<path d="M43.407 60.929H34.1901C33.8963 60.929 33.6575 60.6901 33.6575 60.3963C33.6575 60.102 33.8963 59.8631 34.1901 59.8631H43.407C43.7008 59.8631 43.9397 60.102 43.9397 60.3963C43.9397 60.6901 43.7008 60.929 43.407 60.929Z" fill="#100F0D"/>
<path d="M46.8205 60.929H45.3547C45.0606 60.929 44.8218 60.69 44.8218 60.3964C44.8218 60.1018 45.0606 59.8635 45.3547 59.8635H46.8205C47.1146 59.8635 47.3534 60.1018 47.3534 60.3964C47.3534 60.69 47.1146 60.929 46.8205 60.929Z" fill="#100F0D"/>
<path d="M42.8045 6.67676C42.51 6.67676 42.2717 6.43784 42.2717 6.144V0.532816C42.2717 0.238286 42.51 5.57899e-05 42.8045 5.57899e-05C43.099 5.57899e-05 43.3373 0.238286 43.3373 0.532816V6.144C43.3373 6.43784 43.099 6.67676 42.8045 6.67676Z" fill="#100F0D"/>
<path d="M60.0747 16.0391C59.8854 16.0391 59.7023 15.9385 59.606 15.7597C59.466 15.501 59.5623 15.178 59.821 15.0374L64.9845 12.2422C65.2432 12.1022 65.5663 12.1984 65.7069 12.4572C65.8469 12.7159 65.7506 13.0389 65.4919 13.1795L60.3284 15.9747C60.2472 16.0184 60.1609 16.0391 60.0747 16.0391Z" fill="#100F0D"/>
<path d="M25.5258 16.0388C25.4406 16.0388 25.3537 16.018 25.2729 15.9745L20.1053 13.1787C19.8467 13.0391 19.7502 12.7158 19.8901 12.4568C20.0304 12.1978 20.3539 12.1017 20.6124 12.2419L25.7799 15.0371C26.0389 15.1767 26.135 15.5006 25.9954 15.7596C25.8987 15.9372 25.7156 16.0388 25.5258 16.0388Z" fill="#100F0D"/>
<path d="M52.3097 9.93066C52.2147 9.93066 52.1183 9.90528 52.0311 9.85127C51.7806 9.69703 51.7025 9.36902 51.8567 9.11847L53.6783 6.15736C53.8332 5.90615 54.1605 5.82806 54.4117 5.9823C54.6623 6.13654 54.7404 6.46454 54.5862 6.71574L52.7646 9.67685C52.6637 9.8402 52.4886 9.93066 52.3097 9.93066Z" fill="#100F0D"/>
<path d="M65.4672 25.4106H61.823C61.5289 25.4106 61.2898 25.1722 61.2898 24.8774C61.2898 24.5833 61.5289 24.3448 61.823 24.3448H65.4672C65.7614 24.3448 65.9998 24.5833 65.9998 24.8774C65.9998 25.1722 65.7614 25.4106 65.4672 25.4106Z" fill="#100F0D"/>
<path d="M23.7783 25.4102H20.134C19.8396 25.4102 19.6011 25.1722 19.6011 24.8778C19.6011 24.5834 19.8396 24.3449 20.134 24.3449H23.7783C24.0727 24.3449 24.3112 24.5834 24.3112 24.8778C24.3112 25.1722 24.0727 25.4102 23.7783 25.4102Z" fill="#100F0D"/>
<path d="M33.2856 9.93066C33.1073 9.93066 32.9322 9.84086 32.832 9.67686L31.0098 6.71576C30.8556 6.46521 30.9337 6.13721 31.1842 5.98232C31.4348 5.82874 31.7634 5.90618 31.917 6.15739L33.7392 9.11848C33.8934 9.36903 33.8154 9.69768 33.5648 9.85192C33.4776 9.90529 33.3813 9.93066 33.2856 9.93066Z" fill="#100F0D"/>
<path d="M42.8035 14.8406C42.5096 14.8406 42.271 14.602 42.271 14.308V11.1513C42.271 10.8574 42.5096 10.6187 42.8035 10.6187C43.0981 10.6187 43.3367 10.8574 43.3367 11.1513V14.308C43.3367 14.602 43.0981 14.8406 42.8035 14.8406Z" fill="#100F0D"/>
<path d="M47.8395 16.6824C47.7493 16.6824 47.6579 16.6589 47.5731 16.6102C47.3187 16.4635 47.2314 16.1375 47.3788 15.8825L48.3411 14.2165C48.4884 13.9615 48.8144 13.8749 49.0688 14.0217C49.3238 14.169 49.411 14.495 49.2637 14.75L48.3014 16.4159C48.2028 16.5867 48.0235 16.6824 47.8395 16.6824Z" fill="#100F0D"/>
<path d="M37.7584 16.6824C37.5738 16.6824 37.3945 16.5861 37.2959 16.4147L36.3366 14.7494C36.1893 14.4944 36.2771 14.1684 36.5321 14.0217C36.7871 13.8749 37.1131 13.9621 37.2598 14.2171L38.2197 15.8837C38.3665 16.1381 38.278 16.4641 38.023 16.6114C37.94 16.6595 37.8486 16.6824 37.7584 16.6824Z" fill="#100F0D"/>
<path d="M57.2058 66.1921H29.3881C29.0942 66.1921 28.8555 65.9537 28.8555 65.6594C28.8555 65.3654 29.0942 65.1266 29.3881 65.1266H57.2058C57.4997 65.1266 57.7384 65.3654 57.7384 65.6594C57.7384 65.9537 57.4997 66.1921 57.2058 66.1921Z" fill="#100F0D"/>
<path d="M39.1976 34.5233L41.1184 35.9124C41.3064 36.048 41.3848 36.2894 41.3126 36.5101L40.5742 38.7602L42.4903 37.3649C42.6773 37.2278 42.9312 37.2283 43.1182 37.3649L45.0286 38.7591L44.2933 36.5091C44.2211 36.2894 44.2995 36.048 44.4875 35.9124L46.4052 34.5233L44.0316 34.528C44.0311 34.528 44.0311 34.528 44.03 34.528C43.7989 34.528 43.5938 34.3785 43.5232 34.1578L42.8014 31.9056L42.0718 34.1593C42.0007 34.3795 41.7961 34.528 41.565 34.528C41.5645 34.528 41.5645 34.528 41.5639 34.528L39.1976 34.5233ZM46.048 40.6956C45.9374 40.6956 45.8278 40.6613 45.7338 40.5927L42.8035 38.4548L39.8669 40.5933C39.6805 40.7293 39.4266 40.7293 39.2396 40.5938C39.0527 40.4572 38.9748 40.2163 39.047 39.9966L40.1785 36.5475L37.2341 34.4184C37.0467 34.2829 36.9683 34.0414 37.0399 33.8218C37.1116 33.6021 37.3157 33.4536 37.5462 33.4536C37.5473 33.4536 37.5473 33.4536 37.5478 33.4536L41.1776 33.4614L42.2972 30.0035C42.3683 29.7833 42.5729 29.6348 42.804 29.6348C42.8045 29.6348 42.8045 29.6348 42.8045 29.6348C43.0366 29.6348 43.2407 29.7849 43.3113 30.005L44.419 33.4614L48.0529 33.4536C48.0534 33.4536 48.054 33.4536 48.0545 33.4536C48.285 33.4536 48.4896 33.6021 48.5608 33.8218C48.6324 34.0414 48.554 34.2824 48.3666 34.4179L45.4274 36.5475L46.5543 39.9971C46.6259 40.2168 46.548 40.4582 46.3606 40.5938C46.2676 40.6618 46.1575 40.6956 46.048 40.6956Z" fill="#100F0D"/>
<path d="M44.829 46.9199C44.6439 46.9199 44.4637 46.8228 44.3655 46.6501C44.2202 46.3948 44.3098 46.0692 44.5656 45.9239C50.0061 42.8311 50.2019 40.8395 50.3193 39.6493L50.329 39.5528C50.3585 39.2599 50.6197 39.0464 50.9126 39.0759C51.2054 39.1054 51.4189 39.3672 51.3889 39.6595L51.3798 39.7539C51.2425 41.149 51.0123 43.4844 45.0918 46.8502C45.0092 46.8974 44.9185 46.9199 44.829 46.9199Z" fill="#100F0D"/>
</svg>
