<svg width="150" height="38" viewBox="0 0 150 38" fill="none" xmlns="http://www.w3.org/2000/svg">
<path d="M86.8045 0.220868C86.662 0.395044 86.7095 0.410878 87.0265 0.347541C87.248 0.315873 87.4225 0.220868 87.4225 0.141697C87.4225 -0.079981 87.0105 -0.0324785 86.8045 0.220868Z" fill="#263238"/>
<path d="M87.8975 0.347873C88.2615 0.743936 88.2775 0.838991 88.04 1.31427C87.8815 1.64696 87.8815 1.64696 88.119 1.36179C88.452 0.949886 88.436 0.585511 88.0875 0.26866C87.6595 -0.127402 87.517 -0.0640317 87.8975 0.347873Z" fill="#263238"/>
<path d="M85.8696 0.727857C85.5846 1.12392 85.5526 1.13976 85.6321 0.822912C85.7426 0.36348 85.3941 0.36348 85.2201 0.838757C85.1406 1.04471 84.9666 1.29819 84.8241 1.40908C84.6816 1.51998 84.5706 1.72593 84.5706 1.83683C84.5706 1.99526 84.3646 2.05863 83.8736 2.05863C83.0181 2.05863 82.8596 2.24874 83.3346 2.67648C83.8101 3.13592 84.1586 3.08839 84.3646 2.56559C84.5231 2.16952 84.5386 2.18537 84.4756 2.77154L84.3961 3.40524L84.8716 2.85075L85.3466 2.29626L85.3626 2.97749C85.3626 3.3894 85.4261 3.62703 85.5211 3.56366C85.6161 3.51613 85.6796 3.00918 85.6796 2.47053C85.6796 1.69425 85.7586 1.3774 86.0121 1.04471C86.1866 0.822912 86.3131 0.553592 86.2816 0.442692C86.2496 0.347638 86.0596 0.474378 85.8696 0.727857ZM84.9031 2.26458C84.7766 2.39132 84.7291 2.37548 84.7291 2.20121C84.7291 2.05863 84.7766 1.9002 84.8396 1.83683C84.9031 1.77346 84.9826 1.80515 85.0141 1.9002C85.0616 2.0111 84.9981 2.16952 84.9031 2.26458Z" fill="#263238"/>
<path d="M86.4715 0.806779C86.4715 1.23453 86.947 1.74149 87.3745 1.74149C87.866 1.74149 87.8025 1.61475 87.248 1.53553C87.026 1.50385 86.852 1.34542 86.82 1.17116C86.741 0.775094 86.4715 0.489931 86.4715 0.806779Z" fill="#263238"/>
<path d="M87.4225 0.950092C87.4225 1.02915 87.5015 1.1082 87.581 1.1082C87.676 1.1082 87.739 1.02915 87.739 0.950092C87.739 0.855232 87.676 0.791992 87.581 0.791992C87.5015 0.791992 87.4225 0.855232 87.4225 0.950092Z" fill="#263238"/>
<path d="M88.468 1.0445C88.3255 1.40868 88.769 1.88371 89.0225 1.63036C89.26 1.39285 89.1335 0.886159 88.8325 0.822824C88.69 0.791154 88.5315 0.901994 88.468 1.0445Z" fill="#263238"/>
<path d="M102.188 1.67877C101.807 1.94809 101.776 2.0273 101.982 2.34415C102.077 2.50258 102.188 2.51842 102.52 2.36C102.758 2.2491 102.948 2.10652 102.948 2.0273C102.948 1.94809 102.885 1.93225 102.79 1.97978C102.568 2.12236 102.584 1.85304 102.821 1.6154C103.107 1.33023 102.631 1.36192 102.188 1.67877Z" fill="#263238"/>
<path d="M86.5035 1.91609C86.5355 2.02693 86.662 2.15361 86.773 2.18527C86.8995 2.23278 86.963 2.16944 86.9155 2.04277C86.884 1.93193 86.757 1.80526 86.646 1.77359C86.5195 1.72608 86.456 1.78942 86.5035 1.91609Z" fill="#263238"/>
<path d="M87.897 1.97898C87.7705 2.12156 87.739 2.43841 87.802 2.80279C87.8655 3.13548 87.929 3.57907 87.9605 3.80086C87.9925 4.02266 88.024 4.26029 88.04 4.32366C88.0875 4.65636 88.61 4.30782 88.6895 3.88007C88.7525 3.59491 88.8795 3.42064 88.9905 3.45233C89.1015 3.46817 89.513 3.49985 89.8935 3.5157C90.654 3.53154 90.844 3.75333 90.1625 3.83255C89.846 3.86423 89.7035 3.97513 89.6715 4.24445C89.64 4.46625 89.545 4.5613 89.434 4.48209C89.323 4.41872 89.323 4.48209 89.45 4.64051C89.5765 4.7831 89.624 4.95736 89.5765 5.05241C89.529 5.13161 89.5925 5.22666 89.719 5.29006C89.846 5.33756 89.9885 5.30591 90.052 5.21086C90.0995 5.11581 90.242 5.16331 90.3845 5.33756C90.5905 5.59106 90.5905 5.59106 90.416 5.24252C90.258 4.90984 90.2735 4.81478 90.559 4.57714C90.749 4.43456 90.844 4.26029 90.7805 4.21277C90.733 4.1494 90.7645 4.0385 90.8915 3.97513C91.034 3.88007 91.05 3.76918 90.939 3.54738C90.844 3.37311 90.733 3.11964 90.6855 2.96121C90.638 2.80279 90.527 2.72357 90.432 2.7711C90.353 2.81863 90.2735 2.7711 90.2735 2.64436C90.2735 2.53346 90.147 2.43841 90.0045 2.45425C89.846 2.45425 89.719 2.50178 89.719 2.54931C89.719 2.75526 89.2755 3.15132 89.149 3.07211C89.0695 3.02458 89.006 2.78694 89.006 2.54931C89.006 1.82055 88.325 1.45617 87.897 1.97898ZM88.61 2.69189C88.61 3.21469 88.547 3.4048 88.3725 3.4048C88.1985 3.4048 88.119 3.19885 88.0875 2.64436C88.04 1.97898 88.0715 1.88392 88.325 1.93145C88.547 1.97898 88.61 2.1374 88.61 2.69189ZM88.531 4.0385C88.531 4.18108 88.436 4.22861 88.2935 4.18108C88.1665 4.11771 88.103 4.02266 88.1505 3.94344C88.2775 3.72165 88.531 3.78502 88.531 4.0385ZM90.5905 4.33951C90.5905 4.38703 90.527 4.46625 90.432 4.51377C90.353 4.5613 90.2735 4.52962 90.2735 4.4504C90.2735 4.35535 90.353 4.27614 90.432 4.27614C90.527 4.27614 90.5905 4.30782 90.5905 4.33951Z" fill="#263238"/>
<path d="M86.0755 2.37534C85.917 2.62869 86.1865 2.8662 86.44 2.70786C86.598 2.61285 86.598 2.54952 86.408 2.39118C86.2495 2.24867 86.1545 2.24867 86.0755 2.37534Z" fill="#263238"/>
<path d="M101.284 2.72366C100.793 3.29399 100.888 3.53163 101.411 3.04051C101.934 2.54939 102.076 2.61276 101.696 3.15141C101.506 3.40489 101.363 3.73758 101.363 3.88016C101.363 4.03859 101.284 4.08612 101.173 4.02275C101.031 3.92769 101.031 3.97522 101.173 4.16533C101.3 4.30791 101.347 4.49802 101.284 4.59308C101.236 4.67229 101.332 4.7515 101.506 4.7515C101.918 4.7515 102.219 4.24454 101.949 3.95938C101.791 3.80095 101.838 3.7851 102.187 3.86432C102.52 3.94353 102.599 3.91185 102.536 3.73758C102.488 3.595 102.583 3.46826 102.773 3.40489C103.138 3.29399 103.201 3.08804 102.932 2.92961C102.852 2.86624 102.646 2.92961 102.488 3.07219C102.124 3.40489 101.949 3.38904 102.124 3.04051C102.219 2.8504 102.187 2.69197 101.981 2.50186C101.712 2.24838 101.68 2.26423 101.284 2.72366ZM101.839 4.18117C101.839 4.2287 101.775 4.30791 101.68 4.35544C101.601 4.40297 101.522 4.37128 101.522 4.29207C101.522 4.19701 101.601 4.1178 101.68 4.1178C101.775 4.1178 101.839 4.14949 101.839 4.18117Z" fill="#263238"/>
<path d="M103.153 2.59703C103.232 2.83454 103.533 2.88204 103.533 2.64453C103.533 2.51786 103.438 2.42285 103.312 2.42285C103.201 2.42285 103.122 2.50202 103.153 2.59703Z" fill="#263238"/>
<path d="M99.2565 2.91448C99.209 3.04115 99.209 3.18366 99.2565 3.23116C99.399 3.37367 99.795 2.99365 99.684 2.83531C99.5575 2.62947 99.3515 2.66113 99.2565 2.91448Z" fill="#263238"/>
<path d="M81.909 3.04067C81.624 3.32584 81.6875 3.48426 82.004 3.37336C82.194 3.30999 82.1625 3.38921 81.8775 3.65853C81.6555 3.88032 81.402 4.0229 81.307 3.99122C81.006 3.89616 80.8635 4.30807 81.117 4.49818C81.291 4.62492 81.3385 4.83087 81.291 5.11604C81.1805 5.65469 81.624 5.87649 82.004 5.48044C82.21 5.27444 82.226 5.16359 82.0835 4.92593C81.8455 4.54571 81.9885 4.40312 82.3685 4.60908C82.5745 4.70413 82.7645 4.70413 82.939 4.60908C83.0975 4.52986 83.319 4.51402 83.4775 4.59323C83.6835 4.70413 83.731 4.67245 83.715 4.41897C83.715 4.2447 83.5885 4.03875 83.4615 3.95953C83.303 3.84864 83.2875 3.80111 83.43 3.80111C83.525 3.80111 83.62 3.7219 83.62 3.64269C83.62 3.54763 83.4775 3.48426 83.303 3.48426C83.129 3.48426 83.002 3.38921 83.034 3.27831C83.0495 3.18325 82.923 3.0882 82.7485 3.0882C82.5745 3.07236 82.3525 3.02483 82.2575 2.9773C82.1625 2.91393 82.004 2.94562 81.909 3.04067ZM82.907 3.95953C82.8595 4.03875 82.7485 4.11796 82.6535 4.11796C82.5745 4.11796 82.511 4.03875 82.511 3.95953C82.511 3.86448 82.622 3.80111 82.7645 3.80111C82.8915 3.80111 82.9545 3.86448 82.907 3.95953Z" fill="#263238"/>
<path d="M95.502 3.24728C95.502 3.37395 95.5335 3.48479 95.5655 3.48479C95.597 3.48479 95.6605 3.37395 95.7235 3.24728C95.7715 3.12061 95.7395 3.00977 95.6605 3.00977C95.5655 3.00977 95.502 3.12061 95.502 3.24728Z" fill="#263238"/>
<path d="M95.8345 3.35732C95.7235 3.62665 95.7555 3.76923 95.9455 3.91181C96.2625 4.16529 96.4525 4.16529 96.4525 3.92765C96.4525 3.8326 96.5 3.80091 96.5635 3.84844C96.674 3.95934 97.086 3.67417 97.086 3.48406C97.086 3.37317 96.373 3.00879 96.1195 3.00879C96.0405 3.00879 95.898 3.16721 95.8345 3.35732Z" fill="#263238"/>
<path d="M83.7945 3.42085C83.7945 3.59502 83.842 3.64252 83.8895 3.51585C83.937 3.40501 83.921 3.2625 83.8735 3.215C83.826 3.15166 83.7785 3.24667 83.7945 3.42085Z" fill="#263238"/>
<path d="M94.551 3.37392C94.551 3.48482 94.4245 3.64324 94.25 3.75414C93.9175 3.96009 93.664 4.75222 93.9015 4.8948C93.9965 4.95817 93.981 5.22751 93.87 5.67106C93.7275 6.24141 93.7275 6.38401 93.9175 6.49491C94.3135 6.74836 94.3925 6.68501 94.583 5.95626C94.678 5.56021 94.8205 5.27501 94.8995 5.32256C95.1375 5.46511 95.359 4.54626 95.248 3.8492C95.169 3.32639 95.074 3.16797 94.852 3.16797C94.678 3.16797 94.551 3.26302 94.551 3.37392Z" fill="#263238"/>
<path d="M99.779 3.40548C99.621 3.59549 99.621 3.64299 99.827 3.64299C99.9535 3.64299 100.096 3.53215 100.16 3.40548C100.207 3.27881 100.191 3.16797 100.112 3.16797C100.033 3.16797 99.89 3.27881 99.779 3.40548Z" fill="#263238"/>
<path d="M97.5611 3.80082C97.4661 3.95924 97.1016 4.19688 96.7216 4.29194C96.2621 4.43452 96.1511 4.51373 96.3571 4.56126C96.5951 4.60879 96.6106 4.65631 96.4366 4.76721C96.0406 5.00485 96.8006 4.92564 97.2446 4.67216C97.4661 4.54542 97.8146 4.43452 98.0366 4.41868C98.3061 4.40283 98.3536 4.37115 98.1476 4.32362C98.0051 4.29194 97.9096 4.18104 97.9571 4.10183C98.0206 4.02261 97.9891 3.95924 97.8941 3.95924C97.7991 3.95924 97.7671 3.84835 97.8146 3.72161C97.9571 3.37307 97.7516 3.43644 97.5611 3.80082Z" fill="#263238"/>
<path d="M102.916 4.45096C102.996 4.94208 102.98 4.95792 102.489 4.87871C102.188 4.83118 102.045 4.86286 102.14 4.95792C102.409 5.22724 103.027 5.00544 103.075 4.60938C103.106 4.40343 103.075 4.18164 102.996 4.10242C102.9 4.00737 102.869 4.14995 102.916 4.45096Z" fill="#263238"/>
<path d="M80.4515 4.67289C80.3405 4.79963 80.008 4.91052 79.7225 4.91052C79.4215 4.91052 79.184 4.97389 79.184 5.06895C79.184 5.14815 79.2315 5.2274 79.311 5.2274C79.469 5.2274 79.4375 6.36805 79.2635 6.63735C79.168 6.7958 79.2 6.82745 79.3585 6.74825C79.485 6.6849 79.4535 6.7324 79.311 6.85915C78.883 7.19185 78.9625 7.3661 79.406 7.0651C79.8495 6.77995 80.008 6.9859 79.802 7.5562C79.6275 8.0315 79.675 8.01565 80.214 7.4453L80.673 6.97005L80.1665 6.7958C79.612 6.60565 79.5165 6.33635 79.897 6.0195C80.0555 5.8769 80.1345 5.8769 80.1345 6.00365C80.1345 6.0987 80.2295 6.1779 80.3565 6.1779C80.4675 6.1779 80.61 6.3205 80.6575 6.5106C80.784 6.97005 81.4655 6.85915 81.5285 6.36805C81.5765 6.0987 81.497 5.97195 81.2595 5.9086C81.0695 5.86105 80.9265 5.7185 80.9265 5.59175C80.9265 5.465 80.8635 5.4175 80.7685 5.465C80.689 5.51255 80.61 5.48085 80.61 5.40165C80.61 5.3066 80.673 5.2274 80.7525 5.2274C80.99 5.2274 81.0695 4.78378 80.8635 4.60952C80.705 4.48278 80.594 4.49862 80.4515 4.67289Z" fill="#263238"/>
<path d="M100.303 4.75199C100.334 4.87866 100.524 5.00532 100.746 5.02117C101.047 5.03702 101.063 5.03702 100.81 4.95783C100.635 4.91033 100.429 4.79949 100.366 4.68865C100.271 4.57781 100.255 4.59365 100.303 4.75199Z" fill="#263238"/>
<path d="M95.581 4.91006C95.6285 4.98911 95.787 5.06817 95.914 5.06817C96.0405 5.06817 96.104 4.98911 96.0565 4.91006C96.009 4.81519 95.8505 4.75195 95.724 4.75195C95.597 4.75195 95.5335 4.81519 95.581 4.91006Z" fill="#263238"/>
<path d="M78.392 5.22707C78.297 5.40137 78.075 5.54392 77.901 5.54392C77.7265 5.54392 77.6155 5.60732 77.663 5.67067C77.7105 5.74987 78.0435 5.78157 78.4235 5.74987L79.105 5.70237L78.471 6.28852C78.059 6.66877 77.9165 6.89052 78.0435 6.93807C78.17 6.96977 78.503 6.76382 78.804 6.47862C79.279 6.01922 79.311 5.93997 79.105 5.70237C78.978 5.55977 78.867 5.35382 78.867 5.25877C78.867 4.92608 78.566 4.91024 78.392 5.22707Z" fill="#263238"/>
<path d="M97.0385 5.38558C96.8325 5.92418 96.7375 5.95588 96.4525 5.62318C96.215 5.33803 95.4385 5.30633 95.2165 5.57568C94.868 6.03508 94.8525 6.47868 95.169 6.79553C95.4225 7.04903 95.4545 7.12823 95.264 7.12823C94.979 7.12823 94.963 7.30248 95.2325 7.66688C95.3595 7.84113 95.5335 7.90453 95.708 7.82528C96.009 7.71443 96.0565 7.50843 95.803 7.36588C95.708 7.30248 95.8185 7.15993 96.072 7.03318C96.4205 6.84308 96.5315 6.84308 96.6265 7.00148C96.7375 7.15993 96.8325 7.15993 97.0705 7.01733C97.324 6.85893 97.387 6.87473 97.4505 7.09653C97.498 7.23913 97.577 7.49263 97.6405 7.63518C97.72 7.84113 97.6725 7.92038 97.498 7.92038C97.3555 7.92038 97.2445 7.85698 97.2445 7.79363C97.2445 7.71443 97.1335 7.65103 97.007 7.65103C96.8645 7.65103 96.785 7.76193 96.801 7.90453C96.8485 8.06293 96.991 8.14213 97.213 8.12633C97.403 8.09463 97.5615 8.15798 97.5615 8.23723C97.5615 8.33228 97.6725 8.39563 97.815 8.39563C98.005 8.39563 98.0525 8.30058 97.989 8.06293C97.926 7.80948 97.9575 7.76193 98.1475 7.82528C98.29 7.88868 98.5595 7.80948 98.7655 7.68273C99.2565 7.36588 99.288 6.58958 98.829 6.30443C98.528 6.11433 98.3695 5.52813 98.6385 5.55983C98.9555 5.60738 99.1455 5.52813 99.1455 5.32218C99.1455 4.9895 98.8605 4.84691 98.607 5.05288C98.496 5.14793 98.3695 5.19543 98.3375 5.16378C98.306 5.13208 98.0365 5.06873 97.7515 5.02118C97.2605 4.92613 97.197 4.95781 97.0385 5.38558ZM96.4525 5.87668C96.817 6.52623 95.898 7.30248 95.375 6.77968C95.169 6.57373 95.1215 5.82913 95.296 5.65488C95.5335 5.40138 96.294 5.55983 96.4525 5.87668ZM98.021 5.84498C98.1635 5.94003 98.1795 6.01928 98.0525 6.08263C97.8465 6.20938 97.5615 6.06678 97.5615 5.84498C97.5615 5.67073 97.7355 5.67073 98.021 5.84498ZM97.292 6.25688C97.181 6.58958 97.086 6.55788 97.086 6.16183C97.086 5.98758 97.1495 5.87668 97.2445 5.94003C97.324 5.98758 97.3555 6.13018 97.292 6.25688ZM98.686 6.33613C99.2725 6.65298 98.9715 7.60353 98.2745 7.60353C97.609 7.60353 97.3395 6.90643 97.815 6.43118C98.1 6.13018 98.2585 6.11433 98.686 6.33613Z" fill="#263238"/>
<path d="M95.597 6.09888C95.6605 6.22553 95.7715 6.33638 95.8505 6.33638C95.9455 6.33638 95.9295 6.24138 95.819 6.09888C95.708 5.97218 95.597 5.86133 95.5655 5.86133C95.5335 5.86133 95.5495 5.97218 95.597 6.09888Z" fill="#263238"/>
<path d="M91.7475 5.25844C91.668 5.36934 91.5415 5.59114 91.478 5.76539C91.399 6.00304 91.272 6.03474 90.7495 5.95549C90.401 5.90799 90.1 5.92384 90.0365 6.01889C89.989 6.09809 89.783 6.17729 89.593 6.19314C89.403 6.20899 89.561 6.27234 89.9575 6.35159C90.3535 6.41494 90.8605 6.50999 91.114 6.55754C91.4625 6.63674 91.5415 6.58919 91.5415 6.33574C91.5415 6.11394 91.6525 6.01889 91.89 6.01889C92.207 6.01889 92.207 6.03474 91.969 6.30404C91.383 6.95359 91.8425 8.01504 92.619 7.87244C93.379 7.72989 93.49 8.11009 92.9515 9.10814C92.4605 9.99534 92.4285 10.3597 92.8725 9.99534C92.983 9.90029 93.1735 9.59929 93.284 9.32994C93.411 9.02894 93.5375 8.90219 93.6325 8.99729C93.728 9.09234 93.728 9.26659 93.617 9.47254C93.3635 9.94779 93.696 10.0745 93.997 9.61514C94.124 9.40919 94.219 9.06064 94.203 8.85469C94.1715 8.58534 94.219 8.49029 94.393 8.52199C94.615 8.56954 95.027 8.15759 95.027 7.87244C95.027 7.79324 94.916 7.77739 94.7735 7.82494C94.5675 7.90414 94.5355 7.84074 94.615 7.52394C94.6785 7.30214 94.6785 7.04864 94.631 6.96944C94.52 6.77934 94.0765 6.95359 94.0765 7.19124C94.0765 7.28629 93.8705 7.46054 93.601 7.55559C93.1575 7.72989 93.1415 7.71404 93.3 7.41304C93.5535 6.93774 93.3315 6.33574 92.8405 6.16144C92.508 6.05054 92.397 5.90799 92.413 5.59114C92.413 5.11584 92.017 4.9099 91.7475 5.25844ZM92.714 6.82684C92.587 7.08034 92.5235 7.36549 92.5715 7.44469C92.619 7.53974 92.5715 7.60314 92.4445 7.60314C92.286 7.60314 92.2385 7.49224 92.286 7.28629C92.3495 7.06449 92.302 6.96944 92.1595 7.00109C92.0485 7.03279 91.9215 6.92189 91.89 6.74764C91.8585 6.58919 91.89 6.49414 91.985 6.55754C92.0645 6.60504 92.2225 6.54169 92.3335 6.41494C92.4285 6.30404 92.619 6.24069 92.7295 6.28819C92.92 6.35159 92.92 6.43079 92.714 6.82684ZM93.2365 6.96944C93.2525 7.14369 93.189 7.28629 93.11 7.28629C93.015 7.28629 92.999 7.34964 93.0465 7.44469C93.094 7.52394 93.078 7.60314 92.999 7.60314C92.904 7.60314 92.809 7.49224 92.7455 7.36549C92.698 7.23874 92.7295 7.12784 92.809 7.12784C92.904 7.12784 92.9515 7.08034 92.9515 7.00109C92.92 6.77934 92.9675 6.65259 93.094 6.65259C93.1575 6.65259 93.221 6.79514 93.2365 6.96944Z" fill="#263238"/>
<path d="M101.411 5.17981C101.3 5.21146 101.205 5.43326 101.205 5.63921C101.205 5.86101 101.142 6.00361 101.047 5.94021C100.968 5.89271 100.936 5.75011 100.999 5.62336C101.047 5.49666 101.015 5.38576 100.92 5.38576C100.698 5.38576 100.572 5.95606 100.572 6.92246C100.572 7.84131 100.841 8.07896 100.92 7.23931C100.983 6.74821 100.983 6.73236 101.142 7.11256C101.237 7.35021 101.348 7.42941 101.411 7.33436C101.554 7.11256 101.38 6.65316 101.174 6.65316C101.094 6.65316 101.094 6.54226 101.189 6.38381C101.269 6.22541 101.459 6.09866 101.617 6.09866C102.029 6.09866 102.267 5.62336 102.013 5.32236C101.791 5.05306 101.728 5.03721 101.411 5.17981Z" fill="#263238"/>
<path d="M88.642 5.40141C88.753 5.51211 88.8795 5.55956 88.9275 5.51211C88.975 5.46466 88.8955 5.36981 88.737 5.32236C88.5155 5.22751 88.4995 5.24331 88.642 5.40141Z" fill="#263238"/>
<path d="M102.869 5.54414C102.822 5.62334 102.695 5.65504 102.584 5.62334C102.473 5.57584 102.235 5.78179 102.045 6.06694C101.665 6.62144 101.586 6.89074 101.839 6.73234C102.077 6.58974 102.03 6.93829 101.744 7.36604C101.427 7.85714 101.713 7.88884 102.045 7.39774C102.299 7.04919 102.299 7.04919 102.299 7.55614C102.315 7.84129 102.394 8.07894 102.473 8.07894C102.568 8.07894 102.632 7.68289 102.632 7.19179C102.632 6.55809 102.727 6.17784 102.964 5.84514C103.138 5.59169 103.218 5.38574 103.123 5.38574C103.043 5.38574 102.933 5.44909 102.869 5.54414Z" fill="#263238"/>
<path d="M88.056 6.51043C88.436 6.82728 88.436 6.82728 88.1035 6.73223C87.8025 6.65298 87.739 6.70053 87.739 6.96983C87.739 7.28668 87.755 7.28668 88.135 7.03323C88.4995 6.79558 88.563 6.79558 88.9275 7.03323C89.4025 7.35008 89.672 7.36593 89.26 7.04908C89.07 6.90648 88.9905 6.70053 89.054 6.49458C89.1335 6.20943 89.07 6.17773 88.4045 6.17773H87.66L88.056 6.51043Z" fill="#263238"/>
<path d="M90.1625 6.87417C90.2575 7.49202 89.8455 8.66437 89.497 8.75942C89.307 8.80697 89.1645 9.04462 89.101 9.40897C89.038 9.72582 88.9745 9.97932 88.9585 9.97932C88.9425 9.97932 88.61 9.88427 88.214 9.75752C87.691 9.59907 87.517 9.47237 87.5485 9.26642C87.5805 9.12382 87.517 8.90202 87.406 8.77527C87.295 8.64852 87.2635 8.31587 87.311 7.99902C87.406 7.41282 87.2635 7.30192 86.915 7.65047C86.804 7.77722 86.614 7.84057 86.487 7.79307C86.376 7.76137 86.424 7.87227 86.614 8.06237C86.804 8.25247 86.9465 8.60102 86.9465 8.88617C86.9465 9.20302 87.01 9.32977 87.1365 9.25057C87.311 9.13967 87.2475 10.0902 87.026 10.6289C86.9465 10.8348 87.0575 10.9457 87.501 11.0883C87.818 11.1992 88.1665 11.2942 88.2615 11.3101C88.499 11.3576 89.6555 11.6903 90.5585 11.9755C91.541 12.2923 91.62 12.2606 91.826 11.4843C92.0635 10.5655 92.0635 10.4546 91.7785 10.4546C91.4615 10.4546 91.4775 10.3595 91.921 9.58327C92.1745 9.17132 92.2695 8.85447 92.1745 8.71192C92.111 8.60102 92.0795 8.41092 92.127 8.28417C92.1745 8.17327 92.127 8.07822 92.016 8.07822C91.715 8.07822 91.208 8.74362 91.24 9.10797C91.3035 10.011 91.224 10.3278 90.9545 10.2328C90.812 10.1694 90.638 10.217 90.5585 10.3278C90.4635 10.4704 90.432 10.4387 90.4955 10.217C90.7645 9.15552 90.7645 9.06042 90.543 8.99707C90.3525 8.94957 90.3525 8.82282 90.5905 8.10992C90.749 7.65047 91.002 7.15937 91.1605 7.03262C91.43 6.81082 91.43 6.79497 91.1925 6.87417C91.034 6.92172 90.907 6.89002 90.907 6.79497C90.907 6.69992 90.7965 6.66822 90.638 6.71577C90.4955 6.77912 90.321 6.73162 90.242 6.62072C90.147 6.47812 90.115 6.57317 90.1625 6.87417ZM90.02 9.53572C89.8935 9.96347 89.83 10.0585 89.719 9.96347C89.608 9.83672 89.83 9.18717 89.9885 9.18717C90.0675 9.18717 90.0835 9.34562 90.02 9.53572ZM88.119 10.4071C87.9765 10.9774 87.929 11.0249 87.723 10.819C87.501 10.5972 87.691 9.97932 87.992 9.97932C88.1665 9.97932 88.198 10.0902 88.119 10.4071ZM88.8 10.4863C88.7525 10.613 88.705 10.5655 88.705 10.3912C88.689 10.217 88.737 10.1219 88.7845 10.1853C88.832 10.2328 88.8475 10.3754 88.8 10.4863ZM91.3825 11.0883C91.3825 11.1675 91.319 11.2467 91.24 11.2467C91.1605 11.2467 91.129 11.4051 91.1765 11.5794C91.24 11.817 91.208 11.8963 91.0815 11.8646C90.9705 11.817 90.8915 11.7378 90.8915 11.6745C90.907 11.6111 90.907 11.421 90.907 11.2467C90.907 11.0724 91.018 10.9299 91.145 10.9299C91.2715 10.9299 91.3825 10.9932 91.3825 11.0883ZM90.226 11.4368C90.1785 11.5636 90.131 11.516 90.131 11.3418C90.115 11.1675 90.1625 11.0724 90.21 11.1358C90.2575 11.1833 90.2735 11.3259 90.226 11.4368Z" fill="#263238"/>
<path d="M89.2916 6.76375C89.4026 6.81105 89.5451 6.7953 89.5926 6.74795C89.6561 6.70065 89.5611 6.65335 89.3866 6.6691C89.2126 6.6691 89.1651 6.7164 89.2916 6.76375Z" fill="#263238"/>
<path d="M81.3225 7.11223C81.2115 7.30228 81.513 7.49228 81.7185 7.36558C81.893 7.25478 81.782 6.96973 81.5605 6.96973C81.481 6.96973 81.386 7.03308 81.3225 7.11223Z" fill="#263238"/>
<path d="M88.3255 7.74577C87.977 8.09432 87.85 9.45677 88.151 9.56767C88.262 9.61517 88.4045 9.50427 88.468 9.29832C88.5315 9.10822 88.69 8.87057 88.8165 8.77552C88.991 8.64882 89.0225 8.45867 88.9435 8.03092C88.8165 7.38142 88.7375 7.33387 88.3255 7.74577Z" fill="#263238"/>
<path d="M81.402 7.9208C81.402 7.99985 81.497 8.0789 81.624 8.0789C81.7505 8.0789 81.909 7.99985 81.9565 7.9208C82.004 7.82595 81.909 7.7627 81.735 7.7627C81.5445 7.7627 81.402 7.82595 81.402 7.9208Z" fill="#263238"/>
<path d="M72.6095 8.07867C71.8175 8.15772 72.372 8.18937 74.463 8.20517C76.3005 8.22097 77.457 8.17357 77.5205 8.07867C77.6315 7.90477 74.4945 7.90477 72.6095 8.07867Z" fill="#263238"/>
<path d="M100.302 8.11077C99.922 8.61747 99.922 8.75997 100.318 8.39577C100.698 8.04742 100.778 8.03162 101.094 8.22162C101.411 8.42747 101.427 8.42747 101.221 8.18997C100.968 7.87327 100.508 7.84162 100.302 8.11077Z" fill="#263238"/>
<path d="M95.7396 8.2375C95.6921 8.3167 95.7396 8.3959 95.8506 8.3959C95.9611 8.3959 95.8821 8.5068 95.6921 8.6494C95.4226 8.8395 95.2801 8.85535 95.1061 8.71275C94.9476 8.57015 94.8681 8.60185 94.7891 8.85535C94.6466 9.31475 94.8046 9.5049 95.3436 9.5049C95.5971 9.5049 95.8506 9.56825 95.8981 9.6633C95.9456 9.7425 96.1991 9.82175 96.4526 9.82175C96.7061 9.82175 96.9596 9.90095 97.0226 10.0119C97.1021 10.1386 97.1811 10.1069 97.2446 9.8851C97.3081 9.72665 97.2921 9.48905 97.2131 9.37815C97.1021 9.2514 97.1021 9.18805 97.2286 9.18805C97.3236 9.18805 97.4031 9.1088 97.4031 9.0296C97.4031 8.93455 97.2606 8.8712 97.1021 8.8712C96.8646 8.8712 96.8166 8.79195 96.8801 8.5385C96.9596 8.2533 96.9276 8.22165 96.6266 8.3167C96.4366 8.38005 96.2941 8.3484 96.2941 8.2533C96.2941 8.03155 95.8661 8.03155 95.7396 8.2375ZM96.6586 9.1405C96.5476 9.1722 96.3576 9.1722 96.2626 9.1405C96.1516 9.09295 96.2306 9.0613 96.4526 9.0613C96.6741 9.0613 96.7536 9.09295 96.6586 9.1405Z" fill="#263238"/>
<path d="M100.509 8.90256C100.366 9.23526 100.176 9.50456 100.097 9.50456C100.002 9.50456 99.938 9.58381 99.938 9.67886C99.938 9.77391 100.065 9.80556 100.223 9.75806C100.445 9.67886 100.493 9.75806 100.493 10.17C100.493 10.5344 100.572 10.7086 100.778 10.7403C100.984 10.7878 101.047 10.6769 101.047 10.2492C101.047 9.77391 101.095 9.71051 101.364 9.77391C101.633 9.85311 101.681 9.78976 101.665 9.33031C101.649 8.95011 101.618 8.90256 101.57 9.14021C101.475 9.66301 101.269 9.58381 101 8.90256L100.762 8.31641L100.509 8.90256Z" fill="#263238"/>
<path d="M97.894 9.12463C97.5775 9.45733 97.5455 9.56823 97.688 9.90093C97.831 10.2019 97.815 10.2653 97.6565 10.2019C97.4345 10.1227 97.086 10.8673 97.086 11.4376C97.086 11.8812 97.3715 11.6277 97.53 11.0416C97.688 10.4395 97.9735 10.4554 97.91 11.0574C97.8785 11.4693 97.8785 11.4693 98.116 11.1841C98.401 10.8198 98.417 10.5821 98.195 10.3603C98.0845 10.2494 98.132 10.0752 98.3535 9.82168C98.702 9.42563 98.813 8.98203 98.4805 9.31473C98.211 9.58408 97.9575 9.55238 98.195 9.26723C98.5435 8.85533 98.2745 8.71273 97.894 9.12463Z" fill="#263238"/>
<path d="M85.3625 9.3302C85.1405 9.7738 85.172 10.2332 85.4575 10.5184C85.9485 11.0095 86.804 10.7402 87.026 10.0273C87.2475 9.251 85.7425 8.6173 85.3625 9.3302ZM86.2495 9.4094C86.487 9.6629 86.5345 9.9956 86.3605 10.2332C86.281 10.3125 86.3605 10.2491 86.519 10.0907C86.82 9.7421 86.8675 9.853 86.6295 10.3125C86.392 10.756 85.7745 10.6927 85.5525 10.2174C85.283 9.6312 85.315 9.50445 85.7265 9.50445C86.012 9.50445 86.0275 9.4728 85.8375 9.34605C85.6635 9.23515 85.6475 9.1876 85.806 9.1876C85.917 9.1876 86.123 9.28265 86.2495 9.4094Z" fill="#263238"/>
<path d="M94.171 9.74295C94.1235 9.86965 94.1235 10.0913 94.187 10.2339C94.3135 10.5822 95.09 10.4555 95.1535 10.0755C95.264 9.5688 94.361 9.26795 94.171 9.74295Z" fill="#263238"/>
<path d="M96.516 10.2337C96.611 10.4713 96.595 10.4872 96.4365 10.3446C96.183 10.0911 95.597 10.3921 95.7235 10.709C95.7715 10.8516 95.7395 10.8991 95.6605 10.8516C95.5655 10.804 95.502 10.8199 95.502 10.8991C95.502 11.0892 96.215 11.2318 96.421 11.105C96.6585 10.9466 96.785 10.1703 96.579 10.0436C96.4525 9.9644 96.4365 10.0119 96.516 10.2337Z" fill="#263238"/>
<path d="M84.4435 10.3754C83.921 10.6605 83.6515 10.9299 83.921 10.9299C84.0475 10.9299 84 11.0883 83.794 11.3893C83.3505 11.9913 83.3665 12.4032 83.81 11.8804L84.1425 11.4843L84.0635 11.9279C84 12.2131 84.0475 12.3398 84.1585 12.3082C84.2535 12.2765 84.3485 12.023 84.3805 11.7537C84.4435 11.1833 84.491 11.1517 84.824 11.4685C85.0455 11.7061 84.9665 12.1814 84.6655 12.3874C84.507 12.4983 85.204 12.831 85.6 12.831C85.917 12.831 85.695 12.1973 85.299 12.023L84.9665 11.8646L85.299 11.9279C85.5845 11.9913 85.632 11.9121 85.6475 11.5002C85.6635 11.0566 85.6475 11.0249 85.4415 11.3101C85.315 11.4685 85.1565 11.5477 85.0775 11.5002C84.824 11.3418 84.697 10.5813 84.887 10.4546C85.22 10.2486 84.824 10.1853 84.4435 10.3754Z" fill="#263238"/>
<path d="M98.623 10.4075C98.5595 10.455 98.512 10.6134 98.512 10.7402C98.512 10.9303 98.5595 10.9303 98.7495 10.7718C99.13 10.455 99.019 10.8035 98.5915 11.2946C98.2745 11.659 98.1475 11.7066 97.894 11.5798C97.4825 11.358 97.3395 11.7224 97.6565 12.1818C97.926 12.5462 98.3535 12.6096 98.639 12.3244C98.7815 12.1818 98.908 12.1977 99.225 12.3561C99.542 12.5304 99.7 12.5304 100.033 12.3719C100.334 12.2452 100.508 12.2294 100.635 12.3561C100.905 12.6254 101.047 12.5462 101.047 12.1185C101.047 11.8967 100.936 11.6749 100.809 11.6273C100.588 11.5323 100.603 11.5006 100.841 11.3263C101.11 11.1362 101.095 11.1045 100.699 11.0095C100.461 10.9461 100.192 10.9461 100.097 11.0095C99.9535 11.1045 99.9535 11.0412 100.081 10.7877C100.239 10.5184 100.223 10.4392 100.017 10.3599C99.8905 10.2966 99.6685 10.3441 99.5575 10.4392C99.399 10.5659 99.304 10.5817 99.225 10.455C99.114 10.2807 98.7815 10.249 98.623 10.4075ZM100.017 11.564C99.906 11.7541 99.3515 11.7699 99.241 11.5957C99.209 11.5323 99.3835 11.4531 99.637 11.4372C99.938 11.4055 100.081 11.4689 100.017 11.564Z" fill="#263238"/>
<path d="M92.6815 10.6611C92.3015 10.8037 92.2065 10.8987 92.349 11.0413C92.4755 11.168 92.4755 11.2948 92.349 11.5325C92.1115 11.976 92.127 12.3562 92.3965 12.3562C92.634 12.3562 92.8085 12.0236 92.8085 11.58C92.8085 11.4216 92.951 11.1047 93.141 10.867C93.5055 10.4076 93.442 10.3917 92.6815 10.6611Z" fill="#263238"/>
<path d="M96.611 11.4061C96.611 11.4852 96.69 11.5642 96.785 11.5642C96.8645 11.5642 96.896 11.4852 96.8485 11.4061C96.801 11.3113 96.7215 11.248 96.674 11.248C96.6425 11.248 96.611 11.3113 96.611 11.4061Z" fill="#263238"/>
<path d="M87.1845 11.7382C87.121 11.9125 86.8675 12.1343 86.614 12.2293C86.123 12.4036 85.9965 12.6729 86.3925 12.6729C86.5665 12.6729 86.5035 12.8947 86.123 13.6234C85.632 14.5582 85.616 14.9542 86.0595 14.5898C86.1865 14.4948 86.329 14.2255 86.3765 14.0037C86.519 13.4809 86.8835 13.6076 86.82 14.1463C86.7885 14.3839 86.836 14.574 86.931 14.574C87.137 14.574 87.327 13.9561 87.2955 13.3858C87.2635 12.9264 87.2635 12.9264 87.5015 13.2274C87.739 13.5284 87.755 13.5284 88.024 13.2432C88.1665 13.069 88.1985 12.9897 88.0875 13.0531C87.818 13.2115 87.533 12.4194 87.739 12.055C87.834 11.8649 87.818 11.7065 87.7075 11.5956C87.438 11.3263 87.2955 11.358 87.1845 11.7382Z" fill="#263238"/>
<path d="M86.2025 11.9922C86.2025 12.1347 86.266 12.1505 86.424 12.0239C86.535 11.9288 86.63 11.8338 86.63 11.8022C86.63 11.7863 86.535 11.7705 86.424 11.7705C86.2975 11.7705 86.2025 11.8655 86.2025 11.9922Z" fill="#263238"/>
<path d="M88.2145 11.9443C88.2145 12.261 88.436 12.3876 88.7845 12.2451C89.038 12.1501 89.038 12.1343 88.753 11.9284C88.3885 11.6593 88.2145 11.6593 88.2145 11.9443Z" fill="#263238"/>
<path d="M72.451 12.277L68.1735 12.467L74.4155 12.4512C79.263 12.4353 80.673 12.3878 80.7365 12.2295C80.8155 11.992 78.7245 12.0078 72.451 12.277Z" fill="#263238"/>
<path d="M89.624 12.3874C89.608 12.4983 89.608 12.6409 89.608 12.6884C89.624 12.7518 89.3865 12.8468 89.1015 12.8943C88.8005 12.9577 88.4675 13.1161 88.3565 13.2587C88.1505 13.4805 88.1825 13.5122 88.5625 13.433L89.006 13.3538L88.531 14.1776C88.2615 14.637 88.0555 15.0964 88.0555 15.1915C88.0555 15.54 88.3725 15.3499 88.626 14.843C88.9585 14.1934 88.9585 14.2093 89.149 14.336C89.2755 14.3994 89.2755 14.5261 89.149 14.7637C89.038 14.9697 89.022 15.1281 89.133 15.239C89.3545 15.4608 89.6715 14.8271 89.608 14.2885C89.5765 13.9875 89.64 13.8607 89.7985 13.8607C90.1785 13.8449 90.432 13.6231 90.432 13.2904C90.432 13.1161 90.3685 13.0211 90.2735 13.0686C89.9725 13.2587 89.7665 12.9735 90.052 12.7676C90.1945 12.6567 90.2735 12.4824 90.21 12.3874C90.052 12.1339 89.64 12.1497 89.624 12.3874Z" fill="#263238"/>
<path d="M83.034 12.4671C82.923 12.4988 82.828 12.6414 82.828 12.7681C82.828 12.8948 82.923 12.9424 83.0655 12.8948C83.4935 12.7206 83.319 12.9582 82.7645 13.2751C82.2735 13.5602 82.21 13.5761 81.9725 13.3384C81.83 13.1959 81.719 13.1483 81.703 13.2275C81.703 13.3226 81.6715 13.5285 81.64 13.7028C81.5445 14.1939 81.8615 14.4316 82.432 14.3207C82.7485 14.2731 82.9865 14.3048 83.0655 14.3999C83.113 14.4949 83.24 14.5425 83.319 14.4791C83.3985 14.4316 83.446 14.4791 83.43 14.6058C83.3985 14.7484 83.525 14.7959 83.8735 14.7643C84.206 14.7326 84.3965 14.7959 84.4595 14.9702C84.523 15.1128 84.4755 15.2079 84.349 15.2079C84.0635 15.2079 83.921 15.5722 84.111 15.8574C84.238 16.0475 84.2695 16.0475 84.412 15.8416C84.4915 15.7148 84.5705 15.5089 84.5705 15.398C84.5705 15.3029 84.65 15.2079 84.745 15.2079C84.824 15.2079 84.8715 15.1445 84.824 15.0811C84.7925 15.0177 84.808 14.8593 84.8875 14.7326C84.9825 14.5742 84.935 14.3999 84.7765 14.2256C84.539 13.9563 84.539 13.9405 84.7765 13.9405C85.1725 13.9405 85.0935 13.6394 84.6815 13.5444C84.428 13.481 84.317 13.3384 84.317 13.1008C84.333 12.8473 84.254 12.7523 84.016 12.784C83.842 12.7998 83.636 12.7047 83.5725 12.578C83.446 12.3404 83.3505 12.3245 83.034 12.4671ZM84.032 13.9721C83.747 14.1306 83.414 14.0038 83.541 13.782C83.5885 13.7187 83.7785 13.687 83.953 13.7345C84.254 13.8137 84.254 13.8454 84.032 13.9721ZM82.4635 13.8771C82.416 13.9246 82.2735 13.9405 82.1625 13.8929C82.036 13.8454 82.0835 13.7979 82.2575 13.7979C82.432 13.782 82.527 13.8296 82.4635 13.8771Z" fill="#263238"/>
<path d="M90.8125 12.7527C90.67 13.1169 90.86 13.4652 91.2085 13.4652C91.6045 13.4652 91.747 13.2436 91.6205 12.8319C91.5095 12.4677 90.939 12.4044 90.8125 12.7527Z" fill="#263238"/>
<path d="M85.3631 13.6237C85.3631 13.9722 85.3946 14.2574 85.4261 14.2574C85.4736 14.2574 85.6005 14.0356 85.743 13.7821C85.949 13.3385 85.9491 13.291 85.6641 13.1484C85.3946 12.99 85.3631 13.0375 85.3631 13.6237Z" fill="#263238"/>
<path d="M79.39 14.463C78.7405 15.0967 78.4395 15.6354 78.9465 15.2076C79.089 15.0967 79.2315 15.0492 79.279 15.0967C79.3425 15.1443 79.089 15.4928 78.7245 15.873C78.0435 16.5701 78.107 16.9503 78.804 16.3008C79.279 15.8572 79.4375 15.9997 79.2315 16.7127C79.0415 17.2988 79.2315 17.6315 79.4695 17.1563C79.5485 16.9978 79.6755 16.6176 79.7385 16.3166C79.913 15.5086 80.2775 14.8591 80.7845 14.4472C81.3385 14.0036 81.402 13.6392 80.8635 13.9878C80.531 14.2095 80.4675 14.2095 80.388 14.0194C80.2615 13.6709 80.119 13.7343 79.39 14.463Z" fill="#263238"/>
<path d="M87.676 14.1939C87.5015 14.8431 87.7865 14.9223 88.072 14.3206C88.3095 13.8139 88.3095 13.7822 88.056 13.7822C87.882 13.7822 87.739 13.9406 87.676 14.1939Z" fill="#263238"/>
<path d="M80.9585 14.7644C80.7365 14.9862 80.705 15.3664 80.9105 15.3664C80.99 15.3664 81.085 15.2713 81.1325 15.1604C81.164 15.0654 81.2595 15.0178 81.3225 15.0812C81.386 15.1287 81.1325 15.6674 80.784 16.2694C80.071 17.4734 79.9285 17.9804 80.4515 17.5051C80.6255 17.3467 80.8 17.0932 80.8475 16.9348C80.9105 16.7605 81.0375 16.6338 81.164 16.6338C81.481 16.6338 81.5605 17.0457 81.3225 17.3784C81.0375 17.7427 81.0215 17.9012 81.307 17.9012C81.592 17.9012 81.9245 17.0615 81.798 16.6496C81.7505 16.4753 81.782 16.1743 81.877 16.0001C82.0195 15.7308 82.099 15.6991 82.289 15.8575C82.4635 16.0001 82.511 15.9842 82.511 15.7941C82.511 15.6515 82.384 15.4614 82.2415 15.3822C82.083 15.2872 82.0515 15.2079 82.1625 15.2079C82.416 15.2079 82.416 14.5742 82.1465 14.5742C82.0355 14.5742 81.8615 14.6535 81.766 14.7485C81.6395 14.8753 81.5605 14.8753 81.497 14.7485C81.3545 14.5267 81.196 14.5267 80.9585 14.7644Z" fill="#263238"/>
<path d="M86.1865 14.9863C85.505 15.4615 85.933 16.6497 86.7885 16.6339C86.915 16.618 86.8045 16.523 86.535 16.4121C86.0915 16.222 86.044 16.1111 86.0755 15.6516C86.107 15.2397 86.1865 15.1288 86.456 15.1288C86.63 15.1288 86.7885 15.0496 86.8045 14.9704C86.82 14.7169 86.5665 14.7169 86.1865 14.9863Z" fill="#263238"/>
<path d="M87.2795 15.2713C87.3905 15.5088 87.517 15.6355 87.549 15.5246C87.5965 15.4138 87.5015 15.2238 87.343 15.0813C87.105 14.8279 87.0895 14.8438 87.2795 15.2713Z" fill="#263238"/>
<path d="M82.9385 15.5722C82.7805 15.6673 82.622 16.0475 82.59 16.396L82.511 17.0297L82.6855 16.4752C82.7645 16.1742 82.9865 15.794 83.1765 15.6356C83.5405 15.3346 83.3505 15.2554 82.9385 15.5722Z" fill="#263238"/>
<path d="M85.046 15.5087C85.046 15.5879 84.9985 15.7621 84.951 15.9046C84.8875 16.0787 84.951 16.1262 85.1885 16.1104C85.41 16.0946 85.5055 16.0154 85.442 15.8729C85.3945 15.7621 85.3625 15.5879 85.3625 15.5087C85.3625 15.4295 85.2995 15.3662 85.2045 15.3662C85.125 15.3662 85.046 15.4295 85.046 15.5087Z" fill="#263238"/>
<path d="M83.62 16.1107C83.62 16.5701 83.525 16.887 83.303 17.1088C83.129 17.2831 82.9865 17.5365 82.9865 17.6633C82.9865 17.79 82.907 17.9009 82.812 17.9009C82.701 17.9009 82.6695 17.7425 82.7485 17.4573C82.844 17.0613 82.828 17.0454 82.622 17.3464C82.337 17.7266 82.4475 18.0593 82.844 18.0593C83.113 18.0593 83.224 17.8851 83.113 17.6791C83.0815 17.6316 83.224 17.4415 83.414 17.2355C83.842 16.7761 84.016 16.1107 83.7945 15.7305C83.6675 15.4929 83.636 15.5721 83.62 16.1107Z" fill="#263238"/>
<path d="M95.581 15.3981C95.5335 15.509 95.3275 16.1269 95.1215 16.7447L94.7255 17.9012H100.318H105.894L106.306 16.5546L106.702 15.208H101.173C96.896 15.208 95.6285 15.2555 95.581 15.3981Z" fill="#FF2457"/>
<path d="M111.249 15.3501C110.156 15.5243 109.126 16.0154 108.35 16.7284C106.956 17.9799 106.608 17.9007 113.42 17.9007H119.456L119.345 17.2987C119.186 16.4432 118.854 16.0154 118.03 15.6352C117.38 15.3501 116.937 15.3025 114.671 15.2708C113.229 15.2392 111.693 15.2867 111.249 15.3501Z" fill="#FF2457"/>
<path d="M121.721 15.3979C121.674 15.5088 121.468 16.1266 121.262 16.7445L120.866 17.901H122.434H123.987L124.398 16.6653C124.62 15.9999 124.811 15.3979 124.811 15.3187C124.811 15.1127 121.801 15.1919 121.721 15.3979Z" fill="#FF2457"/>
<path d="M134.237 15.3658C134.142 15.5084 133.365 17.7422 133.365 17.8531C133.365 17.8847 134.063 17.9006 134.918 17.9006H136.471L136.835 16.7441C137.041 16.1262 137.247 15.5084 137.279 15.3975C137.374 15.1598 134.395 15.1123 134.237 15.3658Z" fill="#FF2457"/>
<path d="M141.777 15.3824C140.257 15.6517 139.037 16.3646 138.26 17.4419L137.944 17.9013H143.964H150V17.4419C150 16.8082 149.382 15.9686 148.654 15.62C148.115 15.3507 147.624 15.3032 145.327 15.2715C143.853 15.2398 142.253 15.2873 141.777 15.3824Z" fill="#FF2457"/>
<path d="M5.8019 16.0153C4.93057 16.3321 3.61564 17.3144 3.28295 17.9164C3.14036 18.2174 3.28295 18.2174 9.20805 18.2174H15.2757L15.6876 16.95L16.0995 15.6826L11.4102 15.6984C7.1485 15.7143 6.6257 15.7301 5.8019 16.0153Z" fill="#FF2457"/>
<path d="M17.0501 16.95L16.6382 18.2174H22.7376H28.8528L28.7577 17.6471C28.6151 16.8233 28.2349 16.3321 27.4903 15.9836C26.8883 15.7143 26.3972 15.6826 22.1514 15.6826H17.462L17.0501 16.95Z" fill="#FF2457"/>
<path d="M33.4782 15.905C33.1297 16.0159 32.6703 16.1902 32.4643 16.3169C31.9732 16.5704 30.5474 17.9012 30.5474 18.0754C30.5474 18.1546 33.2248 18.218 36.5042 18.218H42.4768L42.3817 17.5685C42.2867 16.7922 41.9381 16.3644 41.0826 15.9842C40.5282 15.7307 40.037 15.6832 37.2804 15.699C35.1892 15.699 33.8902 15.7783 33.4782 15.905Z" fill="#FF2457"/>
<path d="M44.4891 16.7443C44.2831 17.3304 44.093 17.9166 44.0455 18.0117C43.998 18.1701 45.2654 18.2176 50.0975 18.2176C56.8935 18.2176 56.4345 18.2968 55.959 17.1087C55.8005 16.7126 55.4995 16.3482 55.1195 16.1264C54.565 15.7779 54.4225 15.762 49.6854 15.7145L44.8376 15.667L44.4891 16.7443Z" fill="#FF2457"/>
<path d="M58.1455 16.855C57.9555 17.5045 57.797 18.0748 57.797 18.1223C57.797 18.1699 60.284 18.2174 63.31 18.2174H68.823L69.235 16.95L69.647 15.6826H64.0705H58.478L58.1455 16.855Z" fill="#FF2457"/>
<path d="M86.63 15.8417C86.63 15.9207 86.6935 15.9998 86.7725 15.9998C86.868 15.9998 86.9785 15.9207 87.026 15.8417C87.0735 15.7468 87.0105 15.6836 86.8835 15.6836C86.741 15.6836 86.63 15.7468 86.63 15.8417Z" fill="#263238"/>
<path d="M87.2795 16.206C87.0735 16.5385 87.0895 16.5385 87.359 16.2851C87.517 16.1268 87.6125 15.9684 87.5645 15.9368C87.517 15.8893 87.3905 16.0159 87.2795 16.206Z" fill="#263238"/>
<path d="M84.3645 16.2536C84.317 16.3011 84.349 16.5546 84.444 16.808C84.555 17.1407 84.555 17.4893 84.428 18.0121C84.317 18.4081 84.2855 18.7725 84.333 18.82C84.3805 18.8676 84.412 18.7725 84.412 18.5982C84.428 18.2972 84.428 18.2972 84.65 18.5982C84.824 18.82 84.84 18.9626 84.713 19.121C84.618 19.2319 84.5705 19.4696 84.618 19.6597C84.6655 19.8498 84.6025 20.1033 84.444 20.2618C84.048 20.6737 83.7785 21.1806 83.8895 21.2915C83.9525 21.339 84.127 21.3866 84.2855 21.3866C84.4595 21.3866 84.5705 21.4974 84.5705 21.6875C84.5705 22.1153 84.9825 22.3846 85.426 22.2737C85.8855 22.1628 86.0755 21.6875 85.854 21.2439C85.616 20.832 85.632 20.5786 85.8855 20.6419C85.9805 20.6578 86.0755 20.5627 86.0755 20.436C86.0755 20.3092 85.9645 20.1983 85.838 20.1983C85.7115 20.1983 85.442 20.135 85.236 20.0557C84.9035 19.9449 84.8875 19.8656 84.9825 19.2003C85.0935 18.3764 85.521 17.4417 85.9015 17.1249C86.25 16.8397 86.234 16.5704 85.8855 16.7764C85.6955 16.8714 85.5685 16.8556 85.426 16.6655C85.2675 16.4437 85.2045 16.4437 84.9825 16.6179C84.7605 16.7922 84.729 16.7922 84.729 16.5862C84.729 16.3169 84.507 16.111 84.3645 16.2536ZM84.6025 20.943C84.4915 21.0539 84.412 21.0697 84.412 20.9747C84.412 20.7529 84.6025 20.5627 84.713 20.6736C84.745 20.7211 84.6975 20.8479 84.6025 20.943ZM85.2835 20.7528C85.331 20.832 85.2675 20.9113 85.141 20.9113C84.9985 20.9113 84.8875 20.832 84.8875 20.7528C84.8875 20.6578 84.951 20.5944 85.03 20.5944C85.125 20.5944 85.236 20.6578 85.2835 20.7528ZM85.759 21.3866C85.8855 21.8143 85.5685 22.2104 85.141 22.147C84.808 22.0995 84.634 21.7034 84.7925 21.2915C84.919 20.9429 85.648 21.0063 85.759 21.3866Z" fill="#263238"/>
<path d="M78.218 17.1406C78.202 17.2515 78.202 17.3941 78.218 17.4733C78.2335 17.5367 78.0595 17.6634 77.8535 17.7427C77.6475 17.8219 77.41 18.0912 77.315 18.3605C77.188 18.6932 77.0615 18.8199 76.903 18.7566C76.7445 18.6932 76.6335 18.7883 76.5545 19.0734C76.507 19.2952 76.3485 19.4853 76.2375 19.4853C76.111 19.4853 75.889 19.7388 75.7465 20.0557C75.509 20.5468 75.509 20.626 75.699 20.7686C76 20.9587 76.6495 20.2616 76.6495 19.7388C76.6495 19.2952 77.188 18.7407 77.3625 19.0101C77.5365 19.2794 78.2335 18.5506 78.2335 18.107C78.2335 17.8852 78.3445 17.6159 78.4715 17.4733C78.598 17.3466 78.6775 17.1723 78.63 17.0931C78.487 16.8872 78.2335 16.9188 78.218 17.1406Z" fill="#263238"/>
<path d="M86.693 17.1722C86.7565 17.3623 86.709 17.5366 86.598 17.6158C86.4555 17.695 86.4715 17.7425 86.693 17.7425C86.8675 17.7425 87.137 17.8534 87.295 18.0119C87.4855 18.1703 87.5805 18.202 87.5805 18.0752C87.5805 17.9643 87.644 17.9327 87.739 17.9802C87.834 18.0277 87.8495 17.9643 87.802 17.8376C87.7545 17.695 87.612 17.5841 87.4855 17.5841C87.3745 17.5841 87.121 17.4257 86.931 17.2197C86.63 16.9187 86.598 16.9029 86.693 17.1722Z" fill="#263238"/>
<path d="M83.62 17.6479C83.62 17.8221 83.5725 18.139 83.525 18.3291C83.3665 18.9153 83.715 18.741 84.0475 18.0756L84.3645 17.4578L83.984 17.3785C83.699 17.331 83.62 17.3785 83.62 17.6479Z" fill="#263238"/>
<path d="M79.263 18.186C79.2155 18.3286 79.263 18.5187 79.39 18.6137C79.501 18.693 79.6435 18.8989 79.707 19.0415C79.8175 19.3267 80.61 19.4534 80.61 19.1841C80.61 19.1049 80.7365 19.0573 80.879 19.0732C81.0535 19.0732 81.18 18.9623 81.212 18.7563C81.2595 18.3919 80.8475 18.1702 79.865 17.9959C79.501 17.9325 79.3425 17.98 79.263 18.186ZM79.8175 18.3761C79.8175 18.4553 79.7545 18.5345 79.6595 18.5345C79.58 18.5345 79.501 18.4553 79.501 18.3761C79.501 18.2811 79.58 18.2177 79.6595 18.2177C79.7545 18.2177 79.8175 18.2811 79.8175 18.3761ZM81.085 18.7088C81.085 18.788 81.0215 18.8514 80.9265 18.8514C80.8475 18.8514 80.768 18.7405 80.768 18.5979C80.768 18.4712 80.8475 18.4078 80.9265 18.4553C81.0215 18.5028 81.085 18.6137 81.085 18.7088Z" fill="#263238"/>
<path d="M86.7255 18.4871C86.5195 18.6931 86.4085 18.7248 86.361 18.5663C86.266 18.297 85.6795 18.3287 85.6795 18.598C85.6795 18.7248 85.743 18.8832 85.838 18.9307C85.933 18.9941 85.9015 19.2 85.759 19.501C85.537 19.9129 85.6795 20.1823 85.9175 19.802C86.0915 19.5169 86.266 19.6278 86.472 20.1347C86.6305 20.515 86.6305 20.6892 86.472 20.9902C86.1865 21.5289 86.4245 21.7031 86.8205 21.2279C86.9945 21.0061 87.1055 20.6892 87.058 20.4833C86.963 19.9763 87.169 20.0238 87.7235 20.6259C87.993 20.911 88.246 21.0853 88.3095 21.0219C88.4995 20.8476 88.0245 20.1031 87.6285 19.9446C87.4385 19.8813 87.153 19.6278 87.0105 19.406C86.773 19.0258 86.773 18.9782 87.0105 18.7089C87.47 18.202 87.2325 18.0118 86.7255 18.4871Z" fill="#263238"/>
<path d="M81.798 18.5352C81.6395 18.7886 82.0515 19.2161 82.2575 19.0102C82.495 18.7727 82.669 18.8202 82.574 19.0894C82.511 19.2478 82.574 19.3269 82.796 19.3269C83.303 19.3269 83.398 18.9944 82.986 18.6619C82.606 18.3452 81.9565 18.2819 81.798 18.5352Z" fill="#263238"/>
<path d="M88.0875 18.7403C87.9925 18.8512 87.945 19.0888 87.9765 19.2473C88.0085 19.4215 88.04 19.6116 88.04 19.6592C88.0715 19.9126 88.6105 19.9443 88.943 19.7225C89.244 19.5324 89.2915 19.4215 89.1805 19.1205C89.1015 18.9304 88.959 18.7878 88.864 18.8037C88.7685 18.8354 88.6895 18.772 88.6895 18.6928C88.6895 18.471 88.2775 18.5027 88.0875 18.7403Z" fill="#263238"/>
<path d="M70.1535 19.1847C65.3375 19.3906 65.306 19.4381 69.9795 19.4222C73.3065 19.4064 74.336 19.3589 74.3995 19.2006C74.431 19.0739 74.273 19.0106 73.845 19.0422C73.5125 19.0422 71.849 19.1214 70.1535 19.1847Z" fill="#263238"/>
<path d="M78.392 19.2316C78.392 19.3742 78.2495 19.4217 77.964 19.3583C77.5525 19.2949 77.5365 19.3108 77.8215 19.5167C78.2335 19.8336 78.0115 20.1188 77.362 20.1188C77.061 20.1188 76.776 20.1821 76.7285 20.2772C76.665 20.3722 76.887 20.4356 77.283 20.4356C77.8215 20.4356 77.9485 20.499 78.075 20.8317C78.17 21.101 78.3445 21.2277 78.582 21.2277C78.9305 21.2119 78.9305 21.2119 78.6455 20.9901C78.408 20.8158 78.392 20.6891 78.503 20.3247C78.598 20.0554 78.7565 19.897 78.915 19.9286C79.0415 19.9445 79.2 19.897 79.2635 19.8019C79.311 19.7227 79.216 19.6435 79.0575 19.6435C78.8195 19.6435 78.7565 19.5643 78.8195 19.3266C78.883 19.1048 78.8195 19.0098 78.6455 19.0098C78.503 19.0098 78.392 19.1048 78.392 19.2316Z" fill="#263238"/>
<path d="M84.016 19.1688C83.9685 19.2479 84 19.3269 84.0795 19.3269C84.1745 19.3269 84.2535 19.2479 84.2535 19.1688C84.2535 19.074 84.222 19.0107 84.1905 19.0107C84.1425 19.0107 84.0635 19.074 84.016 19.1688Z" fill="#263238"/>
<path d="M81.7345 19.3112C81.291 19.5964 82.1305 20.2776 82.7645 20.1509C82.8595 20.1351 82.907 20.3093 82.8595 20.5786C82.8275 20.8321 82.8595 21.0698 82.9545 21.1331C83.0335 21.1807 83.0655 21.0539 83.0175 20.8321C82.986 20.6103 83.0335 20.341 83.1285 20.2301C83.2555 20.0717 83.2395 19.9291 83.0655 19.7073C82.875 19.438 82.812 19.438 82.495 19.6123C82.194 19.8024 82.1625 19.8024 82.2415 19.5964C82.3525 19.3271 82.0195 19.137 81.7345 19.3112Z" fill="#263238"/>
<path d="M79.707 19.9612C79.6595 20.1354 79.5485 20.2779 79.4695 20.2779C79.39 20.2779 79.374 20.3412 79.422 20.4362C79.4695 20.5154 79.675 20.5946 79.8655 20.5787C80.0555 20.5787 80.119 20.5312 80.024 20.4837C79.897 20.4362 79.8495 20.2621 79.913 20.0245C79.9605 19.8187 79.9605 19.6445 79.897 19.6445C79.8335 19.6445 79.7545 19.787 79.707 19.9612Z" fill="#263238"/>
<path d="M80.388 19.9449C80.261 20.1349 80.4355 20.5941 80.6255 20.5941C80.705 20.5941 80.768 20.5307 80.768 20.4516C80.768 20.3724 80.8155 20.1982 80.863 20.0557C80.974 19.7865 80.5465 19.6915 80.388 19.9449Z" fill="#263238"/>
<path d="M89.6875 20.0402C89.545 20.4361 89.751 20.4994 89.957 20.1352C90.068 19.8977 90.068 19.8027 89.957 19.8027C89.862 19.8027 89.751 19.9136 89.6875 20.0402Z" fill="#263238"/>
<path d="M92.983 23.2713C92.365 25.1882 91.858 26.7883 91.858 26.8358C91.858 26.8992 92.555 26.915 93.395 26.8992L94.9315 26.8517L95.6445 24.6654L96.3415 22.495H100.35H104.342L104.754 21.2593C104.976 20.5939 105.166 19.9919 105.166 19.9126C105.166 19.8493 102.679 19.8018 99.637 19.8018H94.092L92.983 23.2713Z" fill="#078DEE"/>
<path d="M105.958 21.7979C104.928 24.8714 105.134 26.0596 106.829 26.6933C107.384 26.9151 108.065 26.9467 110.806 26.8992C114.576 26.8517 114.973 26.7408 116.335 25.4892C117.254 24.6337 117.587 24.0159 118.331 21.6554L118.917 19.8018H117.349H115.796L115.242 21.592C114.814 22.9544 114.561 23.4931 114.196 23.8416C113.705 24.3169 113.705 24.3169 111.487 24.3644C108.335 24.4436 108.224 24.301 109.19 21.4177L109.744 19.8018H108.176H106.624L105.958 21.7979Z" fill="#078DEE"/>
<path d="M119.202 23.1604C118.616 24.9981 118.093 26.5982 118.045 26.7249C117.982 26.8992 118.98 26.9309 123.511 26.9309H129.056L129.42 25.8536C129.611 25.2674 129.801 24.6971 129.848 24.5862C129.896 24.4436 129.056 24.3961 125.935 24.3961C123.749 24.3961 121.959 24.3327 121.959 24.2694C121.959 24.206 122.275 23.1921 122.671 22.0197C123.068 20.8474 123.384 19.881 123.384 19.8493C123.384 19.8176 122.687 19.8018 121.832 19.8018H120.279L119.202 23.1604Z" fill="#078DEE"/>
<path d="M131.623 23.2554C131.021 25.1407 130.514 26.7566 130.514 26.82C130.514 26.8834 131.211 26.9151 132.051 26.8992L133.587 26.8517L134.728 23.3188L135.853 19.8018H134.3H132.748L131.623 23.2554Z" fill="#078DEE"/>
<path d="M136.534 21.9405C135.584 24.9031 135.742 25.9487 137.215 26.6299C137.802 26.8834 138.277 26.9309 140.986 26.9309C144.424 26.9309 145.137 26.8042 146.404 25.9645C147.481 25.2516 148.068 24.3011 148.844 21.9564C149.224 20.8157 149.525 19.8652 149.525 19.8493C149.525 19.8176 148.828 19.8018 147.973 19.8018H146.42L145.961 21.2593C145.042 24.2218 144.82 24.3961 141.889 24.3961C139.75 24.3961 139.227 24.2218 139.227 23.5406C139.227 23.3505 139.481 22.4475 139.782 21.5445C140.083 20.6414 140.336 19.881 140.336 19.8493C140.336 19.8176 139.639 19.8018 138.784 19.8018H137.231L136.534 21.9405Z" fill="#078DEE"/>
<path d="M81.3385 20.2141C81.196 20.6099 81.2275 20.7524 81.465 20.7524C81.766 20.7524 81.9085 20.5308 81.782 20.2141C81.655 19.8974 81.465 19.8974 81.3385 20.2141Z" fill="#263238"/>
<path d="M83.62 20.0243C83.62 20.0559 83.731 20.135 83.8735 20.1824C84 20.2298 84.0635 20.214 84.016 20.1192C83.921 19.9611 83.62 19.8978 83.62 20.0243Z" fill="#263238"/>
<path d="M2.41142 20.5466C2.4431 20.7051 2.53816 21.0061 2.58568 21.2279C2.93422 22.4477 4.02735 22.8121 7.41765 22.8121C9.65145 22.8121 9.9366 22.8438 10.1743 23.1131C10.396 23.3666 10.4119 23.4775 10.2376 23.826C9.8732 24.6657 9.54055 24.7132 4.99374 24.7132H0.827165L0.462788 25.8539C0.256836 26.4876 0.0508835 27.1054 0.00335603 27.2163C-0.060014 27.3906 0.74795 27.4223 4.66105 27.3747C9.17615 27.3114 9.44545 27.2955 10.3327 26.947C12.2179 26.2024 13.5962 24.3805 13.5962 22.6378C13.5962 21.8774 13.517 21.6398 13.1685 21.212C12.408 20.309 12.1704 20.2773 7.02155 20.2773C2.63321 20.2773 2.3322 20.2932 2.41142 20.5466Z" fill="#078DEE"/>
<path d="M15.8931 20.4674C15.8614 20.5783 15.3703 22.0992 14.8 23.8419C14.2296 25.5845 13.7544 27.1054 13.7544 27.2163C13.7544 27.3589 14.1663 27.4064 15.2436 27.4064H16.7486L17.509 25.1093L18.2536 22.8121H21.1211C23.1806 22.8121 24.2579 22.7487 24.9234 22.5745C25.9848 22.3052 27.2839 21.4813 27.8225 20.7526L28.1869 20.2773H22.0717C17.3189 20.2773 15.9565 20.3248 15.8931 20.4674Z" fill="#078DEE"/>
<path d="M28.9636 22.4161C28.0447 25.3152 28.1715 26.1866 29.6448 26.9628C30.2785 27.3114 30.4845 27.3272 33.5579 27.3272C36.5522 27.3114 36.869 27.2955 37.6928 26.9628C38.6909 26.5668 39.8632 25.6162 40.3544 24.8083C40.592 24.4281 41.9544 20.61 41.9544 20.3248C41.9544 20.2932 41.2574 20.2773 40.4019 20.2773H38.8335L38.3107 21.9725C37.9146 23.2874 37.677 23.7944 37.2809 24.1904L36.7581 24.7132H34.4768C32.449 24.7132 32.1479 24.6815 31.9262 24.4281C31.7677 24.2696 31.6568 24.0478 31.6568 23.9528C31.6568 23.7944 32.4806 21.1011 32.7183 20.4833C32.7816 20.3248 32.4173 20.2773 31.2291 20.2773H29.6607L28.9636 22.4161Z" fill="#078DEE"/>
<path d="M43.2375 20.6575C42.9048 21.4972 41.1621 27.0421 41.1621 27.2163C41.1621 27.3431 41.6057 27.4064 42.6513 27.4064H44.1564L44.8851 25.1093C45.598 22.8596 45.6139 22.8121 46.0575 22.8121C46.4694 22.8121 46.6753 23.0498 48.0695 25.1093L49.6379 27.4064H51.507C52.521 27.4064 53.361 27.3589 53.361 27.2797C53.361 27.2163 52.727 26.2024 51.935 25.0301L50.509 22.8913L51.634 22.6854C52.2675 22.5745 53.06 22.3368 53.424 22.1467C54.0735 21.8299 55.4205 20.6417 55.4205 20.4041C55.4205 20.3407 52.7115 20.2773 49.4002 20.2773H43.3801L43.2375 20.6575Z" fill="#078DEE"/>
<path d="M59.967 23.6042C59.381 25.4261 58.858 27.0262 58.8105 27.1688C58.7315 27.3747 58.9375 27.4064 60.284 27.4064H61.8525L62.9295 24.0478C63.516 22.2101 64.0385 20.61 64.086 20.4833C64.1495 20.3248 63.8325 20.2773 62.597 20.2773H61.0285L59.967 23.6042Z" fill="#078DEE"/>
<path d="M90.02 20.5147C89.767 20.7047 89.767 20.7364 89.9725 20.7522C90.1155 20.7522 90.3215 20.6414 90.432 20.5147C90.6855 20.2138 90.432 20.2138 90.02 20.5147Z" fill="#263238"/>
<path d="M88.769 21.0383C88.5155 21.3393 88.3095 21.6561 88.3255 21.7353C88.357 21.7987 88.246 21.7987 88.1035 21.7512C87.961 21.6878 87.771 21.767 87.644 21.9413C87.5175 22.0997 87.4225 22.1631 87.4225 22.068C87.4225 21.973 87.3115 21.8621 87.1845 21.7987C87.0265 21.7353 86.947 21.8145 86.947 22.0205C86.947 22.1948 86.9945 22.3215 87.074 22.3215C87.4065 22.2581 87.4225 22.369 87.0895 22.6542C86.8835 22.8126 86.7885 22.9552 86.8835 22.9711C86.9785 22.9711 87.1845 22.8285 87.343 22.6542C87.5015 22.4799 87.676 22.3849 87.739 22.4166C87.8025 22.4641 88.072 22.274 88.357 22.0205C88.6265 21.7512 89.0065 21.5452 89.1965 21.5452C89.4025 21.5452 89.656 21.4819 89.783 21.4026C89.973 21.2759 89.973 21.1967 89.7355 20.8482C89.5925 20.6264 89.4185 20.4363 89.355 20.4521C89.2915 20.4521 89.038 20.7214 88.769 21.0383Z" fill="#263238"/>
<path d="M74.843 20.7363C74.7795 20.8155 74.7955 21.0057 74.859 21.18C74.954 21.4334 74.938 21.4334 74.7005 21.2433C74.542 21.1165 74.3995 21.0532 74.368 21.0849C74.336 21.1166 74.4945 21.2908 74.7165 21.4492C74.938 21.6235 75.065 21.6869 75.0175 21.5919C74.954 21.4968 75.0175 21.3859 75.144 21.3225C75.445 21.2116 75.461 20.5938 75.16 20.5938C75.033 20.5938 74.8905 20.6571 74.843 20.7363Z" fill="#263238"/>
<path d="M76.713 20.769C76.665 20.864 76.697 21.0224 76.792 21.1174C76.9185 21.244 76.966 21.1965 76.966 20.9432C76.966 20.5632 76.887 20.4998 76.713 20.769Z" fill="#263238"/>
<path d="M77.283 21.0063C77.283 21.133 77.362 21.1963 77.4415 21.1488C77.5365 21.1013 77.6 20.9904 77.6 20.8954C77.6 20.8163 77.5365 20.7529 77.4415 20.7529C77.362 20.7529 77.283 20.8638 77.283 21.0063Z" fill="#263238"/>
<path d="M73.386 21.1648C73.085 21.4023 73.085 21.4023 73.402 21.2598C73.576 21.1806 73.8295 21.0698 73.9565 21.0223C74.162 20.9431 74.162 20.9273 73.9405 20.9273C73.8135 20.9115 73.56 21.0223 73.386 21.1648Z" fill="#263238"/>
<path d="M87.4225 21.2278C87.4225 21.5287 87.739 21.6553 87.945 21.4336C88.072 21.3228 87.771 20.9111 87.565 20.9111C87.4855 20.9111 87.4225 21.0536 87.4225 21.2278Z" fill="#263238"/>
<path d="M90.274 21.0702C90.084 21.1967 90.0995 21.2283 90.385 21.2283C90.575 21.2283 90.781 21.1492 90.8285 21.0702C90.955 20.8646 90.591 20.8646 90.274 21.0702Z" fill="#263238"/>
<path d="M75.857 21.2755C76.3955 21.5131 76.38 21.4973 76.2375 21.7191C76.158 21.8617 76.063 21.83 75.9205 21.624C75.6195 21.2121 75.461 21.4498 75.683 21.9884C75.8415 22.3686 75.8255 22.6063 75.556 23.4142C75.144 24.6182 75.1285 24.9985 75.461 24.7133C75.651 24.5549 75.6985 24.5707 75.6985 24.7925C75.6985 25.4104 76.079 24.8559 76.3325 23.842C76.5225 23.0974 76.7285 22.6538 76.998 22.432C77.7265 21.8141 77.679 21.5765 76.776 21.3072C75.8255 21.022 75.271 21.0062 75.857 21.2755ZM77.093 21.6874C77.267 21.7983 77.267 21.83 77.093 21.8933C76.982 21.9409 76.792 21.8775 76.681 21.7666C76.5225 21.5923 76.5225 21.5448 76.681 21.5448C76.792 21.5448 76.982 21.6082 77.093 21.6874Z" fill="#263238"/>
<path d="M79.057 21.2593C78.661 21.6553 78.962 22.3366 79.5325 22.3366C79.96 22.3366 80.166 21.687 79.8335 21.4177C79.691 21.2909 79.675 21.2593 79.8015 21.3226C79.9445 21.4018 79.992 21.3702 79.9125 21.2593C79.77 21.0216 79.2945 21.0216 79.057 21.2593Z" fill="#263238"/>
<path d="M77.8535 21.6241C77.695 22.0516 77.7425 22.1625 78.075 22.1308C78.313 22.115 78.392 22.02 78.3605 21.7983C78.297 21.4024 77.98 21.2916 77.8535 21.6241Z" fill="#263238"/>
<path d="M90.4955 21.7195C90.448 21.7987 90.4955 21.973 90.5905 22.0997C90.6855 22.2265 90.733 22.3849 90.7015 22.4641C90.654 22.5275 90.749 22.9077 90.923 23.2879C91.224 23.9533 91.224 24.0008 90.9705 24.1909C90.622 24.4444 90.828 24.682 91.1925 24.4444C91.335 24.3494 91.462 24.0959 91.462 23.8582C91.446 23.6206 91.541 23.4463 91.652 23.4463C91.763 23.4463 91.858 23.5572 91.858 23.684C91.858 23.8107 91.969 23.9216 92.0955 23.9216C92.4125 23.9216 92.2225 23.478 91.7155 22.9711L91.3035 22.575L91.747 22.5275C92.3175 22.4641 92.143 22.1789 91.525 22.1789C91.24 22.1789 91.066 22.0997 91.066 21.9571C91.066 21.6878 90.638 21.4977 90.4955 21.7195Z" fill="#263238"/>
<path d="M73.798 21.9406C73.798 22.0673 73.9085 22.1781 74.0355 22.1781C74.162 22.1781 74.273 22.0673 74.273 21.9406C74.273 21.814 74.162 21.7031 74.0355 21.7031C73.9085 21.7031 73.798 21.814 73.798 21.9406Z" fill="#263238"/>
<path d="M89.482 21.8461C89.482 21.9887 89.8305 22.337 89.989 22.337C90.274 22.337 90.1 21.767 89.799 21.7511C89.6245 21.7353 89.482 21.7828 89.482 21.8461Z" fill="#263238"/>
<path d="M86.155 22.084C86.155 22.3532 86.3765 22.5432 86.519 22.4007C86.646 22.274 86.4715 21.8623 86.2975 21.8623C86.218 21.8623 86.155 21.9573 86.155 22.084Z" fill="#263238"/>
<path d="M75.0805 22.2734C75.0805 22.4476 75.1285 22.4951 75.176 22.3684C75.2235 22.2575 75.2075 22.115 75.16 22.0675C75.1125 22.0042 75.065 22.0992 75.0805 22.2734Z" fill="#263238"/>
<path d="M88.7685 22.3215C88.642 22.559 88.816 22.8124 89.1015 22.8124C89.244 22.8124 89.323 22.7015 89.2915 22.5432C89.228 22.2265 88.911 22.0998 88.7685 22.3215Z" fill="#263238"/>
<path d="M72.4665 22.6855C72.2925 23.3667 72.34 23.4934 72.768 23.3825C73.227 23.2716 73.243 23.335 72.926 24.238C72.6885 24.9034 72.736 25.2836 73.021 25.1094C73.1005 25.046 73.164 25.0935 73.164 25.1727C73.164 25.2678 73.227 25.347 73.322 25.347C73.4015 25.347 73.6075 24.9193 73.75 24.3806L74.0195 23.4142L74.2885 23.7944C74.6215 24.238 74.8275 24.0796 74.97 23.2875L75.049 22.733L74.875 23.24C74.6055 24.0638 74.4155 23.9053 74.241 22.733C74.162 22.2577 73.5755 22.2419 73.259 22.7172C72.9105 23.2716 72.4825 23.2716 72.625 22.733C72.6725 22.5112 72.6885 22.3369 72.641 22.3369C72.6095 22.3369 72.53 22.4954 72.4665 22.6855Z" fill="#263238"/>
<path d="M78.3441 22.5909C78.1226 22.8126 78.2336 23.1451 78.5186 23.0976C78.6611 23.066 78.7881 22.9393 78.7881 22.8284C78.7881 22.5751 78.5026 22.4326 78.3441 22.5909Z" fill="#263238"/>
<path d="M76.871 22.892C76.8075 23.0345 76.839 23.2245 76.934 23.3195C77.172 23.557 77.6315 23.3353 77.568 23.0186C77.5045 22.6545 76.9975 22.5594 76.871 22.892Z" fill="#263238"/>
<path d="M79.39 23.0184C78.994 23.1925 78.7725 23.6042 79.0735 23.6042C79.2635 23.6042 79.897 22.9867 79.7865 22.8917C79.7545 22.8759 79.5805 22.9234 79.39 23.0184Z" fill="#263238"/>
<path d="M89.434 23.097C89.149 23.4139 89.0695 24 89.323 23.8416C89.418 23.7941 89.4815 23.6198 89.4815 23.4456C89.4815 23.2871 89.5765 23.1287 89.7035 23.0812C89.862 23.0178 89.957 23.1604 90.036 23.5406C90.0995 23.8891 90.1945 24.0476 90.3055 23.9842C90.4005 23.9208 90.432 23.9367 90.3845 24.0317C90.337 24.1109 90.052 24.1585 89.7665 24.1426C89.2755 24.1109 89.26 24.1268 89.545 24.3327C89.925 24.6021 90.147 24.6179 90.464 24.3486C90.7965 24.0793 90.8915 23.7466 90.733 23.303C90.638 23.0653 90.5115 22.9703 90.337 23.0337C90.2105 23.0812 90.147 23.0653 90.1945 22.9703C90.369 22.6851 89.7035 22.8119 89.434 23.097ZM90.543 23.3822C90.4955 23.4297 90.353 23.4456 90.242 23.398C90.1155 23.3505 90.163 23.303 90.337 23.303C90.5115 23.2871 90.6065 23.3347 90.543 23.3822ZM90.7015 23.699C90.654 23.7466 90.5115 23.7624 90.4005 23.7149C90.2735 23.6674 90.321 23.6198 90.4955 23.6198C90.67 23.604 90.765 23.6515 90.7015 23.699Z" fill="#263238"/>
<path d="M77.6155 23.4778C77.473 23.8738 77.394 23.9372 77.299 23.7788C77.2195 23.652 77.0455 23.6045 76.903 23.652C76.76 23.7154 76.6495 23.6679 76.6495 23.5728C76.6495 23.4778 76.6015 23.4303 76.554 23.4936C76.3485 23.6996 76.681 24.2382 77.0135 24.2382C77.3305 24.2382 77.3145 24.2699 76.887 24.5551C76.459 24.8402 76.4435 24.8719 76.76 24.8719C76.9505 24.8719 77.2515 24.6977 77.4095 24.4759C77.758 24.0323 78.0115 24.1749 77.8375 24.7135C77.774 24.8878 77.806 25.0303 77.885 25.0303C78.1225 25.0303 78.2495 24.5709 78.1385 24.1432C78.0595 23.858 78.107 23.7629 78.297 23.7629C78.6295 23.7629 78.6135 23.557 78.265 23.2401C77.869 22.8758 77.8215 22.8916 77.6155 23.4778Z" fill="#263238"/>
<path d="M87.327 23.2243C87.042 23.4459 87.042 23.4618 87.3905 23.2876C87.5805 23.1926 87.739 23.0818 87.739 23.0501C87.739 22.9234 87.66 22.9551 87.327 23.2243Z" fill="#263238"/>
<path d="M86.0435 23.6992C85.7585 24.0161 85.5525 24.3329 85.6 24.3963C85.632 24.4597 86.028 24.3963 86.4555 24.2696L87.2475 24.0161L86.9785 23.5725C86.836 23.3349 86.6775 23.1289 86.63 23.1289C86.5825 23.1289 86.313 23.3824 86.0435 23.6992Z" fill="#263238"/>
<path d="M88.531 23.3823C88.531 23.6514 88.88 23.6039 88.975 23.3189C89.0065 23.2081 88.9275 23.1289 88.7845 23.1289C88.642 23.1289 88.531 23.2397 88.531 23.3823Z" fill="#263238"/>
<path d="M87.5015 23.7626C87.454 23.8416 87.549 23.9207 87.723 23.9207C87.9135 23.9207 88.056 23.8416 88.056 23.7626C88.056 23.6677 87.961 23.6045 87.834 23.6045C87.7075 23.6045 87.549 23.6677 87.5015 23.7626Z" fill="#263238"/>
<path d="M71.8965 24.0004C71.8965 24.1429 71.9755 24.2062 72.071 24.1429C72.166 24.0954 72.2925 24.1112 72.356 24.2062C72.4195 24.3171 72.546 24.3329 72.6885 24.2379C72.958 24.0637 72.8945 24.0004 72.34 23.8579C71.9915 23.7787 71.8965 23.8104 71.8965 24.0004Z" fill="#263238"/>
<path d="M88.3885 24.127C88.2145 24.5706 87.5965 24.9984 86.947 25.141C86.234 25.2835 86.139 25.5687 86.836 25.4578C87.549 25.3469 87.5965 25.4578 86.947 25.6796C86.6935 25.7747 86.4715 25.9331 86.4715 26.0123C86.4715 26.2499 87.1845 26.0281 87.8655 25.6004C88.1825 25.3944 88.721 25.1726 89.054 25.1251C89.5765 25.0301 89.751 24.7132 89.2755 24.7132C89.022 24.7132 88.658 24.1112 88.769 23.9211C88.832 23.826 88.7845 23.7627 88.6895 23.7627C88.5945 23.7627 88.4675 23.9211 88.3885 24.127Z" fill="#263238"/>
<path d="M84.729 24.1585C84.729 24.3011 84.5865 24.3962 84.349 24.3962C83.9055 24.3962 83.636 24.6972 83.937 24.8714C84.1905 25.0299 84.1585 25.0774 83.6045 25.6794C83.208 26.1071 83.0975 26.1547 82.9705 25.9646C82.7805 25.6636 82.8595 25.4576 83.208 25.4101C83.5885 25.3625 83.6835 25.2517 83.5565 24.9348C83.4935 24.7764 83.3665 24.713 83.208 24.7764C83.0655 24.8239 82.717 24.7289 82.432 24.5546L81.909 24.2377L81.497 24.7289C81.2435 25.0299 81.0855 25.1249 81.0855 24.9665C81.0855 24.6813 80.4835 24.2377 80.135 24.2536C80.008 24.2536 80.087 24.3328 80.3405 24.4278C80.816 24.6021 81.0695 25.22 80.7845 25.5685C80.689 25.6794 80.6415 25.8061 80.689 25.8378C80.721 25.8854 80.515 25.8854 80.214 25.8537C79.7705 25.8061 79.628 25.6952 79.5485 25.3784C79.501 25.1566 79.5485 24.8397 79.6595 24.6496C79.8495 24.3486 79.8335 24.3328 79.628 24.5229C79.485 24.6338 79.3425 24.8556 79.295 25.0299C79.2 25.3784 79.5805 25.9804 79.913 25.9804C80.0395 25.9804 80.135 26.0596 80.135 26.1547C80.135 26.2339 80.198 26.2656 80.293 26.218C80.3725 26.1705 80.404 26.218 80.3565 26.3606C80.2455 26.6299 80.705 26.9151 81.1485 26.8359C81.323 26.8201 81.5605 26.931 81.6875 27.1052C82.004 27.5647 82.812 27.4538 83.129 26.9151C84.0635 25.4101 84.349 25.22 84.1585 26.218C84.0955 26.5983 84.111 26.6458 84.317 26.4715C84.46 26.3606 84.539 26.1071 84.5075 25.917C84.444 25.5051 84.6815 25.1724 84.9665 25.2833C85.0775 25.3309 85.252 25.22 85.363 25.0457C85.5055 24.7764 85.4895 24.713 85.2835 24.713C85.014 24.713 84.9665 24.4595 85.2045 24.3169C85.4105 24.1902 85.252 23.9209 84.951 23.9209C84.824 23.9209 84.729 24.0318 84.729 24.1585ZM81.5605 25.5843C81.4495 25.7269 81.323 25.7903 81.2755 25.7428C81.228 25.7111 81.2915 25.5685 81.402 25.4259C81.513 25.2833 81.64 25.22 81.6875 25.2675C81.735 25.2992 81.6715 25.4418 81.5605 25.5843ZM82.6695 25.5843C82.6695 25.6319 82.527 25.6636 82.3525 25.6636C82.1785 25.6636 82.036 25.5527 82.036 25.4259C82.036 25.22 82.099 25.2041 82.3525 25.3467C82.527 25.4418 82.6695 25.5527 82.6695 25.5843ZM82.7965 26.0121C82.907 26.123 82.9865 26.3448 82.9865 26.5349C82.9865 27.232 82.036 27.533 81.719 26.9468C81.497 26.5191 81.513 26.3606 81.814 26.0755C82.099 25.7745 82.527 25.7428 82.7965 26.0121ZM81.2595 26.5032C81.101 26.6458 81.0855 26.6299 81.1805 26.4082C81.228 26.2497 81.323 26.1705 81.3705 26.218C81.418 26.2656 81.3705 26.3923 81.2595 26.5032Z" fill="#263238"/>
<path d="M87.0105 24.4121C86.8835 24.6337 87.1846 24.9346 87.4066 24.8079C87.5016 24.7446 87.5805 24.5862 87.5805 24.4596C87.5805 24.2062 87.1685 24.1587 87.0105 24.4121Z" fill="#263238"/>
<path d="M86.2495 24.508C86.0595 24.698 86.1545 25.0305 86.392 25.0305C86.519 25.0305 86.63 24.9355 86.63 24.8089C86.63 24.5397 86.408 24.3655 86.2495 24.508Z" fill="#263238"/>
<path d="M70.6131 24.8238C70.4071 25.0615 70.4231 25.0773 70.7556 24.9981C71.2946 24.8555 71.1675 25.0931 70.534 25.41C70.122 25.6001 69.9 25.6318 69.7895 25.5209C69.6945 25.4258 69.5515 25.3466 69.4565 25.3466C69.3775 25.3466 69.3615 25.3941 69.409 25.4575C69.4725 25.505 69.441 25.6476 69.3455 25.7585C69.0925 26.0754 69.6946 26.5982 70.2171 26.5031C70.7716 26.3922 71.1521 26.7091 70.9301 27.1051C70.8191 27.3111 70.6605 27.3903 70.423 27.3269C70.027 27.2319 69.4725 27.5329 69.7895 27.6596C70.011 27.7547 69.8845 28.1983 69.615 28.1983C69.33 28.1983 68.332 29.1963 68.5535 29.2756C68.6645 29.3072 69.0131 29.1013 69.3141 28.8161L69.8845 28.2775L69.8051 28.7052C69.7576 28.9429 69.8051 29.1647 69.9001 29.2122C69.9956 29.2439 69.916 29.2914 69.726 29.2914C69.33 29.3072 69.2031 29.6241 69.5836 29.6241C69.8371 29.6241 70.0431 29.3706 70.0906 29.0221C70.1536 28.6419 70.502 28.325 70.6765 28.4993C70.8825 28.7052 71.421 28.4201 71.421 28.1032C71.421 27.9765 71.3575 27.9131 71.2625 27.9606C71.1835 28.0082 71.104 27.9923 71.104 27.8973C71.104 27.818 71.1835 27.6913 71.2625 27.6438C71.3575 27.5963 71.421 27.4061 71.421 27.2319C71.421 26.8041 71.8491 26.6774 72.1976 26.9942C72.5621 27.3269 72.6411 27.3111 72.7361 26.9467C72.7836 26.7566 72.6725 26.4873 72.4825 26.2972L72.1655 25.9486L72.5301 26.0595C72.7836 26.1387 72.8631 26.1229 72.8151 25.9645C72.7676 25.8377 72.5936 25.7268 72.4036 25.6952C72.1181 25.6476 72.0706 25.5684 72.1501 25.2357C72.2451 24.8555 72.2291 24.8397 71.8491 24.903C71.5956 24.9506 71.4055 24.903 71.3575 24.7763C71.247 24.4753 70.8666 24.507 70.6131 24.8238ZM71.8966 25.9962C71.8966 26.218 71.3261 26.1704 71.1201 25.9328C70.9936 25.7585 71.041 25.7268 71.421 25.7902C71.6905 25.8219 71.8966 25.9169 71.8966 25.9962Z" fill="#263238"/>
<path d="M74.0511 24.8557C73.6866 25.2677 73.9561 25.8221 74.5261 25.8221C75.0806 25.8221 75.3026 25.2043 74.8591 24.8241C74.4631 24.4755 74.3836 24.4914 74.0511 24.8557Z" fill="#263238"/>
<path d="M64.6091 25.189L62.6286 25.2839L64.8151 25.3155C66.1776 25.3313 66.9855 25.2839 66.9855 25.189C66.9855 25.0942 66.8905 25.0467 66.795 25.0626C66.6845 25.0784 65.7021 25.1416 64.6091 25.189Z" fill="#263238"/>
<path d="M85.2675 25.4268C85.157 25.696 85.458 26.1393 85.743 26.1393C86.1075 26.1393 86.3135 25.791 86.139 25.4743C85.949 25.1259 85.3945 25.0943 85.2675 25.4268Z" fill="#263238"/>
<path d="M73.243 25.6801C73.085 25.9176 73.2905 26.076 73.4965 25.8701C73.6075 25.7593 73.6075 25.6643 73.5125 25.6009C73.4175 25.5534 73.2905 25.5851 73.243 25.6801Z" fill="#263238"/>
<path d="M79.7385 26.3139C79.58 26.5514 79.786 26.7098 79.992 26.5039C80.103 26.3931 80.103 26.2981 80.008 26.2347C79.913 26.1872 79.786 26.2189 79.7385 26.3139Z" fill="#263238"/>
<path d="M68.6965 26.7413C68.443 26.8839 68.253 27.074 68.253 27.1691C68.253 27.2483 68.031 27.6126 67.7775 27.9453C67.2545 28.6424 67.112 29.181 67.5555 28.8167C67.6825 28.7058 67.936 28.3572 68.0945 28.0562C68.3635 27.5493 68.3955 27.5334 68.3795 27.882C68.3635 28.1038 68.2845 28.3731 68.2055 28.484C67.9835 28.7691 68.2055 28.9117 68.4905 28.6741C68.649 28.5315 68.712 28.3256 68.6645 28.1038C68.5855 27.8028 68.6645 27.676 69.045 27.4859C69.5675 27.2166 69.663 27.0423 69.2665 27.1215C69.1085 27.1532 68.9655 27.074 68.918 26.9473C68.8865 26.8205 68.918 26.773 69.013 26.8364C69.0925 26.8839 69.2035 26.8205 69.2665 26.6938C69.3775 26.3928 69.235 26.3928 68.6965 26.7413Z" fill="#263238"/>
<path d="M80.0555 26.7729C79.9445 26.9629 80.087 27.2479 80.309 27.2479C80.499 27.2479 80.499 26.8204 80.309 26.6937C80.23 26.6462 80.119 26.6779 80.0555 26.7729Z" fill="#263238"/>
<path d="M81.291 27.7078C81.196 28.0722 80.7685 28.1356 80.309 27.8504C79.897 27.5969 79.4695 27.8029 79.5325 28.2306C79.5645 28.5158 79.675 28.595 80.0555 28.5791C80.5465 28.5633 80.5625 28.5791 80.6575 29.6564C80.6735 29.799 80.7365 29.8782 80.8 29.8465C80.8635 29.799 80.927 29.8307 80.927 29.9258C80.927 30.005 80.8 30.1634 80.6575 30.2426C80.499 30.3377 80.4515 30.4169 80.5465 30.4169C80.8315 30.4169 81.0695 30.0366 81.022 29.704C80.9585 29.3396 81.212 28.9594 81.4335 29.0861C81.6395 29.2287 82.036 28.8326 82.036 28.4841C82.036 28.3257 81.9725 28.2148 81.893 28.2781C81.798 28.3257 81.7505 28.1672 81.7665 27.9454C81.798 27.4226 81.418 27.2325 81.291 27.7078Z" fill="#263238"/>
<path d="M60.569 28.1194L56.2915 28.3094L60.791 28.2935C64.2445 28.2777 65.306 28.2302 65.3695 28.0719C65.401 27.961 65.306 27.8977 65.132 27.9135C64.9735 27.9293 62.9295 28.0243 60.569 28.1194Z" fill="#263238"/>
<path d="M54.5175 28.4682C54.66 28.5 54.9135 28.5 55.072 28.4682C55.2145 28.4205 55.0875 28.3887 54.7865 28.3887C54.4855 28.3887 54.359 28.4205 54.5175 28.4682Z" fill="#263238"/>
<path d="M79.8971 29.5923C79.4856 30.226 79.4381 30.5745 79.8021 30.3369C80.0556 30.1943 80.4835 29.323 80.404 29.1012C80.3725 29.0061 80.1506 29.2121 79.8971 29.5923Z" fill="#263238"/>
<path d="M66.7475 30.2111C66.4625 30.6864 66.304 30.7973 66.003 30.7497C65.9235 30.7497 65.876 30.8131 65.876 30.9082C65.876 31.0032 66.019 31.0349 66.225 30.9715C66.494 30.8765 66.5415 30.9082 66.4465 31.1299C66.225 31.732 66.1455 32.2072 66.304 32.1122C66.399 32.0488 66.589 32.1439 66.7475 32.3181C67.0645 32.6667 67.302 32.73 67.302 32.4766C67.302 32.3815 67.1595 32.2548 67.001 32.1914C66.716 32.0805 66.716 32.033 66.9375 31.3993C67.0645 31.0191 67.1435 30.4804 67.112 30.2111L67.0645 29.7041L66.7475 30.2111Z" fill="#263238"/>
<path d="M68.57 29.91C68.57 29.9892 68.6805 30.1634 68.8235 30.2742C69.045 30.4642 69.077 30.4484 69.0295 30.195C68.966 29.8783 68.57 29.6408 68.57 29.91Z" fill="#263238"/>
<path d="M68.047 30.4646C67.9995 30.5754 68.0945 30.6704 68.2685 30.6863C68.459 30.7021 68.522 30.6388 68.459 30.4804C68.3635 30.1954 68.158 30.1954 68.047 30.4646Z" fill="#263238"/>
<path d="M67.5555 30.8133C67.492 31.0667 67.3815 31.1775 67.2705 31.1142C67.1595 31.0508 67.1435 31.0667 67.207 31.1775C67.2705 31.2883 67.3815 31.3675 67.4605 31.3675C67.603 31.3675 67.8405 30.5758 67.73 30.465C67.6825 30.4333 67.603 30.5916 67.5555 30.8133Z" fill="#263238"/>
<path d="M64.4985 31.3518C64.34 31.6051 64.3555 31.6368 64.625 31.5735C64.7835 31.526 64.926 31.3835 64.926 31.2726C64.926 30.9559 64.72 31.0034 64.4985 31.3518Z" fill="#263238"/>
<path d="M65.132 31.6521C65.0845 31.8263 64.926 32.0006 64.7675 32.0481C64.387 32.1432 63.9755 33.3947 64.2765 33.569C64.419 33.6641 64.419 33.8066 64.308 34.1076C64.102 34.6621 63.9435 34.6621 64.0705 34.1076C64.1655 33.7591 64.1335 33.7116 63.912 33.7908C63.7535 33.8542 63.595 33.9017 63.5635 33.9017C63.516 33.9017 63.5315 33.9651 63.579 34.0601C63.6265 34.1393 63.579 34.2185 63.4525 34.2185C63.12 34.2185 63.009 34.6146 63.2465 34.9473C63.3735 35.1057 63.5635 35.1849 63.722 35.1216C63.912 35.0424 63.9755 35.1216 63.9755 35.4226C63.9755 35.7394 63.912 35.8186 63.722 35.7394C63.579 35.6919 63.4365 35.6444 63.405 35.6444C63.3735 35.6444 63.3415 35.5335 63.3415 35.4067C63.3415 35.1216 63.1515 35.1057 62.898 35.3592C62.7235 35.5335 62.8345 35.8345 63.3735 36.7533C63.4525 36.8801 63.5475 37.1177 63.595 37.2603C63.722 37.6088 63.9595 37.6247 64.0705 37.3078C64.1335 37.1811 64.2445 37.1177 64.3395 37.1811C64.4345 37.2445 64.4665 37.1494 64.419 36.9435C64.3555 36.7533 64.387 36.5949 64.4665 36.5949C64.5455 36.5949 64.609 36.484 64.609 36.3573C64.609 36.2305 64.5455 36.1196 64.482 36.1196C64.419 36.1196 64.3555 35.9771 64.3555 35.8186C64.3555 35.6444 64.419 35.5493 64.498 35.5968C64.7355 35.7394 65.0525 35.3117 65.1635 34.6621C65.2425 34.2344 65.3695 33.9968 65.5755 33.9492C65.908 33.8542 66.1455 32.9511 65.9395 32.5234C65.8765 32.365 65.813 32.064 65.813 31.8422C65.797 31.3511 65.2585 31.1926 65.132 31.6521Z" fill="#263238"/>
<path d="M63.2785 31.827C62.7555 32.4132 63.437 33.0152 63.9915 32.4607L64.308 32.1438L63.9595 31.827C63.532 31.4626 63.611 31.4626 63.2785 31.827Z" fill="#263238"/>
<path d="M66.3835 32.856C66.399 33.0144 66.51 33.1252 66.589 33.1252C66.827 33.1094 66.7795 32.7452 66.5415 32.666C66.399 32.6185 66.336 32.6977 66.3835 32.856Z" fill="#263238"/>
<path d="M63.516 33.1577C63.3735 33.3319 63.389 33.4269 63.5635 33.5694C63.7375 33.7119 63.801 33.6961 63.8805 33.4902C64.023 33.126 63.7535 32.8885 63.516 33.1577Z" fill="#263238"/>
<path d="M124.497 30.6553L122.71 35.0962C122.613 35.3446 122.507 35.5398 122.39 35.6818C122.279 35.8288 122.152 35.9327 122.01 35.9935C121.873 36.0594 121.714 36.0924 121.531 36.0924C121.359 36.0924 121.199 36.067 121.052 36.0163C120.91 35.9707 120.783 35.9074 120.672 35.8262L120.839 35.2939C120.94 35.3852 121.047 35.4511 121.158 35.4916C121.275 35.5373 121.389 35.5601 121.501 35.5601C121.632 35.5601 121.757 35.5195 121.873 35.4384C121.99 35.3573 122.096 35.1925 122.193 34.9441L122.39 34.4498L122.01 33.5449L120.801 30.6553H121.493L122.444 33.1343L122.679 33.8111L122.953 33.0582L123.843 30.6553H124.497Z" fill="#263238"/>
<path d="M119.508 32.0011C119.508 31.7172 119.431 31.4992 119.279 31.3471C119.127 31.19 118.912 31.1114 118.633 31.1114C118.369 31.1114 118.146 31.1697 117.964 31.2863C117.781 31.3978 117.647 31.5803 117.561 31.8338L117.067 31.5297C117.168 31.2458 117.355 31.0176 117.629 30.8453C117.903 30.6678 118.243 30.5791 118.648 30.5791C118.922 30.5791 119.17 30.6273 119.393 30.7236C119.617 30.8148 119.791 30.9568 119.918 31.1494C120.05 31.337 120.116 31.5803 120.116 31.8795V33.7197C120.116 33.9022 120.212 33.9935 120.405 33.9935C120.501 33.9935 120.595 33.9808 120.686 33.9555L120.656 34.4345C120.554 34.4852 120.423 34.5106 120.26 34.5106C120.113 34.5106 119.982 34.4826 119.865 34.4269C119.748 34.3711 119.657 34.2875 119.591 34.176C119.525 34.0594 119.492 33.9149 119.492 33.7425V33.6665L119.644 33.6893C119.584 33.887 119.48 34.0492 119.333 34.176C119.186 34.2976 119.021 34.3889 118.838 34.4497C118.656 34.5055 118.476 34.5334 118.298 34.5334C118.075 34.5334 117.868 34.4954 117.675 34.4193C117.482 34.3433 117.328 34.2292 117.211 34.0771C117.099 33.92 117.044 33.7273 117.044 33.4992C117.044 33.2153 117.137 32.982 117.325 32.7995C117.518 32.612 117.784 32.4853 118.124 32.4194L119.629 32.1227V32.6246L118.405 32.8756C118.156 32.9263 117.971 32.9973 117.85 33.0886C117.728 33.1798 117.667 33.3065 117.667 33.4688C117.667 33.6259 117.728 33.7552 117.85 33.8566C117.977 33.9529 118.154 34.001 118.382 34.001C118.529 34.001 118.669 33.9833 118.8 33.9478C118.937 33.9073 119.059 33.849 119.165 33.7729C119.272 33.6918 119.355 33.593 119.416 33.4764C119.477 33.3547 119.508 33.2127 119.508 33.0505V32.0011Z" fill="#263238"/>
<path d="M115.54 28.9062V33.4917C115.54 33.6844 115.576 33.8187 115.647 33.8947C115.718 33.9657 115.832 34.0012 115.989 34.0012C116.091 34.0012 116.174 33.9936 116.24 33.9784C116.306 33.9632 116.395 33.9353 116.506 33.8947L116.407 34.427C116.326 34.4625 116.238 34.4879 116.141 34.5031C116.045 34.5234 115.946 34.5335 115.845 34.5335C115.535 34.5335 115.305 34.4499 115.153 34.2826C115.006 34.1153 114.932 33.8593 114.932 33.5145V28.9062H115.54Z" fill="#263238"/>
<path d="M110.195 36.0543V30.6551H110.727L110.78 31.5829L110.697 31.4764C110.763 31.299 110.861 31.1444 110.993 31.0126C111.125 30.8757 111.285 30.7692 111.472 30.6932C111.66 30.6171 111.863 30.5791 112.081 30.5791C112.39 30.5791 112.674 30.6577 112.932 30.8148C113.196 30.972 113.406 31.1976 113.564 31.4916C113.721 31.7857 113.799 32.1405 113.799 32.5562C113.799 32.9669 113.718 33.3217 113.556 33.6209C113.399 33.9148 113.188 34.1405 112.925 34.2976C112.661 34.4548 112.372 34.5334 112.058 34.5334C111.744 34.5334 111.467 34.4573 111.229 34.3053C110.996 34.1481 110.829 33.9504 110.727 33.7121L110.803 33.598V36.0543H110.195ZM111.997 34.001C112.372 34.001 112.664 33.8693 112.872 33.6057C113.084 33.342 113.191 32.9922 113.191 32.5562C113.191 32.1203 113.087 31.7705 112.879 31.5068C112.676 31.2432 112.39 31.1114 112.02 31.1114C111.777 31.1114 111.564 31.1722 111.381 31.2939C111.199 31.4105 111.057 31.5778 110.955 31.7958C110.854 32.0087 110.803 32.2622 110.803 32.5562C110.803 32.8452 110.851 33.0987 110.948 33.3167C111.049 33.5347 111.188 33.7045 111.366 33.8261C111.548 33.9427 111.759 34.001 111.997 34.001Z" fill="#263238"/>
<path d="M105.954 29.1338C106.075 29.1338 106.177 29.1667 106.258 29.2326C106.344 29.2935 106.41 29.3796 106.456 29.4912C106.501 29.5976 106.524 29.7244 106.524 29.8714C106.524 30.0387 106.494 30.2034 106.433 30.3657C106.377 30.5279 106.288 30.6775 106.167 30.8143C106.045 30.9512 105.888 31.0653 105.695 31.1565L105.376 30.86C105.513 30.8143 105.632 30.751 105.733 30.6699C105.84 30.5887 105.926 30.4975 105.992 30.3961C106.058 30.2947 106.101 30.1908 106.121 30.0843L106.091 30.0691C106.07 30.0843 106.045 30.097 106.015 30.1071C105.984 30.1173 105.939 30.1223 105.878 30.1223C105.817 30.1223 105.754 30.1046 105.688 30.0691C105.627 30.0336 105.574 29.9829 105.528 29.917C105.482 29.846 105.46 29.7548 105.46 29.6433C105.46 29.552 105.482 29.4684 105.528 29.3923C105.574 29.3112 105.632 29.2478 105.703 29.2022C105.779 29.1566 105.863 29.1338 105.954 29.1338Z" fill="#263238"/>
<path d="M99.6335 29.5752V33.4078C99.6335 33.5954 99.6865 33.7348 99.793 33.826C99.8995 33.9173 100.037 33.9629 100.204 33.9629C100.351 33.9629 100.478 33.9376 100.584 33.8869C100.691 33.8362 100.787 33.7677 100.873 33.6816L101.086 34.191C100.969 34.2975 100.83 34.3812 100.668 34.442C100.511 34.5028 100.328 34.5332 100.12 34.5332C99.9275 34.5332 99.7475 34.5003 99.58 34.4344C99.413 34.3634 99.2785 34.2544 99.177 34.1074C99.0805 33.9553 99.03 33.7576 99.025 33.5143V29.7425L99.6335 29.5752ZM101.018 30.655V31.1797H98.2645V30.655H101.018Z" fill="#263238"/>
<path d="M96.048 34.5334C95.688 34.5334 95.366 34.4548 95.0825 34.2976C94.8035 34.1405 94.5855 33.9149 94.4285 33.6209C94.271 33.3218 94.1925 32.9669 94.1925 32.5562C94.1925 32.1456 94.271 31.7933 94.4285 31.4992C94.5855 31.2001 94.801 30.972 95.0745 30.8148C95.3485 30.6577 95.6605 30.5791 96.01 30.5791C96.365 30.5791 96.6665 30.6551 96.915 30.8072C97.1685 30.9593 97.361 31.1672 97.493 31.4308C97.6245 31.6893 97.6905 31.9808 97.6905 32.3053C97.6905 32.3915 97.688 32.4701 97.683 32.541C97.678 32.612 97.6705 32.6754 97.66 32.7311H94.588V32.1912H97.394L97.0825 32.2521C97.0825 31.8871 96.981 31.6057 96.778 31.408C96.5805 31.2103 96.3195 31.1114 95.995 31.1114C95.7465 31.1114 95.531 31.1697 95.3485 31.2863C95.171 31.3978 95.0315 31.5626 94.9305 31.7806C94.834 31.9935 94.786 32.2521 94.786 32.5562C94.786 32.8554 94.8365 33.1139 94.938 33.3319C95.039 33.5499 95.181 33.7172 95.3635 33.8338C95.5515 33.9453 95.7745 34.001 96.033 34.001C96.3115 34.001 96.5375 33.9478 96.7095 33.8414C96.887 33.7349 97.029 33.5904 97.1355 33.4079L97.6145 33.6893C97.5185 33.8617 97.394 34.0112 97.242 34.138C97.095 34.2647 96.92 34.3636 96.7175 34.4345C96.5195 34.5004 96.2965 34.5334 96.048 34.5334Z" fill="#263238"/>
<path d="M92.712 28.9062V33.4917C92.712 33.6844 92.7475 33.8187 92.8185 33.8947C92.8895 33.9657 93.0035 34.0012 93.161 34.0012C93.262 34.0012 93.346 33.9936 93.4115 33.9784C93.4775 33.9632 93.5665 33.9353 93.678 33.8947L93.579 34.427C93.498 34.4625 93.409 34.4879 93.313 34.5031C93.2165 34.5234 93.1175 34.5335 93.0165 34.5335C92.707 34.5335 92.4765 34.4499 92.3245 34.2826C92.1775 34.1153 92.104 33.8593 92.104 33.5145V28.9062H92.712Z" fill="#263238"/>
<path d="M103.291 34.5334C102.921 34.5334 102.579 34.4548 102.265 34.2976C101.955 34.1405 101.717 33.9174 101.55 33.6285L102.067 33.2558C102.178 33.4891 102.341 33.6716 102.553 33.8034C102.771 33.9352 103.033 34.001 103.337 34.001C103.605 34.001 103.816 33.9504 103.968 33.849C104.12 33.7425 104.196 33.6057 104.196 33.4384C104.196 33.3319 104.161 33.2355 104.09 33.1493C104.024 33.0581 103.894 32.9922 103.702 32.9517L102.789 32.7616C102.419 32.6855 102.153 32.5588 101.991 32.3813C101.834 32.2039 101.755 31.9834 101.755 31.7198C101.755 31.5119 101.813 31.3218 101.93 31.1494C102.052 30.9771 102.221 30.8402 102.439 30.7388C102.662 30.6323 102.924 30.5791 103.223 30.5791C103.598 30.5791 103.915 30.6526 104.173 30.7996C104.432 30.9466 104.624 31.1545 104.751 31.4232L104.242 31.7578C104.155 31.5347 104.016 31.3725 103.823 31.2711C103.631 31.1646 103.431 31.1114 103.223 31.1114C103.04 31.1114 102.883 31.1368 102.751 31.1875C102.624 31.2382 102.526 31.3091 102.455 31.4004C102.389 31.4866 102.356 31.5854 102.356 31.6969C102.356 31.8085 102.394 31.9124 102.47 32.0087C102.546 32.1 102.688 32.1659 102.896 32.2064L103.846 32.4042C104.201 32.4751 104.449 32.5917 104.591 32.754C104.733 32.9162 104.804 33.1139 104.804 33.3471C104.804 33.5854 104.741 33.7958 104.614 33.9783C104.488 34.1557 104.31 34.2926 104.082 34.3889C103.854 34.4852 103.59 34.5334 103.291 34.5334Z" fill="#263238"/>
</svg>
