<svg width="200" height="51" viewBox="0 0 200 51" fill="none" xmlns="http://www.w3.org/2000/svg">
<path d="M115.739 0.294641C115.549 0.526998 115.612 0.548121 116.035 0.463628C116.331 0.421381 116.563 0.294641 116.563 0.189025C116.563 -0.106701 116.014 -0.0433316 115.739 0.294641Z" fill="black"/>
<path d="M117.197 0.463669C117.682 0.991752 117.704 1.11849 117.387 1.75219C117.176 2.19578 117.176 2.19578 117.492 1.81556C117.936 1.26635 117.915 0.780519 117.45 0.358052C116.88 -0.17003 116.69 -0.085537 117.197 0.463669Z" fill="black"/>
<path d="M114.493 0.970641C114.113 1.49872 114.07 1.51985 114.176 1.09738C114.324 0.484805 113.859 0.484805 113.627 1.1185C113.521 1.39311 113.289 1.73108 113.099 1.87894C112.909 2.02681 112.761 2.30141 112.761 2.44927C112.761 2.66051 112.486 2.745 111.831 2.745C110.691 2.745 110.479 2.99848 111.113 3.56881C111.747 4.18138 112.212 4.11801 112.486 3.42095C112.697 2.89286 112.718 2.91399 112.634 3.69555L112.528 4.54048L113.162 3.80116L113.796 3.06185L113.817 3.97015C113.817 4.51936 113.901 4.83621 114.028 4.75171C114.155 4.68834 114.239 4.0124 114.239 3.29421C114.239 2.25916 114.345 1.8367 114.683 1.39311C114.915 1.09738 115.084 0.738285 115.042 0.590422C115 0.463682 114.746 0.632668 114.493 0.970641ZM113.204 3.0196C113.035 3.18859 112.972 3.16747 112.972 2.93511C112.972 2.745 113.035 2.53377 113.12 2.44927C113.204 2.36478 113.31 2.40703 113.352 2.53377C113.416 2.68163 113.331 2.89286 113.204 3.0196Z" fill="black"/>
<path d="M115.296 1.07623C115.296 1.64656 115.929 2.32251 116.5 2.32251C117.154 2.32251 117.07 2.15352 116.331 2.04791C116.035 2.00566 115.802 1.79443 115.76 1.56207C115.655 1.03399 115.296 0.653768 115.296 1.07623Z" fill="black"/>
<path d="M116.563 1.26631C116.563 1.37192 116.669 1.47754 116.774 1.47754C116.901 1.47754 116.985 1.37192 116.985 1.26631C116.985 1.13957 116.901 1.05507 116.774 1.05507C116.669 1.05507 116.563 1.13957 116.563 1.26631Z" fill="black"/>
<path d="M117.957 1.39304C117.767 1.87887 118.358 2.51257 118.696 2.1746C119.013 1.85775 118.844 1.18181 118.443 1.09731C118.253 1.05507 118.042 1.20293 117.957 1.39304Z" fill="black"/>
<path d="M136.25 2.23799C135.743 2.59709 135.701 2.70271 135.975 3.12517C136.102 3.33641 136.25 3.35753 136.693 3.1463C137.01 2.99843 137.264 2.80832 137.264 2.70271C137.264 2.59709 137.179 2.57597 137.053 2.63934C136.757 2.82945 136.778 2.47035 137.095 2.1535C137.475 1.77328 136.841 1.81553 136.25 2.23799Z" fill="black"/>
<path d="M115.338 2.55492C115.38 2.70279 115.549 2.87177 115.697 2.91402C115.866 2.97739 115.95 2.8929 115.887 2.72391C115.845 2.57605 115.676 2.40706 115.528 2.36481C115.359 2.30144 115.274 2.38594 115.338 2.55492Z" fill="black"/>
<path d="M117.197 2.63939C117.028 2.8295 116.985 3.25197 117.07 3.7378C117.154 4.18139 117.239 4.77285 117.281 5.06857C117.323 5.3643 117.366 5.68115 117.387 5.76564C117.45 6.20923 118.147 5.74452 118.253 5.17419C118.337 4.79397 118.506 4.56161 118.654 4.60386C118.802 4.62498 119.351 4.66723 119.858 4.68835C120.872 4.70948 121.126 5.0052 120.217 5.11082C119.795 5.15307 119.605 5.30093 119.562 5.66003C119.52 5.95575 119.393 6.08249 119.246 5.97688C119.098 5.89238 119.098 5.97688 119.267 6.18811C119.436 6.37822 119.499 6.61058 119.436 6.73731C119.372 6.84293 119.457 6.96967 119.626 7.05416C119.795 7.11753 119.985 7.07529 120.069 6.94855C120.133 6.82181 120.323 6.88518 120.513 7.11753C120.788 7.45551 120.788 7.45551 120.555 6.99079C120.344 6.54721 120.365 6.42047 120.745 6.10362C120.999 5.91351 121.126 5.68115 121.041 5.61778C120.978 5.53329 121.02 5.38542 121.189 5.30093C121.379 5.17419 121.4 5.02633 121.252 4.7306C121.126 4.49824 120.978 4.16027 120.914 3.94904C120.851 3.7378 120.703 3.63219 120.576 3.69556C120.471 3.75893 120.365 3.69556 120.365 3.52657C120.365 3.37871 120.196 3.25197 120.006 3.27309C119.795 3.27309 119.626 3.33646 119.626 3.39983C119.626 3.67443 119.034 4.20252 118.865 4.0969C118.76 4.03353 118.675 3.71668 118.675 3.39983C118.675 2.42816 117.767 1.94232 117.197 2.63939ZM118.147 3.58994C118.147 4.28701 118.063 4.54049 117.83 4.54049C117.598 4.54049 117.492 4.26589 117.45 3.52657C117.387 2.63939 117.429 2.51265 117.767 2.57602C118.063 2.63939 118.147 2.85063 118.147 3.58994ZM118.042 5.38542C118.042 5.57553 117.915 5.6389 117.725 5.57553C117.556 5.49104 117.471 5.3643 117.535 5.25868C117.704 4.96296 118.042 5.04745 118.042 5.38542ZM120.788 5.78677C120.788 5.85014 120.703 5.95575 120.576 6.01912C120.471 6.08249 120.365 6.04025 120.365 5.93463C120.365 5.80789 120.471 5.70227 120.576 5.70227C120.703 5.70227 120.788 5.74452 120.788 5.78677Z" fill="black"/>
<path d="M114.767 3.16745C114.556 3.50543 114.915 3.82228 115.253 3.61104C115.465 3.4843 115.465 3.39981 115.211 3.18858C115 2.99847 114.873 2.99847 114.767 3.16745Z" fill="black"/>
<path d="M135.046 3.63215C134.391 4.39259 134.518 4.70944 135.215 4.05462C135.912 3.3998 136.102 3.48429 135.595 4.20248C135.342 4.54046 135.151 4.98405 135.151 5.17416C135.151 5.38539 135.046 5.44876 134.898 5.36427C134.708 5.23753 134.708 5.3009 134.898 5.55437C135.067 5.74448 135.13 5.99796 135.046 6.1247C134.982 6.23032 135.109 6.33594 135.342 6.33594C135.891 6.33594 136.292 5.65999 135.933 5.27977C135.722 5.06854 135.785 5.04742 136.25 5.15303C136.693 5.25865 136.799 5.2164 136.715 4.98405C136.651 4.79394 136.778 4.62495 137.031 4.54046C137.517 4.39259 137.602 4.11799 137.243 3.90676C137.137 3.82226 136.862 3.90676 136.651 4.09687C136.165 4.54046 135.933 4.51933 136.165 4.05462C136.292 3.80114 136.25 3.58991 135.975 3.33643C135.616 2.99845 135.574 3.01958 135.046 3.63215ZM135.785 5.5755C135.785 5.63887 135.701 5.74448 135.574 5.80785C135.468 5.87122 135.363 5.82898 135.363 5.72336C135.363 5.59662 135.468 5.49101 135.574 5.49101C135.701 5.49101 135.785 5.53325 135.785 5.5755Z" fill="black"/>
<path d="M137.538 3.46318C137.644 3.78003 138.045 3.8434 138.045 3.52655C138.045 3.35756 137.919 3.23082 137.75 3.23082C137.602 3.23082 137.496 3.33644 137.538 3.46318Z" fill="black"/>
<path d="M132.342 3.88565C132.279 4.05463 132.279 4.24474 132.342 4.30811C132.532 4.49822 133.06 3.99126 132.912 3.78003C132.743 3.50543 132.469 3.54767 132.342 3.88565Z" fill="black"/>
<path d="M109.212 4.0546C108.832 4.43482 108.916 4.64606 109.339 4.49819C109.592 4.4137 109.55 4.51932 109.17 4.87841C108.874 5.17414 108.536 5.36425 108.409 5.322C108.008 5.19526 107.818 5.74447 108.156 5.99795C108.388 6.16693 108.452 6.44154 108.388 6.82176C108.24 7.53995 108.832 7.83568 109.339 7.30759C109.613 7.03299 109.634 6.88513 109.444 6.56828C109.127 6.06132 109.318 5.87121 109.825 6.14581C110.099 6.27255 110.353 6.27255 110.585 6.14581C110.796 6.04019 111.092 6.01907 111.303 6.12469C111.578 6.27255 111.641 6.2303 111.62 5.89233C111.62 5.65997 111.451 5.38537 111.282 5.27976C111.071 5.13189 111.05 5.06852 111.24 5.06852C111.367 5.06852 111.493 4.96291 111.493 4.85729C111.493 4.73055 111.303 4.64606 111.071 4.64606C110.838 4.64606 110.669 4.51932 110.712 4.37145C110.733 4.24471 110.564 4.11797 110.332 4.11797C110.099 4.09685 109.803 4.03348 109.677 3.97011C109.55 3.88562 109.339 3.92786 109.212 4.0546ZM110.543 5.27976C110.479 5.38537 110.332 5.49099 110.205 5.49099C110.099 5.49099 110.015 5.38537 110.015 5.27976C110.015 5.15302 110.163 5.06852 110.353 5.06852C110.522 5.06852 110.606 5.15302 110.543 5.27976Z" fill="black"/>
<path d="M127.336 4.32927C127.336 4.49825 127.378 4.64612 127.42 4.64612C127.463 4.64612 127.547 4.49825 127.632 4.32927C127.695 4.16028 127.653 4.01242 127.547 4.01242C127.42 4.01242 127.336 4.16028 127.336 4.32927Z" fill="black"/>
<path d="M127.779 4.47703C127.632 4.83613 127.674 5.02624 127.927 5.21635C128.35 5.55432 128.603 5.55432 128.603 5.23747C128.603 5.11073 128.667 5.06849 128.751 5.13186C128.899 5.27972 129.448 4.8995 129.448 4.64602C129.448 4.49816 128.498 4.01232 128.16 4.01232C128.054 4.01232 127.864 4.22355 127.779 4.47703Z" fill="black"/>
<path d="M111.726 4.5616C111.726 4.79396 111.789 4.85733 111.852 4.68834C111.916 4.54048 111.895 4.35037 111.831 4.287C111.768 4.2025 111.705 4.32924 111.726 4.5616Z" fill="black"/>
<path d="M126.068 4.49822C126.068 4.64608 125.899 4.85731 125.667 5.00518C125.223 5.27978 124.886 6.33595 125.202 6.52606C125.329 6.61055 125.308 6.96964 125.16 7.5611C124.97 8.32154 124.97 8.51165 125.223 8.65951C125.752 8.99748 125.857 8.91299 126.111 7.94132C126.237 7.41323 126.428 7.03301 126.533 7.09638C126.85 7.28649 127.146 6.06134 126.998 5.13192C126.892 4.43485 126.765 4.22361 126.47 4.22361C126.237 4.22361 126.068 4.35035 126.068 4.49822Z" fill="black"/>
<path d="M133.039 4.54045C132.828 4.79393 132.828 4.8573 133.102 4.8573C133.271 4.8573 133.462 4.70944 133.546 4.54045C133.609 4.37146 133.588 4.2236 133.483 4.2236C133.377 4.2236 133.187 4.37146 133.039 4.54045Z" fill="black"/>
<path d="M130.082 5.06856C129.955 5.2798 129.469 5.59665 128.962 5.72339C128.35 5.9135 128.202 6.01911 128.476 6.08248C128.793 6.14585 128.814 6.20922 128.582 6.35708C128.054 6.67393 129.068 6.56832 129.659 6.23034C129.955 6.06136 130.42 5.9135 130.716 5.89237C131.075 5.87125 131.138 5.829 130.863 5.76563C130.673 5.72339 130.547 5.57552 130.61 5.46991C130.694 5.36429 130.652 5.2798 130.525 5.2798C130.399 5.2798 130.356 5.13193 130.42 4.96295C130.61 4.49823 130.335 4.58273 130.082 5.06856Z" fill="black"/>
<path d="M137.221 5.93455C137.327 6.58937 137.306 6.61049 136.651 6.50488C136.25 6.44151 136.06 6.48375 136.186 6.61049C136.546 6.96959 137.369 6.67386 137.433 6.14578C137.475 5.87118 137.433 5.57545 137.327 5.46984C137.2 5.3431 137.158 5.53321 137.221 5.93455Z" fill="black"/>
<path d="M107.269 6.23028C107.121 6.39926 106.677 6.54713 106.297 6.54713C105.896 6.54713 105.579 6.63162 105.579 6.75836C105.579 6.86398 105.642 6.96959 105.748 6.96959C105.959 6.96959 105.917 8.49047 105.684 8.84957C105.558 9.0608 105.6 9.10305 105.811 8.99743C105.98 8.91294 105.938 8.97631 105.748 9.14529C105.177 9.58888 105.283 9.82124 105.875 9.4199C106.466 9.03968 106.677 9.31428 106.403 10.0747C106.17 10.7084 106.234 10.6873 106.952 9.92686L107.564 9.29316L106.888 9.0608C106.149 8.80732 106.022 8.44822 106.529 8.02576C106.741 7.83565 106.846 7.83565 106.846 8.00464C106.846 8.13137 106.973 8.23699 107.142 8.23699C107.29 8.23699 107.48 8.4271 107.543 8.68058C107.712 9.29316 108.621 9.14529 108.705 8.49047C108.768 8.13137 108.663 7.96239 108.346 7.8779C108.092 7.81453 107.902 7.62442 107.902 7.45543C107.902 7.28644 107.818 7.22307 107.691 7.28644C107.586 7.34981 107.48 7.30757 107.48 7.20195C107.48 7.07521 107.564 6.96959 107.67 6.96959C107.987 6.96959 108.092 6.37814 107.818 6.14578C107.607 5.9768 107.459 5.99792 107.269 6.23028Z" fill="black"/>
<path d="M133.736 6.33592C133.778 6.50491 134.032 6.67389 134.328 6.69502C134.729 6.71614 134.75 6.71614 134.412 6.61052C134.18 6.54715 133.905 6.39929 133.821 6.25143C133.694 6.10356 133.673 6.12469 133.736 6.33592Z" fill="black"/>
<path d="M127.441 6.54719C127.505 6.65281 127.716 6.75842 127.885 6.75842C128.054 6.75842 128.138 6.65281 128.075 6.54719C128.012 6.42045 127.8 6.33596 127.631 6.33596C127.463 6.33596 127.378 6.42045 127.441 6.54719Z" fill="black"/>
<path d="M104.523 6.96964C104.396 7.202 104.1 7.39211 103.868 7.39211C103.635 7.39211 103.488 7.4766 103.551 7.56109C103.614 7.66671 104.058 7.70896 104.565 7.66671L105.473 7.60334L104.628 8.3849C104.079 8.89186 103.889 9.18759 104.058 9.25096C104.227 9.29321 104.671 9.0186 105.072 8.63838C105.706 8.02581 105.748 7.92019 105.473 7.60334C105.304 7.41323 105.156 7.13863 105.156 7.01189C105.156 6.5683 104.755 6.54718 104.523 6.96964Z" fill="black"/>
<path d="M129.385 7.18091C129.11 7.8991 128.983 7.94135 128.603 7.49776C128.286 7.11754 127.251 7.07529 126.956 7.43439C126.491 8.04696 126.47 8.63842 126.892 9.06088C127.23 9.39885 127.272 9.50447 127.019 9.50447C126.639 9.50447 126.618 9.73683 126.977 10.2227C127.146 10.455 127.378 10.5395 127.61 10.4339C128.012 10.286 128.075 10.0114 127.737 9.82132C127.61 9.73683 127.758 9.54672 128.096 9.37773C128.561 9.12425 128.709 9.12425 128.836 9.33548C128.983 9.54672 129.11 9.54672 129.427 9.35661C129.765 9.14537 129.849 9.1665 129.934 9.46222C129.997 9.65233 130.103 9.99031 130.187 10.1804C130.293 10.455 130.23 10.5606 129.997 10.5606C129.807 10.5606 129.659 10.4761 129.659 10.3917C129.659 10.286 129.512 10.2015 129.343 10.2015C129.152 10.2015 129.047 10.3494 129.068 10.5395C129.131 10.7507 129.321 10.8564 129.617 10.8352C129.871 10.793 130.082 10.8775 130.082 10.9831C130.082 11.1098 130.23 11.1943 130.42 11.1943C130.673 11.1943 130.737 11.0676 130.652 10.7507C130.568 10.4128 130.61 10.3494 130.863 10.4339C131.054 10.5184 131.413 10.4128 131.687 10.2438C132.342 9.82132 132.384 8.78628 131.772 8.40606C131.37 8.15258 131.159 7.37102 131.518 7.41326C131.941 7.47663 132.194 7.37102 132.194 7.09641C132.194 6.65282 131.814 6.46271 131.476 6.73732C131.328 6.86406 131.159 6.92743 131.117 6.88518C131.075 6.84293 130.716 6.75844 130.335 6.69507C129.68 6.56833 129.596 6.61058 129.385 7.18091ZM128.603 7.83573C129.089 8.70179 127.864 9.73683 127.167 9.03976C126.892 8.76516 126.829 7.77236 127.061 7.54C127.378 7.20203 128.392 7.41326 128.603 7.83573ZM130.694 7.79348C130.885 7.92022 130.906 8.02584 130.737 8.11033C130.462 8.27932 130.082 8.08921 130.082 7.79348C130.082 7.56113 130.314 7.56113 130.694 7.79348ZM129.723 8.34269C129.575 8.78628 129.448 8.74403 129.448 8.21595C129.448 7.98359 129.533 7.83573 129.659 7.92022C129.765 7.98359 129.807 8.1737 129.723 8.34269ZM131.582 8.44831C132.363 8.87077 131.962 10.1382 131.032 10.1382C130.145 10.1382 129.786 9.20874 130.42 8.57505C130.8 8.1737 131.011 8.15258 131.582 8.44831Z" fill="black"/>
<path d="M127.463 8.13139C127.547 8.30038 127.695 8.44824 127.801 8.44824C127.927 8.44824 127.906 8.3215 127.758 8.13139C127.61 7.96241 127.463 7.81454 127.42 7.81454C127.378 7.81454 127.399 7.96241 127.463 8.13139Z" fill="black"/>
<path d="M122.33 7.01193C122.224 7.1598 122.055 7.45552 121.97 7.68788C121.865 8.00473 121.696 8.04697 120.999 7.94136C120.534 7.87799 120.133 7.89911 120.048 8.02585C119.985 8.13147 119.71 8.23708 119.457 8.25821C119.203 8.27933 119.415 8.36382 119.943 8.46944C120.471 8.55393 121.147 8.68067 121.485 8.74404C121.949 8.84966 122.055 8.78629 122.055 8.44832C122.055 8.15259 122.203 8.02585 122.52 8.02585C122.942 8.02585 122.942 8.04697 122.625 8.40607C121.844 9.27213 122.456 10.6874 123.491 10.4973C124.505 10.3072 124.653 10.8141 123.935 12.1449C123.28 13.3278 123.238 13.8136 123.829 13.3278C123.977 13.2011 124.231 12.7997 124.379 12.4406C124.548 12.0393 124.717 11.8703 124.843 11.997C124.97 12.1238 124.97 12.3561 124.822 12.6307C124.484 13.2644 124.928 13.4334 125.329 12.8208C125.498 12.5462 125.625 12.0815 125.604 11.8069C125.561 11.4478 125.625 11.3211 125.857 11.3633C126.153 11.4267 126.702 10.8775 126.702 10.4973C126.702 10.3917 126.554 10.3705 126.364 10.4339C126.09 10.5395 126.047 10.455 126.153 10.0326C126.237 9.73684 126.237 9.39887 126.174 9.29325C126.026 9.03977 125.435 9.27213 125.435 9.58898C125.435 9.71572 125.16 9.94807 124.801 10.0748C124.21 10.3072 124.188 10.286 124.4 9.8847C124.738 9.251 124.442 8.44832 123.787 8.21596C123.344 8.0681 123.196 7.87799 123.217 7.45552C123.217 6.82182 122.689 6.54722 122.33 7.01193ZM123.618 9.10314C123.449 9.44111 123.365 9.82133 123.428 9.92695C123.491 10.0537 123.428 10.1382 123.259 10.1382C123.048 10.1382 122.984 9.99032 123.048 9.71572C123.132 9.41999 123.069 9.29325 122.879 9.3355C122.731 9.37774 122.562 9.22988 122.52 8.99752C122.477 8.78629 122.52 8.65955 122.646 8.74404C122.752 8.80741 122.963 8.72292 123.111 8.55393C123.238 8.40607 123.491 8.32158 123.639 8.38495C123.893 8.46944 123.893 8.57506 123.618 9.10314ZM124.315 9.29325C124.336 9.52561 124.252 9.71572 124.146 9.71572C124.019 9.71572 123.998 9.80021 124.062 9.92695C124.125 10.0326 124.104 10.1382 123.998 10.1382C123.872 10.1382 123.745 9.99032 123.66 9.82133C123.597 9.65235 123.639 9.50448 123.745 9.50448C123.872 9.50448 123.935 9.44111 123.935 9.3355C123.893 9.03977 123.956 8.87078 124.125 8.87078C124.21 8.87078 124.294 9.06089 124.315 9.29325Z" fill="black"/>
<path d="M135.215 6.90626C135.067 6.94851 134.94 7.24423 134.94 7.51884C134.94 7.81456 134.856 8.00467 134.729 7.92018C134.623 7.85681 134.581 7.6667 134.666 7.49771C134.729 7.32873 134.687 7.18086 134.56 7.18086C134.264 7.18086 134.095 7.9413 134.095 9.22983C134.095 10.455 134.454 10.7718 134.56 9.65229C134.644 8.99747 134.644 8.97635 134.856 9.48331C134.982 9.80015 135.13 9.90577 135.215 9.77903C135.405 9.48331 135.173 8.87073 134.898 8.87073C134.792 8.87073 134.792 8.72287 134.919 8.51163C135.025 8.3004 135.278 8.13141 135.489 8.13141C136.039 8.13141 136.355 7.49771 136.017 7.09637C135.722 6.73727 135.637 6.71615 135.215 6.90626Z" fill="black"/>
<path d="M118.189 7.20194C118.337 7.3498 118.506 7.41317 118.57 7.3498C118.633 7.28643 118.527 7.15969 118.316 7.09632C118.02 6.96958 117.999 6.9907 118.189 7.20194Z" fill="black"/>
<path d="M137.158 7.39212C137.095 7.49774 136.926 7.53998 136.778 7.49774C136.63 7.43437 136.313 7.70897 136.06 8.08919C135.553 8.82851 135.447 9.1876 135.785 8.97637C136.102 8.78626 136.039 9.25097 135.658 9.8213C135.236 10.4761 135.616 10.5184 136.06 9.86355C136.398 9.39884 136.398 9.39884 136.398 10.0748C136.419 10.455 136.524 10.7719 136.63 10.7719C136.757 10.7719 136.841 10.2438 136.841 9.58895C136.841 8.74401 136.968 8.23705 137.285 7.79346C137.517 7.45549 137.623 7.18089 137.496 7.18089C137.39 7.18089 137.243 7.26538 137.158 7.39212Z" fill="black"/>
<path d="M117.408 8.68064C117.915 9.10311 117.915 9.10311 117.471 8.97637C117.07 8.87075 116.985 8.93412 116.985 9.29322C116.985 9.71569 117.007 9.71569 117.513 9.37771C117.999 9.06086 118.084 9.06086 118.57 9.37771C119.203 9.80018 119.562 9.8213 119.013 9.39884C118.76 9.20873 118.654 8.93412 118.739 8.65952C118.844 8.2793 118.76 8.23705 117.873 8.23705H116.88L117.408 8.68064Z" fill="black"/>
<path d="M120.217 9.1664C120.344 9.99021 119.795 11.5533 119.33 11.6801C119.077 11.7434 118.886 12.0603 118.802 12.5461C118.718 12.9686 118.633 13.3066 118.612 13.3066C118.591 13.3066 118.147 13.1798 117.619 13.0108C116.922 12.7996 116.69 12.6306 116.732 12.356C116.774 12.1659 116.69 11.8702 116.542 11.7012C116.394 11.5322 116.352 11.0886 116.415 10.6662C116.542 9.88459 116.352 9.73673 115.887 10.2014C115.739 10.3704 115.486 10.4549 115.317 10.3916C115.169 10.3493 115.232 10.4972 115.486 10.7506C115.739 11.0041 115.929 11.4688 115.929 11.8491C115.929 12.2715 116.014 12.4405 116.183 12.3349C116.415 12.187 116.331 13.4544 116.035 14.1726C115.929 14.4472 116.077 14.5951 116.669 14.7852C117.091 14.9331 117.556 15.0598 117.682 15.0809C117.999 15.1443 119.541 15.5879 120.745 15.9681C122.055 16.3906 122.161 16.3483 122.435 15.3133C122.752 14.0881 122.752 13.9403 122.372 13.9403C121.949 13.9403 121.97 13.8135 122.562 12.7785C122.9 12.2293 123.027 11.8068 122.9 11.6167C122.815 11.4688 122.773 11.2154 122.837 11.0464C122.9 10.8985 122.837 10.7718 122.689 10.7718C122.287 10.7718 121.611 11.659 121.654 12.1448C121.738 13.3488 121.633 13.7713 121.273 13.6445C121.083 13.56 120.851 13.6234 120.745 13.7713C120.619 13.9614 120.576 13.9191 120.661 13.6234C121.02 12.2082 121.02 12.0814 120.724 11.9969C120.471 11.9336 120.471 11.7646 120.788 10.814C120.999 10.2014 121.337 9.54662 121.548 9.37763C121.907 9.08191 121.907 9.06078 121.59 9.1664C121.379 9.22977 121.21 9.18752 121.21 9.06078C121.21 8.93404 121.062 8.8918 120.851 8.95517C120.661 9.03966 120.428 8.97629 120.323 8.82843C120.196 8.63832 120.154 8.76506 120.217 9.1664ZM120.027 12.7151C119.858 13.2854 119.774 13.4122 119.626 13.2854C119.478 13.1165 119.774 12.2504 119.985 12.2504C120.091 12.2504 120.112 12.4616 120.027 12.7151ZM117.492 13.8769C117.302 14.6373 117.239 14.7007 116.964 14.4261C116.669 14.1304 116.922 13.3066 117.323 13.3066C117.556 13.3066 117.598 13.4544 117.492 13.8769ZM118.401 13.9825C118.337 14.1515 118.274 14.0881 118.274 13.8558C118.253 13.6234 118.316 13.4967 118.38 13.5812C118.443 13.6445 118.464 13.8347 118.401 13.9825ZM121.844 14.7852C121.844 14.8908 121.759 14.9964 121.654 14.9964C121.548 14.9964 121.506 15.2077 121.569 15.44C121.654 15.7569 121.611 15.8625 121.442 15.8202C121.295 15.7569 121.189 15.6513 121.189 15.5668C121.21 15.4823 121.21 15.2288 121.21 14.9964C121.21 14.7641 121.358 14.574 121.527 14.574C121.696 14.574 121.844 14.6585 121.844 14.7852ZM120.302 15.2499C120.238 15.4189 120.175 15.3555 120.175 15.1232C120.154 14.8908 120.217 14.7641 120.281 14.8486C120.344 14.9119 120.365 15.1021 120.302 15.2499Z" fill="black"/>
<path d="M119.055 9.01862C119.203 9.08199 119.393 9.06087 119.457 8.9975C119.541 8.93413 119.415 8.87076 119.182 8.89188C118.95 8.89188 118.886 8.95525 119.055 9.01862Z" fill="black"/>
<path d="M108.43 9.48329C108.283 9.73677 108.684 9.99025 108.959 9.82126C109.191 9.6734 109.043 9.29318 108.747 9.29318C108.642 9.29318 108.515 9.37767 108.43 9.48329Z" fill="black"/>
<path d="M117.767 10.3282C117.302 10.7929 117.133 12.6096 117.535 12.7574C117.682 12.8208 117.873 12.6729 117.957 12.3983C118.042 12.1448 118.253 11.828 118.422 11.7012C118.654 11.5323 118.696 11.2788 118.591 10.7085C118.422 9.8424 118.316 9.77903 117.767 10.3282Z" fill="black"/>
<path d="M108.536 10.5606C108.536 10.6662 108.663 10.7719 108.832 10.7719C109.001 10.7719 109.212 10.6662 109.275 10.5606C109.339 10.4339 109.212 10.3494 108.98 10.3494C108.726 10.3494 108.536 10.4339 108.536 10.5606Z" fill="black"/>
<path d="M96.8126 10.7718C95.7564 10.8775 96.4958 10.9197 99.284 10.9408C101.734 10.9619 103.276 10.8986 103.361 10.7718C103.509 10.5395 99.3263 10.5395 96.8126 10.7718Z" fill="black"/>
<path d="M133.736 10.8141C133.229 11.4901 133.229 11.6802 133.757 11.1944C134.264 10.7296 134.37 10.7085 134.792 10.962C135.215 11.2366 135.236 11.2366 134.961 10.9198C134.623 10.4973 134.011 10.455 133.736 10.8141Z" fill="black"/>
<path d="M127.653 10.9831C127.589 11.0887 127.653 11.1943 127.8 11.1943C127.948 11.1943 127.843 11.3422 127.589 11.5323C127.23 11.7858 127.04 11.8069 126.808 11.6168C126.596 11.4267 126.491 11.4689 126.385 11.8069C126.195 12.4195 126.406 12.673 127.125 12.673C127.463 12.673 127.8 12.7575 127.864 12.8842C127.927 12.9898 128.265 13.0954 128.603 13.0954C128.941 13.0954 129.279 13.2011 129.364 13.3489C129.469 13.5179 129.575 13.4757 129.659 13.1799C129.744 12.9687 129.723 12.6518 129.617 12.504C129.469 12.335 129.469 12.2505 129.638 12.2505C129.765 12.2505 129.871 12.1449 129.871 12.0393C129.871 11.9125 129.68 11.828 129.469 11.828C129.152 11.828 129.089 11.7224 129.174 11.3844C129.279 11.0042 129.237 10.962 128.836 11.0887C128.582 11.1732 128.392 11.131 128.392 11.0042C128.392 10.7085 127.822 10.7085 127.653 10.9831ZM128.878 12.1871C128.73 12.2294 128.476 12.2294 128.35 12.1871C128.202 12.1238 128.307 12.0815 128.603 12.0815C128.899 12.0815 129.005 12.1238 128.878 12.1871Z" fill="black"/>
<path d="M134.011 11.8702C133.821 12.3138 133.567 12.6729 133.462 12.6729C133.335 12.6729 133.25 12.7785 133.25 12.9052C133.25 13.032 133.419 13.0742 133.631 13.0108C133.926 12.9052 133.99 13.0108 133.99 13.5601C133.99 14.0459 134.095 14.2782 134.37 14.3205C134.645 14.3839 134.729 14.236 134.729 13.6657C134.729 13.032 134.792 12.9475 135.151 13.032C135.511 13.1376 135.574 13.0531 135.553 12.4405C135.532 11.9336 135.489 11.8702 135.426 12.187C135.299 12.8841 135.025 12.7785 134.666 11.8702L134.349 11.0886L134.011 11.8702Z" fill="black"/>
<path d="M130.525 12.166C130.103 12.6096 130.061 12.7575 130.251 13.201C130.441 13.6024 130.42 13.6869 130.209 13.6024C129.913 13.4968 129.448 14.4896 129.448 15.25C129.448 15.8415 129.828 15.5035 130.04 14.7219C130.251 13.9192 130.631 13.9404 130.547 14.743C130.504 15.2922 130.504 15.2922 130.821 14.912C131.201 14.4262 131.222 14.1093 130.927 13.8136C130.779 13.6658 130.842 13.4334 131.138 13.0954C131.603 12.5673 131.751 11.9759 131.307 12.4195C130.948 12.7786 130.61 12.7363 130.927 12.3561C131.391 11.8069 131.032 11.6168 130.525 12.166Z" fill="black"/>
<path d="M113.817 12.4406C113.521 13.032 113.563 13.6446 113.944 14.0248C114.598 14.6797 115.739 14.3206 116.035 13.37C116.331 12.335 114.324 11.49 113.817 12.4406ZM115 12.5462C115.317 12.8842 115.38 13.3278 115.148 13.6446C115.042 13.7502 115.148 13.6657 115.359 13.4545C115.76 12.9898 115.824 13.1377 115.507 13.7502C115.19 14.3417 114.366 14.2572 114.07 13.6235C113.711 12.8419 113.754 12.6729 114.303 12.6729C114.683 12.6729 114.704 12.6307 114.451 12.4617C114.218 12.3139 114.197 12.2505 114.408 12.2505C114.556 12.2505 114.831 12.3772 115 12.5462Z" fill="black"/>
<path d="M125.561 12.9897C125.498 13.1587 125.498 13.4544 125.583 13.6445C125.752 14.1093 126.787 13.9403 126.871 13.4333C127.019 12.7574 125.815 12.356 125.561 12.9897Z" fill="black"/>
<path d="M128.688 13.6446C128.814 13.9615 128.793 13.9826 128.582 13.7925C128.244 13.4545 127.463 13.8559 127.632 14.2783C127.695 14.4684 127.653 14.5318 127.547 14.4684C127.42 14.4051 127.336 14.4262 127.336 14.5318C127.336 14.7853 128.286 14.9754 128.561 14.8064C128.878 14.5952 129.047 13.5601 128.772 13.3911C128.603 13.2855 128.582 13.3489 128.688 13.6446Z" fill="black"/>
<path d="M112.592 13.8347C111.895 14.2149 111.536 14.574 111.895 14.574C112.064 14.574 112 14.7852 111.726 15.1865C111.134 15.9892 111.155 16.5384 111.747 15.8414L112.19 15.3133L112.085 15.9047C112 16.285 112.064 16.4539 112.211 16.4117C112.338 16.3694 112.465 16.0315 112.507 15.6724C112.592 14.9119 112.655 14.8697 113.099 15.2922C113.394 15.609 113.289 16.2427 112.887 16.5173C112.676 16.6652 113.606 17.1088 114.134 17.1088C114.556 17.1088 114.26 16.2638 113.732 16.0315L113.289 15.8202L113.732 15.9047C114.113 15.9892 114.176 15.8836 114.197 15.3344C114.218 14.743 114.197 14.7007 113.922 15.0809C113.753 15.2922 113.542 15.3978 113.437 15.3344C113.099 15.1232 112.93 14.1093 113.183 13.9403C113.627 13.6657 113.099 13.5812 112.592 13.8347Z" fill="black"/>
<path d="M131.497 13.8769C131.413 13.9403 131.349 14.1516 131.349 14.3205C131.349 14.574 131.413 14.574 131.666 14.3628C132.173 13.9403 132.025 14.405 131.455 15.0599C131.032 15.5457 130.863 15.6091 130.525 15.4401C129.976 15.1443 129.786 15.6302 130.209 16.2428C130.568 16.7286 131.138 16.8131 131.518 16.4329C131.708 16.2428 131.877 16.2639 132.3 16.4751C132.722 16.7075 132.933 16.7075 133.377 16.4962C133.778 16.3273 134.011 16.3061 134.18 16.4751C134.539 16.8342 134.729 16.7286 134.729 16.1583C134.729 15.8625 134.581 15.5668 134.412 15.5034C134.116 15.3767 134.137 15.3345 134.454 15.1021C134.813 14.8486 134.792 14.8064 134.264 14.6796C133.947 14.5951 133.588 14.5951 133.462 14.6796C133.271 14.8064 133.271 14.7219 133.44 14.3839C133.652 14.0248 133.631 13.9192 133.356 13.8136C133.187 13.7291 132.891 13.7925 132.743 13.9192C132.532 14.0882 132.405 14.1093 132.3 13.9403C132.152 13.708 131.708 13.6657 131.497 13.8769ZM133.356 15.4189C133.208 15.6724 132.469 15.6936 132.321 15.4612C132.279 15.3767 132.511 15.2711 132.849 15.25C133.25 15.2077 133.44 15.2922 133.356 15.4189Z" fill="black"/>
<path d="M123.576 14.2149C123.069 14.405 122.942 14.5318 123.132 14.7219C123.301 14.8908 123.301 15.0598 123.132 15.3767C122.815 15.9681 122.837 16.4751 123.196 16.4751C123.512 16.4751 123.745 16.0315 123.745 15.4401C123.745 15.2288 123.935 14.8064 124.188 14.4895C124.674 13.8769 124.59 13.8558 123.576 14.2149Z" fill="black"/>
<path d="M128.814 15.2077C128.814 15.3133 128.92 15.4189 129.047 15.4189C129.152 15.4189 129.195 15.3133 129.131 15.2077C129.068 15.081 128.962 14.9965 128.899 14.9965C128.857 14.9965 128.814 15.081 128.814 15.2077Z" fill="black"/>
<path d="M116.246 15.6514C116.162 15.8837 115.824 16.1794 115.486 16.3062C114.831 16.5385 114.662 16.8976 115.19 16.8976C115.422 16.8976 115.338 17.1934 114.831 18.165C114.176 19.4113 114.155 19.9394 114.746 19.4536C114.915 19.3268 115.105 18.9677 115.169 18.672C115.359 17.9749 115.845 18.1439 115.76 18.8621C115.718 19.1789 115.781 19.4324 115.908 19.4324C116.183 19.4324 116.436 18.6086 116.394 17.8482C116.352 17.2356 116.352 17.2356 116.669 17.6369C116.985 18.0383 117.007 18.0383 117.366 17.6581C117.556 17.4257 117.598 17.3201 117.45 17.4046C117.091 17.6158 116.711 16.5597 116.985 16.0738C117.112 15.8203 117.091 15.6091 116.943 15.4612C116.584 15.1022 116.394 15.1444 116.246 15.6514Z" fill="black"/>
<path d="M114.936 15.9893C114.936 16.1794 115.021 16.2005 115.232 16.0315C115.38 15.9048 115.507 15.7781 115.507 15.7358C115.507 15.7147 115.38 15.6936 115.232 15.6936C115.063 15.6936 114.936 15.8203 114.936 15.9893Z" fill="black"/>
<path d="M117.619 15.9259C117.619 16.3483 117.915 16.5173 118.38 16.3272C118.717 16.2005 118.717 16.1794 118.337 15.9048C117.851 15.5457 117.619 15.5457 117.619 15.9259Z" fill="black"/>
<path d="M96.6014 16.3694L90.8981 16.6229L99.2207 16.6018C105.684 16.5807 107.564 16.5173 107.649 16.3061C107.754 15.9892 104.966 16.0103 96.6014 16.3694Z" fill="black"/>
<path d="M119.499 16.5174C119.478 16.6653 119.478 16.8554 119.478 16.9187C119.499 17.0032 119.182 17.13 118.802 17.1933C118.401 17.2778 117.957 17.4891 117.809 17.6792C117.535 17.9749 117.577 18.0172 118.084 17.9115L118.675 17.8059L118.042 18.9043C117.682 19.5169 117.408 20.1295 117.408 20.2562C117.408 20.7209 117.83 20.4675 118.168 19.7915C118.612 18.9255 118.612 18.9466 118.865 19.1156C119.034 19.2001 119.034 19.369 118.865 19.6859C118.717 19.9605 118.696 20.1717 118.844 20.3196C119.14 20.6153 119.562 19.7704 119.478 19.0522C119.436 18.6509 119.52 18.4819 119.731 18.4819C120.238 18.4607 120.576 18.165 120.576 17.7214C120.576 17.4891 120.492 17.3623 120.365 17.4257C119.964 17.6792 119.689 17.299 120.069 17.0244C120.259 16.8765 120.365 16.6441 120.281 16.5174C120.069 16.1794 119.52 16.2005 119.499 16.5174Z" fill="black"/>
<path d="M110.712 16.623C110.564 16.6652 110.437 16.8554 110.437 17.0243C110.437 17.1933 110.564 17.2567 110.754 17.1933C111.324 16.961 111.092 17.2778 110.353 17.7003C109.698 18.0805 109.613 18.1016 109.296 17.7848C109.106 17.5947 108.959 17.5313 108.937 17.6369C108.937 17.7637 108.895 18.0383 108.853 18.2706C108.726 18.9254 109.149 19.2423 109.909 19.0944C110.332 19.0311 110.648 19.0733 110.754 19.2C110.817 19.3268 110.986 19.3901 111.092 19.3057C111.198 19.2423 111.261 19.3057 111.24 19.4746C111.198 19.6648 111.367 19.7281 111.831 19.6859C112.275 19.6436 112.528 19.7281 112.613 19.9605C112.697 20.1506 112.634 20.2773 112.465 20.2773C112.085 20.2773 111.895 20.7632 112.148 21.1434C112.317 21.3969 112.359 21.3969 112.549 21.1223C112.655 20.9533 112.761 20.6787 112.761 20.5308C112.761 20.4041 112.866 20.2773 112.993 20.2773C113.099 20.2773 113.162 20.1928 113.099 20.1083C113.056 20.0238 113.078 19.8126 113.183 19.6436C113.31 19.4324 113.247 19.2 113.035 18.9677C112.718 18.6086 112.718 18.5875 113.035 18.5875C113.563 18.5875 113.458 18.1861 112.909 18.0594C112.571 17.9749 112.423 17.7848 112.423 17.4679C112.444 17.13 112.338 17.0032 112.021 17.0455C111.789 17.0666 111.514 16.9398 111.43 16.7709C111.261 16.454 111.134 16.4329 110.712 16.623ZM112.043 18.6297C111.662 18.8409 111.219 18.672 111.388 18.3762C111.451 18.2917 111.705 18.2495 111.937 18.3129C112.338 18.4185 112.338 18.4607 112.043 18.6297ZM109.951 18.503C109.888 18.5663 109.698 18.5875 109.55 18.5241C109.381 18.4607 109.444 18.3974 109.677 18.3974C109.909 18.3762 110.036 18.4396 109.951 18.503Z" fill="black"/>
<path d="M121.083 17.0032C120.893 17.489 121.147 17.9537 121.611 17.9537C122.139 17.9537 122.33 17.658 122.161 17.1088C122.013 16.623 121.252 16.5385 121.083 17.0032Z" fill="black"/>
<path d="M113.817 18.165C113.817 18.6297 113.859 19.0099 113.901 19.0099C113.965 19.0099 114.134 18.7142 114.324 18.3762C114.598 17.7847 114.598 17.7214 114.218 17.5313C113.859 17.32 113.817 17.3834 113.817 18.165Z" fill="black"/>
<path d="M105.853 19.2845C104.987 20.1295 104.586 20.8477 105.262 20.2773C105.452 20.1295 105.642 20.0661 105.705 20.1295C105.79 20.1928 105.452 20.6576 104.966 21.1645C104.058 22.0939 104.142 22.6009 105.072 21.7348C105.705 21.1434 105.917 21.3335 105.642 22.284C105.389 23.0656 105.642 23.5092 105.959 22.8755C106.065 22.6643 106.234 22.1573 106.318 21.756C106.55 20.6787 107.036 19.8126 107.712 19.2634C108.452 18.672 108.536 18.1861 107.818 18.6508C107.374 18.9466 107.29 18.9466 107.184 18.6931C107.015 18.2284 106.825 18.3129 105.853 19.2845Z" fill="black"/>
<path d="M116.901 18.9254C116.668 19.7915 117.049 19.8971 117.429 19.0944C117.746 18.4184 117.746 18.3762 117.408 18.3762C117.175 18.3762 116.985 18.5874 116.901 18.9254Z" fill="black"/>
<path d="M107.945 19.6859C107.649 19.9816 107.607 20.4886 107.881 20.4886C107.987 20.4886 108.114 20.3618 108.177 20.214C108.219 20.0872 108.346 20.0238 108.43 20.1083C108.515 20.1717 108.177 20.8899 107.712 21.6926C106.762 23.298 106.572 23.9739 107.269 23.3402C107.501 23.129 107.733 22.791 107.797 22.5798C107.881 22.3474 108.05 22.1784 108.219 22.1784C108.642 22.1784 108.747 22.7276 108.43 23.1712C108.05 23.6571 108.029 23.8683 108.409 23.8683C108.79 23.8683 109.233 22.7488 109.064 22.1995C109.001 21.9672 109.043 21.5658 109.17 21.3335C109.36 20.9744 109.465 20.9321 109.719 21.1434C109.951 21.3335 110.015 21.3124 110.015 21.0589C110.015 20.8688 109.846 20.6153 109.656 20.5097C109.444 20.3829 109.402 20.2773 109.55 20.2773C109.888 20.2773 109.888 19.4324 109.529 19.4324C109.381 19.4324 109.149 19.538 109.022 19.6647C108.853 19.8337 108.747 19.8337 108.663 19.6647C108.473 19.369 108.261 19.369 107.945 19.6859Z" fill="black"/>
<path d="M114.915 19.9816C114.007 20.6153 114.577 22.1995 115.718 22.1784C115.887 22.1573 115.739 22.0305 115.38 21.8827C114.789 21.6292 114.725 21.4813 114.767 20.8687C114.81 20.3195 114.915 20.1717 115.274 20.1717C115.507 20.1717 115.718 20.066 115.739 19.9604C115.76 19.6225 115.422 19.6225 114.915 19.9816Z" fill="black"/>
<path d="M116.373 20.3618C116.521 20.6787 116.69 20.8476 116.732 20.6998C116.795 20.5519 116.669 20.2984 116.457 20.1083C116.14 19.7704 116.119 19.7915 116.373 20.3618Z" fill="black"/>
<path d="M127.441 20.5308C127.378 20.6787 127.103 21.5025 126.829 22.3263L126.301 23.8683H133.757H141.193L141.742 22.0728L142.27 20.2773H134.898C129.195 20.2773 127.505 20.3407 127.441 20.5308Z" fill="#FF2457"/>
<path d="M148.332 20.4674C146.875 20.6998 145.502 21.3546 144.467 22.3052C142.608 23.9739 142.143 23.8683 151.226 23.8683H159.274L159.126 23.0656C158.915 21.925 158.472 21.3546 157.373 20.8477C156.507 20.4674 155.916 20.4041 152.895 20.3618C150.973 20.3196 148.924 20.3829 148.332 20.4674Z" fill="#FF2457"/>
<path d="M162.295 20.5308C162.232 20.6787 161.957 21.5025 161.682 22.3263L161.154 23.8683H163.245H165.316L165.865 22.2207C166.16 21.3335 166.414 20.5308 166.414 20.4252C166.414 20.1506 162.401 20.2562 162.295 20.5308Z" fill="#FF2457"/>
<path d="M178.982 20.4886C178.856 20.6787 177.82 23.6571 177.82 23.8049C177.82 23.8472 178.75 23.8683 179.891 23.8683H181.961L182.447 22.3263C182.721 21.5025 182.996 20.6787 183.038 20.5308C183.165 20.214 179.194 20.1506 178.982 20.4886Z" fill="#FF2457"/>
<path d="M189.037 20.5097C187.009 20.8688 185.383 21.8193 184.348 23.2557L183.925 23.8683H191.952H200V23.2557C200 22.4108 199.176 21.2912 198.205 20.8265C197.486 20.4674 196.832 20.4041 193.769 20.3618C191.804 20.3196 189.671 20.3829 189.037 20.5097Z" fill="#FF2457"/>
<path d="M110.585 20.7632C110.374 20.8899 110.163 21.3969 110.12 21.8616L110.015 22.7065L110.247 21.9672C110.353 21.5659 110.648 21.0589 110.902 20.8477C111.388 20.4463 111.134 20.3407 110.585 20.7632Z" fill="black"/>
<path d="M113.394 20.6786C113.394 20.7842 113.331 21.0166 113.268 21.2067C113.183 21.4391 113.268 21.5024 113.585 21.4813C113.88 21.4602 114.007 21.3546 113.923 21.1644C113.859 21.0166 113.817 20.7842 113.817 20.6786C113.817 20.573 113.732 20.4885 113.606 20.4885C113.5 20.4885 113.394 20.573 113.394 20.6786Z" fill="black"/>
<path d="M111.493 21.4813C111.493 22.0939 111.367 22.5163 111.071 22.8121C110.838 23.0444 110.648 23.3824 110.648 23.5514C110.648 23.7204 110.543 23.8682 110.416 23.8682C110.268 23.8682 110.226 23.657 110.331 23.2768C110.458 22.7487 110.437 22.7276 110.163 23.1289C109.782 23.6359 109.93 24.0795 110.458 24.0795C110.817 24.0795 110.965 23.8471 110.817 23.5725C110.775 23.5091 110.965 23.2557 111.219 22.9811C111.789 22.3685 112.021 21.4813 111.726 20.9743C111.557 20.6575 111.514 20.7631 111.493 21.4813Z" fill="black"/>
<path d="M7.7356 21.3546C6.57382 21.7771 4.82058 23.0867 4.37699 23.8894C4.18688 24.2908 4.37699 24.2908 12.2771 24.2908H20.3673L20.9165 22.6009L21.4658 20.911L15.2133 20.9322C9.53108 20.9533 8.83401 20.9744 7.7356 21.3546Z" fill="#FF2457"/>
<path d="M22.7332 22.6009L22.184 24.2908H30.3164H38.47L38.3433 23.5303C38.1532 22.4319 37.6462 21.7771 36.6534 21.3124C35.8507 20.9533 35.1959 20.911 29.5349 20.911H23.2824L22.7332 22.6009Z" fill="#FF2457"/>
<path d="M44.638 21.2068C44.1733 21.3546 43.5607 21.587 43.2861 21.756C42.6313 22.0939 40.7302 23.8683 40.7302 24.1007C40.7302 24.2063 44.3001 24.2908 48.6726 24.2908H56.6361L56.5093 23.4247C56.3826 22.3897 55.9179 21.8193 54.7772 21.3124C54.0379 20.9744 53.3831 20.911 49.7076 20.9322C46.9194 20.9322 45.1872 21.0378 44.638 21.2068Z" fill="#FF2457"/>
<path d="M59.3187 22.3263C59.0441 23.1079 58.7907 23.8894 58.7273 24.0162C58.6639 24.2274 60.3538 24.2908 66.7964 24.2908C75.8583 24.2908 75.2457 24.3964 74.612 22.8121C74.4008 22.2841 73.9994 21.7982 73.4925 21.5025C72.7532 21.0378 72.5631 21.0167 66.2472 20.9533L59.7835 20.8899L59.3187 22.3263Z" fill="#FF2457"/>
<path d="M77.527 22.4742C77.2736 23.3402 77.0623 24.1007 77.0623 24.164C77.0623 24.2274 80.3787 24.2908 84.4132 24.2908H91.7641L92.3133 22.6009L92.8626 20.911H85.4271H77.9706L77.527 22.4742Z" fill="#FF2457"/>
<path d="M115.507 21.1223C115.507 21.2279 115.591 21.3335 115.697 21.3335C115.824 21.3335 115.971 21.2279 116.035 21.1223C116.098 20.9955 116.014 20.911 115.845 20.911C115.655 20.911 115.507 20.9955 115.507 21.1223Z" fill="black"/>
<path d="M116.373 21.6081C116.098 22.0517 116.119 22.0517 116.478 21.7137C116.69 21.5025 116.816 21.2912 116.753 21.249C116.69 21.1856 116.521 21.3546 116.373 21.6081Z" fill="black"/>
<path d="M112.486 21.6715C112.423 21.7349 112.465 22.0728 112.592 22.4108C112.74 22.8544 112.74 23.3191 112.571 24.0162C112.423 24.5443 112.38 25.0301 112.444 25.0935C112.507 25.1569 112.549 25.0301 112.549 24.7978C112.571 24.3964 112.571 24.3964 112.866 24.7978C113.099 25.0935 113.12 25.2836 112.951 25.4948C112.824 25.6427 112.761 25.9595 112.824 26.213C112.887 26.4665 112.803 26.8045 112.592 27.0157C112.064 27.5649 111.705 28.2409 111.852 28.3887C111.937 28.4521 112.169 28.5155 112.38 28.5155C112.613 28.5155 112.761 28.6633 112.761 28.9168C112.761 29.4871 113.31 29.8462 113.901 29.6984C114.514 29.5505 114.767 28.9168 114.472 28.3253C114.155 27.7761 114.176 27.4382 114.514 27.5227C114.641 27.5438 114.767 27.417 114.767 27.2481C114.767 27.0791 114.62 26.9312 114.451 26.9312C114.282 26.9312 113.922 26.8467 113.648 26.7411C113.204 26.5932 113.183 26.4876 113.31 25.6004C113.458 24.502 114.028 23.2558 114.535 22.8333C115 22.4531 114.979 22.094 114.514 22.3686C114.26 22.4953 114.091 22.4742 113.901 22.2207C113.69 21.925 113.606 21.925 113.31 22.1573C113.014 22.3897 112.972 22.3897 112.972 22.1151C112.972 21.756 112.676 21.4814 112.486 21.6715ZM112.803 27.924C112.655 28.0719 112.549 28.093 112.549 27.9663C112.549 27.6705 112.803 27.417 112.951 27.5649C112.993 27.6283 112.93 27.7973 112.803 27.924ZM113.711 27.6705C113.775 27.7761 113.69 27.8818 113.521 27.8818C113.331 27.8818 113.183 27.7761 113.183 27.6705C113.183 27.5438 113.268 27.4593 113.373 27.4593C113.5 27.4593 113.648 27.5438 113.711 27.6705ZM114.345 28.5155C114.514 29.0858 114.091 29.6139 113.521 29.5294C113.078 29.466 112.845 28.9379 113.056 28.3887C113.225 27.924 114.197 28.0085 114.345 28.5155Z" fill="black"/>
<path d="M104.29 22.8543C104.269 23.0022 104.269 23.1923 104.29 23.2979C104.311 23.3824 104.079 23.5514 103.804 23.657C103.53 23.7626 103.213 24.1217 103.086 24.4808C102.917 24.9244 102.748 25.0934 102.537 25.0089C102.326 24.9244 102.178 25.0512 102.072 25.4314C102.009 25.7271 101.798 25.9806 101.65 25.9806C101.481 25.9806 101.185 26.3186 100.995 26.741C100.678 27.3959 100.678 27.5015 100.932 27.6916C101.333 27.9451 102.199 27.0156 102.199 26.3186C102.199 25.7271 102.917 24.9878 103.15 25.3469C103.382 25.706 104.311 24.7343 104.311 24.1429C104.311 23.8471 104.459 23.488 104.628 23.2979C104.797 23.1289 104.903 22.8966 104.84 22.791C104.649 22.5164 104.311 22.5586 104.29 22.8543Z" fill="black"/>
<path d="M115.591 22.8967C115.676 23.1501 115.612 23.3825 115.464 23.4881C115.274 23.5937 115.296 23.6571 115.591 23.6571C115.824 23.6571 116.183 23.805 116.394 24.0162C116.647 24.2274 116.774 24.2697 116.774 24.1007C116.774 23.9528 116.859 23.9106 116.985 23.9739C117.112 24.0373 117.133 23.9528 117.07 23.7838C117.006 23.5937 116.816 23.4459 116.647 23.4459C116.5 23.4459 116.162 23.2346 115.908 22.96C115.507 22.5587 115.464 22.5376 115.591 22.8967Z" fill="black"/>
<path d="M111.493 23.5303C111.493 23.7627 111.43 24.1851 111.367 24.4386C111.155 25.2202 111.62 24.9878 112.064 24.1006L112.486 23.2768L111.979 23.1712C111.599 23.1078 111.493 23.1712 111.493 23.5303Z" fill="black"/>
<path d="M105.684 24.2484C105.621 24.4385 105.684 24.692 105.853 24.8188C106.001 24.9244 106.191 25.199 106.276 25.3891C106.424 25.7693 107.48 25.9383 107.48 25.5792C107.48 25.4736 107.649 25.4102 107.839 25.4313C108.071 25.4313 108.24 25.2835 108.283 25.0089C108.346 24.523 107.797 24.2273 106.487 23.995C106.001 23.9105 105.79 23.9738 105.684 24.2484ZM106.424 24.5019C106.424 24.6075 106.339 24.7132 106.212 24.7132C106.107 24.7132 106.001 24.6075 106.001 24.5019C106.001 24.3752 106.107 24.2907 106.212 24.2907C106.339 24.2907 106.424 24.3752 106.424 24.5019ZM108.114 24.9455C108.114 25.0511 108.029 25.1356 107.902 25.1356C107.797 25.1356 107.691 24.9878 107.691 24.7976C107.691 24.6287 107.797 24.5442 107.902 24.6075C108.029 24.6709 108.114 24.8188 108.114 24.9455Z" fill="black"/>
<path d="M115.634 24.6498C115.359 24.9244 115.211 24.9667 115.148 24.7554C115.021 24.3963 114.239 24.4386 114.239 24.7977C114.239 24.9667 114.324 25.1779 114.451 25.2413C114.577 25.3258 114.535 25.6004 114.345 26.0017C114.049 26.5509 114.239 26.91 114.556 26.4031C114.789 26.0228 115.021 26.1707 115.296 26.8466C115.507 27.3536 115.507 27.586 115.296 27.9873C114.915 28.7055 115.232 28.9378 115.76 28.3041C115.993 28.0084 116.14 27.586 116.077 27.3114C115.95 26.6354 116.225 26.6988 116.964 27.5015C117.323 27.8817 117.661 28.114 117.746 28.0295C117.999 27.7972 117.366 26.8044 116.838 26.5932C116.584 26.5087 116.204 26.1707 116.014 25.875C115.697 25.368 115.697 25.3046 116.014 24.9455C116.626 24.2696 116.309 24.0161 115.634 24.6498Z" fill="black"/>
<path d="M109.064 24.7132C108.853 25.0512 109.402 25.6215 109.677 25.3469C109.994 25.0301 110.226 25.0935 110.099 25.4526C110.015 25.6638 110.099 25.7694 110.395 25.7694C111.071 25.7694 111.198 25.3258 110.648 24.8822C110.141 24.4598 109.275 24.3753 109.064 24.7132Z" fill="black"/>
<path d="M117.45 24.9878C117.323 25.1357 117.26 25.4525 117.302 25.6638C117.344 25.8961 117.387 26.1496 117.387 26.213C117.429 26.551 118.147 26.5932 118.591 26.2975C118.992 26.044 119.055 25.8961 118.908 25.4948C118.802 25.2413 118.612 25.0512 118.485 25.0723C118.358 25.1146 118.253 25.0301 118.253 24.9245C118.253 24.6287 117.704 24.671 117.45 24.9878Z" fill="black"/>
<path d="M93.5385 25.5793C87.117 25.8539 87.0748 25.9173 93.3061 25.8962C97.742 25.875 99.1151 25.8117 99.1995 25.6004C99.2418 25.4314 99.0306 25.347 98.4602 25.3892C98.0166 25.3892 95.7987 25.4948 93.5385 25.5793Z" fill="black"/>
<path d="M104.523 25.6427C104.523 25.8328 104.333 25.8961 103.952 25.8116C103.403 25.7272 103.382 25.7483 103.762 26.0229C104.311 26.4453 104.016 26.8256 103.15 26.8256C102.748 26.8256 102.368 26.9101 102.305 27.0368C102.22 27.1635 102.516 27.248 103.044 27.248C103.762 27.248 103.931 27.3325 104.1 27.7761C104.227 28.1352 104.459 28.3042 104.776 28.3042C105.241 28.2831 105.241 28.2831 104.861 27.9873C104.544 27.755 104.523 27.586 104.671 27.1002C104.797 26.7411 105.008 26.5298 105.22 26.5721C105.389 26.5932 105.6 26.5298 105.684 26.4031C105.748 26.2975 105.621 26.1919 105.41 26.1919C105.093 26.1919 105.008 26.0863 105.093 25.7694C105.177 25.4737 105.093 25.3469 104.861 25.3469C104.671 25.3469 104.523 25.4737 104.523 25.6427Z" fill="black"/>
<path d="M112.021 25.5582C111.958 25.6638 112 25.7694 112.106 25.7694C112.233 25.7694 112.338 25.6638 112.338 25.5582C112.338 25.4314 112.296 25.3469 112.254 25.3469C112.19 25.3469 112.085 25.4314 112.021 25.5582Z" fill="black"/>
<path d="M108.98 25.7482C108.388 26.1285 109.508 27.0368 110.353 26.8678C110.479 26.8467 110.543 27.079 110.479 27.4381C110.437 27.7761 110.479 28.0929 110.606 28.1774C110.712 28.2408 110.754 28.0718 110.691 27.7761C110.648 27.4804 110.712 27.1213 110.838 26.9734C111.007 26.7622 110.986 26.5721 110.754 26.2763C110.501 25.9172 110.416 25.9172 109.994 26.1496C109.592 26.4031 109.55 26.4031 109.656 26.1285C109.803 25.7694 109.36 25.5159 108.98 25.7482Z" fill="black"/>
<path d="M106.276 26.6143C106.212 26.8466 106.065 27.0367 105.959 27.0367C105.853 27.0367 105.832 27.1212 105.896 27.248C105.959 27.3536 106.234 27.4592 106.487 27.4381C106.741 27.4381 106.825 27.3747 106.698 27.3113C106.529 27.248 106.466 27.0156 106.55 26.6988C106.614 26.4242 106.614 26.1918 106.529 26.1918C106.445 26.1918 106.339 26.3819 106.276 26.6143Z" fill="black"/>
<path d="M107.184 26.5932C107.015 26.8467 107.248 27.4592 107.501 27.4592C107.607 27.4592 107.691 27.3747 107.691 27.2691C107.691 27.1635 107.754 26.9311 107.818 26.741C107.966 26.3819 107.395 26.2552 107.184 26.5932Z" fill="black"/>
<path d="M119.584 26.7199C119.393 27.248 119.668 27.3325 119.943 26.8466C120.09 26.5298 120.09 26.4031 119.943 26.4031C119.816 26.4031 119.668 26.5509 119.584 26.7199Z" fill="black"/>
<path d="M123.977 31.029C123.153 33.585 122.477 35.7184 122.477 35.7818C122.477 35.8663 123.407 35.8874 124.526 35.8663L126.575 35.8029L127.526 32.8879L128.455 29.994H133.8H139.123L139.672 28.3464C139.968 27.4592 140.221 26.6565 140.221 26.5509C140.221 26.4664 136.905 26.403 132.849 26.403H125.456L123.977 31.029Z" fill="rgb(7, 141, 238)"/>
<path d="M141.277 29.0646C139.904 33.1625 140.179 34.7468 142.439 35.5917C143.178 35.8874 144.087 35.9297 147.741 35.8663C152.768 35.8029 153.296 35.6551 155.113 33.9863C156.338 32.8457 156.782 32.0219 157.774 28.8745L158.556 26.4031H156.465H154.395L153.655 28.79C153.085 30.6066 152.747 31.3248 152.261 31.7895C151.606 32.4232 151.606 32.4232 148.649 32.4866C144.446 32.5922 144.298 32.4021 145.586 28.5576L146.326 26.4031H144.234H142.164L141.277 29.0646Z" fill="rgb(7, 141, 238)"/>
<path d="M158.936 30.8812C158.155 33.3315 157.458 35.465 157.394 35.634C157.31 35.8663 158.641 35.9086 164.682 35.9086H172.075L172.561 34.4722C172.814 33.6906 173.068 32.9302 173.131 32.7823C173.195 32.5922 172.075 32.5288 167.914 32.5288C164.999 32.5288 162.612 32.4443 162.612 32.3599C162.612 32.2754 163.034 30.9235 163.562 29.3603C164.09 27.7972 164.513 26.5087 164.513 26.4664C164.513 26.4242 163.583 26.4031 162.443 26.4031H160.373L158.936 30.8812Z" fill="rgb(7, 141, 238)"/>
<path d="M175.497 31.008C174.694 33.5216 174.018 35.6762 174.018 35.7607C174.018 35.8452 174.948 35.8874 176.067 35.8663L178.116 35.803L179.637 31.0925L181.137 26.4031H179.067H176.997L175.497 31.008Z" fill="rgb(7, 141, 238)"/>
<path d="M182.045 29.2547C180.778 33.2048 180.989 34.5989 182.953 35.5072C183.735 35.8452 184.369 35.9086 187.981 35.9086C192.565 35.9086 193.515 35.7396 195.205 34.62C196.641 33.6695 197.423 32.4021 198.458 29.2758C198.965 27.755 199.366 26.4876 199.366 26.4664C199.366 26.4242 198.437 26.4031 197.296 26.4031H195.226L194.614 28.3464C193.388 32.2965 193.093 32.5288 189.185 32.5288C186.333 32.5288 185.636 32.2965 185.636 31.3882C185.636 31.1347 185.974 29.9307 186.375 28.7266C186.777 27.5226 187.115 26.5087 187.115 26.4664C187.115 26.4242 186.185 26.4031 185.045 26.4031H182.975L182.045 29.2547Z" fill="rgb(7, 141, 238)"/>
<path d="M108.452 26.9522C108.261 27.4803 108.304 27.6704 108.621 27.6704C109.022 27.6704 109.212 27.3747 109.043 26.9522C108.874 26.5298 108.621 26.5298 108.452 26.9522Z" fill="black"/>
<path d="M111.493 26.6987C111.493 26.741 111.641 26.8466 111.831 26.91C112 26.9733 112.085 26.9522 112.021 26.8255C111.895 26.6143 111.493 26.5298 111.493 26.6987Z" fill="black"/>
<path d="M3.21522 27.3959C3.25746 27.6071 3.3842 28.0085 3.44757 28.3042C3.91229 29.9307 5.3698 30.4165 9.89018 30.4165C12.8686 30.4165 13.2488 30.4588 13.5656 30.8179C13.8614 31.1558 13.8825 31.3037 13.6501 31.7684C13.1643 32.888 12.7207 32.9513 6.65832 32.9513H1.10289L0.617051 34.4722C0.342448 35.3171 0.0678446 36.1409 0.00447468 36.2888C-0.0800186 36.5212 0.99727 36.5634 6.21473 36.5C12.2349 36.4155 12.594 36.3944 13.7769 35.9297C16.2905 34.9369 18.1283 32.5077 18.1283 30.1842C18.1283 29.1703 18.0227 28.8534 17.5579 28.2831C16.544 27.079 16.2272 27.0368 9.3621 27.0368C3.51094 27.0368 3.1096 27.0579 3.21522 27.3959Z" fill="rgb(7, 141, 238)"/>
<path d="M21.1912 27.2902C21.1489 27.4381 20.4941 29.4659 19.7337 31.7895C18.9732 34.1131 18.3395 36.1409 18.3395 36.2888C18.3395 36.4789 18.8887 36.5422 20.3251 36.5422H22.3318L23.3458 33.4794L24.3386 30.4165H28.1619C30.9079 30.4165 32.3443 30.332 33.2315 30.0996C34.6467 29.7405 36.3788 28.6421 37.097 27.6704L37.5829 27.0367H29.4293C23.0923 27.0367 21.2757 27.1001 21.1912 27.2902Z" fill="rgb(7, 141, 238)"/>
<path d="M38.6179 29.8884C37.3927 33.754 37.5617 34.9158 39.5262 35.9508C40.3711 36.4155 40.6457 36.4366 44.7436 36.4366C48.7359 36.4155 49.1584 36.3944 50.2568 35.9508C51.5876 35.4227 53.1507 34.1553 53.8055 33.078C54.1224 32.5711 55.939 27.4804 55.939 27.1001C55.939 27.0579 55.0096 27.0368 53.8689 27.0368H51.7777L51.0806 29.297C50.5525 31.0502 50.2357 31.7261 49.7076 32.2542L49.0105 32.9513H45.9688C43.265 32.9513 42.8637 32.9091 42.5679 32.5711C42.3567 32.3598 42.2088 32.0641 42.2088 31.9374C42.2088 31.7261 43.3072 28.1352 43.6241 27.3114C43.7086 27.1001 43.2227 27.0368 41.6385 27.0368H39.5473L38.6179 29.8884Z" fill="rgb(7, 141, 238)"/>
<path d="M57.65 27.5437C57.2064 28.6632 54.8828 36.0564 54.8828 36.2888C54.8828 36.4577 55.4743 36.5422 56.8684 36.5422H58.8751L59.8468 33.4794C60.7973 30.4798 60.8185 30.4165 61.4099 30.4165C61.9591 30.4165 62.2337 30.7333 64.0926 33.4794L66.1838 36.5422H68.6763C70.0282 36.5422 71.1478 36.4789 71.1478 36.3732C71.1478 36.2888 70.3028 34.9369 69.2467 33.3737L67.3456 30.5221L68.8453 30.2475C69.6903 30.0996 70.7464 29.7828 71.2323 29.5293C72.0983 29.1068 73.8938 27.5226 73.8938 27.2057C73.8938 27.1212 70.2817 27.0367 65.8669 27.0367H57.8401L57.65 27.5437Z" fill="rgb(7, 141, 238)"/>
<path d="M79.9562 31.4726C79.1747 33.9018 78.4776 36.0353 78.4142 36.2254C78.3086 36.5 78.5832 36.5422 80.3787 36.5422H82.4699L83.9063 32.0641C84.6878 29.6138 85.3849 27.4803 85.4483 27.3113C85.5328 27.1001 85.1103 27.0367 83.4627 27.0367H81.3715L79.9562 31.4726Z" fill="rgb(7, 141, 238)"/>
<path d="M120.027 27.3536C119.689 27.607 119.689 27.6493 119.964 27.6704C120.154 27.6704 120.428 27.5225 120.576 27.3536C120.914 26.9522 120.576 26.9522 120.027 27.3536Z" fill="black"/>
<path d="M118.358 28.0506C118.02 28.452 117.746 28.8745 117.767 28.9801C117.809 29.0646 117.661 29.0646 117.471 29.0012C117.281 28.9167 117.028 29.0223 116.859 29.2547C116.69 29.4659 116.563 29.5504 116.563 29.4237C116.563 29.2969 116.415 29.1491 116.246 29.0646C116.035 28.9801 115.929 29.0857 115.929 29.3603C115.929 29.5926 115.993 29.7616 116.098 29.7616C116.542 29.6771 116.563 29.825 116.119 30.2052C115.845 30.4165 115.718 30.6066 115.845 30.6277C115.971 30.6277 116.246 30.4376 116.457 30.2052C116.669 29.9729 116.901 29.8461 116.985 29.8884C117.07 29.9517 117.429 29.6983 117.809 29.3603C118.168 29.0012 118.675 28.7266 118.929 28.7266C119.203 28.7266 119.541 28.6421 119.71 28.5365C119.964 28.3675 119.964 28.2619 119.647 27.7972C119.457 27.5014 119.224 27.248 119.14 27.2691C119.055 27.2691 118.718 27.6282 118.358 28.0506Z" fill="black"/>
<path d="M99.791 27.6493C99.7065 27.755 99.7276 28.0084 99.8121 28.2408C99.9389 28.5788 99.9177 28.5788 99.6009 28.3253C99.3897 28.1563 99.1995 28.0718 99.1573 28.1141C99.1151 28.1563 99.3263 28.3887 99.622 28.5999C99.9177 28.8323 100.087 28.9167 100.023 28.79C99.9389 28.6633 100.023 28.5154 100.192 28.4309C100.594 28.283 100.615 27.4592 100.213 27.4592C100.044 27.4592 99.8544 27.5437 99.791 27.6493Z" fill="black"/>
<path d="M102.284 27.6916C102.22 27.8184 102.262 28.0296 102.389 28.1563C102.558 28.3253 102.622 28.262 102.622 27.924C102.622 27.417 102.516 27.3325 102.284 27.6916Z" fill="black"/>
<path d="M103.044 28.0085C103.044 28.1774 103.15 28.2619 103.255 28.1986C103.382 28.1352 103.466 27.9873 103.466 27.8606C103.466 27.755 103.382 27.6705 103.255 27.6705C103.15 27.6705 103.044 27.8183 103.044 28.0085Z" fill="black"/>
<path d="M97.8477 28.2197C97.4463 28.5366 97.4463 28.5366 97.8688 28.3465C98.1012 28.2408 98.4391 28.093 98.6081 28.0296C98.8827 27.924 98.8827 27.9029 98.587 27.9029C98.418 27.8817 98.08 28.0296 97.8477 28.2197Z" fill="black"/>
<path d="M116.563 28.3042C116.563 28.7056 116.985 28.8745 117.26 28.5788C117.429 28.431 117.028 27.8818 116.753 27.8818C116.647 27.8818 116.563 28.0719 116.563 28.3042Z" fill="black"/>
<path d="M120.365 28.093C120.112 28.262 120.133 28.3042 120.513 28.3042C120.766 28.3042 121.041 28.1986 121.104 28.093C121.273 27.8184 120.788 27.8184 120.365 28.093Z" fill="black"/>
<path d="M101.143 28.3676C101.861 28.6844 101.84 28.6633 101.65 28.959C101.544 29.1491 101.418 29.1069 101.227 28.8323C100.826 28.2831 100.615 28.5999 100.911 29.3181C101.122 29.8251 101.101 30.1419 100.742 31.2192C100.192 32.8246 100.171 33.3315 100.615 32.9513C100.868 32.7401 100.932 32.7612 100.932 33.0569C100.932 33.8807 101.439 33.1414 101.777 31.7895C102.03 30.7967 102.305 30.2053 102.664 29.9096C103.635 29.0858 103.572 28.7689 102.368 28.4098C101.101 28.0296 100.361 28.0085 101.143 28.3676ZM102.791 28.9168C103.023 29.0646 103.023 29.1069 102.791 29.1914C102.643 29.2547 102.389 29.1703 102.241 29.0224C102.03 28.79 102.03 28.7267 102.241 28.7267C102.389 28.7267 102.643 28.8112 102.791 28.9168Z" fill="black"/>
<path d="M105.41 28.3465C104.882 28.8745 105.283 29.7828 106.044 29.7828C106.614 29.7828 106.888 28.9168 106.445 28.5577C106.255 28.3887 106.234 28.3465 106.403 28.4309C106.593 28.5366 106.656 28.4943 106.55 28.3465C106.36 28.0296 105.727 28.0296 105.41 28.3465Z" fill="black"/>
<path d="M103.804 28.8323C103.593 29.4026 103.657 29.5505 104.1 29.5083C104.417 29.4871 104.523 29.3604 104.48 29.0647C104.396 28.5366 103.973 28.3887 103.804 28.8323Z" fill="black"/>
<path d="M120.661 28.959C120.597 29.0646 120.661 29.2969 120.788 29.4659C120.914 29.6349 120.978 29.8462 120.935 29.9518C120.872 30.0363 120.999 30.5432 121.231 31.0502C121.633 31.9374 121.633 32.0007 121.295 32.2542C120.83 32.5922 121.104 32.909 121.59 32.5922C121.78 32.4654 121.949 32.1275 121.949 31.8106C121.928 31.4938 122.055 31.2614 122.203 31.2614C122.351 31.2614 122.477 31.4093 122.477 31.5783C122.477 31.7472 122.625 31.8951 122.794 31.8951C123.217 31.8951 122.963 31.3037 122.287 30.6277L121.738 30.0996L122.33 30.0363C123.09 29.9518 122.858 29.5715 122.034 29.5715C121.654 29.5715 121.421 29.4659 121.421 29.2758C121.421 28.9167 120.851 28.6632 120.661 28.959Z" fill="black"/>
<path d="M98.3969 29.2547C98.3969 29.4237 98.5447 29.5715 98.7137 29.5715C98.8827 29.5715 99.0305 29.4237 99.0305 29.2547C99.0305 29.0857 98.8827 28.9378 98.7137 28.9378C98.5447 28.9378 98.3969 29.0857 98.3969 29.2547Z" fill="black"/>
<path d="M119.309 29.128C119.309 29.3181 119.774 29.7828 119.985 29.7828C120.365 29.7828 120.133 29.0224 119.731 29.0013C119.499 28.9802 119.309 29.0435 119.309 29.128Z" fill="black"/>
<path d="M114.873 29.4449C114.873 29.804 115.169 30.0574 115.359 29.8673C115.528 29.6983 115.296 29.1491 115.063 29.1491C114.958 29.1491 114.873 29.2759 114.873 29.4449Z" fill="black"/>
<path d="M100.108 29.6983C100.108 29.9307 100.171 29.994 100.235 29.8251C100.298 29.6772 100.277 29.4871 100.213 29.4237C100.15 29.3392 100.087 29.466 100.108 29.6983Z" fill="black"/>
<path d="M118.358 29.7617C118.189 30.0785 118.422 30.4165 118.802 30.4165C118.992 30.4165 119.098 30.2686 119.055 30.0574C118.971 29.6349 118.548 29.466 118.358 29.7617Z" fill="black"/>
<path d="M96.6225 30.2475C96.3902 31.1559 96.4535 31.3248 97.0239 31.177C97.6364 31.0291 97.6576 31.1136 97.2351 32.3176C96.9182 33.2048 96.9816 33.7118 97.3618 33.4794C97.4674 33.3949 97.5519 33.4583 97.5519 33.5639C97.5519 33.6906 97.6364 33.7963 97.7632 33.7963C97.8688 33.7963 98.1434 33.2259 98.3335 32.5077L98.6926 31.2192L99.0517 31.7262C99.4953 32.3176 99.7699 32.1064 99.96 31.0502L100.066 30.3109L99.8333 30.9869C99.4742 32.0853 99.2207 31.874 98.9883 30.3109C98.8827 29.6772 98.1011 29.6561 97.6787 30.2898C97.214 31.0291 96.6436 31.0291 96.8337 30.3109C96.8971 30.0152 96.9182 29.7828 96.8549 29.7828C96.8126 29.7828 96.707 29.9941 96.6225 30.2475Z" fill="black"/>
<path d="M104.459 30.1208C104.164 30.4165 104.311 30.8601 104.692 30.7967C104.882 30.7545 105.051 30.5855 105.051 30.4376C105.051 30.0997 104.67 29.9096 104.459 30.1208Z" fill="black"/>
<path d="M102.495 30.5222C102.41 30.7123 102.453 30.9658 102.579 31.0925C102.896 31.4093 103.509 31.1136 103.424 30.6912C103.34 30.2053 102.664 30.0786 102.495 30.5222Z" fill="black"/>
<path d="M105.853 30.6911C105.325 30.9235 105.03 31.4727 105.431 31.4727C105.684 31.4727 106.529 30.6488 106.381 30.5221C106.339 30.501 106.107 30.5644 105.853 30.6911Z" fill="black"/>
<path d="M119.246 30.7968C118.865 31.2192 118.76 32.0008 119.098 31.7895C119.224 31.7262 119.309 31.4938 119.309 31.2615C119.309 31.0502 119.436 30.839 119.605 30.7756C119.816 30.6911 119.943 30.8812 120.048 31.3882C120.133 31.8529 120.259 32.0642 120.407 31.9797C120.534 31.8952 120.576 31.9163 120.513 32.043C120.45 32.1486 120.069 32.212 119.689 32.1909C119.034 32.1486 119.013 32.1698 119.393 32.4444C119.9 32.8035 120.196 32.8246 120.619 32.4655C121.062 32.1064 121.189 31.6628 120.978 31.0714C120.851 30.7545 120.682 30.6278 120.45 30.7123C120.281 30.7756 120.196 30.7545 120.259 30.6278C120.492 30.2475 119.605 30.4165 119.246 30.7968ZM120.724 31.177C120.661 31.2403 120.471 31.2615 120.323 31.1981C120.154 31.1347 120.217 31.0714 120.45 31.0714C120.682 31.0502 120.809 31.1136 120.724 31.177ZM120.935 31.5994C120.872 31.6628 120.682 31.6839 120.534 31.6206C120.365 31.5572 120.428 31.4938 120.661 31.4938C120.893 31.4727 121.02 31.5361 120.935 31.5994Z" fill="black"/>
<path d="M103.488 31.3037C103.297 31.8318 103.192 31.9163 103.065 31.705C102.96 31.5361 102.727 31.4727 102.537 31.5361C102.347 31.6205 102.199 31.5572 102.199 31.4304C102.199 31.3037 102.136 31.2403 102.072 31.3248C101.798 31.5994 102.241 32.3176 102.685 32.3176C103.107 32.3176 103.086 32.3599 102.516 32.7401C101.946 33.1203 101.924 33.1625 102.347 33.1625C102.6 33.1625 103.002 32.9302 103.213 32.6345C103.678 32.043 104.016 32.2331 103.783 32.9513C103.699 33.1837 103.741 33.3738 103.847 33.3738C104.164 33.3738 104.333 32.7612 104.185 32.1909C104.079 31.8107 104.142 31.6839 104.396 31.6839C104.839 31.6839 104.818 31.4093 104.354 30.9868C103.826 30.501 103.762 30.5221 103.488 31.3037Z" fill="black"/>
<path d="M116.436 30.9657C116.056 31.2615 116.056 31.2826 116.521 31.0502C116.774 30.9235 116.985 30.7756 116.985 30.7334C116.985 30.5644 116.88 30.6067 116.436 30.9657Z" fill="black"/>
<path d="M114.725 31.5994C114.345 32.0219 114.07 32.4444 114.134 32.5289C114.176 32.6134 114.704 32.5289 115.274 32.3599L116.331 32.0219L115.971 31.4305C115.781 31.1136 115.57 30.839 115.507 30.839C115.443 30.839 115.084 31.177 114.725 31.5994Z" fill="black"/>
<path d="M118.042 31.1769C118.042 31.536 118.506 31.4726 118.633 31.0924C118.675 30.9446 118.57 30.8389 118.379 30.8389C118.189 30.8389 118.042 30.9868 118.042 31.1769Z" fill="black"/>
<path d="M116.669 31.6839C116.605 31.7895 116.732 31.8951 116.964 31.8951C117.218 31.8951 117.408 31.7895 117.408 31.6839C117.408 31.5572 117.281 31.4727 117.112 31.4727C116.943 31.4727 116.732 31.5572 116.669 31.6839Z" fill="black"/>
<path d="M95.8621 32.0008C95.8621 32.1909 95.9677 32.2754 96.0944 32.1909C96.2212 32.1275 96.3901 32.1487 96.4746 32.2754C96.5591 32.4233 96.7281 32.4444 96.9182 32.3177C97.2773 32.0853 97.1928 32.0008 96.4535 31.8107C95.9888 31.7051 95.8621 31.7473 95.8621 32.0008Z" fill="black"/>
<path d="M117.851 32.1697C117.619 32.7611 116.795 33.3315 115.929 33.5216C114.979 33.7117 114.852 34.0919 115.781 33.9441C116.732 33.7962 116.795 33.9441 115.929 34.2398C115.591 34.3665 115.296 34.5778 115.296 34.6834C115.296 35.0002 116.246 34.7045 117.154 34.1342C117.577 33.8596 118.295 33.5638 118.739 33.5005C119.436 33.3737 119.668 32.9513 119.034 32.9513C118.696 32.9513 118.211 32.1486 118.358 31.8951C118.443 31.7684 118.38 31.6839 118.253 31.6839C118.126 31.6839 117.957 31.8951 117.851 32.1697Z" fill="black"/>
<path d="M112.972 32.212C112.972 32.4021 112.782 32.5289 112.465 32.5289C111.874 32.5289 111.514 32.9302 111.916 33.1626C112.254 33.3738 112.211 33.4372 111.472 34.2399C110.944 34.8102 110.796 34.8736 110.627 34.6201C110.374 34.2187 110.479 33.9441 110.944 33.8808C111.451 33.8174 111.578 33.6695 111.409 33.2471C111.324 33.0358 111.155 32.9514 110.944 33.0358C110.754 33.0992 110.289 32.9725 109.909 32.7401L109.212 32.3177L108.663 32.9725C108.325 33.3738 108.114 33.5006 108.114 33.2893C108.114 32.9091 107.311 32.3177 106.846 32.3388C106.677 32.3388 106.783 32.4444 107.121 32.5711C107.754 32.8035 108.092 33.6273 107.712 34.092C107.585 34.2399 107.522 34.4089 107.585 34.4511C107.628 34.5145 107.353 34.5145 106.952 34.4722C106.36 34.4089 106.17 34.261 106.065 33.8385C106.001 33.5428 106.065 33.1203 106.212 32.8669C106.466 32.4655 106.445 32.4444 106.17 32.6979C105.98 32.8457 105.79 33.1415 105.727 33.3738C105.6 33.8385 106.107 34.6412 106.55 34.6412C106.719 34.6412 106.846 34.7468 106.846 34.8736C106.846 34.9792 106.931 35.0214 107.057 34.9581C107.163 34.8947 107.205 34.9581 107.142 35.1482C106.994 35.5073 107.607 35.8875 108.198 35.7819C108.43 35.7608 108.747 35.9086 108.916 36.141C109.339 36.7535 110.416 36.6057 110.838 35.8875C112.085 33.8808 112.465 33.6273 112.211 34.9581C112.127 35.465 112.148 35.5284 112.423 35.296C112.613 35.1482 112.718 34.8102 112.676 34.5567C112.592 34.0075 112.909 33.5639 113.289 33.7118C113.437 33.7752 113.669 33.6273 113.817 33.3949C114.007 33.0358 113.986 32.9514 113.711 32.9514C113.352 32.9514 113.289 32.6134 113.606 32.4233C113.88 32.2543 113.669 31.8952 113.268 31.8952C113.099 31.8952 112.972 32.043 112.972 32.212ZM108.747 34.1131C108.599 34.3032 108.43 34.3877 108.367 34.3244C108.304 34.2821 108.388 34.092 108.536 33.9019C108.684 33.7118 108.853 33.6273 108.916 33.6907C108.98 33.7329 108.895 33.923 108.747 34.1131ZM110.226 34.1131C110.226 34.1765 110.036 34.2187 109.803 34.2187C109.571 34.2187 109.381 34.0709 109.381 33.9019C109.381 33.6273 109.465 33.6062 109.803 33.7963C110.036 33.923 110.226 34.0709 110.226 34.1131ZM110.395 34.6835C110.543 34.8313 110.648 35.1271 110.648 35.3805C110.648 36.31 109.381 36.7113 108.958 35.9297C108.663 35.3594 108.684 35.1482 109.085 34.768C109.465 34.3666 110.036 34.3244 110.395 34.6835ZM108.346 35.3383C108.135 35.5284 108.114 35.5073 108.24 35.2115C108.304 35.0003 108.43 34.8947 108.494 34.9581C108.557 35.0214 108.494 35.1904 108.346 35.3383Z" fill="black"/>
<path d="M116.014 32.55C115.845 32.8457 116.246 33.247 116.542 33.0781C116.668 32.9936 116.774 32.7823 116.774 32.6133C116.774 32.2754 116.225 32.212 116.014 32.55Z" fill="black"/>
<path d="M115 32.6767C114.746 32.9302 114.873 33.3738 115.19 33.3738C115.359 33.3738 115.507 33.247 115.507 33.0781C115.507 32.719 115.211 32.4866 115 32.6767Z" fill="black"/>
<path d="M94.1511 33.0991C93.8765 33.416 93.8976 33.4371 94.3412 33.3315C95.0594 33.1414 94.8904 33.4582 94.0455 33.8807C93.4963 34.1342 93.2005 34.1764 93.0527 34.0286C92.9259 33.9018 92.7358 33.7962 92.6091 33.7962C92.5035 33.7962 92.4823 33.8596 92.5457 33.9441C92.6302 34.0075 92.588 34.1976 92.4612 34.3454C92.1232 34.7679 92.9259 35.465 93.623 35.3382C94.3623 35.1904 94.8693 35.6128 94.5736 36.1409C94.4257 36.4155 94.2145 36.5211 93.8976 36.4366C93.3695 36.3099 92.6302 36.7112 93.0527 36.8802C93.3484 37.007 93.1794 37.5984 92.8203 37.5984C92.4401 37.5984 91.1093 38.9292 91.4051 39.0348C91.5529 39.077 92.0176 38.8024 92.419 38.4222L93.1794 37.704L93.0738 38.2744C93.0104 38.5912 93.0738 38.8869 93.2005 38.9503C93.3273 38.9926 93.2217 39.0559 92.9682 39.0559C92.4401 39.077 92.2711 39.4995 92.7781 39.4995C93.116 39.4995 93.3906 39.1615 93.454 38.6968C93.5385 38.1899 94.0032 37.7674 94.2356 37.9998C94.5102 38.2744 95.2284 37.8941 95.2284 37.4717C95.2284 37.3027 95.1439 37.2182 95.0171 37.2816C94.9115 37.3449 94.8059 37.3238 94.8059 37.1971C94.8059 37.0915 94.9115 36.9225 95.0171 36.8591C95.1439 36.7957 95.2284 36.5422 95.2284 36.3099C95.2284 35.7396 95.7987 35.5706 96.2634 35.993C96.7493 36.4366 96.8549 36.4155 96.9816 35.9297C97.045 35.6762 96.8971 35.3171 96.6436 35.0636L96.2212 34.5989L96.707 34.7468C97.045 34.8524 97.1506 34.8313 97.0872 34.62C97.0239 34.451 96.7915 34.3032 96.538 34.2609C96.1578 34.1976 96.0944 34.0919 96.2 33.6484C96.3268 33.1414 96.3057 33.1203 95.7987 33.2048C95.4607 33.2681 95.2073 33.2048 95.1439 33.0358C94.996 32.6344 94.4891 32.6767 94.1511 33.0991ZM95.8621 34.6623C95.8621 34.958 95.1016 34.8946 94.827 34.5778C94.658 34.3454 94.7214 34.3032 95.2284 34.3877C95.5875 34.4299 95.8621 34.5567 95.8621 34.6623Z" fill="black"/>
<path d="M98.7348 33.1414C98.249 33.6906 98.6081 34.4299 99.3685 34.4299C100.108 34.4299 100.404 33.6061 99.8121 33.0992C99.284 32.6345 99.1784 32.6556 98.7348 33.1414Z" fill="black"/>
<path d="M86.1454 33.5849L83.5049 33.7117L86.42 33.7539C88.2366 33.7751 89.3139 33.7117 89.3139 33.5849C89.3139 33.4582 89.1871 33.3948 89.0604 33.416C88.9125 33.4371 87.6029 33.5216 86.1454 33.5849Z" fill="black"/>
<path d="M113.69 33.9019C113.542 34.261 113.944 34.8524 114.324 34.8524C114.81 34.8524 115.084 34.3877 114.852 33.9652C114.598 33.5005 113.859 33.4583 113.69 33.9019Z" fill="black"/>
<path d="M97.6576 34.2398C97.4463 34.5566 97.7209 34.7679 97.9955 34.4933C98.1434 34.3454 98.1434 34.2187 98.0167 34.1342C97.8899 34.0708 97.7209 34.1131 97.6576 34.2398Z" fill="black"/>
<path d="M106.318 35.0848C106.107 35.4016 106.381 35.6128 106.656 35.3382C106.804 35.1904 106.804 35.0636 106.677 34.9791C106.55 34.9158 106.381 34.958 106.318 35.0848Z" fill="black"/>
<path d="M91.5951 35.655C91.2572 35.8452 91.0037 36.0986 91.0037 36.2254C91.0037 36.331 90.708 36.8168 90.37 37.2604C89.6729 38.1898 89.4828 38.908 90.0743 38.4222C90.2433 38.2743 90.5812 37.8096 90.7925 37.4083C91.1516 36.7323 91.1938 36.7112 91.1727 37.1759C91.1516 37.4717 91.0459 37.8307 90.9403 37.9786C90.6446 38.3588 90.9403 38.5489 91.3205 38.2321C91.5318 38.042 91.6163 37.7674 91.5529 37.4717C91.4473 37.0703 91.5529 36.9013 92.0599 36.6478C92.7569 36.2887 92.8837 36.0564 92.3556 36.162C92.1444 36.2043 91.9542 36.0986 91.8909 35.9297C91.8486 35.7607 91.8909 35.6973 92.0176 35.7818C92.1232 35.8452 92.2711 35.7607 92.3556 35.5917C92.5034 35.1903 92.3133 35.1903 91.5951 35.655Z" fill="black"/>
<path d="M106.741 35.6974C106.593 35.9508 106.783 36.3311 107.079 36.3311C107.332 36.3311 107.332 35.7607 107.079 35.5917C106.973 35.5284 106.825 35.5706 106.741 35.6974Z" fill="black"/>
<path d="M108.388 36.9436C108.261 37.4294 107.691 37.5139 107.079 37.1337C106.529 36.7957 105.959 37.0703 106.044 37.6406C106.086 38.0209 106.234 38.1265 106.741 38.1054C107.395 38.0842 107.417 38.1054 107.543 39.5417C107.564 39.7319 107.649 39.8375 107.733 39.7952C107.818 39.7319 107.902 39.7741 107.902 39.9008C107.902 40.0065 107.733 40.2177 107.543 40.3233C107.332 40.45 107.269 40.5557 107.395 40.5557C107.776 40.5557 108.092 40.0487 108.029 39.6051C107.945 39.1193 108.283 38.6123 108.578 38.7813C108.853 38.9714 109.381 38.4433 109.381 37.9786C109.381 37.7674 109.297 37.6195 109.191 37.704C109.064 37.7674 109.001 37.5562 109.022 37.2604C109.064 36.5634 108.557 36.3099 108.388 36.9436Z" fill="black"/>
<path d="M80.7589 37.4929L75.0556 37.7463L81.0546 37.7252C85.6595 37.7041 87.0748 37.6407 87.1593 37.4295C87.2015 37.2816 87.0748 37.1971 86.8424 37.2183C86.6312 37.2394 83.9063 37.3661 80.7589 37.4929Z" fill="black"/>
<path d="M72.6898 37.9576C72.8799 37.9998 73.2179 37.9998 73.4291 37.9576C73.6192 37.8942 73.4502 37.852 73.0489 37.852C72.6476 37.852 72.4786 37.8942 72.6898 37.9576Z" fill="black"/>
<path d="M106.529 39.4573C105.98 40.3022 105.917 40.7669 106.403 40.4501C106.741 40.26 107.311 39.0982 107.205 38.8025C107.163 38.6757 106.867 38.9503 106.529 39.4573Z" fill="black"/>
<path d="M88.997 40.2811C88.6168 40.9148 88.4055 41.0627 88.0042 40.9993C87.8986 40.9993 87.8352 41.0838 87.8352 41.2105C87.8352 41.3373 88.0253 41.3795 88.2999 41.295C88.659 41.1683 88.7224 41.2105 88.5956 41.5063C88.2999 42.309 88.1943 42.9427 88.4055 42.8159C88.5323 42.7314 88.7858 42.8582 88.997 43.0905C89.4195 43.5552 89.7363 43.6397 89.7363 43.3018C89.7363 43.175 89.5462 43.006 89.335 42.9215C88.9547 42.7737 88.9547 42.7103 89.2505 41.8654C89.4195 41.3584 89.5251 40.6402 89.4828 40.2811L89.4195 39.6052L88.997 40.2811Z" fill="black"/>
<path d="M91.4261 39.8797C91.4261 39.9854 91.574 40.2177 91.7641 40.3656C92.0598 40.619 92.1021 40.5979 92.0387 40.26C91.9542 39.8375 91.4261 39.5206 91.4261 39.8797Z" fill="black"/>
<path d="M90.7291 40.6191C90.6657 40.767 90.7925 40.8937 91.0248 40.9148C91.2783 40.9359 91.3628 40.8515 91.2783 40.6402C91.1516 40.26 90.8769 40.26 90.7291 40.6191Z" fill="black"/>
<path d="M90.0743 41.0838C89.9898 41.4218 89.842 41.5696 89.6941 41.4851C89.5462 41.4007 89.5251 41.4218 89.6096 41.5696C89.6941 41.7175 89.842 41.8231 89.9476 41.8231C90.1377 41.8231 90.4545 40.767 90.3067 40.6191C90.2433 40.5768 90.1377 40.7881 90.0743 41.0838Z" fill="black"/>
<path d="M85.9974 41.8019C85.7862 42.1399 85.8073 42.1822 86.1664 42.0977C86.3777 42.0343 86.5678 41.8442 86.5678 41.6963C86.5678 41.2739 86.2932 41.3372 85.9974 41.8019Z" fill="black"/>
<path d="M86.8424 42.2034C86.779 42.4357 86.5678 42.6681 86.3566 42.7314C85.8496 42.8582 85.3004 44.5269 85.7017 44.7593C85.8918 44.886 85.8918 45.0761 85.744 45.4775C85.4694 46.2168 85.2581 46.2168 85.4271 45.4775C85.5539 45.0128 85.5116 44.9494 85.2159 45.055C85.0047 45.1395 84.7934 45.2029 84.7512 45.2029C84.6878 45.2029 84.7089 45.2874 84.7723 45.4141C84.8357 45.5197 84.7723 45.6253 84.6033 45.6253C84.1597 45.6253 84.0119 46.1534 84.3287 46.597C84.4977 46.8082 84.7512 46.9139 84.9624 46.8294C85.2159 46.7237 85.3004 46.8294 85.3004 47.2307C85.3004 47.6532 85.2159 47.7588 84.9624 47.6532C84.7723 47.5898 84.5822 47.5264 84.54 47.5264C84.4977 47.5264 84.4555 47.3786 84.4555 47.2096C84.4555 46.8294 84.202 46.8082 83.864 47.1462C83.6316 47.3786 83.7795 47.7799 84.4977 49.0051C84.6033 49.1741 84.7301 49.4909 84.7934 49.681C84.9624 50.1457 85.2793 50.1668 85.4271 49.7444C85.5116 49.5754 85.6595 49.4909 85.7862 49.5754C85.913 49.6599 85.9552 49.5331 85.8918 49.2585C85.8073 49.0051 85.8496 48.7938 85.9552 48.7938C86.0608 48.7938 86.1453 48.646 86.1453 48.477C86.1453 48.308 86.0608 48.1601 85.9763 48.1601C85.8918 48.1601 85.8073 47.97 85.8073 47.7588C85.8073 47.5264 85.8918 47.3997 85.9975 47.4631C86.3143 47.6532 86.7368 47.0828 86.8846 46.2168C86.9903 45.6465 87.1592 45.3296 87.4338 45.2662C87.8774 45.1395 88.1943 43.9355 87.9197 43.3651C87.8352 43.1539 87.7507 42.7526 87.7507 42.4568C87.7296 41.802 87.0114 41.5908 86.8424 42.2034Z" fill="black"/>
<path d="M84.371 42.4356C83.6739 43.2172 84.5822 44.0199 85.3215 43.2806L85.744 42.8581L85.2793 42.4356C84.709 41.9498 84.8146 41.9498 84.371 42.4356Z" fill="black"/>
<path d="M88.5112 43.8086C88.5323 44.0199 88.6801 44.1677 88.7858 44.1677C89.1026 44.1466 89.0392 43.6608 88.7224 43.5551C88.5323 43.4918 88.4478 43.5974 88.5112 43.8086Z" fill="black"/>
<path d="M84.6878 44.21C84.4977 44.4423 84.5188 44.5691 84.7512 44.7592C84.9836 44.9493 85.0681 44.9282 85.1737 44.6536C85.3638 44.1677 85.0047 43.8509 84.6878 44.21Z" fill="black"/>
</svg>
