<svg width="300" height="76" viewBox="0 0 300 76" fill="none" xmlns="http://www.w3.org/2000/svg">
<path d="M173.609 0.442224C173.324 0.790575 173.419 0.822243 174.053 0.69557C174.496 0.632233 174.845 0.442224 174.845 0.283882C174.845 -0.159474 174.021 -0.0644686 173.609 0.442224Z" fill="white"/>
<path d="M175.795 0.695502C176.523 1.48763 176.555 1.67774 176.08 2.62829C175.763 3.29367 175.763 3.29367 176.238 2.72334C176.904 1.89953 176.872 1.17078 176.175 0.537077C175.319 -0.255047 175.034 -0.128307 175.795 0.695502Z" fill="white"/>
<path d="M171.739 1.45596C171.169 2.24808 171.105 2.27977 171.264 1.64607C171.485 0.727205 170.788 0.727205 170.44 1.67776C170.281 2.08966 169.933 2.59662 169.648 2.81841C169.363 3.04021 169.141 3.45211 169.141 3.67391C169.141 3.99076 168.729 4.1175 167.747 4.1175C166.036 4.1175 165.719 4.49772 166.669 5.35321C167.62 6.27208 168.317 6.17702 168.729 5.13142C169.046 4.33929 169.077 4.37098 168.951 5.54332L168.792 6.81072L169.743 5.70175L170.693 4.59277L170.725 5.95523C170.725 6.77904 170.852 7.25431 171.042 7.12757C171.232 7.03251 171.359 6.0186 171.359 4.94131C171.359 3.38874 171.517 2.75504 172.024 2.08966C172.373 1.64607 172.626 1.10743 172.563 0.885629C172.499 0.69552 172.119 0.949 171.739 1.45596ZM169.806 4.5294C169.553 4.78288 169.458 4.7512 169.458 4.40266C169.458 4.1175 169.553 3.80065 169.679 3.67391C169.806 3.54717 169.965 3.61054 170.028 3.80065C170.123 4.02244 169.996 4.33929 169.806 4.5294Z" fill="white"/>
<path d="M172.943 1.61441C172.943 2.46991 173.894 3.48383 174.749 3.48383C175.732 3.48383 175.605 3.23035 174.496 3.07192C174.052 3.00855 173.704 2.6917 173.64 2.34317C173.482 1.55104 172.943 0.980716 172.943 1.61441Z" fill="white"/>
<path d="M174.845 1.90018C174.845 2.05829 175.003 2.21639 175.162 2.21639C175.352 2.21639 175.478 2.05829 175.478 1.90018C175.478 1.71046 175.352 1.58398 175.162 1.58398C175.003 1.58398 174.845 1.71046 174.845 1.90018Z" fill="white"/>
<path d="M176.936 2.09034C176.651 2.81871 177.538 3.76876 178.045 3.26207C178.52 2.78704 178.267 1.77366 177.665 1.64699C177.38 1.58365 177.063 1.80533 176.936 2.09034Z" fill="white"/>
<path d="M204.375 3.35705C203.614 3.8957 203.551 4.05412 203.963 4.68782C204.153 5.00467 204.375 5.03636 205.04 4.71951C205.515 4.49771 205.896 4.21255 205.896 4.05412C205.896 3.8957 205.769 3.86401 205.579 3.95907C205.135 4.24423 205.167 3.70559 205.642 3.23031C206.213 2.65998 205.262 2.72335 204.375 3.35705Z" fill="white"/>
<path d="M173.007 3.83267C173.071 4.05435 173.324 4.3077 173.546 4.37103C173.799 4.46604 173.926 4.33937 173.831 4.08602C173.768 3.86434 173.514 3.611 173.292 3.54766C173.039 3.45265 172.912 3.57933 173.007 3.83267Z" fill="white"/>
<path d="M175.794 3.95906C175.541 4.24422 175.478 4.87792 175.604 5.60668C175.731 6.27206 175.858 7.15924 175.921 7.60283C175.985 8.04642 176.048 8.52169 176.08 8.64843C176.175 9.31382 177.22 8.61675 177.379 7.76125C177.505 7.19092 177.759 6.84239 177.981 6.90576C178.203 6.93744 179.026 7.00081 179.787 7.0325C181.308 7.06418 181.688 7.50777 180.325 7.6662C179.692 7.72957 179.407 7.95136 179.343 8.49001C179.28 8.9336 179.09 9.12371 178.868 8.96528C178.646 8.83854 178.646 8.96528 178.9 9.28213C179.153 9.5673 179.248 9.91583 179.153 10.1059C179.058 10.2643 179.185 10.4544 179.438 10.5812C179.692 10.6762 179.977 10.6129 180.104 10.4228C180.199 10.2327 180.484 10.3277 180.769 10.6762C181.181 11.1832 181.181 11.1832 180.832 10.4861C180.516 9.82078 180.547 9.63067 181.118 9.15539C181.498 8.87023 181.688 8.52169 181.561 8.42664C181.466 8.2999 181.529 8.0781 181.783 7.95136C182.068 7.76125 182.1 7.53946 181.878 7.09587C181.688 6.74733 181.466 6.24038 181.371 5.92353C181.276 5.60668 181.054 5.44825 180.864 5.54331C180.706 5.63836 180.547 5.54331 180.547 5.28983C180.547 5.06803 180.294 4.87792 180.009 4.90961C179.692 4.90961 179.438 5.00466 179.438 5.09972C179.438 5.51162 178.551 6.30375 178.298 6.14532C178.139 6.05027 178.012 5.57499 178.012 5.09972C178.012 3.64221 176.65 2.91345 175.794 3.95906ZM177.22 5.38488C177.22 6.43049 177.094 6.81071 176.745 6.81071C176.397 6.81071 176.238 6.3988 176.175 5.28983C176.08 3.95906 176.143 3.76895 176.65 3.864C177.094 3.95906 177.22 4.27591 177.22 5.38488ZM177.062 8.0781C177.062 8.36327 176.872 8.45832 176.587 8.36327C176.333 8.23653 176.206 8.04642 176.301 7.88799C176.555 7.4444 177.062 7.57114 177.062 8.0781ZM181.181 8.68012C181.181 8.77517 181.054 8.9336 180.864 9.02865C180.706 9.12371 180.547 9.06034 180.547 8.90191C180.547 8.7118 180.706 8.55338 180.864 8.55338C181.054 8.55338 181.181 8.61675 181.181 8.68012Z" fill="white"/>
<path d="M172.151 4.75166C171.834 5.25835 172.373 5.73337 172.88 5.41669C173.196 5.22668 173.196 5.10001 172.816 4.78333C172.499 4.49831 172.309 4.49831 172.151 4.75166Z" fill="white"/>
<path d="M202.569 5.4483C201.586 6.58896 201.776 7.06424 202.822 6.082C203.868 5.09977 204.153 5.22651 203.392 6.3038C203.012 6.81076 202.727 7.47614 202.727 7.7613C202.727 8.07815 202.569 8.17321 202.347 8.04647C202.062 7.85636 202.062 7.95141 202.347 8.33163C202.6 8.6168 202.695 8.99702 202.569 9.18713C202.473 9.34555 202.664 9.50398 203.012 9.50398C203.836 9.50398 204.438 8.49006 203.899 7.91973C203.582 7.60288 203.677 7.57119 204.375 7.72962C205.04 7.88804 205.198 7.82467 205.072 7.47614C204.977 7.19098 205.167 6.9375 205.547 6.81076C206.276 6.58896 206.402 6.17706 205.864 5.86021C205.705 5.73347 205.293 5.86021 204.977 6.14537C204.248 6.81076 203.899 6.77907 204.248 6.082C204.438 5.70178 204.375 5.38493 203.963 5.00471C203.424 4.49775 203.361 4.52944 202.569 5.4483ZM203.678 8.36332C203.678 8.45837 203.551 8.6168 203.361 8.71185C203.202 8.80691 203.044 8.74354 203.044 8.58511C203.044 8.395 203.202 8.23658 203.361 8.23658C203.551 8.23658 203.678 8.29995 203.678 8.36332Z" fill="white"/>
<path d="M206.307 5.19491C206.465 5.66994 207.067 5.76494 207.067 5.28992C207.067 5.03657 206.877 4.84656 206.624 4.84656C206.402 4.84656 206.244 5.0049 206.307 5.19491Z" fill="white"/>
<path d="M198.513 5.82872C198.418 6.08206 198.418 6.36708 198.513 6.46208C198.798 6.7471 199.59 5.98706 199.368 5.67037C199.115 5.25869 198.703 5.32202 198.513 5.82872Z" fill="white"/>
<path d="M163.818 6.08196C163.248 6.65229 163.375 6.96914 164.008 6.74734C164.388 6.6206 164.325 6.77903 163.755 7.31767C163.311 7.76126 162.804 8.04642 162.614 7.98305C162.012 7.79294 161.727 8.61675 162.234 8.99697C162.582 9.25045 162.677 9.66236 162.582 10.2327C162.361 11.31 163.248 11.7536 164.008 10.9615C164.42 10.5495 164.452 10.3278 164.167 9.85247C163.691 9.09203 163.977 8.80686 164.737 9.21877C165.149 9.40888 165.529 9.40888 165.878 9.21877C166.195 9.06034 166.638 9.02866 166.955 9.18708C167.367 9.40888 167.462 9.34551 167.43 8.83855C167.43 8.49001 167.177 8.07811 166.923 7.91968C166.606 7.69789 166.575 7.60283 166.86 7.60283C167.05 7.60283 167.24 7.44441 167.24 7.28599C167.24 7.09588 166.955 6.96914 166.606 6.96914C166.258 6.96914 166.004 6.77903 166.068 6.55723C166.099 6.36712 165.846 6.17701 165.497 6.17701C165.149 6.14533 164.705 6.05027 164.515 5.95522C164.325 5.82848 164.008 5.89185 163.818 6.08196ZM165.814 7.91968C165.719 8.07811 165.497 8.23653 165.307 8.23653C165.149 8.23653 165.022 8.07811 165.022 7.91968C165.022 7.72957 165.244 7.60283 165.529 7.60283C165.783 7.60283 165.909 7.72957 165.814 7.91968Z" fill="white"/>
<path d="M191.004 6.49418C191.004 6.74753 191.067 6.96921 191.131 6.96921C191.194 6.96921 191.321 6.74753 191.447 6.49418C191.543 6.24084 191.479 6.01917 191.321 6.01917C191.131 6.01917 191.004 6.24084 191.004 6.49418Z" fill="white"/>
<path d="M191.669 6.71562C191.447 7.25427 191.511 7.53943 191.891 7.8246C192.525 8.33156 192.905 8.33156 192.905 7.85628C192.905 7.66617 193 7.6028 193.127 7.69786C193.348 7.91965 194.172 7.34932 194.172 6.9691C194.172 6.74731 192.746 6.01855 192.239 6.01855C192.081 6.01855 191.796 6.3354 191.669 6.71562Z" fill="white"/>
<path d="M167.589 6.84255C167.589 7.1909 167.684 7.2859 167.779 7.03256C167.874 6.81088 167.842 6.52586 167.747 6.43086C167.652 6.30418 167.557 6.49419 167.589 6.84255Z" fill="white"/>
<path d="M189.102 6.74736C189.102 6.96915 188.849 7.286 188.5 7.5078C187.835 7.9197 187.328 9.50395 187.803 9.78911C187.993 9.91585 187.962 10.4545 187.74 11.3416C187.455 12.4823 187.455 12.7675 187.835 12.9893C188.627 13.4962 188.785 13.3695 189.166 11.912C189.356 11.1199 189.641 10.5495 189.799 10.6446C190.275 10.9297 190.718 9.09204 190.496 7.69791C190.338 6.6523 190.148 6.33545 189.704 6.33545C189.356 6.33545 189.102 6.52556 189.102 6.74736Z" fill="white"/>
<path d="M199.558 6.81097C199.242 7.19099 199.242 7.28599 199.654 7.28599C199.907 7.28599 200.192 7.06431 200.319 6.81097C200.414 6.55762 200.382 6.33594 200.224 6.33594C200.065 6.33594 199.78 6.55762 199.558 6.81097Z" fill="white"/>
<path d="M195.122 7.60285C194.932 7.9197 194.203 8.39498 193.443 8.58509C192.524 8.87025 192.302 9.02868 192.714 9.12373C193.19 9.21879 193.221 9.31384 192.873 9.53564C192.081 10.0109 193.601 9.85249 194.489 9.34553C194.932 9.09205 195.629 8.87025 196.073 8.83857C196.612 8.80688 196.707 8.74351 196.295 8.64846C196.01 8.58509 195.819 8.36329 195.914 8.20487C196.041 8.04644 195.978 7.9197 195.788 7.9197C195.598 7.9197 195.534 7.69791 195.629 7.44443C195.914 6.74736 195.503 6.8741 195.122 7.60285Z" fill="white"/>
<path d="M205.832 8.90192C205.991 9.88416 205.959 9.91584 204.977 9.75742C204.375 9.66236 204.089 9.72573 204.28 9.91584C204.818 10.4545 206.054 10.0109 206.149 9.21877C206.212 8.80687 206.149 8.36328 205.991 8.20485C205.8 8.01475 205.737 8.29991 205.832 8.90192Z" fill="white"/>
<path d="M160.903 9.34553C160.681 9.59901 160.016 9.82081 159.445 9.82081C158.843 9.82081 158.368 9.94754 158.368 10.1377C158.368 10.2961 158.463 10.4546 158.622 10.4546C158.938 10.4546 158.875 12.7359 158.527 13.2745C158.336 13.5914 158.4 13.6547 158.717 13.4963C158.97 13.3696 158.907 13.4646 158.622 13.7181C157.766 14.3835 157.925 14.732 158.812 14.13C159.699 13.5597 160.016 13.9716 159.604 15.1122C159.255 16.0628 159.35 16.0311 160.428 14.8904L161.346 13.9399L160.333 13.5914C159.224 13.2111 159.033 12.6725 159.794 12.0388C160.111 11.7536 160.269 11.7536 160.269 12.0071C160.269 12.1972 160.459 12.3556 160.713 12.3556C160.935 12.3556 161.22 12.6408 161.315 13.021C161.568 13.9399 162.931 13.7181 163.057 12.7359C163.153 12.1972 162.994 11.9437 162.519 11.817C162.139 11.7219 161.853 11.4368 161.853 11.1833C161.853 10.9298 161.727 10.8348 161.537 10.9298C161.378 11.0249 161.22 10.9615 161.22 10.8031C161.22 10.613 161.346 10.4546 161.505 10.4546C161.98 10.4546 162.139 9.56733 161.727 9.2188C161.41 8.96532 161.188 8.99699 160.903 9.34553Z" fill="white"/>
<path d="M200.605 9.50422C200.668 9.75757 201.048 10.0109 201.492 10.0426C202.094 10.0743 202.126 10.0743 201.619 9.91591C201.27 9.82091 200.858 9.59923 200.731 9.37755C200.541 9.15587 200.51 9.18754 200.605 9.50422Z" fill="white"/>
<path d="M191.162 9.82134C191.257 9.97944 191.574 10.1376 191.828 10.1376C192.081 10.1376 192.208 9.97944 192.113 9.82134C192.018 9.63161 191.701 9.50513 191.448 9.50513C191.194 9.50513 191.067 9.63161 191.162 9.82134Z" fill="white"/>
<path d="M156.784 10.4545C156.594 10.8031 156.15 11.0882 155.802 11.0882C155.453 11.0882 155.231 11.215 155.326 11.3417C155.421 11.5001 156.087 11.5635 156.847 11.5001L158.21 11.4051L156.942 12.5774C156.118 13.3379 155.833 13.7814 156.087 13.8765C156.34 13.9399 157.006 13.528 157.608 12.9576C158.558 12.0388 158.622 11.8803 158.21 11.4051C157.956 11.1199 157.734 10.708 157.734 10.5179C157.734 9.85252 157.132 9.82084 156.784 10.4545Z" fill="white"/>
<path d="M194.077 10.7714C193.665 11.8486 193.475 11.912 192.905 11.2466C192.43 10.6763 190.877 10.6129 190.433 11.1516C189.736 12.0704 189.705 12.9576 190.338 13.5913C190.845 14.0983 190.909 14.2567 190.528 14.2567C189.958 14.2567 189.926 14.6052 190.465 15.334C190.719 15.6825 191.067 15.8093 191.416 15.6508C192.018 15.4291 192.113 15.0171 191.606 14.732C191.416 14.6052 191.637 14.3201 192.144 14.0666C192.841 13.6864 193.063 13.6864 193.253 14.0032C193.475 14.3201 193.665 14.3201 194.141 14.0349C194.648 13.7181 194.774 13.7497 194.901 14.1933C194.996 14.4785 195.154 14.9855 195.281 15.2706C195.44 15.6825 195.345 15.841 194.996 15.841C194.711 15.841 194.489 15.7142 194.489 15.5875C194.489 15.4291 194.267 15.3023 194.014 15.3023C193.729 15.3023 193.57 15.5241 193.602 15.8093C193.697 16.1261 193.982 16.2845 194.426 16.2529C194.806 16.1895 195.123 16.3162 195.123 16.4747C195.123 16.6648 195.345 16.7915 195.63 16.7915C196.01 16.7915 196.105 16.6014 195.978 16.1261C195.852 15.6192 195.915 15.5241 196.295 15.6508C196.58 15.7776 197.119 15.6192 197.531 15.3657C198.513 14.732 198.576 13.1794 197.658 12.6091C197.056 12.2289 196.739 11.0565 197.277 11.1199C197.911 11.215 198.291 11.0565 198.291 10.6446C198.291 9.97924 197.721 9.69407 197.214 10.106C196.992 10.2961 196.739 10.3911 196.675 10.3278C196.612 10.2644 196.073 10.1377 195.503 10.0426C194.521 9.8525 194.394 9.91587 194.077 10.7714ZM192.905 11.7536C193.634 13.0527 191.796 14.6052 190.75 13.5596C190.338 13.1477 190.243 11.6585 190.592 11.31C191.067 10.803 192.588 11.1199 192.905 11.7536ZM196.042 11.6902C196.327 11.8803 196.359 12.0388 196.105 12.1655C195.693 12.419 195.123 12.1338 195.123 11.6902C195.123 11.3417 195.471 11.3417 196.042 11.6902ZM194.584 12.514C194.362 13.1794 194.172 13.116 194.172 12.3239C194.172 11.9754 194.299 11.7536 194.489 11.8803C194.648 11.9754 194.711 12.2606 194.584 12.514ZM197.372 12.6725C198.545 13.3062 197.943 15.2073 196.549 15.2073C195.218 15.2073 194.679 13.8131 195.63 12.8626C196.2 12.2606 196.517 12.2289 197.372 12.6725Z" fill="white"/>
<path d="M191.194 12.1975C191.321 12.4508 191.543 12.6725 191.701 12.6725C191.891 12.6725 191.859 12.4825 191.638 12.1975C191.416 11.9441 191.194 11.7224 191.131 11.7224C191.067 11.7224 191.099 11.9441 191.194 12.1975Z" fill="white"/>
<path d="M183.495 10.5179C183.336 10.7397 183.083 11.1833 182.956 11.5318C182.798 12.0071 182.544 12.0705 181.499 11.912C180.802 11.817 180.2 11.8487 180.073 12.0388C179.978 12.1972 179.566 12.3556 179.186 12.3873C178.806 12.419 179.122 12.5457 179.915 12.7042C180.707 12.8309 181.721 13.021 182.228 13.1161C182.925 13.2745 183.083 13.1794 183.083 12.6725C183.083 12.2289 183.305 12.0388 183.78 12.0388C184.414 12.0388 184.414 12.0705 183.938 12.6091C182.766 13.9082 183.685 16.0311 185.238 15.7459C186.758 15.4608 186.98 16.2212 185.903 18.2173C184.921 19.9917 184.857 20.7205 185.745 19.9917C185.966 19.8016 186.347 19.1996 186.568 18.6609C186.822 18.0589 187.075 17.8054 187.265 17.9956C187.456 18.1857 187.456 18.5342 187.234 18.9461C186.727 19.8966 187.392 20.1501 187.994 19.2313C188.248 18.8194 188.438 18.1223 188.406 17.7104C188.343 17.1717 188.438 16.9816 188.786 17.045C189.23 17.1401 190.054 16.3162 190.054 15.7459C190.054 15.5875 189.832 15.5558 189.547 15.6509C189.135 15.8093 189.071 15.6825 189.23 15.0489C189.357 14.6053 189.357 14.0983 189.262 13.9399C189.04 13.5597 188.153 13.9082 188.153 14.3835C188.153 14.5736 187.741 14.9221 187.202 15.1122C186.315 15.4608 186.283 15.4291 186.6 14.8271C187.107 13.8765 186.663 12.6725 185.681 12.3239C185.016 12.1021 184.794 11.817 184.826 11.1833C184.826 10.2327 184.034 9.82078 183.495 10.5179ZM185.428 13.6547C185.174 14.1617 185.047 14.732 185.143 14.8904C185.238 15.0805 185.143 15.2073 184.889 15.2073C184.572 15.2073 184.477 14.9855 184.572 14.5736C184.699 14.13 184.604 13.9399 184.319 14.0032C184.097 14.0666 183.843 13.8448 183.78 13.4963C183.717 13.1794 183.78 12.9893 183.97 13.1161C184.129 13.2111 184.445 13.0844 184.667 12.8309C184.857 12.6091 185.238 12.4824 185.459 12.5774C185.84 12.7042 185.84 12.8626 185.428 13.6547ZM186.473 13.9399C186.505 14.2884 186.378 14.5736 186.22 14.5736C186.03 14.5736 185.998 14.7003 186.093 14.8904C186.188 15.0489 186.156 15.2073 185.998 15.2073C185.808 15.2073 185.618 14.9855 185.491 14.732C185.396 14.4785 185.459 14.2567 185.618 14.2567C185.808 14.2567 185.903 14.1617 185.903 14.0032C185.84 13.5597 185.935 13.3062 186.188 13.3062C186.315 13.3062 186.442 13.5913 186.473 13.9399Z" fill="white"/>
<path d="M202.822 10.3595C202.6 10.4228 202.41 10.8664 202.41 11.2783C202.41 11.7219 202.283 12.0071 202.093 11.8803C201.935 11.7853 201.871 11.5001 201.998 11.2466C202.093 10.9932 202.03 10.7714 201.84 10.7714C201.396 10.7714 201.143 11.912 201.143 13.8448C201.143 15.6825 201.681 16.1578 201.84 14.4785C201.966 13.4963 201.966 13.4646 202.283 14.225C202.473 14.7003 202.695 14.8587 202.822 14.6686C203.107 14.225 202.759 13.3062 202.347 13.3062C202.188 13.3062 202.188 13.0844 202.378 12.7675C202.537 12.4507 202.917 12.1972 203.234 12.1972C204.058 12.1972 204.533 11.2466 204.026 10.6446C203.582 10.106 203.456 10.0743 202.822 10.3595Z" fill="white"/>
<path d="M177.284 10.8036C177.506 11.025 177.759 11.1199 177.855 11.025C177.95 10.9301 177.791 10.7404 177.474 10.6455C177.031 10.4558 176.999 10.4874 177.284 10.8036Z" fill="white"/>
<path d="M205.738 11.088C205.643 11.2464 205.389 11.3098 205.167 11.2464C204.946 11.1514 204.47 11.5633 204.09 12.1336C203.33 13.2426 203.171 13.7812 203.678 13.4644C204.154 13.1792 204.059 13.8763 203.488 14.7318C202.854 15.714 203.425 15.7774 204.09 14.7952C204.597 14.0981 204.597 14.0981 204.597 15.112C204.629 15.6823 204.787 16.1576 204.946 16.1576C205.136 16.1576 205.263 15.3655 205.263 14.3833C205.263 13.1159 205.453 12.3554 205.928 11.69C206.276 11.1831 206.435 10.7712 206.245 10.7712C206.086 10.7712 205.865 10.8979 205.738 11.088Z" fill="white"/>
<path d="M176.112 13.021C176.872 13.6547 176.872 13.6547 176.207 13.4646C175.605 13.3061 175.478 13.4012 175.478 13.9398C175.478 14.5735 175.51 14.5735 176.27 14.0666C176.999 13.5913 177.126 13.5913 177.855 14.0666C178.805 14.7003 179.344 14.732 178.52 14.0983C178.14 13.8131 177.981 13.4012 178.108 12.9893C178.267 12.419 178.14 12.3556 176.809 12.3556H175.32L176.112 13.021Z" fill="white"/>
<path d="M180.325 13.7497C180.515 14.9854 179.691 17.3301 178.994 17.5202C178.614 17.6153 178.329 18.0906 178.202 18.8193C178.076 19.453 177.949 19.96 177.917 19.96C177.885 19.96 177.22 19.7699 176.428 19.5164C175.382 19.1995 175.034 18.9461 175.097 18.5342C175.161 18.249 175.034 17.8054 174.812 17.5519C174.59 17.2984 174.527 16.6331 174.622 15.9994C174.812 14.827 174.527 14.6052 173.83 15.3023C173.608 15.5558 173.228 15.6825 172.974 15.5875C172.752 15.5241 172.848 15.7459 173.228 16.1261C173.608 16.5063 173.893 17.2034 173.893 17.7737C173.893 18.4074 174.02 18.6609 174.273 18.5025C174.622 18.2807 174.495 20.1818 174.052 21.2591C173.893 21.671 174.115 21.8928 175.002 22.1779C175.636 22.3997 176.333 22.5898 176.523 22.6215C176.998 22.7166 179.311 23.382 181.117 23.9523C183.082 24.586 183.24 24.5226 183.652 22.97C184.127 21.1323 184.127 20.9105 183.557 20.9105C182.923 20.9105 182.955 20.7204 183.842 19.1679C184.349 18.344 184.539 17.7103 184.349 17.4252C184.222 17.2034 184.159 16.8232 184.254 16.5697C184.349 16.3479 184.254 16.1578 184.032 16.1578C183.43 16.1578 182.416 17.4886 182.48 18.2173C182.607 20.0233 182.448 20.657 181.909 20.4669C181.624 20.3402 181.276 20.4353 181.117 20.657C180.927 20.9422 180.864 20.8788 180.991 20.4353C181.529 18.3124 181.529 18.1222 181.086 17.9955C180.705 17.9005 180.705 17.647 181.181 16.2212C181.498 15.3023 182.004 14.3201 182.321 14.0666C182.86 13.623 182.86 13.5913 182.385 13.7497C182.068 13.8448 181.814 13.7814 181.814 13.5913C181.814 13.4012 181.593 13.3378 181.276 13.4329C180.991 13.5596 180.642 13.4646 180.484 13.2428C180.294 12.9576 180.23 13.1477 180.325 13.7497ZM180.04 19.0728C179.787 19.9283 179.66 20.1184 179.438 19.9283C179.216 19.6748 179.66 18.3757 179.977 18.3757C180.135 18.3757 180.167 18.6926 180.04 19.0728ZM176.238 20.8155C175.953 21.9561 175.858 22.0512 175.446 21.6393C175.002 21.1957 175.382 19.96 175.984 19.96C176.333 19.96 176.396 20.1818 176.238 20.8155ZM177.6 20.9739C177.505 21.2274 177.41 21.1323 177.41 20.7838C177.378 20.4353 177.474 20.2451 177.569 20.3719C177.664 20.4669 177.695 20.7521 177.6 20.9739ZM182.765 22.1779C182.765 22.3363 182.638 22.4948 182.48 22.4948C182.321 22.4948 182.258 22.8116 182.353 23.1602C182.48 23.6354 182.416 23.7939 182.163 23.7305C181.941 23.6354 181.783 23.477 181.783 23.3503C181.814 23.2235 181.814 22.8433 181.814 22.4948C181.814 22.1462 182.036 21.8611 182.29 21.8611C182.543 21.8611 182.765 21.9878 182.765 22.1779ZM180.452 22.875C180.357 23.1285 180.262 23.0334 180.262 22.6849C180.23 22.3363 180.325 22.1462 180.42 22.273C180.515 22.368 180.547 22.6532 180.452 22.875Z" fill="white"/>
<path d="M178.583 13.5282C178.805 13.6228 179.09 13.5913 179.185 13.4966C179.312 13.402 179.122 13.3074 178.773 13.3389C178.425 13.3389 178.33 13.4335 178.583 13.5282Z" fill="white"/>
<path d="M162.645 14.2252C162.423 14.6053 163.026 14.9853 163.437 14.7319C163.786 14.5103 163.564 13.9402 163.121 13.9402C162.962 13.9402 162.772 14.0669 162.645 14.2252Z" fill="white"/>
<path d="M176.651 15.4924C175.954 16.1895 175.7 18.9144 176.302 19.1362C176.524 19.2312 176.809 19.0094 176.936 18.5975C177.063 18.2173 177.38 17.742 177.633 17.5519C177.982 17.2985 178.045 16.9182 177.887 16.0627C177.633 14.7637 177.475 14.6686 176.651 15.4924Z" fill="white"/>
<path d="M162.804 15.8415C162.804 15.9996 162.994 16.1577 163.248 16.1577C163.501 16.1577 163.818 15.9996 163.913 15.8415C164.008 15.6518 163.818 15.5253 163.47 15.5253C163.089 15.5253 162.804 15.6518 162.804 15.8415Z" fill="white"/>
<path d="M145.219 16.1583C143.635 16.3164 144.744 16.3797 148.926 16.4113C152.601 16.4429 154.914 16.3481 155.041 16.1583C155.263 15.8105 148.989 15.8105 145.219 16.1583Z" fill="white"/>
<path d="M200.604 16.2217C199.844 17.2351 199.844 17.5201 200.636 16.7917C201.396 16.095 201.555 16.0634 202.188 16.4434C202.822 16.8551 202.854 16.8551 202.442 16.3801C201.935 15.7467 201.016 15.6834 200.604 16.2217Z" fill="white"/>
<path d="M191.479 16.4748C191.384 16.6332 191.479 16.7916 191.701 16.7916C191.922 16.7916 191.764 17.0134 191.384 17.2986C190.845 17.6788 190.56 17.7105 190.212 17.4253C189.895 17.1401 189.736 17.2035 189.578 17.7105C189.293 18.6293 189.609 19.0096 190.687 19.0096C191.194 19.0096 191.701 19.1363 191.796 19.3264C191.891 19.4848 192.398 19.6433 192.905 19.6433C193.412 19.6433 193.919 19.8017 194.045 20.0235C194.204 20.277 194.362 20.2136 194.489 19.77C194.616 19.4531 194.584 18.9779 194.426 18.7561C194.204 18.5026 194.204 18.3759 194.457 18.3759C194.647 18.3759 194.806 18.2174 194.806 18.059C194.806 17.8689 194.521 17.7422 194.204 17.7422C193.729 17.7422 193.633 17.5837 193.76 17.0768C193.919 16.5064 193.855 16.4431 193.253 16.6332C192.873 16.7599 192.588 16.6966 192.588 16.5064C192.588 16.0629 191.732 16.0629 191.479 16.4748ZM193.317 18.2808C193.095 18.3442 192.715 18.3442 192.525 18.2808C192.303 18.1857 192.461 18.1224 192.905 18.1224C193.348 18.1224 193.507 18.1857 193.317 18.2808Z" fill="white"/>
<path d="M201.017 17.8054C200.731 18.4708 200.351 19.0094 200.193 19.0094C200.003 19.0094 199.876 19.1679 199.876 19.358C199.876 19.5481 200.129 19.6114 200.446 19.5164C200.89 19.358 200.985 19.5164 200.985 20.3402C200.985 21.069 201.143 21.4175 201.555 21.4809C201.967 21.5759 202.094 21.3541 202.094 20.4986C202.094 19.5481 202.189 19.4213 202.728 19.5481C203.266 19.7065 203.361 19.5798 203.33 18.6609C203.298 17.9005 203.235 17.8054 203.14 18.2807C202.949 19.3263 202.538 19.1679 201.999 17.8054L201.524 16.6331L201.017 17.8054Z" fill="white"/>
<path d="M195.788 18.249C195.155 18.9144 195.091 19.1362 195.376 19.8016C195.662 20.4036 195.63 20.5303 195.313 20.4036C194.869 20.2452 194.172 21.7343 194.172 22.875C194.172 23.7622 194.743 23.2552 195.06 22.0829C195.376 20.8788 195.947 20.9105 195.82 22.1146C195.757 22.9384 195.757 22.9384 196.232 22.368C196.802 21.6393 196.834 21.164 196.39 20.7204C196.169 20.4986 196.264 20.1501 196.707 19.6431C197.404 18.851 197.626 17.9638 196.961 18.6292C196.422 19.1679 195.915 19.1045 196.39 18.5342C197.087 17.7104 196.549 17.4252 195.788 18.249Z" fill="white"/>
<path d="M170.725 18.6609C170.281 19.5481 170.344 20.4669 170.915 21.0373C171.897 22.0195 173.608 21.4808 174.052 20.055C174.495 18.5025 171.485 17.2351 170.725 18.6609ZM172.499 18.8193C172.974 19.3263 173.069 19.9917 172.721 20.4669C172.562 20.6254 172.721 20.4986 173.038 20.1818C173.64 19.4847 173.735 19.7065 173.259 20.6254C172.784 21.5125 171.549 21.3858 171.105 20.4352C170.566 19.2629 170.63 19.0094 171.453 19.0094C172.024 19.0094 172.055 18.9461 171.675 18.6926C171.327 18.4708 171.295 18.3757 171.612 18.3757C171.834 18.3757 172.246 18.5658 172.499 18.8193Z" fill="white"/>
<path d="M188.342 19.4854C188.247 19.7388 188.247 20.1821 188.374 20.4672C188.627 21.1639 190.18 20.9105 190.307 20.1505C190.528 19.1371 188.722 18.5354 188.342 19.4854Z" fill="white"/>
<path d="M193.032 20.4669C193.222 20.9422 193.19 20.9739 192.873 20.6887C192.366 20.1818 191.194 20.7838 191.447 21.4175C191.543 21.7027 191.479 21.7977 191.321 21.7027C191.131 21.6076 191.004 21.6393 191.004 21.7977C191.004 22.1779 192.43 22.4631 192.842 22.2096C193.317 21.8928 193.57 20.3402 193.158 20.0867C192.905 19.9283 192.873 20.0234 193.032 20.4669Z" fill="white"/>
<path d="M168.887 20.7521C167.842 21.3224 167.303 21.8611 167.842 21.8611C168.095 21.8611 168 22.1779 167.588 22.7799C166.701 23.984 166.733 24.8078 167.62 23.7622L168.285 22.97L168.127 23.8572C168 24.4276 168.095 24.681 168.317 24.6177C168.507 24.5543 168.697 24.0473 168.761 23.5087C168.887 22.368 168.982 22.3047 169.648 22.9384C170.091 23.4136 169.933 24.3642 169.331 24.7761C169.014 24.9979 170.408 25.6633 171.2 25.6633C171.834 25.6633 171.39 24.3959 170.598 24.0473L169.933 23.7305L170.598 23.8572C171.169 23.984 171.264 23.8255 171.295 23.0017C171.327 22.1146 171.295 22.0512 170.883 22.6215C170.63 22.9384 170.313 23.0968 170.155 23.0017C169.648 22.6849 169.394 21.164 169.774 20.9105C170.44 20.4986 169.648 20.3719 168.887 20.7521Z" fill="white"/>
<path d="M197.246 20.8155C197.119 20.9105 197.024 21.2274 197.024 21.4809C197.024 21.8611 197.119 21.8611 197.499 21.5442C198.26 20.9105 198.038 21.6076 197.183 22.5898C196.549 23.3186 196.295 23.4137 195.788 23.1602C194.965 22.7166 194.679 23.4453 195.313 24.3642C195.852 25.093 196.707 25.2197 197.278 24.6494C197.563 24.3642 197.816 24.3959 198.45 24.7127C199.084 25.0613 199.4 25.0613 200.066 24.7444C200.668 24.4909 201.016 24.4593 201.27 24.7127C201.809 25.2514 202.094 25.093 202.094 24.2375C202.094 23.7939 201.872 23.3503 201.618 23.2552C201.175 23.0651 201.206 23.0017 201.682 22.6532C202.22 22.273 202.189 22.2096 201.397 22.0195C200.921 21.8928 200.383 21.8928 200.193 22.0195C199.907 22.2096 199.907 22.0829 200.161 21.5759C200.478 21.0373 200.446 20.8789 200.034 20.7204C199.781 20.5937 199.337 20.6887 199.115 20.8789C198.798 21.1323 198.608 21.164 198.45 20.9105C198.228 20.562 197.563 20.4986 197.246 20.8155ZM200.034 23.1285C199.812 23.5087 198.703 23.5404 198.482 23.1919C198.418 23.0651 198.767 22.9067 199.274 22.875C199.876 22.8116 200.161 22.9384 200.034 23.1285Z" fill="white"/>
<path d="M185.363 21.3224C184.603 21.6075 184.413 21.7977 184.698 22.0828C184.951 22.3363 184.951 22.5898 184.698 23.0651C184.223 23.9522 184.254 24.7127 184.793 24.7127C185.268 24.7127 185.617 24.0473 185.617 23.1601C185.617 22.8433 185.902 22.2096 186.282 21.7343C187.011 20.8154 186.884 20.7837 185.363 21.3224Z" fill="white"/>
<path d="M193.222 22.8123C193.222 22.9704 193.38 23.1285 193.57 23.1285C193.729 23.1285 193.792 22.9704 193.697 22.8123C193.602 22.6226 193.443 22.4961 193.348 22.4961C193.285 22.4961 193.222 22.6226 193.222 22.8123Z" fill="white"/>
<path d="M174.369 23.477C174.242 23.8256 173.735 24.2692 173.228 24.4593C172.246 24.8078 171.993 25.3464 172.785 25.3464C173.133 25.3464 173.007 25.79 172.246 27.2475C171.264 29.117 171.232 29.9091 172.119 29.1803C172.373 28.9902 172.658 28.4516 172.753 28.008C173.038 26.9624 173.767 27.2159 173.64 28.2932C173.577 28.7684 173.672 29.1486 173.862 29.1486C174.274 29.1486 174.654 27.9129 174.591 26.7723C174.527 25.8534 174.527 25.8534 175.003 26.4554C175.478 27.0574 175.51 27.0574 176.048 26.4871C176.333 26.1386 176.397 25.9801 176.175 26.1069C175.636 26.4237 175.066 24.8395 175.478 24.1107C175.668 23.7305 175.636 23.4137 175.415 23.1919C174.876 22.6532 174.591 22.7166 174.369 23.477Z" fill="white"/>
<path d="M172.405 23.9841C172.405 24.2691 172.532 24.3008 172.848 24.0475C173.07 23.8574 173.26 23.6674 173.26 23.6041C173.26 23.5724 173.07 23.5408 172.848 23.5408C172.595 23.5408 172.405 23.7308 172.405 23.9841Z" fill="white"/>
<path d="M176.429 23.8893C176.429 24.5227 176.872 24.776 177.569 24.491C178.076 24.301 178.076 24.2693 177.506 23.8576C176.777 23.3193 176.429 23.3193 176.429 23.8893Z" fill="white"/>
<path d="M144.902 24.5546L136.347 24.9346L148.831 24.9029C158.526 24.8712 161.346 24.7762 161.473 24.4595C161.631 23.9845 157.449 24.0162 144.902 24.5546Z" fill="white"/>
<path d="M179.248 24.7761C179.216 24.9979 179.216 25.2831 179.216 25.3781C179.248 25.5049 178.773 25.695 178.203 25.79C177.601 25.9168 176.935 26.2336 176.713 26.5188C176.301 26.9624 176.365 27.0257 177.125 26.8673L178.012 26.7089L177.062 28.3565C176.523 29.2754 176.111 30.1942 176.111 30.3843C176.111 31.0814 176.745 30.7012 177.252 29.6873C177.917 28.3882 177.917 28.4199 178.298 28.6733C178.551 28.8001 178.551 29.0535 178.298 29.5287C178.076 29.9406 178.044 30.2576 178.266 30.4794C178.709 30.923 179.343 29.6556 179.216 28.5783C179.153 27.9763 179.28 27.7228 179.597 27.7228C180.357 27.6911 180.864 27.2475 180.864 26.5821C180.864 26.2336 180.737 26.0435 180.547 26.1386C179.945 26.5188 179.533 25.9484 180.104 25.5365C180.389 25.3147 180.547 24.9662 180.42 24.7761C180.104 24.2691 179.28 24.3008 179.248 24.7761Z" fill="white"/>
<path d="M166.068 24.9346C165.846 24.9979 165.656 25.2831 165.656 25.5366C165.656 25.79 165.846 25.8851 166.131 25.79C166.987 25.4415 166.638 25.9168 165.529 26.5505C164.547 27.1208 164.42 27.1525 163.945 26.6772C163.66 26.3921 163.438 26.297 163.406 26.4554C163.406 26.6455 163.343 27.0574 163.28 27.406C163.089 28.3882 163.723 28.8635 164.864 28.6417C165.497 28.5466 165.973 28.61 166.131 28.8001C166.226 28.9902 166.48 29.0853 166.638 28.9585C166.797 28.8635 166.892 28.9585 166.86 29.212C166.797 29.4972 167.05 29.5922 167.747 29.5289C168.412 29.4655 168.793 29.5922 168.919 29.9408C169.046 30.2259 168.951 30.4161 168.698 30.4161C168.127 30.4161 167.842 31.1448 168.222 31.7151C168.476 32.0954 168.539 32.0954 168.824 31.6835C168.983 31.43 169.141 31.0181 169.141 30.7963C169.141 30.6062 169.3 30.4161 169.49 30.4161C169.648 30.4161 169.743 30.2893 169.648 30.1626C169.585 30.0358 169.616 29.719 169.775 29.4655C169.965 29.1487 169.87 28.8001 169.553 28.4516C169.078 27.9129 169.078 27.8813 169.553 27.8813C170.345 27.8813 170.187 27.2792 169.363 27.0891C168.856 26.9624 168.634 26.6772 168.634 26.202C168.666 25.695 168.508 25.5049 168.032 25.5683C167.684 25.5999 167.272 25.4098 167.145 25.1564C166.892 24.6811 166.701 24.6494 166.068 24.9346ZM168.064 27.9446C167.494 28.2615 166.828 28.008 167.082 27.5644C167.177 27.4377 167.557 27.3743 167.906 27.4694C168.508 27.6278 168.508 27.6911 168.064 27.9446ZM164.927 27.7545C164.832 27.8496 164.547 27.8813 164.325 27.7862C164.072 27.6911 164.167 27.5961 164.515 27.5961C164.864 27.5644 165.054 27.6595 164.927 27.7545Z" fill="white"/>
<path d="M181.625 25.5057C181.34 26.234 181.72 26.9307 182.417 26.9307C183.209 26.9307 183.494 26.4874 183.241 25.664C183.019 24.9356 181.878 24.809 181.625 25.5057Z" fill="white"/>
<path d="M170.726 27.2475C170.726 27.9445 170.789 28.5149 170.852 28.5149C170.947 28.5149 171.201 28.0713 171.486 27.5643C171.898 26.6771 171.898 26.5821 171.328 26.2969C170.789 25.9801 170.726 26.0751 170.726 27.2475Z" fill="white"/>
<path d="M158.78 28.9268C157.481 30.1942 156.879 31.2715 157.893 30.416C158.178 30.1942 158.463 30.0992 158.558 30.1942C158.685 30.2893 158.178 30.9863 157.449 31.7468C156.087 33.1409 156.214 33.9013 157.608 32.6023C158.558 31.7151 158.875 32.0002 158.463 33.4261C158.083 34.5984 158.463 35.2638 158.939 34.3133C159.097 33.9964 159.351 33.236 159.477 32.6339C159.826 31.018 160.555 29.7189 161.569 28.8951C162.677 28.0079 162.804 27.2792 161.727 27.9763C161.062 28.4198 160.935 28.4198 160.776 28.0396C160.523 27.3426 160.238 27.4693 158.78 28.9268Z" fill="white"/>
<path d="M175.352 28.3888C175.003 29.6872 175.573 29.8455 176.144 28.6421C176.619 27.6287 176.619 27.5654 176.112 27.5654C175.764 27.5654 175.478 27.8821 175.352 28.3888Z" fill="white"/>
<path d="M161.917 29.5289C161.473 29.9725 161.41 30.7329 161.821 30.7329C161.98 30.7329 162.17 30.5428 162.265 30.321C162.328 30.1309 162.519 30.0358 162.645 30.1626C162.772 30.2576 162.265 31.3349 161.568 32.5389C160.142 34.947 159.857 35.9609 160.903 35.0104C161.251 34.6935 161.6 34.1866 161.695 33.8697C161.821 33.5212 162.075 33.2677 162.328 33.2677C162.962 33.2677 163.121 34.0915 162.645 34.7569C162.075 35.4856 162.043 35.8025 162.614 35.8025C163.184 35.8025 163.849 34.1232 163.596 33.2994C163.501 32.9508 163.564 32.3488 163.754 32.0003C164.039 31.4617 164.198 31.3983 164.578 31.7151C164.927 32.0003 165.022 31.9686 165.022 31.5884C165.022 31.3032 164.768 30.923 164.483 30.7646C164.166 30.5745 164.103 30.416 164.325 30.416C164.832 30.416 164.832 29.1486 164.293 29.1486C164.071 29.1486 163.723 29.3071 163.532 29.4972C163.279 29.7507 163.121 29.7507 162.994 29.4972C162.709 29.0536 162.392 29.0536 161.917 29.5289Z" fill="white"/>
<path d="M172.373 29.9725C171.01 30.923 171.866 33.2994 173.577 33.2677C173.83 33.236 173.609 33.0459 173.07 32.8241C172.183 32.4439 172.088 32.2221 172.151 31.3032C172.214 30.4794 172.373 30.2576 172.912 30.2576C173.26 30.2576 173.577 30.0992 173.609 29.9408C173.64 29.4338 173.133 29.4338 172.373 29.9725Z" fill="white"/>
<path d="M174.559 30.543C174.781 31.018 175.034 31.2714 175.098 31.0497C175.193 30.828 175.003 30.448 174.686 30.163C174.21 29.6563 174.179 29.688 174.559 30.543Z" fill="white"/>
<path d="M165.877 31.1448C165.561 31.3349 165.244 32.0953 165.18 32.7924L165.022 34.0598L165.371 32.9508C165.529 32.3488 165.973 31.5884 166.353 31.2715C167.081 30.6695 166.701 30.5111 165.877 31.1448Z" fill="white"/>
<path d="M170.092 31.0186C170.092 31.1769 169.997 31.5253 169.902 31.8103C169.775 32.1586 169.902 32.2536 170.377 32.222C170.82 32.1903 171.011 32.032 170.884 31.7469C170.789 31.5253 170.725 31.1769 170.725 31.0186C170.725 30.8602 170.599 30.7336 170.409 30.7336C170.25 30.7336 170.092 30.8602 170.092 31.0186Z" fill="white"/>
<path d="M167.24 32.2222C167.24 33.141 167.05 33.7747 166.606 34.2183C166.258 34.5669 165.973 35.0738 165.973 35.3273C165.973 35.5808 165.814 35.8026 165.624 35.8026C165.402 35.8026 165.339 35.4857 165.497 34.9154C165.688 34.1233 165.656 34.0916 165.244 34.6936C164.674 35.454 164.895 36.1194 165.688 36.1194C166.226 36.1194 166.448 35.7709 166.226 35.359C166.163 35.2639 166.448 34.8837 166.828 34.4718C167.684 33.5529 168.032 32.2222 167.589 31.4617C167.335 30.9865 167.272 31.1449 167.24 32.2222Z" fill="white"/>
<path d="M191.162 30.7962C191.067 31.018 190.655 32.2537 190.243 33.4894L189.451 35.8024H200.636H211.789L212.613 33.1092L213.405 30.416H202.347C193.792 30.416 191.257 30.511 191.162 30.7962Z" fill="#FF2457"/>
<path d="M222.498 30.7012C220.312 31.0497 218.252 32.0319 216.7 33.4578C213.912 35.9609 213.215 35.8024 226.839 35.8024H238.911L238.689 34.5984C238.372 32.8874 237.707 32.0319 236.059 31.2715C234.76 30.7012 233.873 30.6061 229.342 30.5427C226.459 30.4794 223.385 30.5744 222.498 30.7012Z" fill="#FF2457"/>
<path d="M243.442 30.7963C243.347 31.0181 242.935 32.2538 242.524 33.4895L241.731 35.8025H244.868H247.973L248.797 33.3311C249.241 32.0003 249.621 30.7963 249.621 30.6379C249.621 30.226 243.601 30.3844 243.442 30.7963Z" fill="#FF2457"/>
<path d="M268.473 30.7328C268.283 31.018 266.73 35.4856 266.73 35.7074C266.73 35.7707 268.125 35.8024 269.836 35.8024H272.941L273.669 33.4894C274.081 32.2537 274.493 31.018 274.557 30.7962C274.747 30.3209 268.79 30.2259 268.473 30.7328Z" fill="#FF2457"/>
<path d="M283.555 30.7645C280.514 31.3032 278.074 32.729 276.521 34.8836L275.888 35.8024H287.928H300V34.8836C300 33.6162 298.764 31.9369 297.307 31.2398C296.229 30.7012 295.247 30.6061 290.653 30.5427C287.706 30.4794 284.506 30.5744 283.555 30.7645Z" fill="#FF2457"/>
<path d="M11.6038 32.0319C9.86113 32.6656 7.23128 34.6301 6.5659 35.8341C6.28073 36.4362 6.5659 36.4362 18.4161 36.4362H30.5514L31.3752 33.9014L32.199 31.3666L22.8203 31.3982C14.297 31.4299 13.2514 31.4616 11.6038 32.0319Z" fill="#FF2457"/>
<path d="M34.1002 33.9014L33.2764 36.4362H45.4751H57.7055L57.5154 35.2955C57.2302 33.6479 56.4698 32.6656 54.9806 31.9686C53.7765 31.4299 52.7943 31.3666 44.3027 31.3666H34.924L34.1002 33.9014Z" fill="#FF2457"/>
<path d="M66.9564 31.8102C66.2594 32.0319 65.3405 32.3805 64.9286 32.634C63.9464 33.1409 61.0947 35.8025 61.0947 36.151C61.0947 36.3094 66.4495 36.4362 73.0083 36.4362H84.9535L84.7634 35.1371C84.5733 33.5845 83.8762 32.729 82.1652 31.9686C81.0563 31.4616 80.074 31.3666 74.5608 31.3982C70.3784 31.3982 67.7803 31.5567 66.9564 31.8102Z" fill="#FF2457"/>
<path d="M88.9781 33.4894C88.5662 34.6617 88.186 35.8341 88.0909 36.0242C87.9959 36.341 90.5307 36.4361 100.195 36.4361C113.787 36.4361 112.869 36.5945 111.918 34.2182C111.601 33.426 110.999 32.6973 110.239 32.2537C109.13 31.5566 108.845 31.5249 99.3708 31.4299L89.6752 31.3348L88.9781 33.4894Z" fill="#FF2457"/>
<path d="M116.291 33.7113C115.911 35.0103 115.594 36.151 115.594 36.246C115.594 36.3411 120.568 36.4362 126.62 36.4362H137.646L138.47 33.9014L139.294 31.3666H128.141H116.956L116.291 33.7113Z" fill="#FF2457"/>
<path d="M173.26 31.684C173.26 31.8421 173.387 32.0002 173.545 32.0002C173.736 32.0002 173.957 31.8421 174.052 31.684C174.147 31.4943 174.021 31.3678 173.767 31.3678C173.482 31.3678 173.26 31.4943 173.26 31.684Z" fill="white"/>
<path d="M174.559 32.4124C174.147 33.0774 174.179 33.0774 174.718 32.5707C175.034 32.254 175.225 31.9373 175.129 31.874C175.034 31.779 174.781 32.0323 174.559 32.4124Z" fill="white"/>
<path d="M168.729 32.5073C168.634 32.6023 168.698 33.1093 168.888 33.6162C169.11 34.2816 169.11 34.9787 168.856 36.0243C168.634 36.8164 168.571 37.5452 168.666 37.6402C168.761 37.7353 168.824 37.5452 168.824 37.1966C168.856 36.5946 168.856 36.5946 169.3 37.1966C169.648 37.6402 169.68 37.9254 169.426 38.2422C169.236 38.464 169.141 38.9393 169.236 39.3195C169.331 39.6997 169.205 40.2067 168.888 40.5236C168.096 41.3474 167.557 42.3613 167.779 42.5831C167.905 42.6781 168.254 42.7732 168.571 42.7732C168.919 42.7732 169.141 42.995 169.141 43.3752C169.141 44.2307 169.965 44.7693 170.852 44.5475C171.771 44.3257 172.151 43.3752 171.708 42.488C171.232 41.6642 171.264 41.1573 171.771 41.284C171.961 41.3157 172.151 41.1256 172.151 40.8721C172.151 40.6186 171.929 40.3968 171.676 40.3968C171.423 40.3968 170.884 40.2701 170.472 40.1116C169.807 39.8899 169.775 39.7314 169.965 38.4007C170.187 36.753 171.042 34.8836 171.803 34.2499C172.5 33.6796 172.468 33.141 171.771 33.5529C171.391 33.743 171.137 33.7113 170.852 33.3311C170.535 32.8875 170.409 32.8875 169.965 33.236C169.521 33.5845 169.458 33.5845 169.458 33.1726C169.458 32.634 169.014 32.2221 168.729 32.5073ZM169.205 41.886C168.983 42.1078 168.824 42.1395 168.824 41.9494C168.824 41.5058 169.205 41.1256 169.426 41.3474C169.49 41.4424 169.395 41.6959 169.205 41.886ZM170.567 41.5058C170.662 41.6642 170.535 41.8226 170.282 41.8226C169.997 41.8226 169.775 41.6642 169.775 41.5058C169.775 41.3157 169.902 41.1889 170.06 41.1889C170.25 41.1889 170.472 41.3157 170.567 41.5058ZM171.518 42.7732C171.771 43.6287 171.137 44.4208 170.282 44.2941C169.616 44.199 169.268 43.4069 169.585 42.5831C169.838 41.886 171.296 42.0127 171.518 42.7732Z" fill="white"/>
<path d="M156.436 34.2816C156.404 34.5034 156.404 34.7886 156.436 34.947C156.467 35.0738 156.119 35.3272 155.707 35.4857C155.295 35.6441 154.82 36.1827 154.63 36.7214C154.376 37.3868 154.123 37.6402 153.806 37.5135C153.489 37.3868 153.267 37.5769 153.109 38.1472C153.014 38.5908 152.697 38.971 152.475 38.971C152.222 38.971 151.778 39.478 151.493 40.1117C151.018 41.0939 151.018 41.2523 151.398 41.5375C152 41.9177 153.299 40.5236 153.299 39.478C153.299 38.5908 154.376 37.4818 154.725 38.0205C155.073 38.5591 156.467 37.1016 156.467 36.2144C156.467 35.7708 156.689 35.2322 156.943 34.947C157.196 34.6935 157.355 34.345 157.26 34.1866C156.974 33.7747 156.467 33.838 156.436 34.2816Z" fill="white"/>
<path d="M173.386 34.345C173.513 34.7252 173.418 35.0737 173.196 35.2322C172.911 35.3906 172.943 35.4856 173.386 35.4856C173.735 35.4856 174.274 35.7074 174.59 36.0243C174.971 36.3411 175.161 36.4045 175.161 36.151C175.161 35.9292 175.288 35.8659 175.478 35.9609C175.668 36.056 175.699 35.9292 175.604 35.6758C175.509 35.3906 175.224 35.1688 174.971 35.1688C174.749 35.1688 174.242 34.8519 173.862 34.44C173.26 33.838 173.196 33.8063 173.386 34.345Z" fill="white"/>
<path d="M167.24 35.2956C167.24 35.6441 167.145 36.2778 167.05 36.658C166.733 37.8304 167.43 37.4818 168.095 36.1511L168.729 34.9154L167.968 34.7569C167.398 34.6619 167.24 34.7569 167.24 35.2956Z" fill="white"/>
<path d="M158.526 36.3728C158.431 36.658 158.526 37.0382 158.78 37.2283C159.002 37.3868 159.287 37.7987 159.414 38.0838C159.635 38.6542 161.22 38.9076 161.22 38.369C161.22 38.2106 161.473 38.1155 161.758 38.1472C162.107 38.1472 162.36 37.9254 162.424 37.5135C162.519 36.7847 161.695 36.3412 159.73 35.9926C159.002 35.8659 158.685 35.9609 158.526 36.3728ZM159.635 36.7531C159.635 36.9115 159.509 37.0699 159.319 37.0699C159.16 37.0699 159.002 36.9115 159.002 36.7531C159.002 36.563 159.16 36.4362 159.319 36.4362C159.509 36.4362 159.635 36.563 159.635 36.7531ZM162.17 37.4184C162.17 37.5769 162.043 37.7036 161.853 37.7036C161.695 37.7036 161.536 37.4818 161.536 37.1967C161.536 36.9432 161.695 36.8164 161.853 36.9115C162.043 37.0065 162.17 37.2283 162.17 37.4184Z" fill="white"/>
<path d="M173.451 36.9747C173.039 37.3866 172.817 37.45 172.722 37.1331C172.532 36.5945 171.359 36.6578 171.359 37.1965C171.359 37.45 171.486 37.7668 171.676 37.8619C171.866 37.9886 171.803 38.4005 171.518 39.0025C171.074 39.8263 171.359 40.365 171.835 39.6045C172.183 39.0342 172.532 39.256 172.944 40.2699C173.261 41.0304 173.261 41.3789 172.944 41.9809C172.373 43.0582 172.849 43.4067 173.641 42.4562C173.989 42.0126 174.211 41.3789 174.116 40.967C173.926 39.9531 174.338 40.0481 175.447 41.2522C175.986 41.8225 176.492 42.171 176.619 42.0443C176.999 41.6957 176.049 40.2066 175.257 39.8897C174.877 39.763 174.306 39.256 174.021 38.8124C173.546 38.052 173.546 37.9569 174.021 37.4183C174.94 36.4044 174.465 36.0241 173.451 36.9747Z" fill="white"/>
<path d="M163.596 37.0707C163.279 37.5774 164.103 38.4324 164.515 38.0207C164.99 37.5457 165.338 37.6407 165.148 38.1791C165.022 38.4958 165.148 38.6541 165.592 38.6541C166.606 38.6541 166.796 37.9891 165.972 37.324C165.212 36.6907 163.913 36.564 163.596 37.0707Z" fill="white"/>
<path d="M176.175 37.4818C175.985 37.7036 175.89 38.1789 175.953 38.4958C176.017 38.8443 176.08 39.2245 176.08 39.3196C176.143 39.8265 177.221 39.8899 177.886 39.4463C178.488 39.0661 178.583 38.8443 178.361 38.2423C178.203 37.8621 177.918 37.5769 177.728 37.6086C177.537 37.672 177.379 37.5452 177.379 37.3868C177.379 36.9432 176.555 37.0066 176.175 37.4818Z" fill="white"/>
<path d="M140.307 38.3692C130.675 38.7809 130.612 38.8759 139.959 38.8442C146.613 38.8126 148.672 38.7176 148.799 38.4009C148.862 38.1475 148.546 38.0209 147.69 38.0842C147.025 38.0842 143.698 38.2425 140.307 38.3692Z" fill="white"/>
<path d="M156.784 38.464C156.784 38.7492 156.499 38.8442 155.928 38.7175C155.105 38.5907 155.073 38.6224 155.643 39.0343C156.467 39.668 156.023 40.2384 154.724 40.2384C154.122 40.2384 153.552 40.3651 153.457 40.5552C153.33 40.7453 153.774 40.8721 154.566 40.8721C155.643 40.8721 155.897 40.9988 156.15 41.6642C156.34 42.2028 156.689 42.4563 157.164 42.4563C157.861 42.4246 157.861 42.4246 157.291 41.981C156.816 41.6325 156.784 41.379 157.006 40.6503C157.196 40.1116 157.513 39.7948 157.83 39.8581C158.083 39.8898 158.4 39.7948 158.527 39.6047C158.622 39.4462 158.432 39.2878 158.115 39.2878C157.639 39.2878 157.513 39.1294 157.639 38.6541C157.766 38.2105 157.639 38.0204 157.291 38.0204C157.006 38.0204 156.784 38.2105 156.784 38.464Z" fill="white"/>
<path d="M168.032 38.3379C167.937 38.496 168 38.6541 168.159 38.6541C168.349 38.6541 168.507 38.496 168.507 38.3379C168.507 38.1482 168.444 38.0217 168.381 38.0217C168.285 38.0217 168.127 38.1482 168.032 38.3379Z" fill="white"/>
<path d="M163.469 38.6224C162.582 39.1928 164.261 40.5552 165.529 40.3017C165.719 40.2701 165.814 40.6186 165.719 41.1572C165.655 41.6642 165.719 42.1395 165.909 42.2662C166.067 42.3613 166.131 42.1078 166.035 41.6642C165.972 41.2206 166.067 40.682 166.257 40.4602C166.511 40.1433 166.479 39.8582 166.131 39.4146C165.75 38.8759 165.624 38.8759 164.99 39.2245C164.388 39.6047 164.325 39.6047 164.483 39.1928C164.705 38.6541 164.039 38.2739 163.469 38.6224Z" fill="white"/>
<path d="M159.414 39.9222C159.319 40.2705 159.097 40.5555 158.939 40.5555C158.78 40.5555 158.748 40.6822 158.844 40.8722C158.939 41.0306 159.35 41.1889 159.731 41.1572C160.111 41.1572 160.238 41.0622 160.048 40.9672C159.794 40.8722 159.699 40.5239 159.826 40.0488C159.921 39.6372 159.921 39.2888 159.794 39.2888C159.667 39.2888 159.509 39.5738 159.414 39.9222Z" fill="white"/>
<path d="M160.776 39.8906C160.522 40.2706 160.871 41.189 161.251 41.189C161.41 41.189 161.536 41.0623 161.536 40.904C161.536 40.7456 161.631 40.3973 161.726 40.1122C161.948 39.5739 161.093 39.3839 160.776 39.8906Z" fill="white"/>
<path d="M179.375 40.0803C179.09 40.872 179.502 40.9987 179.914 40.2703C180.136 39.7953 180.136 39.6053 179.914 39.6053C179.724 39.6053 179.502 39.827 179.375 40.0803Z" fill="white"/>
<path d="M185.966 46.5437C184.73 50.3775 183.716 53.5777 183.716 53.6728C183.716 53.7995 185.11 53.8312 186.79 53.7995L189.863 53.7045L191.289 49.3319L192.683 44.9911H200.699H208.684L209.508 42.5197C209.951 41.1889 210.332 39.9849 210.332 39.8264C210.332 39.6997 205.357 39.6047 199.274 39.6047H188.184L185.966 46.5437Z" fill="rgb(7, 141, 238)"/>
<path d="M211.916 43.5969C209.856 49.7438 210.268 52.1202 213.658 53.3876C214.767 53.8312 216.13 53.8945 221.611 53.7995C229.152 53.7044 229.945 53.4826 232.669 50.9795C234.507 49.2685 235.173 48.0328 236.662 43.3118L237.834 39.6046H234.697H231.592L230.483 43.185C229.628 45.9099 229.121 46.9872 228.392 47.6843C227.41 48.6348 227.41 48.6348 222.974 48.7299C216.669 48.8883 216.447 48.6031 218.38 42.8365L219.488 39.6046H216.352H213.247L211.916 43.5969Z" fill="rgb(7, 141, 238)"/>
<path d="M238.404 46.3218C237.232 49.9973 236.187 53.1975 236.091 53.4509C235.965 53.7995 237.961 53.8629 247.023 53.8629H258.113L258.841 51.7083C259.222 50.5359 259.602 49.3953 259.697 49.1735C259.792 48.8883 258.113 48.7933 251.871 48.7933C247.498 48.7933 243.918 48.6665 243.918 48.5398C243.918 48.413 244.551 46.3852 245.343 44.0405C246.136 41.6958 246.769 39.763 246.769 39.6997C246.769 39.6363 245.375 39.6046 243.664 39.6046H240.559L238.404 46.3218Z" fill="rgb(7, 141, 238)"/>
<path d="M263.245 46.5119C262.041 50.2825 261.027 53.5143 261.027 53.6411C261.027 53.7678 262.421 53.8312 264.101 53.7995L267.174 53.7044L269.456 46.6387L271.705 39.6046H268.6H265.495L263.245 46.5119Z" fill="rgb(7, 141, 238)"/>
<path d="M273.068 43.8821C271.167 49.8072 271.484 51.8984 274.43 53.2608C275.603 53.7678 276.553 53.8629 281.971 53.8629C288.847 53.8629 290.273 53.6094 292.808 51.9301C294.962 50.5042 296.135 48.6032 297.687 43.9138C298.448 41.6325 299.05 39.7314 299.05 39.6997C299.05 39.6363 297.656 39.6046 295.945 39.6046H292.839L291.921 42.5196C290.083 48.4447 289.639 48.7933 283.777 48.7933C279.5 48.7933 278.454 48.4447 278.454 47.0823C278.454 46.7021 278.961 44.896 279.563 43.09C280.165 41.2839 280.672 39.763 280.672 39.6997C280.672 39.6363 279.278 39.6046 277.567 39.6046H274.462L273.068 43.8821Z" fill="rgb(7, 141, 238)"/>
<path d="M162.677 40.429C162.392 41.2207 162.455 41.5057 162.93 41.5057C163.532 41.5057 163.817 41.0624 163.564 40.429C163.31 39.7957 162.93 39.7957 162.677 40.429Z" fill="white"/>
<path d="M167.24 40.0489C167.24 40.1122 167.462 40.2703 167.747 40.3652C168 40.46 168.127 40.4284 168.032 40.2387C167.842 39.9225 167.24 39.796 167.24 40.0489Z" fill="white"/>
<path d="M4.82283 41.0938C4.8862 41.4107 5.07631 42.0127 5.17136 42.4563C5.86843 44.896 8.05469 45.6248 14.8353 45.6248C19.3029 45.6248 19.8732 45.6881 20.3485 46.2268C20.792 46.7337 20.8237 46.9555 20.4752 47.6526C19.7464 49.3319 19.0811 49.427 9.98747 49.427H1.65433L0.925576 51.7083C0.513671 52.9757 0.101767 54.2114 0.00671205 54.4332C-0.120028 54.7817 1.4959 54.8451 9.32209 54.75C18.3523 54.6233 18.8909 54.5916 20.6653 53.8945C24.4358 52.4053 27.1924 48.7616 27.1924 45.2762C27.1924 43.7554 27.034 43.2801 26.3369 42.4246C24.816 40.6185 24.3408 40.5552 14.0431 40.5552C5.26641 40.5552 4.6644 40.5869 4.82283 41.0938Z" fill="rgb(7, 141, 238)"/>
<path d="M31.7863 40.9354C31.7229 41.1572 30.7407 44.199 29.6 47.6843C28.4593 51.1696 27.5088 54.2114 27.5088 54.4332C27.5088 54.7184 28.3326 54.8134 30.4872 54.8134H33.4972L35.0181 50.2191L36.5073 45.6248H42.2423C46.3613 45.6248 48.5159 45.498 49.8467 45.1495C51.9696 44.6109 54.5677 42.9632 55.645 41.5057L56.3738 40.5552H44.1434C34.6379 40.5552 31.913 40.6502 31.7863 40.9354Z" fill="rgb(7, 141, 238)"/>
<path d="M57.9272 44.8327C56.0894 50.631 56.3429 52.3737 59.2896 53.9262C60.557 54.6233 60.9689 54.655 67.1158 54.655C73.1043 54.6233 73.738 54.5916 75.3856 53.9262C77.3817 53.1341 79.7264 51.233 80.7087 49.6171C81.1839 48.8567 83.9088 41.2206 83.9088 40.6502C83.9088 40.5869 82.5147 40.5552 80.8037 40.5552H77.6669L76.6213 43.9455C75.8292 46.5753 75.3539 47.5893 74.5618 48.3814L73.5162 49.427H68.9535C64.8979 49.427 64.2958 49.3636 63.8523 48.8567C63.5354 48.5398 63.3136 48.0962 63.3136 47.9061C63.3136 47.5893 64.9612 42.2028 65.4365 40.9671C65.5632 40.6502 64.8345 40.5552 62.4581 40.5552H59.3213L57.9272 44.8327Z" fill="rgb(7, 141, 238)"/>
<path d="M86.4749 41.3156C85.8096 42.9949 82.3242 54.0847 82.3242 54.4332C82.3242 54.6867 83.2114 54.8134 85.3026 54.8134H88.3127L89.7702 50.2191C91.196 45.7198 91.2277 45.6248 92.1149 45.6248C92.9387 45.6248 93.3506 46.1001 96.1389 50.2191L99.2757 54.8134H103.014C105.042 54.8134 106.722 54.7184 106.722 54.5599C106.722 54.4332 105.454 52.4054 103.87 50.0607L101.018 45.7832L103.268 45.3713C104.535 45.1495 106.12 44.6742 106.848 44.294C108.147 43.6603 110.841 41.2839 110.841 40.8087C110.841 40.6819 105.423 40.5552 98.8004 40.5552H86.7601L86.4749 41.3156Z" fill="rgb(7, 141, 238)"/>
<path d="M119.934 47.209C118.762 50.8528 117.716 54.053 117.621 54.3381C117.463 54.75 117.875 54.8134 120.568 54.8134H123.705L125.859 48.0962C127.032 44.4207 128.077 41.2206 128.172 40.9671C128.299 40.6502 127.665 40.5552 125.194 40.5552H122.057L119.934 47.209Z" fill="rgb(7, 141, 238)"/>
<path d="M180.04 41.0307C179.534 41.4107 179.534 41.4741 179.945 41.5057C180.231 41.5057 180.643 41.2841 180.864 41.0307C181.371 40.429 180.864 40.429 180.04 41.0307Z" fill="white"/>
<path d="M177.538 42.0761C177.031 42.6781 176.619 43.3118 176.651 43.4702C176.714 43.597 176.492 43.597 176.207 43.5019C175.922 43.3752 175.542 43.5336 175.288 43.8821C175.035 44.199 174.845 44.3257 174.845 44.1356C174.845 43.9455 174.623 43.7237 174.369 43.597C174.053 43.4702 173.894 43.6286 173.894 44.0406C173.894 44.3891 173.989 44.6426 174.148 44.6426C174.813 44.5158 174.845 44.7376 174.179 45.308C173.767 45.6248 173.577 45.91 173.767 45.9417C173.957 45.9417 174.369 45.6565 174.686 45.308C175.003 44.9594 175.352 44.7693 175.478 44.8327C175.605 44.9277 176.144 44.5475 176.714 44.0406C177.253 43.5019 178.013 43.09 178.393 43.09C178.805 43.09 179.312 42.9633 179.566 42.8048C179.946 42.5514 179.946 42.3929 179.471 41.6959C179.185 41.2523 178.837 40.8721 178.71 40.9037C178.583 40.9037 178.076 41.4424 177.538 42.0761Z" fill="white"/>
<path d="M149.686 41.474C149.559 41.6324 149.591 42.0126 149.718 42.3612C149.908 42.8681 149.876 42.8681 149.401 42.4879C149.084 42.2344 148.799 42.1077 148.736 42.1711C148.672 42.2344 148.989 42.583 149.433 42.8998C149.876 43.2483 150.13 43.3751 150.035 43.185C149.908 42.9949 150.035 42.7731 150.288 42.6463C150.89 42.4245 150.922 41.1888 150.32 41.1888C150.066 41.1888 149.781 41.3156 149.686 41.474Z" fill="white"/>
<path d="M153.426 41.5379C153.33 41.7279 153.394 42.0446 153.584 42.2346C153.837 42.4879 153.932 42.3929 153.932 41.8862C153.932 41.1262 153.774 40.9995 153.426 41.5379Z" fill="white"/>
<path d="M154.566 42.0129C154.566 42.2663 154.724 42.3929 154.883 42.2979C155.073 42.2029 155.2 41.9812 155.2 41.7912C155.2 41.6329 155.073 41.5062 154.883 41.5062C154.724 41.5062 154.566 41.7279 154.566 42.0129Z" fill="white"/>
<path d="M146.772 42.3298C146.17 42.8048 146.17 42.8048 146.804 42.5198C147.152 42.3614 147.659 42.1398 147.913 42.0448C148.324 41.8864 148.324 41.8547 147.881 41.8547C147.627 41.8231 147.12 42.0448 146.772 42.3298Z" fill="white"/>
<path d="M174.845 42.4566C174.845 43.0583 175.478 43.3116 175.89 42.8682C176.144 42.6466 175.542 41.8232 175.13 41.8232C174.971 41.8232 174.845 42.1082 174.845 42.4566Z" fill="white"/>
<path d="M180.548 42.1401C180.168 42.3931 180.199 42.4563 180.77 42.4563C181.15 42.4563 181.562 42.2982 181.657 42.1401C181.91 41.729 181.182 41.729 180.548 42.1401Z" fill="white"/>
<path d="M151.714 42.5513C152.791 43.0266 152.76 42.9949 152.475 43.4385C152.316 43.7237 152.126 43.6603 151.841 43.2484C151.239 42.4246 150.922 42.8999 151.366 43.9771C151.683 44.7376 151.651 45.2129 151.112 46.8288C150.288 49.2368 150.257 49.9973 150.922 49.427C151.302 49.1101 151.397 49.1418 151.397 49.5854C151.397 50.8211 152.158 49.7121 152.665 47.6843C153.045 46.1951 153.457 45.3079 153.996 44.8643C155.453 43.6286 155.358 43.1533 153.552 42.6147C151.651 42.0444 150.542 42.0127 151.714 42.5513ZM154.186 43.3751C154.534 43.5969 154.534 43.6603 154.186 43.787C153.964 43.8821 153.584 43.7553 153.362 43.5336C153.045 43.185 153.045 43.09 153.362 43.09C153.584 43.09 153.964 43.2167 154.186 43.3751Z" fill="white"/>
<path d="M158.114 42.5197C157.322 43.3118 157.924 44.6743 159.065 44.6743C159.92 44.6743 160.332 43.3752 159.667 42.8365C159.382 42.583 159.35 42.5197 159.603 42.6464C159.889 42.8048 159.984 42.7415 159.825 42.5197C159.54 42.0444 158.589 42.0444 158.114 42.5197Z" fill="white"/>
<path d="M155.707 43.249C155.39 44.104 155.485 44.3257 156.15 44.2623C156.626 44.2307 156.784 44.0407 156.721 43.5973C156.594 42.8056 155.96 42.5839 155.707 43.249Z" fill="white"/>
<path d="M180.991 43.4387C180.896 43.5971 180.991 43.9456 181.181 44.1991C181.371 44.4526 181.466 44.7694 181.403 44.9278C181.308 45.0546 181.498 45.815 181.846 46.5755C182.448 47.9062 182.448 48.0013 181.941 48.3815C181.244 48.8885 181.656 49.3637 182.385 48.8885C182.67 48.6984 182.924 48.1914 182.924 47.7161C182.892 47.2408 183.082 46.8923 183.304 46.8923C183.526 46.8923 183.716 47.1141 183.716 47.3676C183.716 47.6211 183.938 47.8429 184.191 47.8429C184.825 47.8429 184.445 46.9557 183.431 45.9418L182.607 45.1496L183.494 45.0546C184.635 44.9278 184.286 44.3575 183.05 44.3575C182.48 44.3575 182.132 44.1991 182.132 43.9139C182.132 43.3753 181.276 42.9951 180.991 43.4387Z" fill="white"/>
<path d="M147.596 43.8824C147.596 44.1357 147.817 44.3573 148.071 44.3573C148.324 44.3573 148.546 44.1357 148.546 43.8824C148.546 43.6291 148.324 43.4073 148.071 43.4073C147.817 43.4073 147.596 43.6291 147.596 43.8824Z" fill="white"/>
<path d="M178.964 43.6925C178.964 43.9776 179.661 44.6743 179.978 44.6743C180.548 44.6743 180.2 43.5342 179.598 43.5025C179.249 43.4709 178.964 43.5659 178.964 43.6925Z" fill="white"/>
<path d="M172.31 44.1676C172.31 44.7059 172.753 45.086 173.038 44.8009C173.292 44.5476 172.943 43.7242 172.595 43.7242C172.436 43.7242 172.31 43.9142 172.31 44.1676Z" fill="white"/>
<path d="M150.161 44.5477C150.161 44.8961 150.257 44.9911 150.352 44.7377C150.447 44.516 150.415 44.231 150.32 44.136C150.225 44.0094 150.13 44.1994 150.161 44.5477Z" fill="white"/>
<path d="M177.537 44.643C177.284 45.118 177.632 45.6247 178.203 45.6247C178.488 45.6247 178.646 45.403 178.583 45.0864C178.456 44.453 177.822 44.1996 177.537 44.643Z" fill="white"/>
<path d="M144.933 45.3713C144.585 46.7337 144.68 46.9872 145.536 46.7654C146.454 46.5436 146.486 46.6704 145.852 48.4764C145.377 49.8072 145.472 50.5676 146.042 50.2191C146.201 50.0924 146.328 50.1874 146.328 50.3458C146.328 50.5359 146.454 50.6944 146.644 50.6944C146.803 50.6944 147.215 49.8389 147.5 48.7616L148.039 46.8288L148.577 47.5892C149.243 48.4764 149.655 48.1596 149.94 46.5753L150.098 45.4663L149.75 46.4803C149.211 48.1279 148.831 47.811 148.482 45.4663C148.324 44.5158 147.151 44.4841 146.518 45.4347C145.821 46.5436 144.965 46.5436 145.25 45.4663C145.345 45.0228 145.377 44.6742 145.282 44.6742C145.219 44.6742 145.06 44.9911 144.933 45.3713Z" fill="white"/>
<path d="M156.688 45.1817C156.245 45.6251 156.467 46.2901 157.037 46.1951C157.322 46.1318 157.576 45.8784 157.576 45.6567C157.576 45.15 157.005 44.865 156.688 45.1817Z" fill="white"/>
<path d="M153.742 45.7838C153.615 46.0688 153.678 46.4488 153.868 46.6388C154.344 47.1138 155.263 46.6705 155.136 46.0371C155.009 45.3088 153.995 45.1187 153.742 45.7838Z" fill="white"/>
<path d="M158.78 46.0373C157.988 46.3856 157.545 47.209 158.147 47.209C158.527 47.209 159.794 45.974 159.573 45.7839C159.509 45.7523 159.161 45.8473 158.78 46.0373Z" fill="white"/>
<path d="M178.868 46.1951C178.298 46.8288 178.139 48.0011 178.646 47.6843C178.836 47.5892 178.963 47.2407 178.963 46.8922C178.963 46.5753 179.153 46.2585 179.407 46.1634C179.724 46.0367 179.914 46.3218 180.072 47.0823C180.199 47.7793 180.389 48.0962 180.611 47.9695C180.801 47.8427 180.864 47.8744 180.769 48.0645C180.674 48.2229 180.104 48.318 179.533 48.2863C178.551 48.2229 178.52 48.2546 179.09 48.6665C179.85 49.2052 180.294 49.2369 180.928 48.6982C181.593 48.1596 181.783 47.4942 181.466 46.607C181.276 46.1317 181.023 45.9416 180.674 46.0684C180.421 46.1634 180.294 46.1317 180.389 45.9416C180.738 45.3713 179.407 45.6248 178.868 46.1951ZM181.086 46.7654C180.991 46.8605 180.706 46.8922 180.484 46.7971C180.231 46.7021 180.326 46.607 180.674 46.607C181.023 46.5753 181.213 46.6704 181.086 46.7654ZM181.403 47.3991C181.308 47.4942 181.023 47.5259 180.801 47.4308C180.547 47.3358 180.642 47.2407 180.991 47.2407C181.34 47.209 181.53 47.3041 181.403 47.3991Z" fill="white"/>
<path d="M155.231 46.9555C154.946 47.7476 154.788 47.8744 154.598 47.5575C154.439 47.304 154.091 47.209 153.806 47.304C153.52 47.4308 153.299 47.3357 153.299 47.1456C153.299 46.9555 153.203 46.8605 153.108 46.9872C152.697 47.3991 153.362 48.4764 154.027 48.4764C154.661 48.4764 154.629 48.5398 153.774 49.1101C152.918 49.6804 152.887 49.7438 153.52 49.7438C153.901 49.7438 154.503 49.3953 154.819 48.9517C155.516 48.0645 156.023 48.3497 155.675 49.4269C155.548 49.7755 155.612 50.0606 155.77 50.0606C156.245 50.0606 156.499 49.1418 156.277 48.2863C156.119 47.716 156.214 47.5258 156.594 47.5258C157.259 47.5258 157.227 47.1139 156.53 46.4802C155.738 45.7515 155.643 45.7832 155.231 46.9555Z" fill="white"/>
<path d="M174.654 46.4488C174.084 46.8921 174.084 46.9238 174.781 46.5755C175.161 46.3854 175.478 46.1638 175.478 46.1004C175.478 45.8471 175.32 45.9104 174.654 46.4488Z" fill="white"/>
<path d="M172.087 47.3991C171.517 48.0328 171.105 48.6665 171.2 48.7933C171.264 48.92 172.056 48.7933 172.911 48.5398L174.495 48.0328L173.957 47.1456C173.672 46.6704 173.355 46.2585 173.26 46.2585C173.165 46.2585 172.626 46.7654 172.087 47.3991Z" fill="white"/>
<path d="M177.062 46.7657C177.062 47.304 177.76 47.209 177.95 46.639C178.013 46.4173 177.855 46.259 177.569 46.259C177.284 46.259 177.062 46.4806 177.062 46.7657Z" fill="white"/>
<path d="M175.003 47.5265C174.908 47.6846 175.098 47.8427 175.446 47.8427C175.827 47.8427 176.112 47.6846 176.112 47.5265C176.112 47.3368 175.922 47.2103 175.668 47.2103C175.415 47.2103 175.098 47.3368 175.003 47.5265Z" fill="white"/>
<path d="M143.793 48.0015C143.793 48.2865 143.951 48.4132 144.142 48.2865C144.332 48.1915 144.585 48.2232 144.712 48.4132C144.839 48.6349 145.092 48.6665 145.377 48.4765C145.916 48.1282 145.789 48.0015 144.68 47.7165C143.983 47.5581 143.793 47.6215 143.793 48.0015Z" fill="white"/>
<path d="M176.777 48.2546C176.429 49.1418 175.193 49.9973 173.894 50.2825C172.468 50.5676 172.278 51.138 173.672 50.9162C175.098 50.6944 175.193 50.9162 173.894 51.3598C173.387 51.5499 172.943 51.8667 172.943 52.0251C172.943 52.5004 174.369 52.0568 175.731 51.2013C176.365 50.7894 177.442 50.3458 178.108 50.2508C179.153 50.0607 179.502 49.427 178.551 49.427C178.044 49.427 177.316 48.223 177.538 47.8427C177.664 47.6526 177.569 47.5259 177.379 47.5259C177.189 47.5259 176.935 47.8427 176.777 48.2546Z" fill="white"/>
<path d="M169.458 48.318C169.458 48.6032 169.173 48.7933 168.698 48.7933C167.811 48.7933 167.272 49.3953 167.874 49.7438C168.381 50.0607 168.317 50.1556 167.209 51.3596C166.416 52.2151 166.195 52.3102 165.941 51.93C165.561 51.328 165.719 50.9161 166.416 50.821C167.177 50.7259 167.367 50.5043 167.113 49.8706C166.987 49.5537 166.733 49.4269 166.416 49.5536C166.131 49.6487 165.434 49.4587 164.864 49.1101L163.818 48.4763L162.994 49.4586C162.487 50.0606 162.171 50.2507 162.171 49.9338C162.171 49.3635 160.967 48.4763 160.27 48.508C160.016 48.508 160.174 48.6665 160.681 48.8566C161.632 49.2052 162.139 50.4409 161.569 51.138C161.378 51.3597 161.283 51.6132 161.378 51.6766C161.442 51.7717 161.03 51.7717 160.428 51.7083C159.541 51.6132 159.256 51.3914 159.097 50.7577C159.002 50.3141 159.097 49.6804 159.319 49.3002C159.699 48.6982 159.667 48.6664 159.256 49.0466C158.97 49.2684 158.685 49.712 158.59 50.0606C158.4 50.7576 159.161 51.9618 159.826 51.9618C160.079 51.9618 160.27 52.1201 160.27 52.3102C160.27 52.4686 160.396 52.5321 160.586 52.437C160.745 52.342 160.808 52.4369 160.713 52.7221C160.491 53.2607 161.41 53.8311 162.297 53.6727C162.646 53.641 163.121 53.8628 163.375 54.2113C164.008 55.1302 165.624 54.9085 166.258 53.8312C168.127 50.8211 168.698 50.4409 168.317 52.437C168.191 53.1975 168.222 53.2925 168.634 52.944C168.92 52.7222 169.078 52.2151 169.015 51.8349C168.888 51.0111 169.363 50.3458 169.933 50.5676C170.155 50.6627 170.504 50.4409 170.726 50.0923C171.011 49.5537 170.979 49.4269 170.567 49.4269C170.028 49.4269 169.933 48.92 170.409 48.6348C170.821 48.3814 170.504 47.8427 169.902 47.8427C169.648 47.8427 169.458 48.0645 169.458 48.318ZM163.121 51.1696C162.899 51.4548 162.646 51.5815 162.551 51.4865C162.456 51.4231 162.583 51.1379 162.804 50.8527C163.026 50.5675 163.28 50.4409 163.375 50.5359C163.47 50.5993 163.343 50.8845 163.121 51.1696ZM165.339 51.1696C165.339 51.2647 165.054 51.328 164.705 51.328C164.357 51.328 164.072 51.1062 164.072 50.8527C164.072 50.4408 164.198 50.4092 164.705 50.6944C165.054 50.8845 165.339 51.1063 165.339 51.1696ZM165.593 52.0251C165.814 52.2469 165.973 52.6905 165.973 53.0707C165.973 54.4649 164.072 55.0669 163.438 53.8945C162.994 53.0391 163.026 52.7222 163.628 52.1519C164.198 51.5499 165.054 51.4865 165.593 52.0251ZM162.519 53.0074C162.202 53.2925 162.171 53.2607 162.361 52.8172C162.456 52.5003 162.646 52.342 162.741 52.437C162.836 52.5321 162.741 52.7856 162.519 53.0074Z" fill="white"/>
<path d="M174.021 48.8253C173.767 49.2686 174.369 49.8703 174.813 49.617C175.003 49.4903 175.161 49.1736 175.161 48.9203C175.161 48.4136 174.337 48.3186 174.021 48.8253Z" fill="white"/>
<path d="M172.499 49.0156C172.119 49.3956 172.309 50.0607 172.784 50.0607C173.038 50.0607 173.26 49.8706 173.26 49.6173C173.26 49.0789 172.816 48.7306 172.499 49.0156Z" fill="white"/>
<path d="M141.226 49.6488C140.814 50.1241 140.846 50.1557 141.511 49.9973C142.589 49.7122 142.335 50.1874 141.068 50.8211C140.244 51.2013 139.8 51.2647 139.579 51.0429C139.389 50.8528 139.103 50.6944 138.913 50.6944C138.755 50.6944 138.723 50.7894 138.818 50.9162C138.945 51.0112 138.882 51.2964 138.691 51.5182C138.185 52.1519 139.389 53.1975 140.434 53.0074C141.543 52.7856 142.304 53.4193 141.86 54.2114C141.638 54.6233 141.321 54.7817 140.846 54.655C140.054 54.4649 138.945 55.0669 139.579 55.3204C140.022 55.5105 139.769 56.3977 139.23 56.3977C138.66 56.3977 136.664 58.3938 137.107 58.5523C137.329 58.6156 138.026 58.2037 138.628 57.6334L139.769 56.5561L139.61 57.4116C139.515 57.8869 139.61 58.3305 139.8 58.4255C139.991 58.4889 139.832 58.5839 139.452 58.5839C138.66 58.6156 138.406 59.2493 139.167 59.2493C139.674 59.2493 140.086 58.7424 140.181 58.0453C140.307 57.2849 141.004 56.6512 141.353 56.9997C141.765 57.4116 142.842 56.8413 142.842 56.2076C142.842 55.9541 142.715 55.8274 142.525 55.9224C142.367 56.0175 142.208 55.9858 142.208 55.7957C142.208 55.6372 142.367 55.3838 142.525 55.2887C142.715 55.1937 142.842 54.8134 142.842 54.4649C142.842 53.6094 143.698 53.3559 144.395 53.9896C145.124 54.655 145.282 54.6233 145.472 53.8946C145.567 53.5144 145.345 52.9757 144.965 52.5955L144.331 51.8984L145.06 52.1202C145.567 52.2786 145.726 52.247 145.63 51.9301C145.535 51.6766 145.187 51.4548 144.807 51.3915C144.236 51.2964 144.141 51.138 144.3 50.4726C144.49 49.7122 144.458 49.6805 143.698 49.8072C143.191 49.9023 142.811 49.8072 142.715 49.5537C142.494 48.9517 141.733 49.0151 141.226 49.6488ZM143.793 51.9935C143.793 52.4371 142.652 52.342 142.24 51.8667C141.987 51.5182 142.082 51.4548 142.842 51.5816C143.381 51.6449 143.793 51.835 143.793 51.9935Z" fill="white"/>
<path d="M148.102 49.7121C147.373 50.536 147.912 51.6449 149.052 51.6449C150.161 51.6449 150.605 50.4092 149.718 49.6488C148.926 48.9517 148.767 48.9834 148.102 49.7121Z" fill="white"/>
<path d="M129.218 50.3781L125.257 50.5679L129.63 50.6311C132.355 50.6627 133.971 50.5679 133.971 50.3781C133.971 50.1884 133.781 50.0935 133.59 50.1252C133.369 50.1568 131.404 50.2833 129.218 50.3781Z" fill="white"/>
<path d="M170.535 50.8535C170.314 51.3919 170.916 52.2786 171.486 52.2786C172.215 52.2786 172.627 51.5819 172.278 50.9485C171.898 50.2518 170.789 50.1885 170.535 50.8535Z" fill="white"/>
<path d="M146.486 51.3601C146.17 51.8351 146.581 52.1518 146.993 51.7401C147.215 51.5184 147.215 51.3284 147.025 51.2017C146.835 51.1067 146.581 51.17 146.486 51.3601Z" fill="white"/>
<path d="M159.477 52.6274C159.16 53.1025 159.572 53.4192 159.984 53.0075C160.206 52.7858 160.206 52.5958 160.016 52.4691C159.826 52.3741 159.572 52.4374 159.477 52.6274Z" fill="white"/>
<path d="M137.393 53.4828C136.886 53.7679 136.506 54.1481 136.506 54.3383C136.506 54.4967 136.062 55.2254 135.555 55.8908C134.509 57.285 134.224 58.3622 135.111 57.6335C135.365 57.4117 135.872 56.7146 136.189 56.1126C136.727 55.0987 136.791 55.067 136.759 55.7641C136.727 56.2077 136.569 56.7463 136.411 56.9681C135.967 57.5384 136.411 57.8236 136.981 57.3483C137.298 57.0632 137.424 56.6513 137.329 56.2077C137.171 55.6057 137.329 55.3522 138.09 54.972C139.135 54.4333 139.326 54.0848 138.533 54.2432C138.217 54.3066 137.931 54.1481 137.836 53.8947C137.773 53.6412 137.836 53.5461 138.026 53.6729C138.185 53.7679 138.407 53.6412 138.533 53.3877C138.755 52.7857 138.47 52.7857 137.393 53.4828Z" fill="white"/>
<path d="M160.111 53.5466C159.889 53.9266 160.174 54.4967 160.618 54.4967C160.998 54.4967 160.998 53.6416 160.618 53.3883C160.46 53.2933 160.238 53.3566 160.111 53.5466Z" fill="white"/>
<path d="M162.582 55.4155C162.392 56.1442 161.537 56.271 160.618 55.7006C159.794 55.1937 158.939 55.6056 159.065 56.4611C159.129 57.0314 159.35 57.1898 160.111 57.1581C161.093 57.1264 161.125 57.1581 161.315 59.3127C161.347 59.5979 161.473 59.7563 161.6 59.6929C161.727 59.5979 161.854 59.6612 161.854 59.8514C161.854 60.0098 161.6 60.3266 161.315 60.4851C160.998 60.6752 160.903 60.8336 161.093 60.8336C161.663 60.8336 162.139 60.0731 162.044 59.4078C161.917 58.679 162.424 57.9186 162.867 58.1721C163.279 58.4572 164.072 57.6651 164.072 56.968C164.072 56.6512 163.945 56.4294 163.786 56.5561C163.596 56.6512 163.501 56.3343 163.533 55.8907C163.596 54.8451 162.836 54.4649 162.582 55.4155Z" fill="white"/>
<path d="M121.138 56.2395L112.583 56.6195L121.582 56.5878C128.489 56.5561 130.612 56.4611 130.739 56.1445C130.802 55.9228 130.612 55.7961 130.264 55.8278C129.947 55.8594 125.859 56.0494 121.138 56.2395Z" fill="white"/>
<path d="M109.035 56.9361C109.32 56.9997 109.827 56.9997 110.144 56.9361C110.429 56.8407 110.175 56.777 109.573 56.777C108.971 56.777 108.718 56.8407 109.035 56.9361Z" fill="white"/>
<path d="M159.794 59.1859C158.971 60.4533 158.876 61.1504 159.604 60.6751C160.111 60.39 160.967 58.6473 160.808 58.2037C160.745 58.0136 160.301 58.4255 159.794 59.1859Z" fill="white"/>
<path d="M133.495 60.4216C132.925 61.3722 132.608 61.594 132.006 61.4989C131.847 61.4989 131.752 61.6256 131.752 61.8158C131.752 62.0059 132.038 62.0692 132.45 61.9425C132.988 61.7524 133.083 61.8158 132.893 62.2593C132.45 63.4634 132.291 64.4139 132.608 64.2238C132.798 64.0971 133.178 64.2872 133.495 64.6357C134.129 65.3328 134.604 65.4595 134.604 64.9526C134.604 64.7625 134.319 64.509 134.002 64.3822C133.432 64.1604 133.432 64.0654 133.875 62.798C134.129 62.0376 134.287 60.9603 134.224 60.4216L134.129 59.4077L133.495 60.4216Z" fill="white"/>
<path d="M137.14 59.8203C137.14 59.9786 137.361 60.327 137.647 60.5487C138.09 60.9287 138.154 60.897 138.059 60.3903C137.932 59.7569 137.14 59.2819 137.14 59.8203Z" fill="white"/>
<path d="M136.094 60.9288C135.999 61.1505 136.189 61.3405 136.537 61.3722C136.918 61.4038 137.044 61.2772 136.918 60.9605C136.727 60.3905 136.316 60.3905 136.094 60.9288Z" fill="white"/>
<path d="M135.111 61.6263C134.984 62.133 134.763 62.3546 134.541 62.228C134.319 62.1013 134.287 62.133 134.414 62.3546C134.541 62.5763 134.763 62.7346 134.921 62.7346C135.206 62.7346 135.681 61.1512 135.46 60.9296C135.365 60.8662 135.206 61.1829 135.111 61.6263Z" fill="white"/>
<path d="M128.997 62.7032C128.68 63.2099 128.711 63.2732 129.25 63.1466C129.567 63.0516 129.852 62.7666 129.852 62.5449C129.852 61.9115 129.44 62.0065 128.997 62.7032Z" fill="white"/>
<path d="M130.264 63.305C130.169 63.6535 129.852 64.002 129.535 64.0971C128.774 64.2872 127.951 66.7903 128.553 67.1389C128.838 67.329 128.838 67.6141 128.616 68.2161C128.204 69.3251 127.887 69.3251 128.141 68.2161C128.331 67.5191 128.267 67.424 127.824 67.5824C127.507 67.7092 127.19 67.8042 127.127 67.8042C127.032 67.8042 127.063 67.931 127.158 68.1211C127.253 68.2795 127.158 68.4379 126.905 68.4379C126.24 68.4379 126.018 69.2301 126.493 69.8955C126.747 70.2123 127.127 70.3707 127.444 70.244C127.824 70.0856 127.951 70.244 127.951 70.846C127.951 71.4797 127.824 71.6381 127.444 71.4797C127.158 71.3846 126.873 71.2896 126.81 71.2896C126.747 71.2896 126.683 71.0678 126.683 70.8143C126.683 70.244 126.303 70.2123 125.796 70.7193C125.447 71.0678 125.669 71.6698 126.747 73.5075C126.905 73.761 127.095 74.2363 127.19 74.5215C127.444 75.2185 127.919 75.2502 128.141 74.6165C128.267 74.363 128.489 74.2363 128.679 74.363C128.869 74.4898 128.933 74.2997 128.838 73.8878C128.711 73.5075 128.774 73.1907 128.933 73.1907C129.091 73.1907 129.218 72.9689 129.218 72.7154C129.218 72.4619 129.091 72.2401 128.964 72.2401C128.838 72.2401 128.711 71.955 128.711 71.6381C128.711 71.2896 128.838 71.0995 128.996 71.1945C129.471 71.4797 130.105 70.6242 130.327 69.3251C130.485 68.4696 130.739 67.9944 131.151 67.8993C131.816 67.7092 132.291 65.9031 131.879 65.0477C131.753 64.7308 131.626 64.1288 131.626 63.6852C131.594 62.703 130.517 62.3861 130.264 63.305Z" fill="white"/>
<path d="M126.557 63.6535C125.511 64.8259 126.874 66.0299 127.983 64.9209L128.616 64.2872L127.919 63.6535C127.064 62.9248 127.222 62.9248 126.557 63.6535Z" fill="white"/>
<path d="M132.767 65.7133C132.798 66.03 133.02 66.2517 133.178 66.2517C133.654 66.22 133.559 65.4916 133.083 65.3333C132.798 65.2383 132.672 65.3966 132.767 65.7133Z" fill="white"/>
<path d="M127.032 66.3156C126.747 66.6639 126.778 66.8539 127.127 67.139C127.475 67.424 127.602 67.3923 127.761 66.9806C128.046 66.2522 127.507 65.7772 127.032 66.3156Z" fill="white"/>
<path d="M248.993 61.3105L245.419 70.1924C245.226 70.6892 245.013 71.0796 244.78 71.3635C244.557 71.6575 244.304 71.8653 244.02 71.987C243.746 72.1188 243.427 72.1847 243.062 72.1847C242.717 72.1847 242.397 72.134 242.103 72.0326C241.82 71.9414 241.566 71.8147 241.343 71.6524L241.678 70.5878C241.88 70.7703 242.093 70.9021 242.316 70.9832C242.55 71.0745 242.778 71.1201 243.001 71.1201C243.264 71.1201 243.513 71.039 243.746 70.8768C243.979 70.7146 244.192 70.385 244.385 69.8882L244.78 68.8996L244.02 67.0898L241.602 61.3105H242.986L244.887 66.2685L245.358 67.6221L245.906 66.1164L247.685 61.3105H248.993Z" fill="white"/>
<path d="M239.015 64.0024C239.015 63.4346 238.862 62.9986 238.558 62.6944C238.254 62.3801 237.823 62.223 237.266 62.223C236.738 62.223 236.292 62.3396 235.927 62.5728C235.562 62.7958 235.293 63.1608 235.121 63.6678L234.133 63.0595C234.335 62.4917 234.71 62.0354 235.258 61.6907C235.806 61.3358 236.485 61.1584 237.296 61.1584C237.843 61.1584 238.34 61.2547 238.786 61.4473C239.233 61.6298 239.582 61.9137 239.836 62.299C240.099 62.6742 240.231 63.1608 240.231 63.7591V67.4396C240.231 67.8046 240.424 67.9871 240.809 67.9871C241.002 67.9871 241.189 67.9618 241.372 67.9111L241.311 68.8692C241.108 68.9706 240.845 69.0213 240.52 69.0213C240.226 69.0213 239.963 68.9655 239.729 68.854C239.496 68.7425 239.314 68.5752 239.182 68.3521C239.05 68.1189 238.984 67.8299 238.984 67.4852V67.3331L239.288 67.3787C239.167 67.7742 238.959 68.0986 238.665 68.3521C238.371 68.5955 238.041 68.778 237.676 68.8996C237.311 69.0112 236.951 69.0669 236.596 69.0669C236.15 69.0669 235.735 68.9909 235.349 68.8388C234.964 68.6867 234.655 68.4586 234.422 68.1544C234.198 67.8401 234.087 67.4548 234.087 66.9985C234.087 66.4307 234.274 65.9643 234.65 65.5993C235.035 65.2242 235.567 64.9707 236.247 64.8389L239.258 64.2457V65.2495L236.809 65.7514C236.312 65.8528 235.942 65.9947 235.699 66.1773C235.456 66.3598 235.334 66.6132 235.334 66.9377C235.334 67.252 235.456 67.5106 235.699 67.7133C235.953 67.906 236.307 68.0023 236.764 68.0023C237.058 68.0023 237.337 67.9668 237.6 67.8958C237.874 67.8147 238.117 67.6981 238.33 67.546C238.543 67.3838 238.71 67.1861 238.832 66.9529C238.954 66.7096 239.015 66.4257 239.015 66.1012V64.0024Z" fill="white"/>
<path d="M231.08 57.8124V66.9833C231.08 67.3686 231.151 67.6373 231.293 67.7894C231.435 67.9313 231.663 68.0023 231.978 68.0023C232.181 68.0023 232.348 67.9871 232.48 67.9567C232.611 67.9263 232.789 67.8705 233.012 67.7894L232.814 68.854C232.652 68.925 232.475 68.9757 232.282 69.0061C232.089 69.0467 231.892 69.0669 231.689 69.0669C231.07 69.0669 230.609 68.8996 230.305 68.565C230.011 68.2305 229.864 67.7184 229.864 67.029V57.8124H231.08Z" fill="white"/>
<path d="M220.389 72.1087V61.3104H221.454L221.56 63.1659L221.393 62.953C221.525 62.5981 221.722 62.2889 221.986 62.0253C222.25 61.7515 222.569 61.5386 222.944 61.3865C223.319 61.2344 223.725 61.1584 224.161 61.1584C224.779 61.1584 225.347 61.3155 225.864 61.6298C226.392 61.9441 226.812 62.3953 227.127 62.9834C227.441 63.5715 227.598 64.2812 227.598 65.1126C227.598 65.9339 227.436 66.6437 227.111 67.2419C226.797 67.8299 226.376 68.2811 225.849 68.5954C225.322 68.9098 224.744 69.0669 224.115 69.0669C223.487 69.0669 222.934 68.9148 222.458 68.6107C221.991 68.2963 221.657 67.9009 221.454 67.4244L221.606 67.1962V72.1087H220.389ZM223.994 68.0023C224.744 68.0023 225.327 67.7387 225.743 67.2115C226.168 66.6842 226.381 65.9846 226.381 65.1126C226.381 64.2407 226.174 63.5411 225.758 63.0138C225.352 62.4866 224.779 62.223 224.039 62.223C223.553 62.223 223.127 62.3446 222.762 62.588C222.397 62.8212 222.113 63.1558 221.91 63.5918C221.707 64.0176 221.606 64.5246 221.606 65.1126C221.606 65.6906 221.702 66.1975 221.895 66.6335C222.098 67.0695 222.376 67.4092 222.731 67.6525C223.096 67.8857 223.517 68.0023 223.994 68.0023Z" fill="white"/>
<path d="M211.907 58.2687C212.15 58.2687 212.353 58.3346 212.515 58.4664C212.688 58.5881 212.82 58.7604 212.911 58.9835C213.002 59.1964 213.048 59.4499 213.048 59.7439C213.048 60.0785 212.987 60.408 212.865 60.7325C212.754 61.057 212.576 61.3561 212.333 61.6298C212.09 61.9036 211.775 62.1317 211.39 62.3142L210.751 61.7211C211.025 61.6298 211.263 61.5031 211.466 61.3409C211.679 61.1786 211.851 60.9961 211.983 60.7933C212.115 60.5906 212.201 60.3827 212.242 60.1698L212.181 60.1394C212.14 60.1698 212.09 60.1951 212.029 60.2154C211.968 60.2357 211.877 60.2458 211.755 60.2458C211.633 60.2458 211.507 60.2103 211.375 60.1394C211.253 60.0684 211.147 59.967 211.055 59.8352C210.964 59.6932 210.919 59.5107 210.919 59.2877C210.919 59.1052 210.964 58.9379 211.055 58.7858C211.147 58.6235 211.263 58.4968 211.405 58.4056C211.557 58.3143 211.725 58.2687 211.907 58.2687Z" fill="white"/>
<path d="M206.582 69.0669C205.842 69.0669 205.157 68.9098 204.529 68.5954C203.91 68.2811 203.433 67.835 203.099 67.2571L204.133 66.5118C204.356 66.9783 204.681 67.3433 205.106 67.6069C205.542 67.8705 206.065 68.0023 206.673 68.0023C207.21 68.0023 207.631 67.9009 207.935 67.6981C208.239 67.4852 208.392 67.2115 208.392 66.8769C208.392 66.6639 208.321 66.4713 208.179 66.2989C208.047 66.1164 207.788 65.9846 207.403 65.9035L205.578 65.5233C204.838 65.3712 204.305 65.1177 203.981 64.7628C203.667 64.408 203.51 63.9669 203.51 63.4397C203.51 63.024 203.626 62.6437 203.859 62.299C204.103 61.9543 204.442 61.6805 204.878 61.4777C205.324 61.2648 205.847 61.1584 206.445 61.1584C207.195 61.1584 207.829 61.3054 208.346 61.5994C208.863 61.8934 209.248 62.3092 209.502 62.8465L208.483 63.5157C208.31 63.0696 208.032 62.7451 207.646 62.5424C207.261 62.3294 206.861 62.223 206.445 62.223C206.08 62.223 205.765 62.2737 205.502 62.3751C205.248 62.4765 205.051 62.6184 204.909 62.8009C204.777 62.9733 204.711 63.171 204.711 63.394C204.711 63.6171 204.787 63.825 204.939 64.0176C205.091 64.2001 205.375 64.3319 205.791 64.413L207.692 64.8085C208.402 64.9504 208.898 65.1836 209.182 65.5081C209.466 65.8325 209.608 66.228 209.608 66.6944C209.608 67.1709 209.481 67.5917 209.228 67.9567C208.975 68.3116 208.62 68.5853 208.163 68.778C207.707 68.9706 207.18 69.0669 206.582 69.0669Z" fill="white"/>
<path d="M199.267 59.1508V66.816C199.267 67.1912 199.373 67.47 199.586 67.6525C199.799 67.835 200.073 67.9263 200.407 67.9263C200.701 67.9263 200.955 67.8756 201.168 67.7742C201.381 67.6728 201.573 67.5359 201.746 67.3636L202.172 68.3825C201.938 68.5955 201.659 68.7628 201.335 68.8844C201.021 69.0061 200.656 69.0669 200.24 69.0669C199.855 69.0669 199.495 69.001 199.16 68.8692C198.826 68.7273 198.557 68.5093 198.354 68.2153C198.161 67.9111 198.06 67.5156 198.05 67.029V59.4854L199.267 59.1508ZM202.035 61.3105V62.3599H196.529V61.3105H202.035Z" fill="white"/>
<path d="M192.096 69.0669C191.376 69.0669 190.732 68.9098 190.165 68.5954C189.607 68.2811 189.171 67.8299 188.857 67.2419C188.542 66.6437 188.385 65.9339 188.385 65.1126C188.385 64.2914 188.542 63.5867 188.857 62.9986C189.171 62.4004 189.602 61.9441 190.149 61.6298C190.697 61.3155 191.321 61.1584 192.02 61.1584C192.73 61.1584 193.333 61.3104 193.83 61.6146C194.337 61.9188 194.722 62.3345 194.986 62.8617C195.249 63.3788 195.381 63.9618 195.381 64.6107C195.381 64.7831 195.376 64.9403 195.366 65.0822C195.356 65.2242 195.341 65.3509 195.32 65.4624H189.176V64.3826H194.788L194.165 64.5043C194.165 63.7743 193.962 63.2115 193.556 62.8161C193.161 62.4207 192.639 62.223 191.99 62.223C191.493 62.223 191.062 62.3396 190.697 62.5728C190.342 62.7958 190.063 63.1254 189.861 63.5613C189.668 63.9872 189.572 64.5043 189.572 65.1126C189.572 65.7109 189.673 66.228 189.876 66.6639C190.078 67.0999 190.362 67.4345 190.727 67.6677C191.103 67.8908 191.549 68.0023 192.066 68.0023C192.623 68.0023 193.075 67.8958 193.419 67.6829C193.774 67.47 194.058 67.181 194.271 66.816L195.229 67.3787C195.037 67.7235 194.788 68.0226 194.484 68.2761C194.19 68.5295 193.84 68.7273 193.435 68.8692C193.039 69.001 192.593 69.0669 192.096 69.0669Z" fill="white"/>
<path d="M185.424 57.8124V66.9833C185.424 67.3686 185.495 67.6373 185.637 67.7894C185.779 67.9313 186.007 68.0023 186.322 68.0023C186.524 68.0023 186.692 67.9871 186.823 67.9567C186.955 67.9262 187.133 67.8705 187.356 67.7894L187.158 68.854C186.996 68.925 186.818 68.9757 186.626 69.0061C186.433 69.0466 186.235 69.0669 186.033 69.0669C185.414 69.0669 184.953 68.8996 184.649 68.565C184.355 68.2304 184.208 67.7184 184.208 67.0289V57.8124H185.424Z" fill="white"/>
</svg>
