<svg width="362" height="125" viewBox="0 0 362 125" fill="none" xmlns="http://www.w3.org/2000/svg">
<g opacity="0.3">
<path d="M25.6157 62.1132H24.0513L24.8335 62.4551L25.6157 62.1132Z" fill="white"/>
<path d="M228.519 56.39L227.272 54.6495V58.1245L228.519 56.39Z" fill="white"/>
<path d="M73.858 80.5438L73.0033 79.6484L72.1541 80.5438L73.0033 81.417L73.858 80.5438Z" fill="white"/>
<path d="M225.848 47.7064L224.05 45.8386L222.245 47.7064L224.05 49.5845L225.848 47.7064Z" fill="white"/>
<path d="M334.009 60.784L334.345 61.1362L334.697 60.784L334.345 60.3962L334.009 60.784Z" fill="white"/>
<path d="M122.123 24.905L122.291 25.0444L122.408 24.905L122.291 24.7671L122.123 24.905Z" fill="white"/>
<path d="M95.1552 50.9551L96.3675 49.7297L95.1552 48.4924L93.9707 49.7297L95.1552 50.9551Z" fill="white"/>
<path d="M309.41 53.4127L309.036 53.0086L308.628 53.4127L309.036 53.7886L309.41 53.4127Z" fill="white"/>
<path d="M115.765 77.0225L114.726 78.1265L115.765 79.2202L116.838 78.1265L115.765 77.0225Z" fill="white"/>
<path d="M180.376 94.4238L181.299 93.4766L180.376 92.5161L179.432 93.4766L180.376 94.4238Z" fill="white"/>
<path d="M143.046 18.6328L143.252 18.3679L143.046 18.0837L142.761 18.3679L143.046 18.6328Z" fill="white"/>
<path d="M3.79907 124.671L3.82146 124.751L3.91663 124.671L3.82146 124.608L3.79907 124.671Z" fill="white"/>
<path d="M115.29 83.3018L117.24 85.3013L119.134 83.3018L117.24 81.295L115.29 83.3018Z" fill="white"/>
<path d="M278.7 21.0034L280.498 22.8652L282.303 21.0034L280.498 19.1357L278.7 21.0034Z" fill="white"/>
<path d="M18.1908 7.36016L19.0455 8.23926L19.9004 7.36016L19.0455 6.46921L18.1908 7.36016Z" fill="white"/>
<path d="M28.0627 110.242L26.9398 111.358L28.0627 112.496L29.1521 111.358L28.0627 110.242Z" fill="white"/>
<path d="M66.9583 6.34321L66.6957 6.59035L66.9583 6.87451L67.193 6.59035L66.9583 6.34321Z" fill="white"/>
<path d="M55.0528 56.338L53.1812 54.4185L51.3319 56.338L53.1812 58.2856L55.0528 56.338Z" fill="white"/>
<path d="M214.825 85.5618L212.96 83.6481L211.061 85.5618L212.96 87.4976L214.825 85.5618Z" fill="white"/>
<path d="M164.98 57.2856L162.969 55.1929L160.951 57.2856L162.969 59.3901L164.98 57.2856Z" fill="white"/>
<path d="M40.6499 101.183L41.9069 99.9103L40.6499 98.6612L39.4208 99.9103L40.6499 101.183Z" fill="white"/>
<path d="M16.7439 101.095L18.8333 103.286L20.9452 101.095L18.8333 98.939L16.7439 101.095Z" fill="white"/>
<path d="M95.8423 63.8936L93.9205 61.9045L91.9818 63.8936L93.9205 65.9004L95.8423 63.8936Z" fill="white"/>
<path d="M39.8677 111.616L37.9012 109.633L35.9794 111.616L37.9012 113.617L39.8677 111.616Z" fill="white"/>
<path d="M6.89979 116.347L5.1958 118.121L6.89979 119.896L8.63172 118.121L6.89979 116.347Z" fill="white"/>
<path d="M334.484 21.9566L335.574 23.0962L336.635 21.9566L335.574 20.8644L334.484 21.9566Z" fill="white"/>
<path d="M82.4395 85.5739L83.5569 86.7061L84.624 85.5739L83.5569 84.4742L82.4395 85.5739Z" fill="white"/>
<path d="M60.1257 95.7583L59.2262 94.8867L58.3994 95.7583L59.2262 96.6611L60.1257 95.7583Z" fill="white"/>
<path d="M115.083 92.7885L113.877 91.5631L112.687 92.7885L113.877 94.042L115.083 92.7885Z" fill="white"/>
<path d="M18.5259 120.636L17.4309 121.775L18.5259 122.925L19.6154 121.775L18.5259 120.636Z" fill="white"/>
<path d="M118.944 61.9975L117.022 60.0602L115.15 61.9975L117.022 63.9629L118.944 61.9975Z" fill="white"/>
<path d="M92.1887 114.363L92.0991 114.427L92.1887 114.513L92.2894 114.427L92.1887 114.363Z" fill="white"/>
<path d="M107.821 92.0545L109.625 93.9385L111.402 92.0545L109.625 90.1867L107.821 92.0545Z" fill="white"/>
<path d="M193.221 10.6835L194.411 11.9326L195.595 10.6835L194.411 9.44035L193.221 10.6835Z" fill="white"/>
<path d="M329.641 50.3599L329.076 50.9312L329.641 51.498L330.21 50.9312L329.641 50.3599Z" fill="white"/>
<path d="M276.996 91.2447L277.47 91.7583L277.962 91.2447L277.47 90.7179L276.996 91.2447Z" fill="white"/>
<path d="M169.427 85.249L169.527 85.1675L169.427 85.0918L169.382 85.1675L169.427 85.249Z" fill="white"/>
<path d="M310.198 99.3429L308.226 97.3139L306.298 99.3429L308.226 101.384L310.198 99.3429Z" fill="white"/>
<path d="M163.963 122.151L161.952 120.023L159.862 122.151L161.952 124.29L163.963 122.151Z" fill="white"/>
<path d="M352.121 23.0382L354.363 25.3618L356.637 23.0382L354.363 20.7088L352.121 23.0382Z" fill="white"/>
<path d="M356.329 16.622L358.536 18.9175L360.714 16.622L358.536 14.3088L356.329 16.622Z" fill="white"/>
<path d="M0.497192 45.9144L1.87155 47.313L3.27385 45.9144L1.87155 44.4685L0.497192 45.9144Z" fill="white"/>
<path d="M65.1594 27.1028L66.5506 28.5132L67.9082 27.1028L66.5506 25.6628L65.1594 27.1028Z" fill="white"/>
<path d="M3.01131 33.2254L1.49727 31.6522L0 33.2254L1.49727 34.769L3.01131 33.2254Z" fill="white"/>
<path d="M256.615 102.916L254.648 100.858L252.71 102.916L254.648 104.917L256.615 102.916Z" fill="white"/>
<path d="M180.182 112.004L178.058 109.773L175.912 112.004L178.058 114.19L180.182 112.004Z" fill="white"/>
<path d="M222.887 66.1589L221.463 67.6448L222.887 69.1025L224.34 67.6448L222.887 66.1589Z" fill="white"/>
<path d="M303.478 120.439L305.6 122.637L307.723 120.439L305.6 118.249L303.478 120.439Z" fill="white"/>
<path d="M223.435 109.669L225.328 111.623L227.228 109.669L225.328 107.716L223.435 109.669Z" fill="white"/>
<path d="M318.495 66.9585L319.401 66.0039L318.495 65.0212L317.5 66.0039L318.495 66.9585Z" fill="white"/>
<path d="M78.0537 73.825L79.646 75.4722L81.2327 73.825L79.646 72.1955L78.0537 73.825Z" fill="white"/>
<path d="M170.309 41.9007L170.237 41.9535L170.309 41.9941L170.361 41.9535L170.309 41.9007Z" fill="white"/>
<path d="M73.4111 41.1168L71.344 38.9708L69.2825 41.1168L71.344 43.2554L73.4111 41.1168Z" fill="white"/>
<path d="M57.3993 79.5088L55.3377 77.3643L53.2483 79.5088L55.3377 81.6592L57.3993 79.5088Z" fill="white"/>
<path d="M161.068 77.7466L159.007 75.6244L156.94 77.7466L159.007 79.8911L161.068 77.7466Z" fill="white"/>
<path d="M175.36 54.6492L173.248 52.4292L171.091 54.6492L173.248 56.8691L175.36 54.6492Z" fill="white"/>
<path d="M158.365 33.8721L160.264 31.9067L158.365 29.959L156.516 31.9067L158.365 33.8721Z" fill="white"/>
<path d="M66.2488 59.7433L65.8187 60.171L66.2488 60.6387L66.6734 60.171L66.2488 59.7433Z" fill="white"/>
<path d="M243.503 42.7461L243.599 42.6601L243.503 42.5726L243.408 42.6601L243.503 42.7461Z" fill="white"/>
<path d="M46.7787 70.1717L46.1361 69.5131L45.4713 70.1717L46.1361 70.8599L46.7787 70.1717Z" fill="white"/>
<path d="M219.546 42.5604L221.211 44.2949L222.887 42.5604L221.211 40.8318L219.546 42.5604Z" fill="white"/>
<path d="M100.63 79.596L99.0491 77.9532L97.4849 79.596L99.0491 81.2432L100.63 79.596Z" fill="white"/>
<path d="M58.8239 36.0581L57.2764 37.6017L58.8239 39.1616L60.3156 37.6017L58.8239 36.0581Z" fill="white"/>
<path d="M229.239 87.9786L231.313 90.1172L233.391 87.9786L231.313 85.8445L229.239 87.9786Z" fill="white"/>
<path d="M358.815 59.8645L356.496 57.4595L354.217 59.8645L356.496 62.2798L358.815 59.8645Z" fill="white"/>
<path d="M132.581 18.8597C132.581 17.4196 131.47 16.2579 130.067 16.2579C128.671 16.2579 127.531 17.4196 127.531 18.8597C127.531 20.316 128.671 21.46 130.067 21.46C131.47 21.46 132.581 20.316 132.581 18.8597Z" fill="white"/>
<path d="M234.256 48.4927L236.24 46.4178L234.256 44.365L232.301 46.4178L234.256 48.4927Z" fill="white"/>
<path d="M181.041 32.149L182.891 34.1025L184.78 32.149L182.891 30.1954L181.041 32.149Z" fill="white"/>
<path d="M89.0431 85.8447V83.3302L88.5179 84.5852L89.0431 85.8447Z" fill="white"/>
<path d="M51.9913 102.876L51.2091 102.108L50.4717 102.876L51.2091 103.674L51.9913 102.876Z" fill="white"/>
<path d="M94.3059 47.4225L93.5461 46.6485L92.7639 47.4225L93.5461 48.2202L94.3059 47.4225Z" fill="white"/>
<path d="M99.3565 35.774L97.8592 34.2185L96.3674 35.774L97.8592 37.3472L99.3565 35.774Z" fill="white"/>
<path d="M65.9081 53.5449L64.7739 54.7007L65.9081 55.8921L67.0477 54.7007L65.9081 53.5449Z" fill="white"/>
<path d="M309.689 37.4111L311.288 39.0405L312.847 37.4111L311.288 35.7742L309.689 37.4111Z" fill="white"/>
<path d="M304.316 26.2417L305.544 24.9408L304.316 23.6577L303.03 24.9408L304.316 26.2417Z" fill="white"/>
<path d="M21.9399 103.424L21.772 103.598L21.9399 103.773L22.1022 103.598L21.9399 103.424Z" fill="white"/>
<path d="M219.59 80.6125C219.59 79.2421 218.456 78.1499 217.133 78.1499C215.82 78.1499 214.769 79.2421 214.769 80.6125C214.769 82.0008 215.82 83.1211 217.133 83.1211C218.456 83.1211 219.59 82.0008 219.59 80.6125Z" fill="white"/>
<path d="M295.31 59.3035L293.728 60.8471L295.31 62.4307L296.801 60.8471L295.31 59.3035Z" fill="white"/>
<path d="M138.582 66.3394L139.085 65.8125L138.582 65.3152L138.107 65.8125L138.582 66.3394Z" fill="white"/>
<path d="M283.349 42.2781L282.136 41.0587L280.917 42.2781L282.136 43.5376L283.349 42.2781Z" fill="white"/>
<path d="M25.4481 93.2503L26.4481 94.3203L27.5375 93.2503L26.4481 92.1921L25.4481 93.2503Z" fill="white"/>
<path d="M298.103 33.3466L297.248 32.4497L296.365 33.3466L297.248 34.2183L298.103 33.3466Z" fill="white"/>
<path d="M64.2264 37.5956L63.4945 38.3874L64.2264 39.1851L65.0084 38.3874L64.2264 37.5956Z" fill="white"/>
<path d="M239.19 50.9094L241.436 53.2271L243.681 50.9094L241.436 48.5799L239.19 50.9094Z" fill="white"/>
<path d="M268.856 27.5585L267.974 28.4376L268.856 29.3345L269.694 28.4376L268.856 27.5585Z" fill="white"/>
<path d="M270.068 117.034L271.196 118.225L272.342 117.034L271.196 115.862L270.068 117.034Z" fill="white"/>
<path d="M57.7568 54.367L56.6674 55.4932L57.7568 56.5869L58.8463 55.4932L57.7568 54.367Z" fill="white"/>
<path d="M141.336 13.8647L142.571 15.1123L143.778 13.8647L142.571 12.5697L141.336 13.8647Z" fill="white"/>
<path d="M10.6318 38.8208L9.77142 37.8959L8.89429 38.8208L9.77142 39.6763L10.6318 38.8208Z" fill="white"/>
<path d="M238.714 5.83367L240.179 7.2959L241.574 5.83367L240.179 4.35962L238.714 5.83367Z" fill="white"/>
<path d="M66.5729 46.3186L66.2153 45.9264L65.8912 46.3186L66.2153 46.6826L66.5729 46.3186Z" fill="white"/>
<path d="M236.77 103.021L238.921 105.235L241.034 103.021L238.921 100.789L236.77 103.021Z" fill="white"/>
<path d="M255.358 95.0081L257.509 97.2222L259.631 95.0081L257.509 92.7763L255.358 95.0081Z" fill="white"/>
<path d="M271.392 55.9843C271.392 57.448 272.488 58.5742 273.912 58.5742C275.281 58.5742 276.426 57.448 276.426 55.9843C276.426 54.5576 275.281 53.3839 273.912 53.3839C272.488 53.3839 271.392 54.5576 271.392 55.9843Z" fill="white"/>
<path d="M289.606 108.015L289.946 107.673L289.606 107.355L289.27 107.673L289.606 108.015Z" fill="white"/>
<path d="M274.733 39.8499L274.387 40.2199L274.733 40.584L275.096 40.2199L274.733 39.8499Z" fill="white"/>
<path d="M302.081 71.1714L303.411 69.8305L302.081 68.5015L300.808 69.8305L302.081 71.1714Z" fill="white"/>
<path d="M88.9929 43.325L87.4677 41.2723V45.3999L88.9929 43.325Z" fill="white"/>
<path d="M72.6513 24.3501L71.2714 22.9234L69.897 24.3501L71.2714 25.7842L72.6513 24.3501Z" fill="white"/>
<path d="M68.8076 16.1007C68.8076 17.5644 69.9474 18.7202 71.3664 18.7202C72.7184 18.7202 73.8581 17.5644 73.8581 16.1007C73.8581 14.6962 72.7184 13.4989 71.3664 13.4989C69.9474 13.4989 68.8076 14.6962 68.8076 16.1007Z" fill="white"/>
<path d="M326.271 83.6998L325.07 82.4447L323.813 83.6998L325.07 84.9829L326.271 83.6998Z" fill="white"/>
<path d="M132.732 36.0104L134.889 38.2837L137.068 36.0104L134.889 33.7801L132.732 36.0104Z" fill="white"/>
<path d="M49.6392 81.5836L49.9073 81.856L50.1642 81.5836L49.9073 81.3291L49.6392 81.5836Z" fill="white"/>
<path d="M13.738 102.916L13.9727 102.633L13.738 102.384L13.4698 102.633L13.738 102.916Z" fill="white"/>
<path d="M294.203 38.1267L292.359 36.2072L290.516 38.1267L292.359 40.0581L294.203 38.1267Z" fill="white"/>
<path d="M91.8812 79.3931L92.6913 78.5199L91.8812 77.6926L91.0488 78.5199L91.8812 79.3931Z" fill="white"/>
<path d="M225.234 66.9463L227.189 68.9932L229.144 66.9463L227.189 64.9454L225.234 66.9463Z" fill="white"/>
<path d="M25.9006 113.503L24.286 111.832L22.677 113.503L24.286 115.162L25.9006 113.503Z" fill="white"/>
<path d="M278.03 64.8479L276.371 63.1193L274.66 64.8479L276.371 66.5884L278.03 64.8479Z" fill="white"/>
<path d="M124.95 88.203L124.899 88.2727L124.95 88.3306L124.995 88.2727L124.95 88.203Z" fill="white"/>
<path d="M299.427 17.6281L297.628 15.7722L295.852 17.6281L297.628 19.478L299.427 17.6281Z" fill="white"/>
<path d="M33.4653 43.6133L32.0685 42.1334L30.5935 43.6133L32.0685 45.0874L33.4653 43.6133Z" fill="white"/>
<path d="M240.375 107.843L240.319 107.947L240.375 107.999L240.419 107.947L240.375 107.843Z" fill="white"/>
<path d="M226.557 9.00132L225.133 7.51543L223.669 9.00132L225.133 10.4473L226.557 9.00132Z" fill="white"/>
<path d="M196.043 3.56793L194.311 1.78602L192.606 3.56793L194.311 5.33057L196.043 3.56793Z" fill="white"/>
<path d="M175.897 13.3433C175.897 11.9906 174.863 10.9265 173.573 10.9265C172.298 10.9265 171.264 11.9906 171.264 13.3433L173.573 15.7246C174.863 15.7246 175.897 14.6561 175.897 13.3433Z" fill="white"/>
<path d="M195.54 35.086L193.936 33.3988L192.31 35.086L193.936 36.751L195.54 35.086Z" fill="white"/>
<path d="M312.986 123.59L312.611 123.995L312.986 124.411L313.384 123.995L312.986 123.59Z" fill="white"/>
<path d="M350.379 13.9041L351.228 14.7832L352.056 13.9041L351.228 13.025L350.379 13.9041Z" fill="white"/>
<path d="M4.53101 16.1182C4.53101 17.5049 5.62044 18.6504 6.97805 18.6504C8.32447 18.6504 9.4139 17.5049 9.4139 16.1182C9.4139 14.7077 8.32447 13.5681 6.97805 13.5681C5.62044 13.5681 4.53101 14.7077 4.53101 16.1182Z" fill="white"/>
<path d="M209.971 71.9474L212.255 74.3228L214.563 71.9474L212.255 69.5883L209.971 71.9474Z" fill="white"/>
<path d="M197.718 46.7061L197.914 46.527L197.718 46.3361L197.535 46.527L197.718 46.7061Z" fill="white"/>
<path d="M330.479 2.63152L329.243 1.3706L328.032 2.63152L329.243 3.90283L330.479 2.63152Z" fill="white"/>
<path d="M114.748 112.386L112.944 110.524L111.145 112.386L112.944 114.27L114.748 112.386Z" fill="white"/>
<path d="M265.598 24.218L266.84 25.4834L268.074 24.218L266.84 22.923L265.598 24.218Z" fill="white"/>
<path d="M83.272 110.248L85.2218 112.253L87.2107 110.248L85.2218 108.223L83.272 110.248Z" fill="white"/>
<path d="M337.027 112.953L338.182 114.097L339.272 112.953L338.182 111.808L337.027 112.953Z" fill="white"/>
<path d="M19.3304 37.3116L18.4309 36.3866L17.5483 37.3116L18.4309 38.2144L19.3304 37.3116Z" fill="white"/>
<path d="M318.45 6.38379L318.628 6.18696L318.45 6.00788L318.255 6.18696L318.45 6.38379Z" fill="white"/>
<path d="M192.55 38.2887L190.261 35.9252L187.952 38.2887L190.261 40.6597L192.55 38.2887Z" fill="white"/>
<path d="M165.415 62.5765L163.605 64.4545L165.415 66.3223L167.22 64.4545L165.415 62.5765Z" fill="white"/>
<path d="M61.5726 88.6429L60.1257 87.1333L58.6562 88.6429L60.1257 90.1406L61.5726 88.6429Z" fill="white"/>
<path d="M307.305 51.7526L307.238 51.8163L307.305 51.9038L307.35 51.8163L307.305 51.7526Z" fill="white"/>
<path d="M92.9707 17.8583L94.9876 19.9629L97.0268 17.8583L94.9876 15.7657L92.9707 17.8583Z" fill="white"/>
<path d="M112.184 79.3119L110.569 77.6469L108.988 79.3119L110.569 80.9946L112.184 79.3119Z" fill="white"/>
<path d="M224.58 68.6971L222.814 66.8709L221.015 68.6971L222.814 70.5708L224.58 68.6971Z" fill="white"/>
<path d="M129.738 7.04751C129.738 8.4002 130.782 9.47021 132.062 9.47021C133.341 9.47021 134.414 8.4002 134.414 7.04751L132.062 4.65438L129.738 7.04751Z" fill="white"/>
<path d="M318.405 92.1402L318.211 92.337L318.405 92.5679L318.628 92.337L318.405 92.1402Z" fill="white"/>
<path d="M207.451 65.9346L208.752 64.576L207.451 63.2055L206.126 64.576L207.451 65.9346Z" fill="white"/>
<path d="M231.446 100.876L233.652 103.182L235.859 100.876L233.652 98.609L231.446 100.876Z" fill="white"/>
<path d="M176.176 28.1083L178.025 30.0737L179.907 28.1083L178.025 26.171L176.176 28.1083Z" fill="white"/>
<path d="M245.726 86.0584L246.586 86.9375L247.441 86.0584L246.586 85.197L245.726 86.0584Z" fill="white"/>
<path d="M165.176 54.9433L166.024 55.8105L166.856 54.9433L166.024 54.0716L165.176 54.9433Z" fill="white"/>
<path d="M51.9912 108.299L52.9633 109.333L53.9634 108.299L52.9633 107.27L51.9912 108.299Z" fill="white"/>
<path d="M250.235 65.7213L248.866 64.2812L247.458 65.7213L248.866 67.1479L250.235 65.7213Z" fill="white"/>
<path d="M150.516 78.9712L151.035 78.4103L150.516 77.8316L149.974 78.4103L150.516 78.9712Z" fill="white"/>
<path d="M238.168 117.208L236.574 115.577L235.011 117.208L236.574 118.821L238.168 117.208Z" fill="white"/>
<path d="M26.6829 42.0757C26.6829 43.458 27.75 44.5562 29.102 44.5562C30.4316 44.5562 31.4932 43.458 31.4932 42.0757C31.4932 40.689 30.4316 39.5834 29.102 39.5834C27.75 39.5834 26.6829 40.689 26.6829 42.0757Z" fill="white"/>
<path d="M128.861 68.993L131.039 71.2588L133.246 68.993L131.039 66.7375L128.861 68.993Z" fill="white"/>
<path d="M330.658 97.366L332.819 99.6274L335.004 97.366L332.819 95.112L330.658 97.366Z" fill="white"/>
<path d="M341.245 37.2598L341.452 37.0689L341.245 36.8617L341.033 37.0689L341.245 37.2598Z" fill="white"/>
<path d="M199.813 26.981L197.718 24.8424L195.68 26.981L197.718 29.1255L199.813 26.981Z" fill="white"/>
<path d="M11.3637 35.5432L10.5312 36.3868L11.3637 37.2378L12.1459 36.3868L11.3637 35.5432Z" fill="white"/>
<path d="M40.6276 26.0682L42.7896 28.334L44.9965 26.0682L42.7896 23.8127L40.6276 26.0682Z" fill="white"/>
<path d="M93.4736 33.554L91.6243 35.4558L93.4736 37.3472L95.3004 35.4558L93.4736 33.554Z" fill="white"/>
<path d="M207.87 108.593L206.126 106.766L204.394 108.593L206.126 110.363L207.87 108.593Z" fill="white"/>
<path d="M187.003 97.3439C187.003 98.818 188.165 100.003 189.617 100.003C191.042 100.003 192.204 98.818 192.204 97.3439C192.204 95.8343 191.042 94.6548 189.617 94.6548C188.165 94.6548 187.003 95.8343 187.003 97.3439Z" fill="white"/>
<path d="M264.331 64.564L263.42 65.5245L264.331 66.4673L265.246 65.5245L264.331 64.564Z" fill="white"/>
<path d="M46.7004 5.64852L48.9071 7.88477L51.0637 5.64852L48.9071 3.35309L46.7004 5.64852Z" fill="white"/>
<path d="M281.79 8.64315L283.962 10.8809L286.113 8.64315L283.962 6.35955L281.79 8.64315Z" fill="white"/>
<path d="M21.705 1.63085L20.163 -8.7738e-05L18.6211 1.63085L20.163 3.2085L21.705 1.63085Z" fill="white"/>
<path d="M165.651 73.6127L167.539 75.5366L169.394 73.6127L167.539 71.6473L165.651 73.6127Z" fill="white"/>
<path d="M40.3258 18.963L40.0576 19.2339L40.3258 19.4722L40.5326 19.2339L40.3258 18.963Z" fill="white"/>
<path d="M347.63 112.265L349.234 113.924L350.854 112.265L349.234 110.57L347.63 112.265Z" fill="white"/>
<path d="M319.662 42.4853L319.501 42.7236L319.662 42.9189L319.875 42.7236L319.662 42.4853Z" fill="white"/>
<path d="M125.732 97.551L124.497 96.2856L123.262 97.551L124.497 98.8179L125.732 97.551Z" fill="white"/>
<path d="M44.611 105.008L46.2536 106.663L47.8401 105.008L46.2536 103.333L44.611 105.008Z" fill="white"/>
<path d="M302.221 56.6204L300.75 55.0368L299.26 56.6204L300.75 58.1699L302.221 56.6204Z" fill="white"/>
<path d="M72.9363 11.4414L75.1152 13.6895L77.2996 11.4414L75.1152 9.18589L72.9363 11.4414Z" fill="white"/>
<path d="M31.3757 106.594L29.4873 104.634L27.5823 106.594L29.4873 108.547L31.3757 106.594Z" fill="white"/>
<path d="M229.944 59.835L230.838 58.9559L229.944 58.0723L229.127 58.9559L229.944 59.835Z" fill="white"/>
<path d="M169.667 109.345L170.678 110.385L171.733 109.345L170.678 108.276L169.667 109.345Z" fill="white"/>
<path d="M291.952 73.0674L293.812 75.0225L295.684 73.0674L293.812 71.102L291.952 73.0674Z" fill="white"/>
<path d="M189.786 112.583L188.025 110.316V114.855L189.786 112.583Z" fill="white"/>
<path d="M70.1874 93.7354L67.9752 91.4518L65.7683 93.7354L67.9752 95.979L70.1874 93.7354Z" fill="white"/>
<path d="M11.928 8.45237L13.0956 9.67334L14.28 8.45237L13.0956 7.24469L11.928 8.45237Z" fill="white"/>
<path d="M62.0978 10.6502L63.2543 11.8638L64.4163 10.6502L63.2543 9.43512L62.0978 10.6502Z" fill="white"/>
<path d="M333.953 122.925L331.942 120.896L329.97 122.925L331.942 125L333.953 122.925Z" fill="white"/>
<path d="M284.622 16.5005L285.627 15.4305L284.622 14.396L283.56 15.4305L284.622 16.5005Z" fill="white"/>
<path d="M184.852 64.7029L186.935 66.8252L189.004 64.7029L186.935 62.5762L184.852 64.7029Z" fill="white"/>
<path d="M263.822 9.81035L265.888 11.9326L267.974 9.81035L265.888 7.67769L263.822 9.81035Z" fill="white"/>
<path d="M228.418 44.417L229.944 45.9487L231.424 44.417L229.944 42.7978L228.418 44.417Z" fill="white"/>
<path d="M230.43 123.619L231.642 124.839L232.872 123.619L231.642 122.341L230.43 123.619Z" fill="white"/>
<path d="M341.412 68.9695L339.847 67.3385L338.294 68.9695L339.847 70.5708L341.412 68.9695Z" fill="white"/>
<path d="M284.147 5.27261L286.186 7.35938L288.282 5.27261L286.186 3.1222L284.147 5.27261Z" fill="white"/>
<path d="M219.59 49.73L221.424 51.5918L223.25 49.73L221.424 47.8046L219.59 49.73Z" fill="white"/>
<path d="M91.1271 94.8636L92.5963 96.3096L94.021 94.8636L92.5963 93.354L91.1271 94.8636Z" fill="white"/>
<path d="M238.408 105.379L237.329 103.795V106.912L238.408 105.379Z" fill="white"/>
<path d="M295.75 33.4504L293.488 31.115L291.242 33.4504L293.488 35.7681L295.75 33.4504Z" fill="white"/>
<path d="M282.638 87.9204L280.375 85.6013L278.124 87.9204L280.375 90.2617L282.638 87.9204Z" fill="white"/>
<path d="M95.1105 68.5359L96.8425 70.3223L98.5967 68.5359L96.8425 66.7259L95.1105 68.5359Z" fill="white"/>
<path d="M328.926 9.43457L330.685 7.64824L328.926 5.83379L327.182 7.64824L328.926 9.43457Z" fill="white"/>
<path d="M312.567 25.7146L310.779 23.912L309.036 25.7146L310.779 27.5068L312.567 25.7146Z" fill="white"/>
<path d="M329.222 96.3496L330.116 95.4128L329.222 94.5115L328.367 95.4128L329.222 96.3496Z" fill="white"/>
<path d="M304.214 45.0815V44.5384L304.12 44.7989L304.214 45.0815Z" fill="white"/>
<path d="M288.047 72.9819L290.081 75.0347L292.052 72.9819L290.081 70.9351L288.047 72.9819Z" fill="white"/>
<path d="M72.6234 98.8245L71.8914 98.1023L71.2043 98.8245L71.8914 99.5645L72.6234 98.8245Z" fill="white"/>
<path d="M275.711 32.4617L274.956 31.7394L274.241 32.4617L274.956 33.2017L275.711 32.4617Z" fill="white"/>
<path d="M251.38 86.7413L253.185 88.5913L255.029 86.7413L253.185 84.8618L251.38 86.7413Z" fill="white"/>
<path d="M168.588 78.1844L170.399 80.064L172.208 78.1844L170.399 76.3241L168.588 78.1844Z" fill="white"/>
<path d="M150.895 86.2202L150.728 86.3936L150.895 86.585L151.086 86.3936L150.895 86.2202Z" fill="white"/>
<path d="M345.11 111.495L346.915 113.357L348.72 111.495L346.915 109.629L345.11 111.495Z" fill="white"/>
<path d="M83.272 70.7326L83.0652 70.9753L83.272 71.1899L83.4898 70.9753L83.272 70.7326Z" fill="white"/>
<path d="M270.348 54.8465L269.873 54.3493L269.353 54.8465L269.873 55.3379L270.348 54.8465Z" fill="white"/>
<path d="M310.869 86.7061L312.64 84.8975L310.869 83.0698L309.149 84.8975L310.869 86.7061Z" fill="white"/>
<path d="M158.861 75.0451L157.108 72.7734V77.3184L158.861 75.0451Z" fill="white"/>
<path d="M95.0881 114.427L97.0268 116.421L98.9486 114.427L97.0268 112.409L95.0881 114.427Z" fill="white"/>
<path d="M306.59 8.43563L305.925 9.17562L306.59 9.90967L307.349 9.17562L306.59 8.43563Z" fill="white"/>
<path d="M32.9903 60.8354L34.3479 59.425L32.9903 58.0087L31.616 59.425L32.9903 60.8354Z" fill="white"/>
<path d="M279.275 87.1514L281.382 84.961L279.275 82.7751L277.174 84.961L279.275 87.1514Z" fill="white"/>
<path d="M110.43 98.0896L109.391 99.1877L110.43 100.262L111.474 99.1877L110.43 98.0896Z" fill="white"/>
<path d="M104.787 57.7428L106.161 59.165L107.468 57.7428L106.161 56.3383L104.787 57.7428Z" fill="white"/>
<path d="M172.75 107.085C172.923 108.42 173.925 109.507 175.309 109.507C176.785 109.507 177.986 108.276 177.986 106.743C177.986 105.223 176.785 103.986 175.309 103.986C173.925 103.986 172.923 105.044 172.75 106.396L172.623 106.743L172.75 107.085Z" fill="white"/>
<path d="M65.3437 99.2974L63.3995 97.292L61.4777 99.2974L63.3995 101.257L65.3437 99.2974Z" fill="white"/>
<path d="M329.401 120.023L331.261 121.937L333.105 120.023L331.261 118.07L329.401 120.023Z" fill="white"/>
<path d="M48.3597 57.1578L46.5831 55.2398L44.7562 57.1578L46.5831 59.0078L48.3597 57.1578Z" fill="white"/>
<path d="M150.587 88.0753L149.922 88.7635L150.587 89.3999L151.247 88.7635L150.587 88.0753Z" fill="white"/>
<path d="M200.428 22.848L202.187 24.6743L203.987 22.848L202.187 20.9744L200.428 22.848Z" fill="white"/>
<path d="M10.3413 50.2215L11.7213 51.626L13.0677 50.2215L11.7213 48.7592L10.3413 50.2215Z" fill="white"/>
<path d="M137.542 22.0264L139.392 23.8882L141.191 22.0264L139.392 20.1069L137.542 22.0264Z" fill="white"/>
<path d="M278.879 23.7612L277.918 22.7667L276.996 23.7612L277.918 24.7158L278.879 23.7612Z" fill="white"/>
<path d="M232.022 40.6015L233.139 41.7056L234.173 40.6015L233.139 39.4619L232.022 40.6015Z" fill="white"/>
<path d="M339.384 50.3188L340.602 51.6079L341.831 50.3188L340.602 49.0416L339.384 50.3188Z" fill="white"/>
<path d="M228.362 115.04L229.546 116.311L230.792 115.04L229.546 113.745L228.362 115.04Z" fill="white"/>
<path d="M78.3611 90.8912L76.5622 89.0131L74.7855 90.8912L76.5622 92.7012L78.3611 90.8912Z" fill="white"/>
<path d="M54.3377 101.662L52.656 99.9155L50.9744 101.662L52.656 103.407L54.3377 101.662Z" fill="white"/>
<path d="M112.452 31.7972L111.044 30.3749L109.67 31.7972L111.044 33.2017L112.452 31.7972Z" fill="white"/>
<path d="M251.894 34.5086L250.43 32.9709L248.95 34.5086L250.43 36.0107L251.894 34.5086Z" fill="white"/>
<path d="M336.429 38.0232L338.636 40.2891L340.843 38.0232L338.636 35.7515L336.429 38.0232Z" fill="white"/>
<path d="M340.797 88.1342L340.222 87.4978L339.607 88.1342L340.222 88.7646L340.797 88.1342Z" fill="white"/>
<path d="M253.604 30.7273L252.062 29.1778L250.571 30.7273L252.062 32.2769L253.604 30.7273Z" fill="white"/>
<path d="M203.658 62.8589C203.658 61.3493 202.468 60.1135 201.043 60.1135C199.573 60.1135 198.417 61.3493 198.417 62.8589C198.417 64.3566 199.573 65.582 201.043 65.582C202.468 65.582 203.658 64.3566 203.658 62.8589Z" fill="white"/>
<path d="M2.96659 55.2853L2.39673 55.932L2.96659 56.5625L3.60349 55.932L2.96659 55.2853Z" fill="white"/>
<path d="M35.2977 121.144L33.9904 122.572L35.2977 123.983L36.672 122.572L35.2977 121.144Z" fill="white"/>
<path d="M127.794 74.7163L128.268 74.2131L127.794 73.704L127.296 74.2131L127.794 74.7163Z" fill="white"/>
<path d="M130.168 79.7972L130.051 79.5956L129.883 79.7972L130.051 79.9663L130.168 79.7972Z" fill="white"/>
<path d="M313.841 105.344L315.193 103.934L313.841 102.569L312.511 103.934L313.841 105.344Z" fill="white"/>
<path d="M70.2769 105.536L72.506 107.837L74.6906 105.536L72.506 103.27L70.2769 105.536Z" fill="white"/>
<path d="M60.6954 63.1013L62.6843 65.2295L64.7012 63.1013L62.6843 61.0663L60.6954 63.1013Z" fill="white"/>
<path d="M190.54 71.6353L189.534 72.6298L190.54 73.6865L191.516 72.6298L190.54 71.6353Z" fill="white"/>
<path d="M161.17 72.3334L162.917 74.1611L164.672 72.3334L162.917 70.553L161.17 72.3334Z" fill="white"/>
<path d="M248.43 74.6349L246.201 72.2759L243.977 74.6349L246.201 76.9585L248.43 74.6349Z" fill="white"/>
<path d="M212.339 82.2951L211.003 80.8907L209.675 82.2951L211.003 83.6597L212.339 82.2951Z" fill="white"/>
<path d="M160.851 66.7734L159.438 68.2874L160.851 69.7437L162.304 68.2874L160.851 66.7734Z" fill="white"/>
<path d="M198.623 51.9565C198.623 53.3491 199.774 54.5405 201.143 54.5405C202.506 54.5405 203.658 53.3491 203.658 51.9565C203.658 50.4884 202.506 49.2851 201.143 49.2851C199.774 49.2851 198.623 50.4884 198.623 51.9565Z" fill="white"/>
<path d="M131.917 95.1177L130.592 93.7073L129.268 95.1177L130.592 96.4985L131.917 95.1177Z" fill="white"/>
<path d="M294.158 55.4889L292.594 57.1302L294.158 58.7256L295.767 57.1302L294.158 55.4889Z" fill="white"/>
<path d="M44.0691 100.373L46.0356 98.3716L44.0691 96.3086L42.0969 98.3716L44.0691 100.373Z" fill="white"/>
<path d="M246.296 95.7827L244.313 93.7018L242.274 95.7827L244.313 97.8872L246.296 95.7827Z" fill="white"/>
<path d="M290.058 84.8857L291.215 83.7003L290.058 82.5208L288.924 83.7003L290.058 84.8857Z" fill="white"/>
<path d="M119.419 60.5751L118.637 61.4483L119.419 62.2578L120.251 61.4483L119.419 60.5751Z" fill="white"/>
<path d="M224.239 114.079L223.91 113.259V114.872L224.239 114.079Z" fill="white"/>
<path d="M74.2604 111.392L75.9978 113.212L77.7466 111.392L75.9978 109.565L74.2604 111.392Z" fill="white"/>
<path d="M251.492 89.0827L253.558 91.2095L255.638 89.0827L253.558 86.9383L251.492 89.0827Z" fill="white"/>
<path d="M145.677 88.1274L146.152 87.6361L145.677 87.1329L145.203 87.6361L145.677 88.1274Z" fill="white"/>
<path d="M304.316 93.0947L306.114 91.2329L304.316 89.343L302.517 91.2329L304.316 93.0947Z" fill="white"/>
<path d="M153.767 80.0112L151.935 78.1494L150.135 80.0112L151.935 81.8789L153.767 80.0112Z" fill="white"/>
<path d="M12.995 68.5537L13.6598 69.2241L14.3749 68.5537L13.6598 67.8655L12.995 68.5537Z" fill="white"/>
<path d="M317.669 90.4054L319.205 92.0186L320.758 90.4054L319.205 88.8218L317.669 90.4054Z" fill="white"/>
<path d="M69.4222 86.0131L70.6793 87.3599L71.914 86.0131L70.6793 84.7581L69.4222 86.0131Z" fill="white"/>
<path d="M153.694 91.5038L152.862 92.2971L153.694 93.1807L154.499 92.2971L153.694 91.5038Z" fill="white"/>
<path d="M267.453 122.521L269.694 120.248L269.537 119.872L269.694 119.543C269.498 118.191 268.504 117.15 267.124 117.15C265.654 117.15 264.464 118.364 264.464 119.872C264.464 121.284 265.486 122.34 266.744 122.521L267.124 122.376L267.453 122.521Z" fill="white"/>
<path d="M243.139 82.2255C243.306 83.5323 244.313 84.6187 245.653 84.6187C247.151 84.6187 248.335 83.4051 248.335 81.8555C248.335 80.3356 247.151 79.1206 245.653 79.1206C244.313 79.1206 243.306 80.161 243.139 81.5092L243.028 81.8555L243.139 82.2255Z" fill="white"/>
<path d="M48.0078 77.6706C48.0078 76.3578 46.9631 75.2538 45.6558 75.2538C44.354 75.2538 43.3093 76.3578 43.3093 77.6706C43.3093 79.0469 44.354 80.1392 45.6558 80.1392C46.9631 80.1392 48.0078 79.0469 48.0078 77.6706Z" fill="white"/>
<path d="M144.61 86.5209C144.61 87.9269 145.699 89.0591 147.052 89.0591C148.431 89.0591 149.515 87.9269 149.515 86.5209C149.515 85.146 148.431 84.0183 147.052 84.0183C145.699 84.0183 144.61 85.146 144.61 86.5209Z" fill="white"/>
<path d="M357.754 77.5489L359.866 79.7866L362 77.5489L359.866 75.3511L357.754 77.5489Z" fill="white"/>
<path d="M249.045 112.687L251.146 114.831L253.224 112.687L251.146 110.548L249.045 112.687Z" fill="white"/>
<path d="M310.869 76.3932C310.869 77.8199 311.953 78.9595 313.322 78.9595C314.651 78.9595 315.741 77.8199 315.741 76.3932C315.741 75.045 314.651 73.9009 313.322 73.9009C311.953 73.9009 310.869 75.045 310.869 76.3932Z" fill="white"/>
<path d="M249.956 109.316L252.095 111.513L254.135 109.316L252.095 107.119L249.956 109.316Z" fill="white"/>
<path d="M34.4653 99.719L35.7001 100.986L36.9794 99.719L35.7001 98.3841L34.4653 99.719Z" fill="white"/>
<path d="M355.239 106.767L355.966 106.009L355.239 105.172L354.503 106.009L355.239 106.767Z" fill="white"/>
<path d="M342.121 108.859C342.121 110.248 343.217 111.386 344.541 111.386C345.91 111.386 346.998 110.248 346.998 108.859C346.998 107.467 345.91 106.327 344.541 106.327C343.217 106.327 342.121 107.467 342.121 108.859Z" fill="white"/>
<path d="M119.207 98.5574L119.804 99.9678V97.1469L119.207 98.5574Z" fill="white"/>
<path d="M199.059 115.786L197.512 117.086H200.624L199.059 115.786Z" fill="white"/>
</g>
</svg>
