<svg width="361" height="219" viewBox="0 0 361 219" fill="none" xmlns="http://www.w3.org/2000/svg">
<path d="M242.83 15.5313C243.059 13.8723 240.712 12.506 238.951 12.3645C238.112 12.2962 237.238 12.4231 236.443 12.1449C234.715 11.5448 234.027 9.31487 232.344 8.60735C231.09 8.07549 229.641 8.5488 228.441 9.1636C227.24 9.77841 226.001 10.5494 224.654 10.6274C223.468 10.7006 222.18 10.2615 221.146 10.8421C220.37 11.2715 219.965 12.1645 219.253 12.6866C218.508 13.1541 217.643 13.3933 216.764 13.3746C215.896 13.3509 215.032 13.4916 214.217 13.7893C213.431 14.1504 212.778 14.9799 212.943 15.8338L242.83 15.5313Z" fill="#FAFAFA"/>
<path d="M332.655 18.0734C332.885 16.4144 330.538 15.0432 328.752 14.9017C327.913 14.8383 327.039 14.9652 326.244 14.6871C324.521 14.0869 323.829 11.857 322.15 11.1495C320.891 10.6176 319.442 11.0909 318.247 11.7057C317.051 12.3205 315.807 13.0915 314.46 13.1695C313.274 13.2427 311.986 12.8036 310.952 13.3842C310.176 13.8136 309.771 14.7066 309.059 15.2287C308.318 15.6882 307.46 15.9222 306.59 15.902C305.722 15.8787 304.858 16.0195 304.042 16.3168C303.257 16.6779 302.579 17.5074 302.769 18.3564L332.655 18.0734Z" fill="#E0E0E0"/>
<path d="M59.4804 27.1492C59.7049 25.4902 57.3627 24.1239 55.5769 23.9824C54.7376 23.9141 53.8642 24.041 53.0688 23.7629C51.3415 23.1627 50.6291 20.9328 48.9701 20.2253C47.7112 19.6934 46.2669 20.1667 45.0666 20.7815C43.8662 21.3963 42.6269 22.1673 41.2753 22.2454C40.0944 22.3185 38.8063 21.8794 37.7669 22.46C36.996 22.8894 36.591 23.7824 35.8786 24.3045C35.1448 24.763 34.2943 25.0002 33.4291 24.9876C32.5615 24.964 31.6973 25.1047 30.8821 25.4023C30.0965 25.7634 29.4182 26.5929 29.6085 27.4468L59.4804 27.1492Z" fill="#E0E0E0"/>
<path d="M278.918 35.1954C279.255 32.7557 275.825 30.7698 273.248 30.56C272.019 30.4624 270.745 30.6478 269.579 30.2428C267.061 29.3645 266.051 26.105 263.592 25.0706C261.752 24.2948 259.635 24.9828 257.849 25.8806C256.063 26.7784 254.302 27.9104 252.311 28.0373C250.579 28.1446 248.695 27.5054 247.178 28.3496C246.05 28.9839 245.46 30.3013 244.416 31.0528C243.372 31.8042 242.069 31.9603 240.805 32.0287C239.541 32.097 238.234 32.1067 237.082 32.6337C235.93 33.1607 234.979 34.3805 235.213 35.6248L278.918 35.1954Z" fill="#EBEBEB"/>
<path d="M106.172 39.9918C106.46 37.879 103.478 36.1371 101.239 35.9565C100.17 35.8736 99.0574 36.0346 98.0474 35.6833C95.8516 34.9172 94.9782 32.0822 92.8362 31.1795C91.2357 30.5062 89.3913 31.1064 87.8396 31.8871C86.2879 32.6678 84.7558 33.6534 83.0236 33.7608C81.5159 33.8584 79.8764 33.2728 78.5589 34.034C77.583 34.5854 77.0609 35.7174 76.1534 36.3859C75.2458 37.0544 74.1138 37.1764 73.0159 37.2398C71.918 37.3032 70.7762 37.3081 69.7759 37.7668C68.7757 38.2254 67.9462 39.2843 68.1511 40.3675L106.172 39.9918Z" fill="#F5F5F5"/>
<path d="M118.892 87.1174C116.872 82.5698 110.051 81.1255 106.362 84.4679C104.537 80.3009 98.228 79.0468 94.949 82.199C94.9281 81.0299 94.5491 79.8955 93.8632 78.9486C93.1772 78.0018 92.2173 77.2882 91.113 76.9041C90.0087 76.5201 88.8131 76.484 87.6876 76.8009C86.5622 77.1177 85.561 77.7722 84.8193 78.676C84.5232 76.503 83.571 74.4722 82.0899 72.8548C80.6089 71.2374 78.6695 70.1105 76.531 69.6246C74.3924 69.1388 72.1565 69.3172 70.122 70.1359C68.0875 70.9546 66.3513 72.3747 65.1454 74.2064C58.6118 71.0934 49.946 73.538 46.0083 79.6129C43.5393 75.6166 36.8496 75.3336 34.0537 79.1249C32.7815 77.6424 31.1156 76.5504 29.2487 75.9753C27.3818 75.4002 25.3902 75.3655 23.5043 75.8752C21.6343 76.4409 19.9625 77.5241 18.682 78.9997C17.4015 80.4753 16.5647 82.2831 16.2681 84.2142C11.701 81.1206 4.90881 84.7021 2.60571 89.7182H130.203C129.632 85.8537 121.962 84.5704 118.892 87.1174Z" fill="#E0E0E0"/>
<path d="M295.34 88.1013C294.012 85.074 289.528 84.1126 287.104 86.3376C285.904 83.5637 281.758 82.7289 279.603 84.8272C279.589 84.049 279.34 83.2938 278.889 82.6635C278.438 82.0332 277.807 81.5582 277.081 81.3025C276.355 81.0469 275.57 81.0229 274.83 81.2338C274.09 81.4447 273.432 81.8804 272.945 82.482C272.75 81.0356 272.124 79.6837 271.151 78.607C270.177 77.5303 268.903 76.7802 267.497 76.4568C266.091 76.1334 264.622 76.2521 263.285 76.7971C261.947 77.3421 260.806 78.2874 260.014 79.5068C255.719 77.4345 250.024 79.0618 247.435 83.1057C245.813 80.4455 241.416 80.2571 239.578 82.7809C238.742 81.794 237.647 81.0671 236.42 80.6843C235.193 80.3014 233.884 80.2783 232.644 80.6176C231.415 80.9942 230.316 81.7153 229.475 82.6975C228.633 83.6798 228.083 84.8832 227.888 86.1687C224.886 84.1094 220.422 86.4935 218.908 89.8325H302.774C302.398 87.26 297.357 86.4058 295.34 88.1013Z" fill="#E0E0E0"/>
<path d="M275.659 209.952C275.337 209.408 274.871 208.964 274.312 208.669L261.24 200.174C262.676 199.64 263.848 198.569 264.507 197.186C265.166 195.804 265.262 194.219 264.773 192.767C263.465 189.351 259.371 188.048 255.79 187.234C252.208 186.419 248.114 185.238 246.66 181.866C245.938 180.193 246.036 178.246 245.265 176.592C243.586 172.976 238.853 172.332 235.286 170.546C230.124 167.96 226.967 162.48 222.014 159.504C219.062 157.728 215.383 156.747 213.495 153.868C212.978 153.082 212.607 152.16 211.85 151.599C211.094 151.038 209.772 151.111 209.474 152.009C209.391 152.364 209.402 152.734 209.508 153.082C212.29 166.086 222.248 176.187 228.44 187.951C232.642 195.939 235.169 204.839 240.361 212.221L256.39 217.457C258.858 217.948 261.368 218.19 263.885 218.179C268.696 218.179 274.405 216.432 275.683 211.792C275.89 211.195 275.882 210.544 275.659 209.952Z" fill="#E0E0E0"/>
<path d="M319.364 190.044C322.111 190.913 323.892 193.46 325.985 195.46C328.079 197.461 331.397 198.934 333.744 197.256C330.305 193.645 326.867 190.031 323.428 186.414L303.867 187.043C309.054 190.117 310.269 197.51 315.319 200.808C313.118 197.436 310.927 194.055 309.029 190.498C308.717 189.907 308.449 189.093 308.946 188.649C309.189 188.466 309.488 188.376 309.79 188.395C311.513 188.395 312.982 189.678 313.928 191.118C314.875 192.557 315.485 194.206 316.519 195.582C317.554 196.958 319.052 198.071 320.496 199.11L327.815 204.385C327.966 203.048 327.269 201.765 326.517 200.647C325.018 198.409 323.211 196.394 321.15 194.66C319.954 193.655 318.647 192.708 317.812 191.401C317.658 191.194 317.571 190.946 317.563 190.688C317.578 189.947 318.632 189.82 319.364 190.044Z" fill="#F5F5F5"/>
<path d="M63.1107 151.526C62.7837 150.862 62.2275 150.296 62.1055 149.574C61.9542 148.706 62.3787 147.588 61.6664 147.061C61.0662 146.617 59.983 146.959 59.6414 146.295L46.384 145.607C45.2763 146.315 44.115 147.071 43.5783 148.291C43.0416 149.511 43.51 151.219 44.7835 151.526C45.8668 151.785 47.2232 151.038 47.9991 151.843C48.1989 152.087 48.3348 152.377 48.3943 152.687C48.9993 154.946 49.136 157.737 51.1756 158.879C52.0929 159.392 53.2103 159.421 54.1618 159.855C56.5283 160.963 57.47 164.393 60.0464 164.798C60.3848 164.877 60.7392 164.851 61.0625 164.724C61.3858 164.597 61.6628 164.374 61.8567 164.086C62.3446 163.188 61.5297 162.197 61.0564 161.299C59.9342 159.162 60.6368 156.381 59.4121 154.297C59.0437 153.802 58.7296 153.269 58.4752 152.707C58.28 152.121 58.4362 151.345 59.0119 151.121C60.4758 150.531 61.2565 154.049 62.7301 153.448C63.4132 153.175 63.4327 152.185 63.1107 151.526Z" fill="#F5F5F5"/>
<path d="M199.1 91.1625H201.116C200.445 91.1234 199.772 91.1234 199.1 91.1625Z" fill="#F5F5F5"/>
<path d="M201.116 91.1478C205.273 91.3699 209.212 93.0812 212.212 95.9687C213.802 97.5155 215.276 99.4819 217.467 99.8723C219.311 100.18 221.141 99.2331 223.015 99.2477C225.581 99.2477 227.748 101.048 230.07 102.146C232.393 103.244 235.765 103.356 236.941 101.073C237.062 102.98 239.053 104.181 240.893 104.703C242.732 105.225 244.796 105.469 246.143 106.816C247.231 107.894 247.88 109.656 249.393 109.919C250.232 110.061 251.062 109.66 251.901 109.538C253.579 109.299 255.19 110.163 256.814 110.641C258.439 111.119 260.562 111.022 261.377 109.538L282.612 112.349C285.1 112.728 287.607 112.965 290.121 113.061C293.267 113.12 296.406 112.739 299.446 111.929C301.027 111.51 302.579 110.953 304.135 110.466C305.164 110.09 306.226 109.814 307.307 109.641C308.442 109.541 309.584 109.516 310.722 109.568C317.329 109.568 323.721 107.416 329.972 105.279C339.657 101.961 349.924 98.2425 356.135 90.0988L201.116 91.1478Z" fill="#F5F5F5"/>
<path d="M3.31812 89.7034C5.45043 91.5918 10.0517 91.6552 12.7208 92.6311C13.8235 93.0458 14.6384 93.9778 15.585 94.6853C16.7682 95.5506 18.1615 96.0834 19.6201 96.2284C21.0788 96.3734 22.5496 96.1253 23.88 95.51C26.2057 96.5952 28.5964 97.5354 31.0382 98.3254C34.9055 99.5231 38.9296 100.138 42.9781 100.15C53.8202 100.15 64.1939 95.9003 74.9433 94.4658C88.5765 92.6457 102.532 95.4416 116.135 93.4118C118.424 93.1377 120.662 92.5448 122.786 91.6503C124.052 91.078 125.236 90.3378 126.304 89.4497L3.31812 89.7034Z" fill="#F5F5F5"/>
<path d="M147.608 113.403C147.608 113.471 131.794 113.53 112.29 113.53C92.7874 113.53 76.9731 113.471 76.9731 113.403C76.9731 113.335 92.7825 113.276 112.29 113.276C131.798 113.276 147.608 113.32 147.608 113.403Z" fill="#E0E0E0"/>
<path d="M155.151 116.628C155.151 116.697 148.993 116.755 141.396 116.755C133.799 116.755 127.636 116.697 127.636 116.628C127.636 116.56 133.794 116.501 141.396 116.501C148.998 116.501 155.151 116.555 155.151 116.628Z" fill="#E0E0E0"/>
<path d="M76.1972 192.338C76.1972 192.406 63.7986 192.464 48.5113 192.464C33.2241 192.464 20.8254 192.406 20.8254 192.338C20.8254 192.269 33.2192 192.211 48.5113 192.211C63.8035 192.211 76.1972 192.264 76.1972 192.338Z" fill="#E0E0E0"/>
<path d="M80.9792 195.241C80.9792 195.314 75.0117 195.368 67.6535 195.368C60.2953 195.368 54.3229 195.314 54.3229 195.241C54.3229 195.168 60.2855 195.114 67.6535 195.114C75.0214 195.114 80.9792 195.172 80.9792 195.241Z" fill="#E0E0E0"/>
<path d="M153.336 2.71788C153.336 2.71788 153.126 2.65932 152.746 2.58613C152.212 2.47798 151.664 2.46312 151.126 2.54222C150.325 2.65815 149.573 2.99624 148.955 3.5181C148.191 4.1419 147.653 4.9989 147.422 5.95782L147.33 6.3189L147.193 5.97734C146.819 5.06955 146.179 4.29579 145.358 3.7572C144.686 3.31875 143.914 3.05695 143.114 2.996C142.371 2.9586 141.628 3.05276 140.918 3.27413C141.09 3.1647 141.277 3.0824 141.474 3.03016C142.142 2.82823 142.845 2.77165 143.536 2.86424C144.227 2.95682 144.89 3.19642 145.48 3.5669C146.355 4.11956 147.036 4.92916 147.432 5.88463H147.198V5.85535C147.441 4.84781 148.013 3.94992 148.823 3.30341C149.48 2.77723 150.274 2.44892 151.111 2.3568C151.669 2.29076 152.233 2.33217 152.775 2.47878C152.975 2.52426 153.165 2.60525 153.336 2.71788Z" fill="#E0E0E0"/>
<path d="M91.5431 0C91.5431 0 91.3675 0.204936 91.0552 0.566014C90.6091 1.07848 90.206 1.62683 89.85 2.2055C88.6668 4.10873 88.046 6.30778 88.0592 8.54877V8.63172H87.8348C87.4912 6.43019 86.4675 4.39131 84.9071 2.8008C84.2505 2.1578 83.5349 1.57786 82.7699 1.0686C82.7699 1.0686 82.8333 1.0686 82.9456 1.14667C83.0578 1.22474 83.2237 1.28817 83.4335 1.42479C84.0097 1.78676 84.5448 2.21052 85.0291 2.68857C86.6596 4.28717 87.7294 6.37025 88.0787 8.62684H87.8543V8.54877C87.8394 6.26239 88.4941 4.02168 89.7377 2.10304C90.1081 1.52562 90.5347 0.986257 91.0113 0.492822C91.1772 0.317162 91.3235 0.195178 91.4114 0.107348C91.4502 0.0657303 91.4945 0.029613 91.5431 0Z" fill="#E0E0E0"/>
<path d="M239.527 190.844L233.486 191.474L238.17 188.81L230.314 177.143L224.156 176.533L229.119 175.372L211.704 149.462H139.801L139.039 150.628L141.221 151.667L138.259 152.204C138.703 152.482 139.17 152.724 139.654 152.926C139.859 152.926 136.868 153.985 136.868 153.985L128.451 166.96L130.496 167.75L126.919 169.321L95.7247 217.398H257.395L239.527 190.844Z" fill="#455A64"/>
<path d="M216.164 156.166C216.164 156.235 198.11 156.293 175.874 156.293C153.639 156.293 135.585 156.235 135.585 156.166C135.585 156.098 153.639 156.039 175.874 156.039C198.11 156.039 216.164 156.098 216.164 156.166Z" fill="#263238"/>
<path d="M221.59 163.969C221.59 164.042 201.199 164.095 176.045 164.095C150.892 164.095 130.496 164.042 130.496 163.969C130.496 163.895 150.887 163.842 176.045 163.842C201.203 163.842 221.59 163.9 221.59 163.969Z" fill="#263238"/>
<path d="M227.045 172.283C227.045 172.351 204.292 172.41 176.231 172.41C148.169 172.41 125.411 172.351 125.411 172.283C125.411 172.215 148.159 172.156 176.231 172.156C204.302 172.156 227.045 172.21 227.045 172.283Z" fill="#263238"/>
<path d="M233.486 182.12C233.486 182.188 207.737 182.247 175.982 182.247C144.226 182.247 118.473 182.188 118.473 182.12C118.473 182.052 144.217 181.993 175.982 181.993C207.747 181.993 233.486 182.052 233.486 182.12Z" fill="#263238"/>
<path d="M241.498 193.777C241.498 193.845 212.47 193.835 176.67 193.777C140.869 193.718 111.837 193.577 111.837 193.504C111.837 193.431 140.86 193.44 176.67 193.504C212.48 193.567 241.498 193.704 241.498 193.777Z" fill="#263238"/>
<path d="M248.9 205.361C248.9 205.429 216.432 205.488 176.387 205.488C136.341 205.488 103.864 205.429 103.864 205.361C103.864 205.292 136.327 205.234 176.387 205.234C216.447 205.234 248.9 205.288 248.9 205.361Z" fill="#263238"/>
<path d="M257.395 217.403C257.395 217.471 221.204 217.53 176.572 217.53C131.94 217.53 95.7395 217.471 95.7395 217.403C95.7395 217.335 131.92 217.276 176.572 217.276C221.224 217.276 257.395 217.335 257.395 217.403Z" fill="#263238"/>
<path d="M137.644 165.886C137.644 165.915 137.522 165.94 137.376 165.94C137.229 165.94 137.107 165.915 137.107 165.886C137.107 165.857 137.229 165.837 137.376 165.837C137.522 165.837 137.644 165.862 137.644 165.886Z" fill="#263238"/>
<path d="M159.518 165.349C159.518 165.379 155.425 165.403 150.374 165.403C145.324 165.403 141.23 165.379 141.23 165.349C141.23 165.32 145.324 165.301 150.374 165.301C155.425 165.301 159.518 165.32 159.518 165.349Z" fill="#263238"/>
<path d="M161.49 166.964C161.49 166.994 157.44 167.013 152.438 167.013C147.437 167.013 143.382 167.013 143.382 166.964C143.382 166.916 147.437 166.916 152.438 166.916C157.44 166.916 161.49 166.935 161.49 166.964Z" fill="#263238"/>
<path d="M215.105 168.399C215.105 168.428 212.534 168.448 209.367 168.448C206.2 168.448 203.629 168.448 203.629 168.399C203.629 168.35 206.195 168.345 209.367 168.345C212.538 168.345 215.105 168.37 215.105 168.399Z" fill="#263238"/>
<path d="M222.009 178.543L221.375 178.587L219.555 178.695C217.319 178.742 215.082 178.66 212.856 178.451C210.035 178.197 206.698 177.709 203.004 177.119C199.31 176.528 195.246 175.865 190.942 175.552C186.895 175.244 182.825 175.467 178.836 176.216C175.587 176.866 172.389 177.752 169.268 178.865C166.599 179.802 164.466 180.641 162.993 181.212L161.27 181.881C160.885 182.032 160.675 182.105 160.675 182.105C160.675 182.105 160.875 182.017 161.265 181.861L162.954 181.178C164.417 180.593 166.55 179.744 169.219 178.802C172.355 177.675 175.569 176.779 178.836 176.123C182.834 175.367 186.914 175.143 190.971 175.455C195.285 175.767 199.349 176.431 203.043 177.026C206.737 177.621 210.069 178.119 212.89 178.377C215.113 178.593 217.346 178.686 219.579 178.656L221.399 178.568L222.009 178.543Z" fill="#263238"/>
<path d="M219.16 200.296C219.16 200.325 194.953 200.35 165.1 200.35C135.248 200.35 111.036 200.325 111.036 200.296C111.036 200.267 135.238 200.247 165.1 200.247C194.963 200.247 219.16 200.257 219.16 200.296Z" fill="#263238"/>
<path d="M243.991 199.374C243.991 199.398 233.486 199.422 220.531 199.422C207.576 199.422 197.066 199.398 197.066 199.374C197.066 199.349 207.566 199.32 220.531 199.32C233.496 199.32 243.991 199.344 243.991 199.374Z" fill="#263238"/>
<path d="M197.817 211.67C197.817 211.694 176.972 211.719 151.267 211.719C125.562 211.719 104.713 211.694 104.713 211.67C104.713 211.645 125.553 211.616 151.267 211.616C176.982 211.616 197.817 211.64 197.817 211.67Z" fill="#263238"/>
<path d="M253.004 210.914C253.004 210.943 235.135 210.967 213.104 210.967C191.074 210.967 173.205 210.943 173.205 210.914C173.205 210.884 191.064 210.865 213.104 210.865C235.145 210.865 253.004 210.889 253.004 210.914Z" fill="#263238"/>
<path d="M231.944 187.326C231.944 187.356 217.169 187.375 198.949 187.375C180.729 187.375 165.945 187.375 165.945 187.326C165.945 187.278 180.72 187.278 198.949 187.278C217.179 187.278 231.944 187.297 231.944 187.326Z" fill="#263238"/>
<path d="M167.955 176.533C167.955 176.562 158.626 176.587 147.125 176.587C135.624 176.587 126.294 176.562 126.294 176.533C126.294 176.504 135.619 176.484 147.125 176.484C158.63 176.484 167.955 176.509 167.955 176.533Z" fill="#263238"/>
<path d="M197.066 168.253C197.066 168.282 191.054 168.306 183.638 168.306C176.221 168.306 170.214 168.306 170.214 168.253C170.214 168.199 176.221 168.204 183.638 168.204C191.054 168.204 197.066 168.223 197.066 168.253Z" fill="#263238"/>
<path d="M214.129 160.977C214.129 161.002 205.478 161.026 194.807 161.026C184.135 161.026 175.484 161.002 175.484 160.977C175.484 160.953 184.13 160.924 194.807 160.924C205.483 160.924 214.129 160.948 214.129 160.977Z" fill="#263238"/>
<path d="M163.437 151.95C163.437 151.98 159.045 152.004 153.648 152.004C148.252 152.004 143.86 152.004 143.86 151.95C143.86 151.897 148.252 151.902 153.648 151.902C159.045 151.902 163.437 151.911 163.437 151.95Z" fill="#263238"/>
<path d="M125.972 192.547C125.972 192.547 125.972 192.469 125.972 192.313C125.994 192.088 126.045 191.866 126.124 191.654C126.464 190.847 127.005 190.14 127.695 189.6C130.152 187.543 132.963 185.951 135.99 184.901C140.507 183.364 145.293 182.778 150.048 183.179C150.716 183.237 151.389 183.306 152.072 183.389C152.756 183.472 153.439 183.574 154.127 183.711C154.831 183.827 155.514 184.049 156.152 184.369C156.81 184.703 157.345 185.238 157.679 185.897C157.853 186.23 157.944 186.601 157.944 186.977C157.944 187.354 157.853 187.725 157.679 188.058C157.294 188.714 156.74 189.253 156.074 189.62C155.414 189.998 154.725 190.324 154.015 190.596L152.936 191.001L151.838 191.362C148.955 192.253 145.951 192.694 142.933 192.669C141.502 192.655 140.073 192.537 138.659 192.318C137.961 192.216 137.283 192.074 136.61 191.918C136.265 191.846 135.948 191.677 135.697 191.43C135.587 191.295 135.516 191.134 135.489 190.963C135.462 190.791 135.482 190.615 135.546 190.454C135.871 189.862 136.387 189.398 137.01 189.137C137.575 188.829 138.156 188.552 138.752 188.307C139.896 187.843 141.085 187.496 142.299 187.273C144.481 186.871 146.72 186.885 148.896 187.317C149.147 187.356 149.391 187.428 149.623 187.531C149.737 187.583 149.838 187.657 149.922 187.749C150.006 187.842 150.07 187.95 150.111 188.068C150.147 188.187 150.153 188.314 150.129 188.436C150.105 188.559 150.052 188.673 149.974 188.771C149.823 188.951 149.64 189.102 149.433 189.215C149.036 189.419 148.609 189.56 148.169 189.634C147.749 189.732 147.339 189.82 146.944 189.898C145.595 190.164 144.231 190.353 142.86 190.464C141.728 190.556 140.85 190.581 140.255 190.586C139.659 190.591 139.347 190.586 139.347 190.586H140.255C140.85 190.586 141.718 190.547 142.855 190.449C144.225 190.33 145.586 190.136 146.934 189.868C147.33 189.786 147.735 189.698 148.154 189.6C148.588 189.526 149.007 189.386 149.399 189.185C149.6 189.077 149.777 188.929 149.921 188.751C150.003 188.658 150.058 188.544 150.08 188.422C150.103 188.3 150.091 188.174 150.048 188.058C150.006 187.947 149.941 187.845 149.857 187.761C149.773 187.677 149.671 187.612 149.56 187.57C149.332 187.47 149.093 187.399 148.847 187.36C146.679 186.937 144.451 186.927 142.279 187.331C141.071 187.554 139.889 187.901 138.752 188.366C138.158 188.607 137.58 188.884 137.019 189.195C136.414 189.446 135.911 189.893 135.59 190.464C135.524 190.611 135.502 190.774 135.526 190.933C135.55 191.092 135.62 191.241 135.726 191.362C135.965 191.596 136.267 191.755 136.595 191.82C137.259 191.967 137.937 192.108 138.63 192.211C140.041 192.431 141.466 192.547 142.894 192.557C145.9 192.58 148.892 192.142 151.765 191.259L152.863 190.893L153.951 190.498C154.658 190.225 155.343 189.899 156 189.522C156.648 189.164 157.188 188.64 157.567 188.005C157.733 187.683 157.819 187.327 157.819 186.965C157.819 186.604 157.733 186.247 157.567 185.926C157.245 185.296 156.732 184.784 156.103 184.462C155.474 184.146 154.801 183.926 154.107 183.808C153.419 183.672 152.731 183.594 152.053 183.486C151.375 183.379 150.701 183.34 150.038 183.276C145.301 182.882 140.535 183.467 136.034 184.994C133.01 186.034 130.2 187.613 127.739 189.654C127.052 190.188 126.51 190.886 126.163 191.684C126.084 191.896 126.03 192.117 126.002 192.342L125.972 192.547Z" fill="#263238"/>
<path d="M134.785 171.575C132.964 172.203 130.985 172.203 129.164 171.575V153.902C130.023 153.425 130.991 153.175 131.974 153.175C132.958 153.175 133.925 153.425 134.785 153.902V171.575Z" fill="#263238"/>
<path d="M134.794 153.902C134.794 153.902 134.726 153.946 134.599 154.01C134.472 154.073 134.272 154.146 134.028 154.229C132.742 154.645 131.36 154.665 130.061 154.288C129.865 154.232 129.673 154.163 129.486 154.083C129.416 154.056 129.349 154.023 129.286 153.985C129.286 153.985 129.588 154.088 130.081 154.219C131.372 154.552 132.728 154.531 134.009 154.161C134.497 154 134.79 153.873 134.794 153.902Z" fill="#455A64"/>
<path d="M133.833 153.746C133.769 153.821 133.689 153.881 133.599 153.922C133.351 154.026 133.09 154.095 132.823 154.127C132.431 154.183 132.034 154.203 131.637 154.185C131.404 154.176 131.171 154.153 130.94 154.117C130.871 154.111 130.804 154.091 130.743 154.057C130.682 154.024 130.63 153.977 130.588 153.922C130.572 153.887 130.563 153.85 130.561 153.812C130.559 153.773 130.565 153.735 130.578 153.699C130.591 153.663 130.612 153.631 130.638 153.603C130.664 153.575 130.695 153.552 130.73 153.536C130.98 153.453 131.242 153.412 131.506 153.414C131.742 153.408 131.979 153.419 132.213 153.448C132.321 153.461 132.429 153.479 132.535 153.502C132.592 153.51 132.647 153.529 132.697 153.558C132.746 153.587 132.789 153.626 132.823 153.673C132.835 153.701 132.84 153.731 132.838 153.761C132.836 153.791 132.827 153.82 132.812 153.846C132.796 153.872 132.776 153.894 132.75 153.91C132.725 153.927 132.697 153.938 132.667 153.941C132.576 153.953 132.484 153.953 132.394 153.941L131.598 153.897C131.5 153.897 131.402 153.885 131.306 153.863C131.403 153.855 131.501 153.855 131.598 153.863H132.399C132.481 153.875 132.565 153.875 132.647 153.863C132.73 153.863 132.784 153.775 132.75 153.712C132.657 153.575 132.408 153.575 132.199 153.541C131.731 153.477 131.255 153.505 130.798 153.624C130.775 153.633 130.753 153.647 130.735 153.665C130.717 153.682 130.703 153.703 130.693 153.726C130.684 153.75 130.679 153.775 130.68 153.8C130.68 153.825 130.685 153.85 130.696 153.873C130.767 153.955 130.866 154.007 130.974 154.019C131.208 154.058 131.462 154.078 131.662 154.093C132.053 154.116 132.445 154.103 132.833 154.053C133.097 154.033 133.356 153.976 133.604 153.883C133.75 153.809 133.828 153.736 133.833 153.746Z" fill="#455A64"/>
<path d="M129.007 164.637C129.002 164.601 129.002 164.565 129.007 164.53C129.007 164.437 129.042 164.339 129.056 164.232C129.115 163.915 129.178 163.554 129.247 163.139C129.412 162.217 129.627 160.943 129.852 159.533C130.076 158.123 130.252 156.845 130.374 155.917C130.432 155.503 130.481 155.137 130.525 154.82C130.525 154.712 130.559 154.615 130.574 154.522C130.569 154.488 130.569 154.453 130.574 154.419C130.574 154.419 130.574 154.454 130.574 154.522C130.574 154.59 130.574 154.717 130.544 154.824L130.427 155.927C130.32 156.854 130.149 158.138 129.939 159.553C129.73 160.968 129.49 162.236 129.31 163.154C129.227 163.563 129.149 163.925 129.085 164.242L129.017 164.535C129.02 164.569 129.016 164.604 129.007 164.637Z" fill="#455A64"/>
<path d="M134.702 156.747C134.576 156.685 134.446 156.635 134.311 156.596C133.939 156.524 133.554 156.592 133.228 156.786C132.763 157.101 132.381 157.525 132.116 158.02C131.746 158.609 131.42 159.224 131.14 159.86C130.651 161.02 130.24 162.212 129.91 163.427C129.788 163.847 129.686 164.212 129.593 164.53C129.564 164.637 129.534 164.735 129.505 164.827C129.497 164.862 129.485 164.897 129.471 164.93C129.471 164.93 129.471 164.896 129.471 164.822C129.471 164.749 129.52 164.627 129.544 164.52C129.622 164.198 129.715 163.832 129.822 163.407C130.136 162.182 130.54 160.981 131.032 159.816C131.312 159.178 131.638 158.562 132.008 157.972C132.285 157.465 132.684 157.035 133.17 156.723C133.511 156.526 133.914 156.467 134.297 156.557C134.445 156.586 134.584 156.652 134.702 156.747Z" fill="#455A64"/>
<path d="M132.838 166.208C132.922 166.264 132.983 166.349 133.009 166.447C133.05 166.586 133.047 166.735 132.999 166.872C132.952 167.01 132.863 167.129 132.745 167.213C132.544 167.328 132.307 167.363 132.081 167.311C131.855 167.26 131.657 167.125 131.525 166.935C131.365 166.68 131.265 166.393 131.231 166.094C131.197 165.795 131.231 165.492 131.33 165.208C131.4 164.876 131.495 164.55 131.613 164.232C131.675 164.049 131.777 163.882 131.911 163.743C132.045 163.604 132.208 163.496 132.389 163.427C132.592 163.38 132.805 163.394 133 163.469C133.195 163.544 133.362 163.675 133.482 163.847C133.748 164.184 133.956 164.563 134.097 164.969C134.404 165.841 134.452 166.783 134.233 167.682C134.022 168.654 133.47 169.52 132.677 170.121C132.472 170.281 132.235 170.393 131.981 170.449C131.728 170.505 131.465 170.503 131.213 170.443C130.977 170.363 130.763 170.23 130.585 170.055C130.408 169.88 130.272 169.668 130.188 169.433C130.038 168.99 129.988 168.518 130.042 168.053C130.081 167.594 130.144 167.155 130.208 166.725C130.405 165.191 130.875 163.704 131.594 162.334C132.093 161.416 132.774 160.61 133.594 159.962C133.893 159.722 134.221 159.52 134.57 159.362L134.316 159.514C134.073 159.659 133.842 159.822 133.623 160.002C132.821 160.654 132.158 161.46 131.672 162.373C130.965 163.746 130.506 165.232 130.315 166.764C130.252 167.189 130.188 167.633 130.154 168.082C130.107 168.537 130.162 168.997 130.315 169.429C130.395 169.651 130.525 169.852 130.694 170.016C130.863 170.181 131.067 170.306 131.291 170.38C131.526 170.431 131.769 170.43 132.003 170.377C132.238 170.324 132.458 170.22 132.648 170.073C133.42 169.482 133.959 168.637 134.17 167.687C134.383 166.808 134.337 165.886 134.038 165.032C133.903 164.635 133.702 164.264 133.443 163.934C133.333 163.778 133.18 163.657 133.002 163.586C132.824 163.516 132.63 163.5 132.443 163.539C132.274 163.603 132.121 163.704 131.995 163.834C131.87 163.964 131.774 164.12 131.716 164.291C131.599 164.609 131.503 164.935 131.428 165.266C131.33 165.541 131.295 165.835 131.325 166.125C131.354 166.415 131.448 166.695 131.598 166.945C131.723 167.126 131.909 167.255 132.123 167.307C132.336 167.36 132.561 167.331 132.755 167.228C132.867 167.146 132.952 167.033 132.999 166.902C133.046 166.772 133.053 166.63 133.018 166.496C132.989 166.384 132.926 166.283 132.838 166.208Z" fill="#455A64"/>
<path d="M224.337 170.629C222.514 171.256 220.534 171.256 218.711 170.629V152.926C219.571 152.447 220.539 152.195 221.524 152.195C222.509 152.195 223.477 152.447 224.337 152.926V170.629Z" fill="#263238"/>
<path d="M224.342 152.926C224.28 152.966 224.214 153 224.147 153.029C223.962 153.115 223.771 153.189 223.576 153.248C222.938 153.458 222.271 153.568 221.6 153.575C220.926 153.586 220.255 153.496 219.609 153.307C219.413 153.253 219.223 153.185 219.038 153.102C218.965 153.079 218.896 153.046 218.833 153.004C218.833 153.004 219.135 153.112 219.628 153.239C220.266 153.402 220.922 153.482 221.58 153.478C222.241 153.465 222.897 153.365 223.532 153.18C224.044 153.058 224.337 152.926 224.342 152.926Z" fill="#455A64"/>
<path d="M223.381 152.799C223.316 152.874 223.236 152.934 223.146 152.975C222.9 153.085 222.638 153.154 222.37 153.18C221.978 153.238 221.581 153.26 221.185 153.243C220.951 153.233 220.718 153.208 220.487 153.17C220.418 153.165 220.351 153.144 220.29 153.111C220.23 153.077 220.177 153.031 220.136 152.975C220.119 152.941 220.11 152.903 220.108 152.865C220.107 152.827 220.112 152.789 220.126 152.753C220.139 152.717 220.159 152.684 220.185 152.656C220.211 152.628 220.242 152.605 220.277 152.59C220.523 152.509 220.78 152.47 221.038 152.473C221.273 152.465 221.508 152.475 221.741 152.502L222.063 152.555C222.121 152.563 222.176 152.582 222.226 152.613C222.275 152.643 222.318 152.683 222.351 152.731C222.424 152.858 222.292 152.99 222.195 152.995C222.104 153.007 222.012 153.007 221.922 152.995L221.126 152.946C221.03 152.942 220.934 152.933 220.838 152.917C220.936 152.906 221.034 152.906 221.131 152.917H221.926C222.009 152.926 222.093 152.926 222.175 152.917C222.258 152.917 222.312 152.829 222.278 152.765C222.185 152.629 221.941 152.624 221.731 152.59C221.262 152.53 220.785 152.558 220.326 152.673C220.228 152.726 220.17 152.838 220.224 152.921C220.259 152.963 220.302 152.998 220.35 153.023C220.399 153.048 220.452 153.064 220.507 153.068C220.741 153.107 220.994 153.131 221.19 153.146C221.581 153.165 221.972 153.151 222.361 153.102C222.624 153.08 222.883 153.025 223.132 152.936C223.219 152.899 223.302 152.853 223.381 152.799Z" fill="#455A64"/>
<path d="M218.555 163.661C218.552 163.625 218.552 163.59 218.555 163.554L218.603 163.256C218.662 162.939 218.725 162.578 218.799 162.168C218.96 161.246 219.179 159.972 219.399 158.562C219.618 157.152 219.799 155.869 219.926 154.942C219.979 154.527 220.033 154.166 220.077 153.844L220.121 153.546C220.119 153.512 220.119 153.478 220.121 153.444C220.127 153.479 220.127 153.515 220.121 153.551C220.121 153.644 220.121 153.746 220.097 153.849C220.062 154.171 220.019 154.537 219.975 154.951C219.867 155.883 219.696 157.167 219.487 158.577C219.277 159.987 219.038 161.26 218.857 162.178L218.633 163.266C218.608 163.368 218.589 163.466 218.569 163.559C218.569 163.593 218.564 163.628 218.555 163.661Z" fill="#455A64"/>
<path d="M224.249 155.805C224.025 155.677 223.77 155.613 223.512 155.62C223.254 155.627 223.002 155.704 222.785 155.844C222.315 156.155 221.931 156.58 221.668 157.079C221.299 157.666 220.973 158.279 220.692 158.913C220.203 160.074 219.792 161.265 219.462 162.48C219.34 162.9 219.238 163.266 219.15 163.588L219.062 163.885C219.053 163.921 219.04 163.955 219.023 163.988C219.019 163.952 219.019 163.916 219.023 163.881C219.023 163.783 219.067 163.685 219.092 163.573C219.174 163.256 219.267 162.885 219.375 162.466C219.683 161.239 220.086 160.039 220.58 158.874C220.858 158.234 221.184 157.616 221.556 157.025C221.83 156.519 222.228 156.091 222.712 155.781C223.055 155.584 223.459 155.525 223.844 155.615C223.993 155.642 224.133 155.707 224.249 155.805Z" fill="#455A64"/>
<path d="M222.39 165.262C222.473 165.32 222.532 165.407 222.556 165.506C222.596 165.645 222.593 165.793 222.546 165.93C222.499 166.068 222.41 166.187 222.292 166.272C222.091 166.384 221.854 166.417 221.629 166.366C221.404 166.315 221.206 166.182 221.073 165.994C220.913 165.737 220.813 165.449 220.78 165.149C220.746 164.85 220.779 164.546 220.877 164.261C220.949 163.93 221.043 163.604 221.16 163.285C221.224 163.103 221.327 162.937 221.46 162.798C221.594 162.659 221.757 162.551 221.936 162.48C222.141 162.433 222.355 162.448 222.55 162.524C222.746 162.6 222.915 162.732 223.034 162.905C223.3 163.242 223.506 163.621 223.644 164.027C223.951 164.897 224 165.838 223.786 166.735C223.569 167.707 223.016 168.571 222.224 169.175C222.019 169.333 221.781 169.443 221.528 169.498C221.275 169.553 221.013 169.551 220.76 169.492C220.525 169.411 220.31 169.279 220.133 169.104C219.955 168.929 219.82 168.717 219.736 168.482C219.579 168.036 219.524 167.561 219.575 167.091C219.609 166.638 219.672 166.194 219.736 165.764C219.934 164.23 220.403 162.743 221.121 161.373C221.621 160.457 222.302 159.651 223.122 159.006C223.422 158.767 223.75 158.564 224.098 158.401L223.844 158.552C223.604 158.702 223.373 158.865 223.151 159.04C222.349 159.693 221.686 160.499 221.199 161.412C220.493 162.785 220.034 164.271 219.843 165.803C219.78 166.233 219.716 166.672 219.687 167.121C219.638 167.577 219.692 168.039 219.843 168.472C219.923 168.694 220.053 168.894 220.222 169.058C220.391 169.222 220.595 169.345 220.819 169.419C221.054 169.471 221.297 169.471 221.532 169.418C221.766 169.364 221.986 169.26 222.175 169.111C222.95 168.525 223.49 167.68 223.698 166.73C223.911 165.85 223.865 164.926 223.566 164.071C223.433 163.675 223.234 163.306 222.976 162.978C222.866 162.82 222.712 162.697 222.533 162.626C222.355 162.555 222.159 162.538 221.97 162.578C221.802 162.643 221.65 162.744 221.524 162.874C221.399 163.003 221.303 163.159 221.243 163.329C221.127 163.648 221.031 163.974 220.955 164.305C220.859 164.581 220.825 164.875 220.854 165.166C220.884 165.457 220.977 165.738 221.126 165.989C221.251 166.169 221.438 166.297 221.651 166.348C221.865 166.4 222.089 166.371 222.283 166.267C222.397 166.188 222.483 166.075 222.53 165.945C222.577 165.815 222.583 165.673 222.546 165.54C222.518 165.436 222.464 165.34 222.39 165.262Z" fill="#455A64"/>
<path d="M111.715 207.898C109.68 208.596 107.47 208.596 105.435 207.898V188.141C107.714 187.009 109.792 187.102 111.715 188.141V207.898Z" fill="#263238"/>
<path d="M111.724 188.151C111.655 188.196 111.582 188.233 111.505 188.263C111.299 188.357 111.087 188.439 110.87 188.507C110.156 188.737 109.411 188.86 108.66 188.873C107.91 188.881 107.162 188.781 106.44 188.575C106.222 188.513 106.009 188.436 105.801 188.346C105.721 188.323 105.645 188.287 105.576 188.239C105.576 188.239 105.908 188.361 106.459 188.502C107.902 188.883 109.42 188.861 110.851 188.439C111.393 188.278 111.72 188.131 111.724 188.151Z" fill="#455A64"/>
<path d="M110.651 187.99C110.578 188.072 110.488 188.139 110.387 188.185C110.112 188.303 109.821 188.378 109.524 188.41C109.086 188.475 108.643 188.498 108.201 188.478C107.94 188.464 107.679 188.436 107.421 188.395C107.345 188.388 107.271 188.366 107.204 188.33C107.137 188.294 107.078 188.245 107.03 188.185C106.995 188.108 106.992 188.02 107.021 187.941C107.051 187.861 107.11 187.797 107.187 187.761C107.324 187.699 107.471 187.665 107.621 187.658C107.757 187.658 107.899 187.634 108.036 187.629C108.296 187.62 108.557 187.632 108.816 187.663C108.943 187.663 109.065 187.697 109.177 187.722C109.304 187.741 109.418 187.809 109.494 187.912C109.508 187.942 109.514 187.974 109.512 188.007C109.51 188.04 109.501 188.071 109.485 188.1C109.469 188.128 109.446 188.153 109.419 188.171C109.392 188.189 109.361 188.201 109.329 188.205C109.227 188.219 109.123 188.219 109.021 188.205L108.133 188.156C108.025 188.156 107.917 188.144 107.811 188.122C107.92 188.113 108.029 188.113 108.138 188.122H109.026C109.12 188.136 109.215 188.136 109.309 188.122C109.402 188.122 109.465 188.024 109.421 187.946C109.319 187.79 109.041 187.79 108.806 187.751C108.551 187.721 108.293 187.711 108.036 187.722C107.766 187.722 107.498 187.763 107.24 187.844C107.128 187.902 107.06 188.034 107.118 188.127C107.199 188.22 107.312 188.279 107.435 188.292C108.122 188.41 108.823 188.423 109.514 188.331C109.808 188.309 110.097 188.245 110.373 188.141C110.468 188.096 110.561 188.046 110.651 187.99Z" fill="#455A64"/>
<path d="M105.264 200.13C105.258 200.091 105.258 200.052 105.264 200.013C105.264 199.91 105.298 199.803 105.318 199.681C105.376 199.339 105.449 198.93 105.532 198.466C105.713 197.436 105.957 196.026 106.206 194.44C106.455 192.855 106.65 191.435 106.791 190.4C106.855 189.912 106.913 189.522 106.957 189.176L107.006 188.839C107.01 188.801 107.018 188.763 107.03 188.727C107.038 188.765 107.038 188.805 107.03 188.844C107.03 188.946 107.03 189.058 107.001 189.176C106.962 189.527 106.918 189.937 106.869 190.41C106.747 191.445 106.557 192.879 106.308 194.455C106.059 196.031 105.82 197.451 105.606 198.476C105.513 198.964 105.43 199.344 105.362 199.691L105.288 200.018C105.279 200.096 105.269 200.135 105.264 200.13Z" fill="#455A64"/>
<path d="M111.617 191.342C111.482 191.268 111.337 191.21 111.188 191.171C110.772 191.09 110.341 191.164 109.978 191.381C109.453 191.73 109.023 192.205 108.728 192.762C108.322 193.418 107.963 194.103 107.655 194.811C107.11 196.108 106.652 197.44 106.284 198.798L105.933 200.032L105.835 200.364C105.829 200.405 105.815 200.445 105.796 200.481C105.791 200.441 105.791 200.4 105.796 200.359C105.82 200.257 105.85 200.145 105.874 200.023C105.967 199.671 106.069 199.257 106.191 198.778C106.542 197.411 106.993 196.072 107.543 194.772C107.853 194.06 108.215 193.372 108.626 192.713C108.935 192.149 109.38 191.669 109.919 191.318C110.301 191.102 110.75 191.036 111.178 191.132C111.34 191.164 111.491 191.236 111.617 191.342Z" fill="#455A64"/>
<path d="M109.548 201.901C109.64 201.968 109.705 202.065 109.734 202.174C109.778 202.33 109.774 202.495 109.722 202.648C109.67 202.8 109.571 202.933 109.441 203.028C109.214 203.15 108.949 203.184 108.699 203.123C108.448 203.061 108.23 202.91 108.084 202.697C107.905 202.408 107.793 202.083 107.755 201.745C107.718 201.407 107.757 201.065 107.87 200.745C107.948 200.367 108.054 199.995 108.187 199.632C108.264 199.438 108.382 199.263 108.533 199.118C108.683 198.973 108.863 198.862 109.06 198.793C109.282 198.726 109.521 198.739 109.734 198.832C109.943 198.934 110.128 199.08 110.275 199.261C110.572 199.636 110.802 200.059 110.958 200.511C111.302 201.483 111.356 202.534 111.114 203.536C110.877 204.622 110.261 205.589 109.377 206.263C109.151 206.437 108.89 206.558 108.612 206.62C108.334 206.681 108.045 206.681 107.767 206.62C107.505 206.53 107.267 206.383 107.071 206.188C106.874 205.994 106.723 205.758 106.63 205.497C106.451 205.001 106.388 204.47 106.445 203.946C106.484 203.458 106.557 202.945 106.63 202.482C106.853 200.777 107.375 199.125 108.172 197.602C108.727 196.576 109.488 195.676 110.407 194.958C110.738 194.69 111.1 194.462 111.485 194.28L111.202 194.45C110.933 194.611 110.676 194.791 110.431 194.987C109.53 195.715 108.784 196.616 108.236 197.637C107.448 199.161 106.936 200.813 106.723 202.516C106.65 203.004 106.581 203.492 106.542 203.98C106.487 204.49 106.549 205.005 106.723 205.488C106.81 205.734 106.952 205.958 107.138 206.143C107.324 206.327 107.549 206.467 107.796 206.551C108.06 206.609 108.333 206.608 108.596 206.549C108.859 206.49 109.105 206.374 109.319 206.21C110.183 205.549 110.785 204.603 111.017 203.541C111.254 202.558 111.204 201.528 110.87 200.574C110.721 200.131 110.497 199.716 110.207 199.349C110.087 199.17 109.915 199.032 109.715 198.952C109.515 198.872 109.295 198.854 109.085 198.9C108.896 198.974 108.726 199.088 108.585 199.233C108.444 199.379 108.337 199.553 108.27 199.745C108.138 200.103 108.03 200.47 107.948 200.842C107.839 201.15 107.801 201.479 107.835 201.804C107.868 202.128 107.974 202.442 108.143 202.721C108.279 202.927 108.488 203.074 108.728 203.132C108.968 203.189 109.221 203.154 109.436 203.033C109.562 202.944 109.658 202.818 109.71 202.672C109.763 202.526 109.769 202.368 109.729 202.218C109.696 202.099 109.634 201.99 109.548 201.901Z" fill="#455A64"/>
<path d="M245.972 207.908C243.97 208.594 241.797 208.594 239.795 207.908V188.473C242.035 187.365 244.079 187.453 245.972 188.473V207.908Z" fill="#263238"/>
<path d="M245.982 188.483C245.914 188.529 245.84 188.567 245.762 188.595C245.56 188.69 245.351 188.771 245.138 188.839C243.726 189.292 242.21 189.314 240.785 188.902C240.569 188.841 240.357 188.766 240.151 188.678C240.074 188.652 240.001 188.617 239.932 188.575C239.932 188.575 240.258 188.693 240.8 188.834C241.508 189.016 242.236 189.103 242.967 189.093C243.695 189.079 244.418 188.971 245.118 188.771C245.655 188.61 245.972 188.468 245.982 188.483Z" fill="#455A64"/>
<path d="M244.923 188.327C244.853 188.409 244.764 188.474 244.665 188.517C244.394 188.633 244.108 188.708 243.816 188.741C243.384 188.805 242.948 188.826 242.513 188.805C242.256 188.795 242 188.769 241.747 188.727C241.672 188.72 241.6 188.698 241.534 188.662C241.469 188.626 241.412 188.576 241.366 188.517C241.348 188.48 241.338 188.44 241.336 188.398C241.334 188.357 241.34 188.316 241.354 188.278C241.368 188.239 241.39 188.203 241.418 188.173C241.446 188.143 241.48 188.119 241.517 188.102C241.651 188.041 241.795 188.006 241.942 188L242.347 187.97C242.606 187.962 242.865 187.973 243.123 188.005C243.245 188.005 243.362 188.039 243.479 188.063C243.54 188.071 243.599 188.092 243.652 188.124C243.705 188.156 243.751 188.198 243.786 188.249C243.8 188.278 243.806 188.31 243.804 188.343C243.802 188.375 243.793 188.407 243.777 188.435C243.761 188.463 243.738 188.487 243.711 188.505C243.684 188.522 243.653 188.533 243.62 188.536C243.522 188.548 243.422 188.548 243.323 188.536L242.449 188.488C242.341 188.484 242.234 188.473 242.127 188.454C242.235 188.446 242.342 188.446 242.449 188.454H243.323C243.415 188.463 243.508 188.463 243.601 188.454C243.694 188.454 243.757 188.356 243.713 188.278C243.611 188.127 243.342 188.127 243.108 188.088C242.857 188.06 242.604 188.051 242.352 188.058C242.085 188.059 241.82 188.1 241.566 188.18C241.54 188.191 241.517 188.207 241.497 188.226C241.478 188.246 241.462 188.27 241.452 188.296C241.441 188.322 241.436 188.349 241.436 188.377C241.437 188.405 241.443 188.433 241.454 188.458C241.533 188.548 241.643 188.605 241.761 188.619C242.012 188.66 242.264 188.688 242.518 188.702C242.947 188.729 243.379 188.714 243.806 188.658C244.094 188.635 244.378 188.573 244.65 188.473C244.744 188.429 244.835 188.38 244.923 188.327Z" fill="#455A64"/>
<path d="M239.624 200.257V200.145C239.624 200.042 239.658 199.935 239.678 199.818C239.736 199.476 239.81 199.076 239.888 198.617C240.068 197.607 240.307 196.207 240.551 194.66C240.795 193.113 240.99 191.703 241.127 190.688C241.191 190.2 241.244 189.825 241.293 189.483C241.293 189.366 241.322 189.254 241.342 189.151C241.34 189.114 241.34 189.076 241.342 189.039C241.348 189.078 241.348 189.117 241.342 189.156C241.342 189.259 241.342 189.366 241.313 189.488C241.273 189.83 241.23 190.235 241.181 190.698C241.059 191.718 240.873 193.138 240.629 194.675C240.385 196.212 240.141 197.602 239.941 198.632C239.849 199.091 239.766 199.486 239.697 199.823C239.668 199.94 239.649 200.047 239.624 200.15C239.6 200.252 239.629 200.257 239.624 200.257Z" fill="#455A64"/>
<path d="M245.875 191.625C245.742 191.549 245.599 191.491 245.45 191.454C245.041 191.376 244.617 191.451 244.26 191.664C243.744 192.007 243.321 192.474 243.03 193.021C242.632 193.668 242.28 194.344 241.976 195.041C241.44 196.311 240.989 197.615 240.624 198.944L240.283 200.154L240.19 200.481C240.181 200.522 240.166 200.562 240.146 200.598C240.151 200.557 240.16 200.516 240.171 200.476L240.249 200.145L240.556 198.925C240.899 197.579 241.343 196.261 241.883 194.982C242.19 194.282 242.547 193.605 242.952 192.957C243.254 192.4 243.692 191.928 244.225 191.586C244.599 191.37 245.04 191.304 245.46 191.401C245.614 191.44 245.757 191.518 245.875 191.625Z" fill="#455A64"/>
<path d="M243.835 202.013C243.925 202.076 243.989 202.17 244.016 202.277C244.061 202.429 244.057 202.592 244.006 202.742C243.954 202.893 243.857 203.023 243.728 203.116C243.506 203.239 243.247 203.276 243 203.219C242.753 203.162 242.536 203.016 242.391 202.809C242.217 202.529 242.108 202.214 242.071 201.886C242.034 201.559 242.07 201.227 242.176 200.916C242.256 200.543 242.361 200.176 242.488 199.818C242.558 199.619 242.67 199.437 242.817 199.286C242.963 199.134 243.141 199.016 243.337 198.939C243.557 198.873 243.792 198.889 244.001 198.983C244.21 199.08 244.394 199.223 244.538 199.403C244.83 199.772 245.058 200.188 245.211 200.633C245.546 201.59 245.598 202.623 245.362 203.609C245.126 204.676 244.519 205.626 243.65 206.288C243.429 206.46 243.172 206.581 242.899 206.642C242.625 206.702 242.342 206.702 242.069 206.639C241.811 206.551 241.577 206.406 241.383 206.215C241.188 206.024 241.039 205.792 240.946 205.536C240.776 205.046 240.715 204.525 240.766 204.009C240.805 203.521 240.878 203.033 240.946 202.545C241.163 200.862 241.678 199.231 242.469 197.729C243.013 196.718 243.76 195.831 244.665 195.124C244.99 194.861 245.346 194.639 245.723 194.46C245.723 194.46 245.631 194.524 245.445 194.626C245.182 194.788 244.93 194.965 244.689 195.158C243.803 195.874 243.07 196.76 242.532 197.763C241.756 199.262 241.25 200.886 241.039 202.56C240.971 203.048 240.903 203.536 240.864 204.024C240.815 204.519 240.875 205.018 241.039 205.488C241.125 205.73 241.265 205.951 241.449 206.131C241.632 206.312 241.854 206.449 242.098 206.532C242.356 206.591 242.624 206.591 242.883 206.533C243.141 206.474 243.383 206.359 243.591 206.195C244.441 205.547 245.034 204.619 245.265 203.575C245.499 202.605 245.448 201.589 245.118 200.647C244.972 200.211 244.753 199.804 244.469 199.442C244.351 199.266 244.183 199.13 243.986 199.051C243.789 198.973 243.573 198.956 243.367 199.003C243.18 199.074 243.011 199.185 242.872 199.328C242.733 199.472 242.627 199.644 242.562 199.832C242.433 200.185 242.327 200.545 242.244 200.911C242.139 201.213 242.101 201.535 242.134 201.854C242.167 202.173 242.269 202.481 242.435 202.755C242.571 202.955 242.777 203.097 243.012 203.154C243.248 203.211 243.496 203.178 243.708 203.063C243.833 202.975 243.928 202.851 243.979 202.708C244.031 202.565 244.037 202.409 243.996 202.262C243.963 202.168 243.908 202.082 243.835 202.013Z" fill="#455A64"/>
<path d="M229.119 175.367V177.026L224.337 176.494L229.119 175.367Z" fill="#263238"/>
<path d="M238.151 188.8V191.005L233.583 191.396L238.151 188.8Z" fill="#263238"/>
<path d="M139.049 150.628V152.063L141.23 151.667L139.049 150.628Z" fill="#263238"/>
<path d="M138.269 152.204V153.487L139.654 152.931L138.269 152.204Z" fill="#263238"/>
<path d="M53.342 146.207H53.5518C53.1224 139.864 49.9411 133.082 47.6331 127.139C45.2568 121.025 43.0318 114.75 37.6302 111.036C43.4722 122.487 48.7165 134.233 53.342 146.227" fill="#455A64"/>
<path d="M57.1333 114.018C57.1333 114.018 57.1333 114.042 57.1333 114.096L57.0601 114.335L56.7576 115.238C56.6942 115.433 56.621 115.652 56.538 115.887C56.4551 116.121 56.3868 116.375 56.3038 116.672C56.1379 117.233 55.933 117.868 55.7524 118.585L55.4597 119.707C55.3572 120.093 55.2743 120.507 55.1767 120.927C54.9717 121.771 54.8058 122.684 54.6204 123.64C54.2886 125.563 54.0007 127.695 53.8299 129.939C53.6592 132.184 53.6494 134.331 53.6933 136.283C53.7372 137.259 53.7616 138.186 53.8397 139.049C53.8739 139.484 53.8934 139.903 53.9373 140.303C53.9812 140.703 54.0202 141.089 54.0544 141.455C54.1227 142.192 54.2301 142.85 54.3032 143.431C54.3423 143.724 54.3813 143.992 54.4155 144.241C54.4496 144.49 54.4935 144.729 54.5277 144.919C54.596 145.319 54.6448 145.637 54.6838 145.856C54.6838 145.959 54.6838 146.042 54.718 146.105C54.7202 146.133 54.7202 146.16 54.718 146.188C54.718 146.188 54.3081 144.402 53.9519 141.465C53.9129 141.099 53.869 140.713 53.8251 140.313C53.7812 139.913 53.7568 139.493 53.7177 139.059C53.6396 138.191 53.6055 137.263 53.5616 136.288C53.5079 134.336 53.5323 132.179 53.6884 129.944C53.8446 127.71 54.1764 125.553 54.4887 123.635C54.679 122.659 54.8449 121.761 55.0596 120.917C55.1572 120.498 55.245 120.083 55.3474 119.693L55.6549 118.575C55.8354 117.858 56.0501 117.224 56.2209 116.662C56.3136 116.384 56.3916 116.121 56.4697 115.882L56.6991 115.233C56.8406 114.852 56.9479 114.55 57.026 114.34L57.1089 114.106L57.1333 114.018Z" fill="#455A64"/>
<path d="M56.1841 110.511L54.0092 118.187C53.791 118.957 54.2384 119.758 55.0084 119.976L55.3371 120.069C56.1071 120.288 56.9082 119.84 57.1264 119.07L59.3013 111.394C59.5195 110.624 59.0722 109.823 58.3021 109.605L57.9735 109.512C57.2034 109.294 56.4023 109.741 56.1841 110.511Z" fill="#F5F5F5"/>
<path d="M55.3328 120.068C55.3328 120.068 55.4255 120.068 55.5914 120.102C55.8392 120.118 56.0872 120.073 56.3135 119.971C56.4897 119.89 56.6474 119.774 56.7767 119.629C56.906 119.485 57.0041 119.315 57.065 119.131C57.1918 118.692 57.3285 118.18 57.4895 117.619C57.8018 116.492 58.1726 115.179 58.5873 113.676C58.7972 112.939 59.0167 112.159 59.2412 111.354C59.2925 111.156 59.2998 110.95 59.2627 110.749C59.2257 110.548 59.145 110.358 59.0265 110.192C58.9053 110.024 58.7487 109.884 58.5678 109.782C58.3704 109.692 58.1645 109.622 57.953 109.573C57.7511 109.518 57.5395 109.509 57.3335 109.546C57.1276 109.583 56.9325 109.665 56.7624 109.787C56.5966 109.91 56.4586 110.066 56.3574 110.246C56.2719 110.434 56.2049 110.63 56.1574 110.831C55.9281 111.637 55.7085 112.417 55.4938 113.154L54.3666 117.087C54.2837 117.37 54.2105 117.633 54.1373 117.887C54.0513 118.115 54.0019 118.356 53.9909 118.599C53.9927 118.793 54.0339 118.984 54.1119 119.161C54.1899 119.338 54.3031 119.497 54.4447 119.629C54.6268 119.798 54.8482 119.919 55.0888 119.98L55.2742 120.044C55.3132 120.044 55.3376 120.044 55.3328 120.068H55.2693L55.079 120.024C54.831 119.968 54.6011 119.851 54.4106 119.683C54.2598 119.548 54.1387 119.383 54.0547 119.2C53.9707 119.016 53.9257 118.816 53.9226 118.614C53.931 118.363 53.977 118.115 54.0592 117.877C54.1275 117.624 54.2007 117.355 54.2788 117.077C54.596 115.955 54.9668 114.637 55.3816 113.139C55.5914 112.398 55.8109 111.617 56.0354 110.812C56.085 110.602 56.157 110.397 56.2501 110.202C56.3558 110.007 56.5063 109.84 56.6892 109.714C56.8748 109.578 57.0889 109.485 57.3155 109.444C57.5421 109.402 57.7751 109.413 57.9969 109.475C58.2172 109.525 58.4314 109.599 58.6361 109.695C58.8283 109.809 58.9944 109.961 59.1241 110.143C59.2532 110.326 59.3407 110.535 59.3803 110.755C59.4199 110.975 59.4107 111.201 59.3534 111.417L58.6947 113.74L57.5627 117.672C57.4016 118.234 57.2601 118.736 57.1186 119.185C57.0523 119.377 56.9469 119.552 56.8092 119.701C56.6714 119.85 56.5043 119.968 56.3184 120.049C56.0858 120.152 55.8291 120.189 55.5767 120.156C55.4919 120.138 55.4098 120.108 55.3328 120.068Z" fill="#263238"/>
<path d="M54.7084 146.188C54.5083 141.309 54.5034 135.897 57.2798 131.857C58.8559 129.569 61.2224 127.919 63.7548 126.782C66.3242 125.722 68.9847 124.897 71.7034 124.318C68.6977 128.529 61.886 128.578 59.0169 132.877C58.163 134.15 57.7629 135.668 57.3774 137.151C56.5772 140.225 55.8697 143.138 55.0694 146.208" fill="#455A64"/>
<path d="M33.2437 128.988H33.312H33.5071C33.6779 129.012 33.9317 129.032 34.2537 129.095C35.1645 129.249 36.0618 129.474 36.9374 129.769C38.2408 130.202 39.4939 130.775 40.675 131.476C41.3679 131.896 42.0359 132.356 42.6756 132.852C43.3638 133.395 44.0158 133.982 44.6274 134.609C45.2296 135.239 45.7841 135.912 46.2864 136.624C46.5352 136.966 46.7743 137.317 46.9793 137.654C47.1842 137.99 47.394 138.342 47.5745 138.683C48.238 139.885 48.7791 141.15 49.1896 142.46C49.4735 143.34 49.6873 144.24 49.8288 145.153C49.8874 145.476 49.902 145.729 49.9216 145.9V146.095L49.8923 145.905C49.863 145.734 49.8386 145.48 49.7703 145.163C49.6095 144.257 49.3844 143.364 49.0969 142.489C48.6741 141.19 48.1267 139.935 47.4623 138.742C47.2818 138.4 47.072 138.069 46.8621 137.722C46.6523 137.376 46.423 137.039 46.1741 136.702C45.6752 135.995 45.1239 135.326 44.5249 134.702C43.9296 134.075 43.2904 133.491 42.6122 132.955C41.979 132.46 41.3175 132.002 40.6311 131.584C39.4607 130.88 38.2193 130.301 36.9276 129.856C36.0572 129.558 35.167 129.319 34.2635 129.144C33.9414 129.076 33.6926 129.051 33.5218 129.017L33.3315 128.983L33.2437 128.988Z" fill="#455A64"/>
<path d="M28.4187 125.847L28.2707 126.155C27.9239 126.877 28.2274 127.742 28.9488 128.089L36.1386 131.546C36.86 131.893 37.7259 131.59 38.0727 130.868L38.2207 130.561C38.5675 129.839 38.264 128.973 37.5427 128.627L30.3528 125.169C29.6315 124.823 28.7655 125.126 28.4187 125.847Z" fill="#F5F5F5"/>
<path d="M38.2207 130.559C38.2207 130.559 38.2549 130.476 38.2988 130.31C38.3581 130.07 38.3581 129.819 38.2988 129.578C38.2491 129.391 38.1609 129.215 38.04 129.063C37.9191 128.911 37.7679 128.786 37.5961 128.695C37.1863 128.49 36.7032 128.271 36.1811 128.017L32.4874 126.26L30.3111 125.216C30.1261 125.13 29.9246 125.086 29.7207 125.086C29.5168 125.086 29.3154 125.13 29.1303 125.216C28.941 125.309 28.7744 125.442 28.6424 125.606C28.5181 125.783 28.4134 125.973 28.3301 126.172C28.2386 126.361 28.191 126.568 28.191 126.778C28.191 126.987 28.2386 127.194 28.3301 127.383C28.4167 127.573 28.5471 127.74 28.7107 127.87C28.8783 127.992 29.0602 128.092 29.2523 128.168L31.4285 129.222L35.1076 131.008L35.8542 131.369C36.0658 131.491 36.2943 131.582 36.5324 131.637C36.7236 131.666 36.9187 131.657 37.1063 131.61C37.2939 131.563 37.4703 131.48 37.6254 131.364C37.8228 131.214 37.9803 131.018 38.0841 130.793L38.1768 130.618C38.1768 130.579 38.2061 130.564 38.2109 130.564C38.2124 130.585 38.2124 130.606 38.2109 130.627L38.1329 130.803C38.0386 131.04 37.8838 131.249 37.684 131.408C37.525 131.533 37.3421 131.624 37.1467 131.676C36.9512 131.728 36.7472 131.74 36.5471 131.711C36.301 131.658 36.0642 131.569 35.8444 131.447L35.093 131.091L31.3993 129.329L29.2181 128.29C29.0196 128.205 28.83 128.1 28.6521 127.978C28.4775 127.835 28.3346 127.657 28.2325 127.456C28.1313 127.249 28.0786 127.022 28.0786 126.792C28.0786 126.562 28.1313 126.335 28.2325 126.129C28.3176 125.92 28.4257 125.722 28.5545 125.538C28.698 125.359 28.8797 125.214 29.0864 125.114C29.2886 125.018 29.5094 124.969 29.7329 124.969C29.9565 124.969 30.1772 125.018 30.3795 125.114L32.5557 126.163L36.2348 127.949C36.7618 128.202 37.2351 128.437 37.6498 128.641C37.8269 128.74 37.9817 128.874 38.1043 129.035C38.2269 129.196 38.3148 129.381 38.3622 129.578C38.4294 129.824 38.4294 130.084 38.3622 130.33C38.3264 130.413 38.2787 130.49 38.2207 130.559Z" fill="#263238"/>
<path d="M301.334 133.214C303.836 151.023 306.337 168.832 308.839 186.638L310.791 186.702C309.546 168.541 308.219 150.048 301.334 133.214Z" fill="#455A64"/>
<path d="M322.17 130.71C316.924 136.453 314.821 144.348 313.509 152.009C311.63 162.871 311.459 175.694 312.02 186.702L314.758 186.765C313.671 167.78 316.186 148.761 322.17 130.71Z" fill="#455A64"/>
<path d="M302.715 164.822C302.11 162.173 301.422 159.479 299.909 157.225C297.87 154.18 294.542 152.253 291.2 150.755C287.857 149.257 284.334 148.047 281.304 145.983C284.676 151.511 292.332 152.985 296.23 158.181C298.182 160.753 298.973 163.983 299.734 167.116C301.393 173.947 302.413 179.856 304.072 186.682H306.287C305.559 179.328 304.366 172.026 302.715 164.822Z" fill="#455A64"/>
<path d="M316.744 186.702C316.744 186.702 318.622 165.486 320.018 161.587C321.413 157.689 334.578 146.949 334.451 147.437C334.324 147.925 324.575 159.719 323.185 162.124C321.794 164.53 319.364 186.702 319.364 186.702H316.744Z" fill="#455A64"/>
<path d="M122.518 48.8626C122.518 48.8919 121.976 48.6723 120.981 48.4528C119.574 48.1459 118.123 48.0897 116.697 48.2869C114.577 48.566 112.577 49.4293 110.919 50.7802C108.89 52.4342 107.458 54.7064 106.84 57.2504V57.3236L106.718 57.8115L106.543 57.3724C105.55 54.9593 103.848 52.9041 101.663 51.478C99.8747 50.3115 97.8164 49.6243 95.6858 49.4823C94.2541 49.3783 92.815 49.5102 91.4261 49.8727C90.4502 50.1313 89.9232 50.3606 89.9135 50.3313C90.0299 50.2575 90.1543 50.197 90.2843 50.1508C90.6445 49.9952 91.0145 49.8631 91.3919 49.7556C93.1309 49.2442 94.9591 49.1103 96.754 49.3628C98.549 49.6152 100.269 50.2482 101.8 51.2194C104.05 52.6619 105.802 54.7626 106.816 57.2357L106.518 57.2601V57.1869C107.151 54.5758 108.627 52.2465 110.719 50.5607C112.423 49.1923 114.478 48.33 116.648 48.0722C118.1 47.8914 119.572 47.9824 120.991 48.3405C121.374 48.4338 121.75 48.5528 122.118 48.6967C122.257 48.7379 122.391 48.7935 122.518 48.8626Z" fill="#263238"/>
<path d="M170.053 20.4351C170.053 20.4643 169.751 20.3521 169.199 20.2399C168.429 20.0814 167.636 20.0583 166.857 20.1716C165.701 20.3279 164.612 20.8027 163.71 21.5427C162.604 22.449 161.828 23.6938 161.5 25.0852V25.1242L161.378 25.5877L161.202 25.1486C160.662 23.8348 159.736 22.7155 158.548 21.9379C157.577 21.3023 156.46 20.9245 155.303 20.8401C154.52 20.778 153.733 20.8422 152.97 21.0304C152.429 21.1621 152.141 21.2792 152.126 21.2548C152.187 21.2078 152.254 21.17 152.326 21.1426C152.524 21.0528 152.728 20.9762 152.936 20.9132C153.894 20.6194 154.904 20.5349 155.897 20.6654C156.891 20.7959 157.844 21.1383 158.694 21.6696C159.943 22.4695 160.916 23.6348 161.48 25.0071L161.187 25.0315V24.9925C161.536 23.5404 162.358 22.2459 163.525 21.3134C164.316 20.6854 165.242 20.2503 166.23 20.0428C167.219 19.8353 168.242 19.861 169.219 20.1179C169.431 20.171 169.638 20.2411 169.839 20.3277C169.915 20.3523 169.988 20.3885 170.053 20.4351Z" fill="#263238"/>
<path d="M136.771 13.7844C136.771 13.7844 136.478 14.121 135.946 14.7163C135.206 15.5659 134.537 16.4749 133.945 17.4342C131.966 20.6059 130.927 24.2741 130.949 28.0128C130.952 28.0567 130.952 28.1007 130.949 28.1445H130.642C130.331 26.1372 129.67 24.2 128.69 22.421C127.904 20.9672 126.919 19.6303 125.763 18.4491C124.983 17.6534 124.128 16.9345 123.211 16.3021C122.562 15.8484 122.186 15.6239 122.201 15.5995C122.302 15.6332 122.398 15.6791 122.488 15.7361C122.669 15.8435 122.947 15.9752 123.279 16.2241C124.232 16.83 125.117 17.5367 125.919 18.332C128.607 20.9745 130.369 24.4144 130.945 28.1397L130.637 28.164V28.0128C130.609 24.2217 131.691 20.5053 133.75 17.3219C134.363 16.3619 135.069 15.4646 135.858 14.6431C136.127 14.3455 136.37 14.1552 136.522 13.9942C136.673 13.8332 136.761 13.7746 136.771 13.7844Z" fill="#263238"/>
<path d="M335.539 89.7036C335.539 89.772 260.42 89.8305 167.779 89.8305C75.1384 89.8305 0 89.772 0 89.7036C0 89.6353 75.1042 89.5768 167.779 89.5768C260.454 89.5768 335.539 89.6353 335.539 89.7036Z" fill="#263238"/>
<path d="M331.367 186.658C331.367 186.731 319.842 186.785 305.633 186.785C291.424 186.785 279.894 186.731 279.894 186.658C279.894 186.585 291.414 186.531 305.633 186.531C319.852 186.531 331.367 186.594 331.367 186.658Z" fill="#263238"/>
<path d="M306.394 187.868C306.394 187.936 305.989 187.995 305.487 187.995C304.984 187.995 304.584 187.936 304.584 187.868C304.584 187.8 304.989 187.741 305.487 187.741C305.984 187.741 306.394 187.8 306.394 187.868Z" fill="#455A64"/>
<path d="M311 188.136C311 188.21 310.571 188.263 310.024 188.263C309.478 188.263 309.049 188.21 309.049 188.136C309.049 188.063 309.478 188.01 310.024 188.01C310.571 188.01 311 188.058 311 188.136Z" fill="#455A64"/>
<path d="M314.226 188.205C314.226 188.273 313.855 188.332 313.401 188.332C312.947 188.332 312.576 188.273 312.576 188.205C312.576 188.136 312.947 188.078 313.401 188.078C313.855 188.078 314.226 188.136 314.226 188.205Z" fill="#455A64"/>
<path d="M318.998 188.136C318.291 188.306 317.553 188.306 316.846 188.136C317.553 187.967 318.291 187.967 318.998 188.136Z" fill="#455A64"/>
<path d="M314.762 189.181C314.762 189.249 314.362 189.307 313.874 189.307C313.386 189.307 312.981 189.249 312.981 189.181C312.981 189.112 313.382 189.054 313.874 189.054C314.367 189.054 314.762 189.107 314.762 189.181Z" fill="#455A64"/>
<path d="M312.142 189.547C311.446 189.716 310.72 189.716 310.025 189.547C310.72 189.378 311.446 189.378 312.142 189.547Z" fill="#455A64"/>
<path d="M293.888 122.464C293.888 122.537 279.284 122.591 261.264 122.591C243.245 122.591 228.641 122.537 228.641 122.464C228.641 122.391 243.245 122.337 261.264 122.337C279.284 122.337 293.888 122.396 293.888 122.464Z" fill="#263238"/>
<path d="M313.06 128.407C313.06 128.48 298.451 128.534 280.436 128.534C262.421 128.534 247.807 128.48 247.807 128.407C247.807 128.334 262.416 128.28 280.436 128.28C298.455 128.28 313.06 128.339 313.06 128.407Z" fill="#263238"/>
<path d="M356.252 93.3974C356.252 93.4657 325.434 93.5242 287.423 93.5242C249.412 93.5242 218.584 93.4657 218.584 93.3974C218.584 93.3291 249.398 93.2705 287.423 93.2705C325.448 93.2705 356.252 93.3242 356.252 93.3974Z" fill="#455A64"/>
<path d="M254.331 95.959C254.331 96.0322 245.182 96.0908 233.905 96.0908C222.629 96.0908 213.48 96.0322 213.48 95.959C213.48 95.8858 222.624 95.8322 233.91 95.8322C245.196 95.8322 254.331 95.8907 254.331 95.959Z" fill="#455A64"/>
<path d="M361 95.7345C361 95.8028 353.632 95.8614 344.546 95.8614C335.461 95.8614 328.088 95.8028 328.088 95.7345C328.088 95.6662 335.456 95.6077 344.546 95.6077C353.637 95.6077 361 95.6662 361 95.7345Z" fill="#455A64"/>
<path d="M101.073 146.334C101.073 146.403 86.3904 146.461 68.2779 146.461C50.1655 146.461 35.4833 146.403 35.4833 146.334C35.4833 146.266 50.1655 146.207 68.2779 146.207C86.3904 146.207 101.073 146.266 101.073 146.334Z" fill="#263238"/>
<path d="M106.216 138.893C106.216 138.961 100.633 139.02 93.7437 139.02C86.8539 139.02 81.2767 138.961 81.2767 138.893C81.2767 138.825 86.8588 138.766 93.7437 138.766C100.629 138.766 106.216 138.82 106.216 138.893Z" fill="#263238"/>
<path d="M58.3141 148.491C56.6518 148.617 54.9842 148.659 53.3176 148.618C51.6526 148.659 49.9866 148.617 48.3259 148.491C49.9866 148.365 51.6526 148.323 53.3176 148.364C54.9842 148.323 56.6518 148.365 58.3141 148.491Z" fill="#455A64"/>
<path d="M52.4588 150.77C51.8007 150.862 51.1335 150.872 50.4729 150.799C49.8152 150.806 49.1593 150.729 48.5211 150.57C49.1794 150.477 49.8467 150.469 50.507 150.545C51.1646 150.536 51.8206 150.611 52.4588 150.77Z" fill="#455A64"/>
<path d="M50.2776 153.336C50.2776 153.41 49.8726 153.444 49.3798 153.414C48.887 153.385 48.4917 153.307 48.4966 153.239C48.5015 153.17 48.9016 153.136 49.3944 153.161C49.8873 153.185 50.2825 153.268 50.2776 153.336Z" fill="#455A64"/>
</svg>
