<svg width="300" height="76" viewBox="0 0 300 76" fill="none" xmlns="http://www.w3.org/2000/svg">
<path d="M173.609 0.441736C173.324 0.790087 173.419 0.821755 174.053 0.695082C174.496 0.631745 174.845 0.441736 174.845 0.283394C174.845 -0.159962 174.021 -0.0649569 173.609 0.441736Z" fill="#263238"/>
<path d="M175.795 0.695013C176.523 1.48714 176.555 1.67725 176.08 2.6278C175.763 3.29318 175.763 3.29318 176.238 2.72285C176.904 1.89904 176.872 1.17029 176.175 0.536588C175.319 -0.255536 175.034 -0.128796 175.795 0.695013Z" fill="#263238"/>
<path d="M171.739 1.45547C171.169 2.24759 171.105 2.27928 171.264 1.64558C171.485 0.726717 170.788 0.726717 170.44 1.67727C170.281 2.08917 169.933 2.59613 169.648 2.81792C169.363 3.03972 169.141 3.45162 169.141 3.67342C169.141 3.99027 168.729 4.11701 167.747 4.11701C166.036 4.11701 165.719 4.49723 166.669 5.35272C167.62 6.27159 168.317 6.17653 168.729 5.13093C169.046 4.3388 169.077 4.37049 168.951 5.54283L168.792 6.81023L169.743 5.70126L170.693 4.59228L170.725 5.95474C170.725 6.77855 170.852 7.25382 171.042 7.12708C171.232 7.03202 171.359 6.01811 171.359 4.94082C171.359 3.38825 171.517 2.75455 172.024 2.08917C172.373 1.64558 172.626 1.10694 172.563 0.88514C172.499 0.695031 172.119 0.948511 171.739 1.45547ZM169.806 4.52891C169.553 4.78239 169.458 4.75071 169.458 4.40217C169.458 4.11701 169.553 3.80016 169.679 3.67342C169.806 3.54668 169.965 3.61005 170.028 3.80016C170.123 4.02195 169.996 4.3388 169.806 4.52891Z" fill="#263238"/>
<path d="M172.943 1.61392C172.943 2.46942 173.894 3.48334 174.749 3.48334C175.732 3.48334 175.605 3.22986 174.496 3.07143C174.052 3.00806 173.704 2.69121 173.64 2.34268C173.482 1.55055 172.943 0.980228 172.943 1.61392Z" fill="#263238"/>
<path d="M174.845 1.8997C174.845 2.05781 175.003 2.21591 175.162 2.21591C175.352 2.21591 175.478 2.05781 175.478 1.8997C175.478 1.70998 175.352 1.5835 175.162 1.5835C175.003 1.5835 174.845 1.70998 174.845 1.8997Z" fill="#263238"/>
<path d="M176.936 2.08985C176.651 2.81822 177.538 3.76827 178.045 3.26158C178.52 2.78655 178.267 1.77317 177.665 1.6465C177.38 1.58316 177.063 1.80484 176.936 2.08985Z" fill="#263238"/>
<path d="M204.375 3.35656C203.614 3.89521 203.551 4.05363 203.963 4.68733C204.153 5.00418 204.375 5.03587 205.04 4.71902C205.515 4.49722 205.896 4.21206 205.896 4.05363C205.896 3.89521 205.769 3.86352 205.579 3.95858C205.135 4.24374 205.167 3.7051 205.642 3.22982C206.213 2.65949 205.262 2.72286 204.375 3.35656Z" fill="#263238"/>
<path d="M173.007 3.83218C173.071 4.05386 173.324 4.30721 173.546 4.37054C173.799 4.46555 173.926 4.33888 173.831 4.08553C173.768 3.86385 173.514 3.61051 173.292 3.54717C173.039 3.45216 172.912 3.57884 173.007 3.83218Z" fill="#263238"/>
<path d="M175.794 3.95857C175.541 4.24373 175.478 4.87743 175.604 5.60619C175.731 6.27157 175.858 7.15875 175.921 7.60234C175.985 8.04593 176.048 8.5212 176.08 8.64794C176.175 9.31333 177.22 8.61626 177.379 7.76076C177.505 7.19043 177.759 6.8419 177.981 6.90527C178.203 6.93695 179.026 7.00032 179.787 7.03201C181.308 7.06369 181.688 7.50728 180.325 7.66571C179.692 7.72908 179.407 7.95087 179.343 8.48952C179.28 8.93311 179.09 9.12322 178.868 8.96479C178.646 8.83805 178.646 8.96479 178.9 9.28164C179.153 9.56681 179.248 9.91534 179.153 10.1054C179.058 10.2638 179.185 10.4539 179.438 10.5807C179.692 10.6757 179.977 10.6124 180.104 10.4223C180.199 10.2322 180.484 10.3272 180.769 10.6757C181.181 11.1827 181.181 11.1827 180.832 10.4856C180.516 9.82029 180.547 9.63018 181.118 9.1549C181.498 8.86974 181.688 8.5212 181.561 8.42615C181.466 8.29941 181.529 8.07761 181.783 7.95087C182.068 7.76076 182.1 7.53897 181.878 7.09538C181.688 6.74684 181.466 6.23989 181.371 5.92304C181.276 5.60619 181.054 5.44776 180.864 5.54282C180.706 5.63787 180.547 5.54282 180.547 5.28934C180.547 5.06754 180.294 4.87743 180.009 4.90912C179.692 4.90912 179.438 5.00417 179.438 5.09923C179.438 5.51113 178.551 6.30326 178.298 6.14483C178.139 6.04978 178.012 5.5745 178.012 5.09923C178.012 3.64172 176.65 2.91296 175.794 3.95857ZM177.22 5.38439C177.22 6.43 177.094 6.81022 176.745 6.81022C176.397 6.81022 176.238 6.39831 176.175 5.28934C176.08 3.95857 176.143 3.76846 176.65 3.86351C177.094 3.95857 177.22 4.27542 177.22 5.38439ZM177.062 8.07761C177.062 8.36278 176.872 8.45783 176.587 8.36278C176.333 8.23604 176.206 8.04593 176.301 7.8875C176.555 7.44391 177.062 7.57065 177.062 8.07761ZM181.181 8.67963C181.181 8.77468 181.054 8.93311 180.864 9.02816C180.706 9.12322 180.547 9.05985 180.547 8.90142C180.547 8.71131 180.706 8.55289 180.864 8.55289C181.054 8.55289 181.181 8.61626 181.181 8.67963Z" fill="#263238"/>
<path d="M172.151 4.75117C171.834 5.25786 172.373 5.73288 172.88 5.4162C173.196 5.22619 173.196 5.09952 172.816 4.78284C172.499 4.49782 172.309 4.49782 172.151 4.75117Z" fill="#263238"/>
<path d="M202.569 5.44781C201.586 6.58847 201.776 7.06375 202.822 6.08151C203.868 5.09928 204.153 5.22602 203.392 6.30331C203.012 6.81027 202.727 7.47565 202.727 7.76081C202.727 8.07766 202.569 8.17272 202.347 8.04598C202.062 7.85587 202.062 7.95092 202.347 8.33114C202.6 8.61631 202.695 8.99653 202.569 9.18664C202.473 9.34506 202.664 9.50349 203.012 9.50349C203.836 9.50349 204.438 8.48957 203.899 7.91924C203.582 7.60239 203.677 7.5707 204.375 7.72913C205.04 7.88755 205.198 7.82418 205.072 7.47565C204.977 7.19049 205.167 6.93701 205.547 6.81027C206.276 6.58847 206.402 6.17657 205.864 5.85972C205.705 5.73298 205.293 5.85972 204.977 6.14488C204.248 6.81027 203.899 6.77858 204.248 6.08151C204.438 5.70129 204.375 5.38444 203.963 5.00422C203.424 4.49726 203.361 4.52895 202.569 5.44781ZM203.678 8.36283C203.678 8.45788 203.551 8.61631 203.361 8.71136C203.202 8.80642 203.044 8.74305 203.044 8.58462C203.044 8.39451 203.202 8.23609 203.361 8.23609C203.551 8.23609 203.678 8.29946 203.678 8.36283Z" fill="#263238"/>
<path d="M206.307 5.19442C206.465 5.66945 207.067 5.76445 207.067 5.28943C207.067 5.03608 206.877 4.84607 206.624 4.84607C206.402 4.84607 206.244 5.00441 206.307 5.19442Z" fill="#263238"/>
<path d="M198.513 5.82824C198.418 6.08158 198.418 6.3666 198.513 6.4616C198.798 6.74662 199.59 5.98658 199.368 5.66989C199.115 5.25821 198.703 5.32154 198.513 5.82824Z" fill="#263238"/>
<path d="M163.818 6.08147C163.248 6.6518 163.375 6.96865 164.008 6.74685C164.388 6.62011 164.325 6.77854 163.755 7.31718C163.311 7.76077 162.804 8.04593 162.614 7.98256C162.012 7.79245 161.727 8.61626 162.234 8.99648C162.582 9.24996 162.677 9.66187 162.582 10.2322C162.361 11.3095 163.248 11.7531 164.008 10.961C164.42 10.549 164.452 10.3273 164.167 9.85198C163.691 9.09154 163.977 8.80637 164.737 9.21828C165.149 9.40839 165.529 9.40839 165.878 9.21828C166.195 9.05985 166.638 9.02817 166.955 9.18659C167.367 9.40839 167.462 9.34502 167.43 8.83806C167.43 8.48952 167.177 8.07762 166.923 7.91919C166.606 7.6974 166.575 7.60234 166.86 7.60234C167.05 7.60234 167.24 7.44392 167.24 7.2855C167.24 7.09539 166.955 6.96865 166.606 6.96865C166.258 6.96865 166.004 6.77854 166.068 6.55674C166.099 6.36663 165.846 6.17652 165.497 6.17652C165.149 6.14484 164.705 6.04978 164.515 5.95473C164.325 5.82799 164.008 5.89136 163.818 6.08147ZM165.814 7.91919C165.719 8.07762 165.497 8.23604 165.307 8.23604C165.149 8.23604 165.022 8.07762 165.022 7.91919C165.022 7.72908 165.244 7.60234 165.529 7.60234C165.783 7.60234 165.909 7.72908 165.814 7.91919Z" fill="#263238"/>
<path d="M191.004 6.4937C191.004 6.74705 191.067 6.96873 191.131 6.96873C191.194 6.96873 191.321 6.74705 191.447 6.4937C191.543 6.24036 191.479 6.01868 191.321 6.01868C191.131 6.01868 191.004 6.24036 191.004 6.4937Z" fill="#263238"/>
<path d="M191.669 6.71514C191.447 7.25379 191.511 7.53895 191.891 7.82412C192.525 8.33108 192.905 8.33108 192.905 7.8558C192.905 7.66569 193 7.60232 193.127 7.69738C193.348 7.91917 194.172 7.34884 194.172 6.96862C194.172 6.74683 192.746 6.01807 192.239 6.01807C192.081 6.01807 191.796 6.33492 191.669 6.71514Z" fill="#263238"/>
<path d="M167.589 6.84206C167.589 7.19041 167.684 7.28541 167.779 7.03207C167.874 6.81039 167.842 6.52537 167.747 6.43037C167.652 6.30369 167.557 6.4937 167.589 6.84206Z" fill="#263238"/>
<path d="M189.102 6.74687C189.102 6.96866 188.849 7.28551 188.5 7.50731C187.835 7.91921 187.328 9.50346 187.803 9.78862C187.993 9.91536 187.962 10.454 187.74 11.3411C187.455 12.4818 187.455 12.767 187.835 12.9888C188.627 13.4957 188.785 13.369 189.166 11.9115C189.356 11.1194 189.641 10.549 189.799 10.6441C190.275 10.9292 190.718 9.09155 190.496 7.69742C190.338 6.65181 190.148 6.33496 189.704 6.33496C189.356 6.33496 189.102 6.52507 189.102 6.74687Z" fill="#263238"/>
<path d="M199.558 6.81048C199.242 7.1905 199.242 7.2855 199.654 7.2855C199.907 7.2855 200.192 7.06382 200.319 6.81048C200.414 6.55713 200.382 6.33545 200.224 6.33545C200.065 6.33545 199.78 6.55713 199.558 6.81048Z" fill="#263238"/>
<path d="M195.122 7.60237C194.932 7.91922 194.203 8.3945 193.443 8.58461C192.524 8.86977 192.302 9.0282 192.714 9.12325C193.19 9.21831 193.221 9.31336 192.873 9.53516C192.081 10.0104 193.601 9.85201 194.489 9.34505C194.932 9.09157 195.629 8.86977 196.073 8.83809C196.612 8.8064 196.707 8.74303 196.295 8.64798C196.01 8.58461 195.819 8.36281 195.914 8.20439C196.041 8.04596 195.978 7.91922 195.788 7.91922C195.598 7.91922 195.534 7.69743 195.629 7.44395C195.914 6.74688 195.503 6.87362 195.122 7.60237Z" fill="#263238"/>
<path d="M205.832 8.90143C205.991 9.88367 205.959 9.91535 204.977 9.75693C204.375 9.66187 204.089 9.72524 204.28 9.91535C204.818 10.454 206.054 10.0104 206.149 9.21828C206.212 8.80638 206.149 8.36279 205.991 8.20436C205.8 8.01426 205.737 8.29942 205.832 8.90143Z" fill="#263238"/>
<path d="M160.903 9.34505C160.681 9.59853 160.016 9.82032 159.445 9.82032C158.843 9.82032 158.368 9.94706 158.368 10.1372C158.368 10.2956 158.463 10.4541 158.622 10.4541C158.938 10.4541 158.875 12.7354 158.527 13.274C158.336 13.5909 158.4 13.6542 158.717 13.4958C158.97 13.3691 158.907 13.4641 158.622 13.7176C157.766 14.383 157.925 14.7315 158.812 14.1295C159.699 13.5592 160.016 13.9711 159.604 15.1117C159.255 16.0623 159.35 16.0306 160.428 14.8899L161.346 13.9394L160.333 13.5909C159.224 13.2106 159.033 12.672 159.794 12.0383C160.111 11.7531 160.269 11.7531 160.269 12.0066C160.269 12.1967 160.459 12.3551 160.713 12.3551C160.935 12.3551 161.22 12.6403 161.315 13.0205C161.568 13.9394 162.931 13.7176 163.057 12.7354C163.153 12.1967 162.994 11.9432 162.519 11.8165C162.139 11.7214 161.853 11.4363 161.853 11.1828C161.853 10.9293 161.727 10.8343 161.537 10.9293C161.378 11.0244 161.22 10.961 161.22 10.8026C161.22 10.6125 161.346 10.4541 161.505 10.4541C161.98 10.4541 162.139 9.56684 161.727 9.21831C161.41 8.96483 161.188 8.99651 160.903 9.34505Z" fill="#263238"/>
<path d="M200.605 9.50373C200.668 9.75708 201.048 10.0104 201.492 10.0421C202.094 10.0738 202.126 10.0738 201.619 9.91542C201.27 9.82042 200.858 9.59874 200.731 9.37706C200.541 9.15538 200.51 9.18705 200.605 9.50373Z" fill="#263238"/>
<path d="M191.162 9.82085C191.257 9.97895 191.574 10.1371 191.828 10.1371C192.081 10.1371 192.208 9.97895 192.113 9.82085C192.018 9.63112 191.701 9.50464 191.448 9.50464C191.194 9.50464 191.067 9.63112 191.162 9.82085Z" fill="#263238"/>
<path d="M156.784 10.454C156.594 10.8026 156.15 11.0877 155.802 11.0877C155.453 11.0877 155.231 11.2145 155.326 11.3412C155.421 11.4996 156.087 11.563 156.847 11.4996L158.21 11.4046L156.942 12.5769C156.118 13.3374 155.833 13.7809 156.087 13.876C156.34 13.9394 157.006 13.5275 157.608 12.9571C158.558 12.0383 158.622 11.8798 158.21 11.4046C157.956 11.1194 157.734 10.7075 157.734 10.5174C157.734 9.85203 157.132 9.82035 156.784 10.454Z" fill="#263238"/>
<path d="M194.077 10.7709C193.665 11.8481 193.475 11.9115 192.905 11.2461C192.43 10.6758 190.877 10.6124 190.433 11.1511C189.736 12.0699 189.705 12.9571 190.338 13.5908C190.845 14.0978 190.909 14.2562 190.528 14.2562C189.958 14.2562 189.926 14.6047 190.465 15.3335C190.719 15.682 191.067 15.8088 191.416 15.6503C192.018 15.4286 192.113 15.0166 191.606 14.7315C191.416 14.6047 191.637 14.3196 192.144 14.0661C192.841 13.6859 193.063 13.6859 193.253 14.0027C193.475 14.3196 193.665 14.3196 194.141 14.0344C194.648 13.7176 194.774 13.7492 194.901 14.1928C194.996 14.478 195.154 14.985 195.281 15.2701C195.44 15.682 195.345 15.8405 194.996 15.8405C194.711 15.8405 194.489 15.7137 194.489 15.587C194.489 15.4286 194.267 15.3018 194.014 15.3018C193.729 15.3018 193.57 15.5236 193.602 15.8088C193.697 16.1256 193.982 16.284 194.426 16.2524C194.806 16.189 195.123 16.3157 195.123 16.4742C195.123 16.6643 195.345 16.791 195.63 16.791C196.01 16.791 196.105 16.6009 195.978 16.1256C195.852 15.6187 195.915 15.5236 196.295 15.6503C196.58 15.7771 197.119 15.6187 197.531 15.3652C198.513 14.7315 198.576 13.1789 197.658 12.6086C197.056 12.2284 196.739 11.056 197.277 11.1194C197.911 11.2145 198.291 11.056 198.291 10.6441C198.291 9.97875 197.721 9.69358 197.214 10.1055C196.992 10.2956 196.739 10.3906 196.675 10.3273C196.612 10.2639 196.073 10.1372 195.503 10.0421C194.521 9.85201 194.394 9.91538 194.077 10.7709ZM192.905 11.7531C193.634 13.0522 191.796 14.6047 190.75 13.5591C190.338 13.1472 190.243 11.658 190.592 11.3095C191.067 10.8025 192.588 11.1194 192.905 11.7531ZM196.042 11.6897C196.327 11.8798 196.359 12.0383 196.105 12.165C195.693 12.4185 195.123 12.1333 195.123 11.6897C195.123 11.3412 195.471 11.3412 196.042 11.6897ZM194.584 12.5135C194.362 13.1789 194.172 13.1155 194.172 12.3234C194.172 11.9749 194.299 11.7531 194.489 11.8798C194.648 11.9749 194.711 12.2601 194.584 12.5135ZM197.372 12.672C198.545 13.3057 197.943 15.2068 196.549 15.2068C195.218 15.2068 194.679 13.8126 195.63 12.8621C196.2 12.2601 196.517 12.2284 197.372 12.672Z" fill="#263238"/>
<path d="M191.194 12.197C191.321 12.4503 191.543 12.672 191.701 12.672C191.891 12.672 191.859 12.482 191.638 12.197C191.416 11.9436 191.194 11.7219 191.131 11.7219C191.067 11.7219 191.099 11.9436 191.194 12.197Z" fill="#263238"/>
<path d="M183.495 10.5174C183.336 10.7392 183.083 11.1828 182.956 11.5313C182.798 12.0066 182.544 12.07 181.499 11.9115C180.802 11.8165 180.2 11.8482 180.073 12.0383C179.978 12.1967 179.566 12.3551 179.186 12.3868C178.806 12.4185 179.122 12.5452 179.915 12.7037C180.707 12.8304 181.721 13.0205 182.228 13.1156C182.925 13.274 183.083 13.1789 183.083 12.672C183.083 12.2284 183.305 12.0383 183.78 12.0383C184.414 12.0383 184.414 12.07 183.938 12.6086C182.766 13.9077 183.685 16.0306 185.238 15.7454C186.758 15.4603 186.98 16.2207 185.903 18.2168C184.921 19.9912 184.857 20.72 185.745 19.9912C185.966 19.8011 186.347 19.1991 186.568 18.6604C186.822 18.0584 187.075 17.8049 187.265 17.9951C187.456 18.1852 187.456 18.5337 187.234 18.9456C186.727 19.8961 187.392 20.1496 187.994 19.2308C188.248 18.8189 188.438 18.1218 188.406 17.7099C188.343 17.1712 188.438 16.9811 188.786 17.0445C189.23 17.1396 190.054 16.3157 190.054 15.7454C190.054 15.587 189.832 15.5553 189.547 15.6504C189.135 15.8088 189.071 15.682 189.23 15.0484C189.357 14.6048 189.357 14.0978 189.262 13.9394C189.04 13.5592 188.153 13.9077 188.153 14.383C188.153 14.5731 187.741 14.9216 187.202 15.1117C186.315 15.4603 186.283 15.4286 186.6 14.8266C187.107 13.876 186.663 12.672 185.681 12.3234C185.016 12.1016 184.794 11.8165 184.826 11.1828C184.826 10.2322 184.034 9.82029 183.495 10.5174ZM185.428 13.6542C185.174 14.1612 185.047 14.7315 185.143 14.8899C185.238 15.08 185.143 15.2068 184.889 15.2068C184.572 15.2068 184.477 14.985 184.572 14.5731C184.699 14.1295 184.604 13.9394 184.319 14.0027C184.097 14.0661 183.843 13.8443 183.78 13.4958C183.717 13.1789 183.78 12.9888 183.97 13.1156C184.129 13.2106 184.445 13.0839 184.667 12.8304C184.857 12.6086 185.238 12.4819 185.459 12.5769C185.84 12.7037 185.84 12.8621 185.428 13.6542ZM186.473 13.9394C186.505 14.2879 186.378 14.5731 186.22 14.5731C186.03 14.5731 185.998 14.6998 186.093 14.8899C186.188 15.0484 186.156 15.2068 185.998 15.2068C185.808 15.2068 185.618 14.985 185.491 14.7315C185.396 14.478 185.459 14.2562 185.618 14.2562C185.808 14.2562 185.903 14.1612 185.903 14.0027C185.84 13.5592 185.935 13.3057 186.188 13.3057C186.315 13.3057 186.442 13.5908 186.473 13.9394Z" fill="#263238"/>
<path d="M202.822 10.359C202.6 10.4223 202.41 10.8659 202.41 11.2778C202.41 11.7214 202.283 12.0066 202.093 11.8798C201.935 11.7848 201.871 11.4996 201.998 11.2461C202.093 10.9927 202.03 10.7709 201.84 10.7709C201.396 10.7709 201.143 11.9115 201.143 13.8443C201.143 15.682 201.681 16.1573 201.84 14.478C201.966 13.4958 201.966 13.4641 202.283 14.2245C202.473 14.6998 202.695 14.8582 202.822 14.6681C203.107 14.2245 202.759 13.3057 202.347 13.3057C202.188 13.3057 202.188 13.0839 202.378 12.767C202.537 12.4502 202.917 12.1967 203.234 12.1967C204.058 12.1967 204.533 11.2461 204.026 10.6441C203.582 10.1055 203.456 10.0738 202.822 10.359Z" fill="#263238"/>
<path d="M177.284 10.8031C177.506 11.0245 177.759 11.1194 177.855 11.0245C177.95 10.9296 177.791 10.7399 177.474 10.645C177.031 10.4553 176.999 10.4869 177.284 10.8031Z" fill="#263238"/>
<path d="M205.738 11.0876C205.643 11.246 205.389 11.3094 205.167 11.246C204.946 11.151 204.47 11.5629 204.09 12.1332C203.33 13.2422 203.171 13.7808 203.678 13.464C204.154 13.1788 204.059 13.8759 203.488 14.7314C202.854 15.7136 203.425 15.777 204.09 14.7948C204.597 14.0977 204.597 14.0977 204.597 15.1116C204.629 15.6819 204.787 16.1572 204.946 16.1572C205.136 16.1572 205.263 15.3651 205.263 14.3829C205.263 13.1155 205.453 12.355 205.928 11.6896C206.276 11.1827 206.435 10.7708 206.245 10.7708C206.086 10.7708 205.865 10.8975 205.738 11.0876Z" fill="#263238"/>
<path d="M176.112 13.0205C176.872 13.6542 176.872 13.6542 176.207 13.4641C175.605 13.3056 175.478 13.4007 175.478 13.9393C175.478 14.573 175.51 14.573 176.27 14.0661C176.999 13.5908 177.126 13.5908 177.855 14.0661C178.805 14.6998 179.344 14.7315 178.52 14.0978C178.14 13.8126 177.981 13.4007 178.108 12.9888C178.267 12.4185 178.14 12.3551 176.809 12.3551H175.32L176.112 13.0205Z" fill="#263238"/>
<path d="M180.325 13.7492C180.515 14.9849 179.691 17.3296 178.994 17.5197C178.614 17.6148 178.329 18.0901 178.202 18.8188C178.076 19.4525 177.949 19.9595 177.917 19.9595C177.885 19.9595 177.22 19.7694 176.428 19.5159C175.382 19.199 175.034 18.9456 175.097 18.5337C175.161 18.2485 175.034 17.8049 174.812 17.5514C174.59 17.2979 174.527 16.6326 174.622 15.9989C174.812 14.8265 174.527 14.6047 173.83 15.3018C173.608 15.5553 173.228 15.682 172.974 15.587C172.752 15.5236 172.848 15.7454 173.228 16.1256C173.608 16.5058 173.893 17.2029 173.893 17.7732C173.893 18.4069 174.02 18.6604 174.273 18.502C174.622 18.2802 174.495 20.1813 174.052 21.2586C173.893 21.6705 174.115 21.8923 175.002 22.1774C175.636 22.3992 176.333 22.5893 176.523 22.621C176.998 22.7161 179.311 23.3815 181.117 23.9518C183.082 24.5855 183.24 24.5221 183.652 22.9695C184.127 21.1318 184.127 20.91 183.557 20.91C182.923 20.91 182.955 20.7199 183.842 19.1674C184.349 18.3435 184.539 17.7098 184.349 17.4247C184.222 17.2029 184.159 16.8227 184.254 16.5692C184.349 16.3474 184.254 16.1573 184.032 16.1573C183.43 16.1573 182.416 17.4881 182.48 18.2168C182.607 20.0228 182.448 20.6565 181.909 20.4664C181.624 20.3397 181.276 20.4348 181.117 20.6565C180.927 20.9417 180.864 20.8783 180.991 20.4348C181.529 18.3119 181.529 18.1217 181.086 17.995C180.705 17.9 180.705 17.6465 181.181 16.2207C181.498 15.3018 182.004 14.3196 182.321 14.0661C182.86 13.6225 182.86 13.5908 182.385 13.7492C182.068 13.8443 181.814 13.7809 181.814 13.5908C181.814 13.4007 181.593 13.3373 181.276 13.4324C180.991 13.5591 180.642 13.4641 180.484 13.2423C180.294 12.9571 180.23 13.1472 180.325 13.7492ZM180.04 19.0723C179.787 19.9278 179.66 20.1179 179.438 19.9278C179.216 19.6743 179.66 18.3752 179.977 18.3752C180.135 18.3752 180.167 18.6921 180.04 19.0723ZM176.238 20.815C175.953 21.9556 175.858 22.0507 175.446 21.6388C175.002 21.1952 175.382 19.9595 175.984 19.9595C176.333 19.9595 176.396 20.1813 176.238 20.815ZM177.6 20.9734C177.505 21.2269 177.41 21.1318 177.41 20.7833C177.378 20.4348 177.474 20.2446 177.569 20.3714C177.664 20.4664 177.695 20.7516 177.6 20.9734ZM182.765 22.1774C182.765 22.3358 182.638 22.4943 182.48 22.4943C182.321 22.4943 182.258 22.8111 182.353 23.1597C182.48 23.6349 182.416 23.7934 182.163 23.73C181.941 23.6349 181.783 23.4765 181.783 23.3498C181.814 23.223 181.814 22.8428 181.814 22.4943C181.814 22.1457 182.036 21.8606 182.29 21.8606C182.543 21.8606 182.765 21.9873 182.765 22.1774ZM180.452 22.8745C180.357 23.128 180.262 23.0329 180.262 22.6844C180.23 22.3358 180.325 22.1457 180.42 22.2725C180.515 22.3675 180.547 22.6527 180.452 22.8745Z" fill="#263238"/>
<path d="M178.583 13.5277C178.805 13.6223 179.09 13.5908 179.185 13.4961C179.312 13.4015 179.122 13.3069 178.773 13.3384C178.425 13.3384 178.33 13.433 178.583 13.5277Z" fill="#263238"/>
<path d="M162.645 14.2247C162.423 14.6048 163.026 14.9848 163.437 14.7314C163.786 14.5098 163.564 13.9397 163.121 13.9397C162.962 13.9397 162.772 14.0664 162.645 14.2247Z" fill="#263238"/>
<path d="M176.651 15.4919C175.954 16.189 175.7 18.9139 176.302 19.1357C176.524 19.2307 176.809 19.0089 176.936 18.597C177.063 18.2168 177.38 17.7415 177.633 17.5514C177.982 17.298 178.045 16.9177 177.887 16.0622C177.633 14.7632 177.475 14.6681 176.651 15.4919Z" fill="#263238"/>
<path d="M162.804 15.841C162.804 15.9991 162.994 16.1572 163.248 16.1572C163.501 16.1572 163.818 15.9991 163.913 15.841C164.008 15.6513 163.818 15.5248 163.47 15.5248C163.089 15.5248 162.804 15.6513 162.804 15.841Z" fill="#263238"/>
<path d="M145.219 16.1578C143.635 16.3159 144.744 16.3792 148.926 16.4108C152.601 16.4424 154.914 16.3476 155.041 16.1578C155.263 15.81 148.989 15.81 145.219 16.1578Z" fill="#263238"/>
<path d="M200.604 16.2212C199.844 17.2346 199.844 17.5196 200.636 16.7912C201.396 16.0945 201.555 16.0629 202.188 16.4429C202.822 16.8546 202.854 16.8546 202.442 16.3796C201.935 15.7462 201.016 15.6829 200.604 16.2212Z" fill="#263238"/>
<path d="M191.479 16.4743C191.384 16.6327 191.479 16.7911 191.701 16.7911C191.922 16.7911 191.764 17.0129 191.384 17.2981C190.845 17.6783 190.56 17.71 190.212 17.4248C189.895 17.1396 189.736 17.203 189.578 17.71C189.293 18.6288 189.609 19.0091 190.687 19.0091C191.194 19.0091 191.701 19.1358 191.796 19.3259C191.891 19.4843 192.398 19.6428 192.905 19.6428C193.412 19.6428 193.919 19.8012 194.045 20.023C194.204 20.2765 194.362 20.2131 194.489 19.7695C194.616 19.4526 194.584 18.9774 194.426 18.7556C194.204 18.5021 194.204 18.3754 194.457 18.3754C194.647 18.3754 194.806 18.2169 194.806 18.0585C194.806 17.8684 194.521 17.7417 194.204 17.7417C193.729 17.7417 193.633 17.5832 193.76 17.0763C193.919 16.5059 193.855 16.4426 193.253 16.6327C192.873 16.7594 192.588 16.6961 192.588 16.5059C192.588 16.0624 191.732 16.0624 191.479 16.4743ZM193.317 18.2803C193.095 18.3437 192.715 18.3437 192.525 18.2803C192.303 18.1852 192.461 18.1219 192.905 18.1219C193.348 18.1219 193.507 18.1852 193.317 18.2803Z" fill="#263238"/>
<path d="M201.017 17.8049C200.731 18.4703 200.351 19.0089 200.193 19.0089C200.003 19.0089 199.876 19.1674 199.876 19.3575C199.876 19.5476 200.129 19.6109 200.446 19.5159C200.89 19.3575 200.985 19.5159 200.985 20.3397C200.985 21.0685 201.143 21.417 201.555 21.4804C201.967 21.5754 202.094 21.3536 202.094 20.4981C202.094 19.5476 202.189 19.4208 202.728 19.5476C203.266 19.706 203.361 19.5793 203.33 18.6604C203.298 17.9 203.235 17.8049 203.14 18.2802C202.949 19.3258 202.538 19.1674 201.999 17.8049L201.524 16.6326L201.017 17.8049Z" fill="#263238"/>
<path d="M195.788 18.2485C195.155 18.9139 195.091 19.1357 195.376 19.8011C195.662 20.4031 195.63 20.5298 195.313 20.4031C194.869 20.2447 194.172 21.7338 194.172 22.8745C194.172 23.7617 194.743 23.2547 195.06 22.0824C195.376 20.8783 195.947 20.91 195.82 22.1141C195.757 22.9379 195.757 22.9379 196.232 22.3675C196.802 21.6388 196.834 21.1635 196.39 20.7199C196.169 20.4981 196.264 20.1496 196.707 19.6426C197.404 18.8505 197.626 17.9633 196.961 18.6287C196.422 19.1674 195.915 19.104 196.39 18.5337C197.087 17.7099 196.549 17.4247 195.788 18.2485Z" fill="#263238"/>
<path d="M170.725 18.6604C170.281 19.5476 170.344 20.4664 170.915 21.0368C171.897 22.019 173.608 21.4803 174.052 20.0545C174.495 18.502 171.485 17.2346 170.725 18.6604ZM172.499 18.8188C172.974 19.3258 173.069 19.9912 172.721 20.4664C172.562 20.6249 172.721 20.4981 173.038 20.1813C173.64 19.4842 173.735 19.706 173.259 20.6249C172.784 21.512 171.549 21.3853 171.105 20.4347C170.566 19.2624 170.63 19.0089 171.453 19.0089C172.024 19.0089 172.055 18.9456 171.675 18.6921C171.327 18.4703 171.295 18.3752 171.612 18.3752C171.834 18.3752 172.246 18.5653 172.499 18.8188Z" fill="#263238"/>
<path d="M188.342 19.4849C188.247 19.7383 188.247 20.1816 188.374 20.4667C188.627 21.1634 190.18 20.91 190.307 20.15C190.528 19.1366 188.722 18.5349 188.342 19.4849Z" fill="#263238"/>
<path d="M193.032 20.4664C193.222 20.9417 193.19 20.9734 192.873 20.6882C192.366 20.1813 191.194 20.7833 191.447 21.417C191.543 21.7022 191.479 21.7972 191.321 21.7022C191.131 21.6071 191.004 21.6388 191.004 21.7972C191.004 22.1774 192.43 22.4626 192.842 22.2091C193.317 21.8923 193.57 20.3397 193.158 20.0862C192.905 19.9278 192.873 20.0229 193.032 20.4664Z" fill="#263238"/>
<path d="M168.887 20.7516C167.842 21.3219 167.303 21.8606 167.842 21.8606C168.095 21.8606 168 22.1774 167.588 22.7794C166.701 23.9835 166.733 24.8073 167.62 23.7617L168.285 22.9695L168.127 23.8567C168 24.4271 168.095 24.6805 168.317 24.6172C168.507 24.5538 168.697 24.0468 168.761 23.5082C168.887 22.3675 168.982 22.3042 169.648 22.9379C170.091 23.4131 169.933 24.3637 169.331 24.7756C169.014 24.9974 170.408 25.6628 171.2 25.6628C171.834 25.6628 171.39 24.3954 170.598 24.0468L169.933 23.73L170.598 23.8567C171.169 23.9835 171.264 23.825 171.295 23.0012C171.327 22.1141 171.295 22.0507 170.883 22.621C170.63 22.9379 170.313 23.0963 170.155 23.0012C169.648 22.6844 169.394 21.1635 169.774 20.91C170.44 20.4981 169.648 20.3714 168.887 20.7516Z" fill="#263238"/>
<path d="M197.246 20.815C197.119 20.91 197.024 21.2269 197.024 21.4804C197.024 21.8606 197.119 21.8606 197.499 21.5437C198.26 20.91 198.038 21.6071 197.183 22.5893C196.549 23.3181 196.295 23.4132 195.788 23.1597C194.965 22.7161 194.679 23.4448 195.313 24.3637C195.852 25.0925 196.707 25.2192 197.278 24.6489C197.563 24.3637 197.816 24.3954 198.45 24.7122C199.084 25.0608 199.4 25.0608 200.066 24.7439C200.668 24.4904 201.016 24.4588 201.27 24.7122C201.809 25.2509 202.094 25.0925 202.094 24.237C202.094 23.7934 201.872 23.3498 201.618 23.2547C201.175 23.0646 201.206 23.0012 201.682 22.6527C202.22 22.2725 202.189 22.2091 201.397 22.019C200.921 21.8923 200.383 21.8923 200.193 22.019C199.907 22.2091 199.907 22.0824 200.161 21.5754C200.478 21.0368 200.446 20.8784 200.034 20.7199C199.781 20.5932 199.337 20.6882 199.115 20.8784C198.798 21.1318 198.608 21.1635 198.45 20.91C198.228 20.5615 197.563 20.4981 197.246 20.815ZM200.034 23.128C199.812 23.5082 198.703 23.5399 198.482 23.1914C198.418 23.0646 198.767 22.9062 199.274 22.8745C199.876 22.8111 200.161 22.9379 200.034 23.128Z" fill="#263238"/>
<path d="M185.363 21.322C184.603 21.6071 184.413 21.7973 184.698 22.0824C184.951 22.3359 184.951 22.5894 184.698 23.0647C184.223 23.9518 184.254 24.7123 184.793 24.7123C185.268 24.7123 185.617 24.0469 185.617 23.1597C185.617 22.8429 185.902 22.2092 186.282 21.7339C187.011 20.815 186.884 20.7833 185.363 21.322Z" fill="#263238"/>
<path d="M193.222 22.8118C193.222 22.9699 193.38 23.128 193.57 23.128C193.729 23.128 193.792 22.9699 193.697 22.8118C193.602 22.6221 193.443 22.4956 193.348 22.4956C193.285 22.4956 193.222 22.6221 193.222 22.8118Z" fill="#263238"/>
<path d="M174.369 23.4765C174.242 23.8251 173.735 24.2687 173.228 24.4588C172.246 24.8073 171.993 25.3459 172.785 25.3459C173.133 25.3459 173.007 25.7895 172.246 27.247C171.264 29.1165 171.232 29.9086 172.119 29.1798C172.373 28.9897 172.658 28.4511 172.753 28.0075C173.038 26.9619 173.767 27.2154 173.64 28.2927C173.577 28.7679 173.672 29.1481 173.862 29.1481C174.274 29.1481 174.654 27.9124 174.591 26.7718C174.527 25.8529 174.527 25.8529 175.003 26.4549C175.478 27.0569 175.51 27.0569 176.048 26.4866C176.333 26.1381 176.397 25.9796 176.175 26.1064C175.636 26.4232 175.066 24.839 175.478 24.1102C175.668 23.73 175.636 23.4132 175.415 23.1914C174.876 22.6527 174.591 22.7161 174.369 23.4765Z" fill="#263238"/>
<path d="M172.405 23.9836C172.405 24.2686 172.532 24.3003 172.848 24.047C173.07 23.8569 173.26 23.6669 173.26 23.6036C173.26 23.5719 173.07 23.5403 172.848 23.5403C172.595 23.5403 172.405 23.7303 172.405 23.9836Z" fill="#263238"/>
<path d="M176.429 23.8888C176.429 24.5222 176.872 24.7755 177.569 24.4905C178.076 24.3005 178.076 24.2688 177.506 23.8571C176.777 23.3188 176.429 23.3188 176.429 23.8888Z" fill="#263238"/>
<path d="M144.902 24.5541L136.347 24.9341L148.831 24.9024C158.526 24.8707 161.346 24.7757 161.473 24.459C161.631 23.984 157.449 24.0157 144.902 24.5541Z" fill="#263238"/>
<path d="M179.248 24.7756C179.216 24.9974 179.216 25.2826 179.216 25.3776C179.248 25.5044 178.773 25.6945 178.203 25.7895C177.601 25.9163 176.935 26.2331 176.713 26.5183C176.301 26.9619 176.365 27.0252 177.125 26.8668L178.012 26.7084L177.062 28.356C176.523 29.2749 176.111 30.1937 176.111 30.3838C176.111 31.0809 176.745 30.7007 177.252 29.6868C177.917 28.3877 177.917 28.4194 178.298 28.6728C178.551 28.7996 178.551 29.0531 178.298 29.5283C178.076 29.9402 178.044 30.2571 178.266 30.4789C178.709 30.9225 179.343 29.6551 179.216 28.5778C179.153 27.9758 179.28 27.7223 179.597 27.7223C180.357 27.6906 180.864 27.247 180.864 26.5816C180.864 26.2331 180.737 26.043 180.547 26.1381C179.945 26.5183 179.533 25.9479 180.104 25.536C180.389 25.3142 180.547 24.9657 180.42 24.7756C180.104 24.2686 179.28 24.3003 179.248 24.7756Z" fill="#263238"/>
<path d="M166.068 24.9341C165.846 24.9974 165.656 25.2826 165.656 25.5361C165.656 25.7895 165.846 25.8846 166.131 25.7895C166.987 25.441 166.638 25.9163 165.529 26.55C164.547 27.1203 164.42 27.152 163.945 26.6767C163.66 26.3916 163.438 26.2965 163.406 26.4549C163.406 26.645 163.343 27.0569 163.28 27.4055C163.089 28.3877 163.723 28.863 164.864 28.6412C165.497 28.5461 165.973 28.6095 166.131 28.7996C166.226 28.9897 166.48 29.0848 166.638 28.958C166.797 28.863 166.892 28.958 166.86 29.2115C166.797 29.4967 167.05 29.5917 167.747 29.5284C168.412 29.465 168.793 29.5917 168.919 29.9403C169.046 30.2254 168.951 30.4156 168.698 30.4156C168.127 30.4156 167.842 31.1443 168.222 31.7146C168.476 32.0949 168.539 32.0949 168.824 31.683C168.983 31.4295 169.141 31.0176 169.141 30.7958C169.141 30.6057 169.3 30.4156 169.49 30.4156C169.648 30.4156 169.743 30.2888 169.648 30.1621C169.585 30.0353 169.616 29.7185 169.775 29.465C169.965 29.1482 169.87 28.7996 169.553 28.4511C169.078 27.9124 169.078 27.8808 169.553 27.8808C170.345 27.8808 170.187 27.2787 169.363 27.0886C168.856 26.9619 168.634 26.6767 168.634 26.2015C168.666 25.6945 168.508 25.5044 168.032 25.5678C167.684 25.5994 167.272 25.4093 167.145 25.1559C166.892 24.6806 166.701 24.6489 166.068 24.9341ZM168.064 27.9441C167.494 28.261 166.828 28.0075 167.082 27.5639C167.177 27.4372 167.557 27.3738 167.906 27.4689C168.508 27.6273 168.508 27.6906 168.064 27.9441ZM164.927 27.754C164.832 27.8491 164.547 27.8808 164.325 27.7857C164.072 27.6906 164.167 27.5956 164.515 27.5956C164.864 27.5639 165.054 27.659 164.927 27.754Z" fill="#263238"/>
<path d="M181.625 25.5053C181.34 26.2336 181.72 26.9303 182.417 26.9303C183.209 26.9303 183.494 26.487 183.241 25.6636C183.019 24.9352 181.878 24.8086 181.625 25.5053Z" fill="#263238"/>
<path d="M170.726 27.2471C170.726 27.9441 170.789 28.5145 170.852 28.5145C170.947 28.5145 171.201 28.0709 171.486 27.5639C171.898 26.6767 171.898 26.5817 171.328 26.2965C170.789 25.9797 170.726 26.0747 170.726 27.2471Z" fill="#263238"/>
<path d="M158.78 28.9263C157.481 30.1937 156.879 31.271 157.893 30.4155C158.178 30.1937 158.463 30.0987 158.558 30.1937C158.685 30.2888 158.178 30.9858 157.449 31.7463C156.087 33.1404 156.214 33.9008 157.608 32.6018C158.558 31.7146 158.875 31.9997 158.463 33.4256C158.083 34.5979 158.463 35.2633 158.939 34.3128C159.097 33.9959 159.351 33.2355 159.477 32.6334C159.826 31.0175 160.555 29.7184 161.569 28.8946C162.677 28.0074 162.804 27.2787 161.727 27.9758C161.062 28.4193 160.935 28.4193 160.776 28.0391C160.523 27.3421 160.238 27.4688 158.78 28.9263Z" fill="#263238"/>
<path d="M175.352 28.3883C175.003 29.6867 175.573 29.845 176.144 28.6416C176.619 27.6282 176.619 27.5649 176.112 27.5649C175.764 27.5649 175.478 27.8816 175.352 28.3883Z" fill="#263238"/>
<path d="M161.917 29.5284C161.473 29.972 161.41 30.7324 161.821 30.7324C161.98 30.7324 162.17 30.5423 162.265 30.3205C162.328 30.1304 162.519 30.0353 162.645 30.1621C162.772 30.2571 162.265 31.3344 161.568 32.5384C160.142 34.9465 159.857 35.9604 160.903 35.0099C161.251 34.693 161.6 34.1861 161.695 33.8692C161.821 33.5207 162.075 33.2672 162.328 33.2672C162.962 33.2672 163.121 34.091 162.645 34.7564C162.075 35.4851 162.043 35.802 162.614 35.802C163.184 35.802 163.849 34.1227 163.596 33.2989C163.501 32.9503 163.564 32.3483 163.754 31.9998C164.039 31.4612 164.198 31.3978 164.578 31.7146C164.927 31.9998 165.022 31.9681 165.022 31.5879C165.022 31.3027 164.768 30.9225 164.483 30.7641C164.166 30.574 164.103 30.4155 164.325 30.4155C164.832 30.4155 164.832 29.1481 164.293 29.1481C164.071 29.1481 163.723 29.3066 163.532 29.4967C163.279 29.7502 163.121 29.7502 162.994 29.4967C162.709 29.0531 162.392 29.0531 161.917 29.5284Z" fill="#263238"/>
<path d="M172.373 29.972C171.01 30.9225 171.866 33.2989 173.577 33.2672C173.83 33.2355 173.609 33.0454 173.07 32.8236C172.183 32.4434 172.088 32.2216 172.151 31.3027C172.214 30.4789 172.373 30.2571 172.912 30.2571C173.26 30.2571 173.577 30.0987 173.609 29.9403C173.64 29.4333 173.133 29.4333 172.373 29.972Z" fill="#263238"/>
<path d="M174.559 30.5425C174.781 31.0175 175.034 31.2709 175.098 31.0492C175.193 30.8275 175.003 30.4475 174.686 30.1625C174.21 29.6558 174.179 29.6875 174.559 30.5425Z" fill="#263238"/>
<path d="M165.877 31.1443C165.561 31.3344 165.244 32.0948 165.18 32.7919L165.022 34.0593L165.371 32.9503C165.529 32.3483 165.973 31.5879 166.353 31.271C167.081 30.669 166.701 30.5106 165.877 31.1443Z" fill="#263238"/>
<path d="M170.092 31.0182C170.092 31.1765 169.997 31.5249 169.902 31.8099C169.775 32.1582 169.902 32.2532 170.377 32.2216C170.82 32.1899 171.011 32.0316 170.884 31.7465C170.789 31.5249 170.725 31.1765 170.725 31.0182C170.725 30.8598 170.599 30.7332 170.409 30.7332C170.25 30.7332 170.092 30.8598 170.092 31.0182Z" fill="#263238"/>
<path d="M167.24 32.2217C167.24 33.1405 167.05 33.7742 166.606 34.2178C166.258 34.5664 165.973 35.0733 165.973 35.3268C165.973 35.5803 165.814 35.8021 165.624 35.8021C165.402 35.8021 165.339 35.4852 165.497 34.9149C165.688 34.1228 165.656 34.0911 165.244 34.6931C164.674 35.4535 164.895 36.1189 165.688 36.1189C166.226 36.1189 166.448 35.7704 166.226 35.3585C166.163 35.2634 166.448 34.8832 166.828 34.4713C167.684 33.5524 168.032 32.2217 167.589 31.4612C167.335 30.986 167.272 31.1444 167.24 32.2217Z" fill="#263238"/>
<path d="M191.162 30.7957C191.067 31.0175 190.655 32.2532 190.243 33.4889L189.451 35.8019H200.636H211.789L212.613 33.1087L213.405 30.4155H202.347C193.792 30.4155 191.257 30.5105 191.162 30.7957Z" fill="#FF2457"/>
<path d="M222.498 30.7007C220.312 31.0492 218.252 32.0314 216.7 33.4573C213.912 35.9604 213.215 35.8019 226.839 35.8019H238.911L238.689 34.5979C238.372 32.8869 237.707 32.0314 236.059 31.271C234.76 30.7007 233.873 30.6056 229.342 30.5422C226.459 30.4789 223.385 30.5739 222.498 30.7007Z" fill="#FF2457"/>
<path d="M243.442 30.7958C243.347 31.0176 242.935 32.2533 242.524 33.489L241.731 35.802H244.868H247.973L248.797 33.3306C249.241 31.9998 249.621 30.7958 249.621 30.6374C249.621 30.2255 243.601 30.3839 243.442 30.7958Z" fill="#FF2457"/>
<path d="M268.473 30.7323C268.283 31.0175 266.73 35.4851 266.73 35.7069C266.73 35.7702 268.125 35.8019 269.836 35.8019H272.941L273.669 33.4889C274.081 32.2532 274.493 31.0175 274.557 30.7957C274.747 30.3204 268.79 30.2254 268.473 30.7323Z" fill="#FF2457"/>
<path d="M283.555 30.764C280.514 31.3027 278.074 32.7285 276.521 34.8831L275.888 35.8019H287.928H300V34.8831C300 33.6157 298.764 31.9364 297.307 31.2393C296.229 30.7007 295.247 30.6056 290.653 30.5422C287.706 30.4789 284.506 30.5739 283.555 30.764Z" fill="#FF2457"/>
<path d="M11.6038 32.0314C9.86113 32.6651 7.23128 34.6296 6.5659 35.8336C6.28073 36.4357 6.5659 36.4357 18.4161 36.4357H30.5514L31.3752 33.9009L32.199 31.3661L22.8203 31.3977C14.297 31.4294 13.2514 31.4611 11.6038 32.0314Z" fill="#FF2457"/>
<path d="M34.1002 33.9009L33.2764 36.4357H45.4751H57.7055L57.5154 35.295C57.2302 33.6474 56.4698 32.6651 54.9806 31.9681C53.7765 31.4294 52.7943 31.3661 44.3027 31.3661H34.924L34.1002 33.9009Z" fill="#FF2457"/>
<path d="M66.9564 31.8097C66.2594 32.0314 65.3405 32.38 64.9286 32.6335C63.9464 33.1404 61.0947 35.802 61.0947 36.1505C61.0947 36.3089 66.4495 36.4357 73.0083 36.4357H84.9535L84.7634 35.1366C84.5733 33.584 83.8762 32.7285 82.1652 31.9681C81.0563 31.4611 80.074 31.3661 74.5608 31.3977C70.3784 31.3977 67.7803 31.5562 66.9564 31.8097Z" fill="#FF2457"/>
<path d="M88.9781 33.4889C88.5662 34.6612 88.186 35.8337 88.0909 36.0238C87.9959 36.3406 90.5307 36.4356 100.195 36.4356C113.787 36.4356 112.869 36.5941 111.918 34.2178C111.601 33.4256 110.999 32.6969 110.239 32.2533C109.13 31.5562 108.845 31.5244 99.3708 31.4294L89.6752 31.3344L88.9781 33.4889Z" fill="#FF2457"/>
<path d="M116.291 33.7108C115.911 35.0098 115.594 36.1505 115.594 36.2455C115.594 36.3406 120.568 36.4357 126.62 36.4357H137.646L138.47 33.9009L139.294 31.3661H128.141H116.956L116.291 33.7108Z" fill="#FF2457"/>
<path d="M173.26 31.6835C173.26 31.8416 173.387 31.9997 173.545 31.9997C173.736 31.9997 173.957 31.8416 174.052 31.6835C174.147 31.4938 174.021 31.3673 173.767 31.3673C173.482 31.3673 173.26 31.4938 173.26 31.6835Z" fill="#263238"/>
<path d="M174.559 32.4119C174.147 33.077 174.179 33.077 174.718 32.5703C175.034 32.2536 175.225 31.9369 175.129 31.8736C175.034 31.7786 174.781 32.0318 174.559 32.4119Z" fill="#263238"/>
<path d="M168.729 32.5068C168.634 32.6018 168.698 33.1088 168.888 33.6157C169.11 34.2811 169.11 34.9782 168.856 36.0238C168.634 36.8159 168.571 37.5447 168.666 37.6397C168.761 37.7348 168.824 37.5447 168.824 37.1961C168.856 36.5941 168.856 36.5941 169.3 37.1961C169.648 37.6397 169.68 37.9249 169.426 38.2417C169.236 38.4635 169.141 38.9388 169.236 39.319C169.331 39.6992 169.205 40.2062 168.888 40.5231C168.096 41.3469 167.557 42.3608 167.779 42.5826C167.905 42.6776 168.254 42.7727 168.571 42.7727C168.919 42.7727 169.141 42.9945 169.141 43.3747C169.141 44.2302 169.965 44.7688 170.852 44.547C171.771 44.3252 172.151 43.3747 171.708 42.4875C171.232 41.6637 171.264 41.1568 171.771 41.2835C171.961 41.3152 172.151 41.1251 172.151 40.8716C172.151 40.6181 171.929 40.3963 171.676 40.3963C171.423 40.3963 170.884 40.2696 170.472 40.1111C169.807 39.8894 169.775 39.7309 169.965 38.4002C170.187 36.7525 171.042 34.8831 171.803 34.2494C172.5 33.6791 172.468 33.1405 171.771 33.5524C171.391 33.7425 171.137 33.7108 170.852 33.3306C170.535 32.887 170.409 32.887 169.965 33.2355C169.521 33.584 169.458 33.584 169.458 33.1721C169.458 32.6335 169.014 32.2216 168.729 32.5068ZM169.205 41.8855C168.983 42.1073 168.824 42.139 168.824 41.9489C168.824 41.5053 169.205 41.1251 169.426 41.3469C169.49 41.4419 169.395 41.6954 169.205 41.8855ZM170.567 41.5053C170.662 41.6637 170.535 41.8221 170.282 41.8221C169.997 41.8221 169.775 41.6637 169.775 41.5053C169.775 41.3152 169.902 41.1884 170.06 41.1884C170.25 41.1884 170.472 41.3152 170.567 41.5053ZM171.518 42.7727C171.771 43.6282 171.137 44.4203 170.282 44.2936C169.616 44.1985 169.268 43.4064 169.585 42.5826C169.838 41.8855 171.296 42.0122 171.518 42.7727Z" fill="#263238"/>
<path d="M156.436 34.2811C156.404 34.5029 156.404 34.7881 156.436 34.9465C156.467 35.0733 156.119 35.3267 155.707 35.4852C155.295 35.6436 154.82 36.1822 154.63 36.7209C154.376 37.3863 154.123 37.6397 153.806 37.513C153.489 37.3863 153.267 37.5764 153.109 38.1467C153.014 38.5903 152.697 38.9705 152.475 38.9705C152.222 38.9705 151.778 39.4775 151.493 40.1112C151.018 41.0934 151.018 41.2518 151.398 41.537C152 41.9172 153.299 40.5231 153.299 39.4775C153.299 38.5903 154.376 37.4813 154.725 38.02C155.073 38.5586 156.467 37.1011 156.467 36.2139C156.467 35.7703 156.689 35.2317 156.943 34.9465C157.196 34.693 157.355 34.3445 157.26 34.1861C156.974 33.7742 156.467 33.8375 156.436 34.2811Z" fill="#263238"/>
<path d="M173.386 34.3445C173.513 34.7247 173.418 35.0732 173.196 35.2317C172.911 35.3901 172.943 35.4851 173.386 35.4851C173.735 35.4851 174.274 35.7069 174.59 36.0238C174.971 36.3406 175.161 36.404 175.161 36.1505C175.161 35.9287 175.288 35.8654 175.478 35.9604C175.668 36.0555 175.699 35.9287 175.604 35.6753C175.509 35.3901 175.224 35.1683 174.971 35.1683C174.749 35.1683 174.242 34.8514 173.862 34.4395C173.26 33.8375 173.196 33.8058 173.386 34.3445Z" fill="#263238"/>
<path d="M167.24 35.2951C167.24 35.6436 167.145 36.2773 167.05 36.6575C166.733 37.8299 167.43 37.4813 168.095 36.1506L168.729 34.9149L167.968 34.7564C167.398 34.6614 167.24 34.7564 167.24 35.2951Z" fill="#263238"/>
<path d="M158.526 36.3723C158.431 36.6575 158.526 37.0377 158.78 37.2278C159.002 37.3863 159.287 37.7982 159.414 38.0833C159.635 38.6537 161.22 38.9071 161.22 38.3685C161.22 38.2101 161.473 38.115 161.758 38.1467C162.107 38.1467 162.36 37.9249 162.424 37.513C162.519 36.7842 161.695 36.3407 159.73 35.9921C159.002 35.8654 158.685 35.9604 158.526 36.3723ZM159.635 36.7526C159.635 36.911 159.509 37.0694 159.319 37.0694C159.16 37.0694 159.002 36.911 159.002 36.7526C159.002 36.5625 159.16 36.4357 159.319 36.4357C159.509 36.4357 159.635 36.5625 159.635 36.7526ZM162.17 37.4179C162.17 37.5764 162.043 37.7031 161.853 37.7031C161.695 37.7031 161.536 37.4813 161.536 37.1962C161.536 36.9427 161.695 36.8159 161.853 36.911C162.043 37.006 162.17 37.2278 162.17 37.4179Z" fill="#263238"/>
<path d="M173.451 36.9743C173.039 37.3862 172.817 37.4496 172.722 37.1327C172.532 36.5941 171.359 36.6574 171.359 37.1961C171.359 37.4496 171.486 37.7664 171.676 37.8615C171.866 37.9882 171.803 38.4001 171.518 39.0021C171.074 39.8259 171.359 40.3646 171.835 39.6041C172.183 39.0338 172.532 39.2556 172.944 40.2695C173.261 41.03 173.261 41.3785 172.944 41.9805C172.373 43.0578 172.849 43.4063 173.641 42.4558C173.989 42.0122 174.211 41.3785 174.116 40.9666C173.926 39.9527 174.338 40.0477 175.447 41.2518C175.986 41.8221 176.492 42.1706 176.619 42.0439C176.999 41.6953 176.049 40.2062 175.257 39.8893C174.877 39.7626 174.306 39.2556 174.021 38.812C173.546 38.0516 173.546 37.9565 174.021 37.4179C174.94 36.404 174.465 36.0237 173.451 36.9743Z" fill="#263238"/>
<path d="M163.596 37.0702C163.279 37.5769 164.103 38.4319 164.515 38.0202C164.99 37.5452 165.338 37.6402 165.148 38.1786C165.022 38.4953 165.148 38.6536 165.592 38.6536C166.606 38.6536 166.796 37.9886 165.972 37.3235C165.212 36.6902 163.913 36.5635 163.596 37.0702Z" fill="#263238"/>
<path d="M176.175 37.4813C175.985 37.7031 175.89 38.1784 175.953 38.4953C176.017 38.8438 176.08 39.224 176.08 39.3191C176.143 39.826 177.221 39.8894 177.886 39.4458C178.488 39.0656 178.583 38.8438 178.361 38.2418C178.203 37.8616 177.918 37.5764 177.728 37.6081C177.537 37.6715 177.379 37.5447 177.379 37.3863C177.379 36.9427 176.555 37.0061 176.175 37.4813Z" fill="#263238"/>
<path d="M140.307 38.3688C130.675 38.7805 130.612 38.8755 139.959 38.8438C146.613 38.8122 148.672 38.7172 148.799 38.4005C148.862 38.1471 148.546 38.0205 147.69 38.0838C147.025 38.0838 143.698 38.2421 140.307 38.3688Z" fill="#263238"/>
<path d="M156.784 38.4635C156.784 38.7487 156.499 38.8437 155.928 38.717C155.105 38.5902 155.073 38.6219 155.643 39.0338C156.467 39.6675 156.023 40.2379 154.724 40.2379C154.122 40.2379 153.552 40.3646 153.457 40.5547C153.33 40.7448 153.774 40.8716 154.566 40.8716C155.643 40.8716 155.897 40.9983 156.15 41.6637C156.34 42.2023 156.689 42.4558 157.164 42.4558C157.861 42.4241 157.861 42.4241 157.291 41.9805C156.816 41.632 156.784 41.3785 157.006 40.6498C157.196 40.1111 157.513 39.7943 157.83 39.8576C158.083 39.8893 158.4 39.7943 158.527 39.6042C158.622 39.4457 158.432 39.2873 158.115 39.2873C157.639 39.2873 157.513 39.1289 157.639 38.6536C157.766 38.21 157.639 38.0199 157.291 38.0199C157.006 38.0199 156.784 38.21 156.784 38.4635Z" fill="#263238"/>
<path d="M168.032 38.3374C167.937 38.4955 168 38.6536 168.159 38.6536C168.349 38.6536 168.507 38.4955 168.507 38.3374C168.507 38.1477 168.444 38.0212 168.381 38.0212C168.285 38.0212 168.127 38.1477 168.032 38.3374Z" fill="#263238"/>
<path d="M163.469 38.6219C162.582 39.1923 164.261 40.5548 165.529 40.3013C165.719 40.2697 165.814 40.6182 165.719 41.1568C165.655 41.6638 165.719 42.1391 165.909 42.2658C166.067 42.3609 166.131 42.1074 166.035 41.6638C165.972 41.2202 166.067 40.6816 166.257 40.4598C166.511 40.1429 166.479 39.8578 166.131 39.4142C165.75 38.8755 165.624 38.8755 164.99 39.2241C164.388 39.6043 164.325 39.6043 164.483 39.1924C164.705 38.6537 164.039 38.2734 163.469 38.6219Z" fill="#263238"/>
<path d="M159.414 39.9217C159.319 40.27 159.097 40.555 158.939 40.555C158.78 40.555 158.748 40.6817 158.844 40.8717C158.939 41.0301 159.35 41.1884 159.731 41.1567C160.111 41.1567 160.238 41.0617 160.048 40.9667C159.794 40.8717 159.699 40.5234 159.826 40.0483C159.921 39.6367 159.921 39.2883 159.794 39.2883C159.667 39.2883 159.509 39.5733 159.414 39.9217Z" fill="#263238"/>
<path d="M160.776 39.8901C160.522 40.2701 160.871 41.1885 161.251 41.1885C161.41 41.1885 161.536 41.0618 161.536 40.9035C161.536 40.7451 161.631 40.3968 161.726 40.1117C161.948 39.5734 161.093 39.3834 160.776 39.8901Z" fill="#263238"/>
<path d="M179.375 40.0799C179.09 40.8716 179.502 40.9983 179.914 40.2699C180.136 39.7949 180.136 39.6049 179.914 39.6049C179.724 39.6049 179.502 39.8266 179.375 40.0799Z" fill="#263238"/>
<path d="M185.966 46.5433C184.73 50.3771 183.716 53.5772 183.716 53.6723C183.716 53.799 185.11 53.8307 186.79 53.799L189.863 53.704L191.289 49.3315L192.683 44.9907H200.699H208.684L209.508 42.5192C209.951 41.1884 210.332 39.9845 210.332 39.826C210.332 39.6993 205.357 39.6042 199.274 39.6042H188.184L185.966 46.5433Z" fill="#078DEE"/>
<path d="M211.916 43.5964C209.856 49.7433 210.268 52.1197 213.658 53.3871C214.767 53.8307 216.13 53.894 221.611 53.799C229.152 53.7039 229.945 53.4821 232.669 50.979C234.507 49.268 235.173 48.0323 236.662 43.3113L237.834 39.6041H234.697H231.592L230.483 43.1845C229.628 45.9094 229.121 46.9867 228.392 47.6838C227.41 48.6343 227.41 48.6343 222.974 48.7294C216.669 48.8878 216.447 48.6026 218.38 42.836L219.488 39.6041H216.352H213.247L211.916 43.5964Z" fill="#078DEE"/>
<path d="M238.404 46.3213C237.232 49.9968 236.187 53.197 236.091 53.4504C235.965 53.799 237.961 53.8624 247.023 53.8624H258.113L258.841 51.7078C259.222 50.5354 259.602 49.3948 259.697 49.173C259.792 48.8878 258.113 48.7928 251.871 48.7928C247.498 48.7928 243.918 48.666 243.918 48.5393C243.918 48.4125 244.551 46.3847 245.343 44.04C246.136 41.6953 246.769 39.7625 246.769 39.6992C246.769 39.6358 245.375 39.6041 243.664 39.6041H240.559L238.404 46.3213Z" fill="#078DEE"/>
<path d="M263.245 46.5114C262.041 50.282 261.027 53.5138 261.027 53.6406C261.027 53.7673 262.421 53.8307 264.101 53.799L267.174 53.7039L269.456 46.6382L271.705 39.6041H268.6H265.495L263.245 46.5114Z" fill="#078DEE"/>
<path d="M273.068 43.8816C271.167 49.8067 271.484 51.8979 274.43 53.2603C275.603 53.7673 276.553 53.8624 281.971 53.8624C288.847 53.8624 290.273 53.6089 292.808 51.9296C294.962 50.5037 296.135 48.6027 297.687 43.9133C298.448 41.632 299.05 39.7309 299.05 39.6992C299.05 39.6358 297.656 39.6041 295.945 39.6041H292.839L291.921 42.5191C290.083 48.4442 289.639 48.7928 283.777 48.7928C279.5 48.7928 278.454 48.4442 278.454 47.0818C278.454 46.7016 278.961 44.8955 279.563 43.0895C280.165 41.2834 280.672 39.7625 280.672 39.6992C280.672 39.6358 279.278 39.6041 277.567 39.6041H274.462L273.068 43.8816Z" fill="#078DEE"/>
<path d="M162.677 40.4285C162.392 41.2202 162.455 41.5052 162.93 41.5052C163.532 41.5052 163.817 41.0619 163.564 40.4285C163.31 39.7952 162.93 39.7952 162.677 40.4285Z" fill="#263238"/>
<path d="M167.24 40.0485C167.24 40.1118 167.462 40.2699 167.747 40.3648C168 40.4596 168.127 40.428 168.032 40.2383C167.842 39.9221 167.24 39.7956 167.24 40.0485Z" fill="#263238"/>
<path d="M4.82283 41.0933C4.8862 41.4102 5.07631 42.0122 5.17136 42.4558C5.86843 44.8955 8.05469 45.6243 14.8353 45.6243C19.3029 45.6243 19.8732 45.6876 20.3485 46.2263C20.792 46.7332 20.8237 46.955 20.4752 47.6521C19.7464 49.3314 19.0811 49.4265 9.98747 49.4265H1.65433L0.925576 51.7078C0.513671 52.9752 0.101767 54.2109 0.00671205 54.4327C-0.120028 54.7812 1.4959 54.8446 9.32209 54.7495C18.3523 54.6228 18.8909 54.5911 20.6653 53.894C24.4358 52.4048 27.1924 48.7611 27.1924 45.2757C27.1924 43.7549 27.034 43.2796 26.3369 42.4241C24.816 40.618 24.3408 40.5547 14.0431 40.5547C5.26641 40.5547 4.6644 40.5864 4.82283 41.0933Z" fill="#078DEE"/>
<path d="M31.7863 40.9349C31.7229 41.1567 30.7407 44.1985 29.6 47.6838C28.4593 51.1691 27.5088 54.2109 27.5088 54.4327C27.5088 54.7179 28.3326 54.8129 30.4872 54.8129H33.4972L35.0181 50.2186L36.5073 45.6243H42.2423C46.3613 45.6243 48.5159 45.4975 49.8467 45.149C51.9696 44.6104 54.5677 42.9627 55.645 41.5052L56.3738 40.5547H44.1434C34.6379 40.5547 31.913 40.6497 31.7863 40.9349Z" fill="#078DEE"/>
<path d="M57.9272 44.8322C56.0894 50.6305 56.3429 52.3732 59.2896 53.9257C60.557 54.6228 60.9689 54.6545 67.1158 54.6545C73.1043 54.6228 73.738 54.5911 75.3856 53.9257C77.3817 53.1336 79.7264 51.2325 80.7087 49.6166C81.1839 48.8562 83.9088 41.2201 83.9088 40.6497C83.9088 40.5864 82.5147 40.5547 80.8037 40.5547H77.6669L76.6213 43.945C75.8292 46.5748 75.3539 47.5888 74.5618 48.3809L73.5162 49.4265H68.9535C64.8979 49.4265 64.2958 49.3631 63.8523 48.8562C63.5354 48.5393 63.3136 48.0957 63.3136 47.9056C63.3136 47.5888 64.9612 42.2023 65.4365 40.9666C65.5632 40.6497 64.8345 40.5547 62.4581 40.5547H59.3213L57.9272 44.8322Z" fill="#078DEE"/>
<path d="M86.4749 41.3151C85.8096 42.9944 82.3242 54.0842 82.3242 54.4327C82.3242 54.6862 83.2114 54.8129 85.3026 54.8129H88.3127L89.7702 50.2186C91.196 45.7193 91.2277 45.6243 92.1149 45.6243C92.9387 45.6243 93.3506 46.0996 96.1389 50.2186L99.2757 54.8129H103.014C105.042 54.8129 106.722 54.7179 106.722 54.5594C106.722 54.4327 105.454 52.4049 103.87 50.0602L101.018 45.7827L103.268 45.3708C104.535 45.149 106.12 44.6737 106.848 44.2935C108.147 43.6598 110.841 41.2834 110.841 40.8082C110.841 40.6814 105.423 40.5547 98.8004 40.5547H86.7601L86.4749 41.3151Z" fill="#078DEE"/>
<path d="M119.934 47.2085C118.762 50.8523 117.716 54.0525 117.621 54.3376C117.463 54.7495 117.875 54.8129 120.568 54.8129H123.705L125.859 48.0957C127.032 44.4202 128.077 41.2201 128.172 40.9666C128.299 40.6497 127.665 40.5547 125.194 40.5547H122.057L119.934 47.2085Z" fill="#078DEE"/>
<path d="M180.04 41.0303C179.534 41.4103 179.534 41.4737 179.945 41.5053C180.231 41.5053 180.643 41.2837 180.864 41.0303C181.371 40.4286 180.864 40.4286 180.04 41.0303Z" fill="#263238"/>
<path d="M177.538 42.0756C177.031 42.6776 176.619 43.3113 176.651 43.4697C176.714 43.5965 176.492 43.5965 176.207 43.5014C175.922 43.3747 175.542 43.5331 175.288 43.8816C175.035 44.1985 174.845 44.3252 174.845 44.1351C174.845 43.945 174.623 43.7232 174.369 43.5965C174.053 43.4697 173.894 43.6281 173.894 44.0401C173.894 44.3886 173.989 44.6421 174.148 44.6421C174.813 44.5153 174.845 44.7371 174.179 45.3075C173.767 45.6243 173.577 45.9095 173.767 45.9412C173.957 45.9412 174.369 45.656 174.686 45.3075C175.003 44.9589 175.352 44.7688 175.478 44.8322C175.605 44.9272 176.144 44.547 176.714 44.0401C177.253 43.5014 178.013 43.0895 178.393 43.0895C178.805 43.0895 179.312 42.9628 179.566 42.8043C179.946 42.5509 179.946 42.3924 179.471 41.6954C179.185 41.2518 178.837 40.8716 178.71 40.9032C178.583 40.9032 178.076 41.4419 177.538 42.0756Z" fill="#263238"/>
<path d="M149.686 41.4736C149.559 41.632 149.591 42.0122 149.718 42.3608C149.908 42.8677 149.876 42.8677 149.401 42.4875C149.084 42.234 148.799 42.1073 148.736 42.1707C148.672 42.234 148.989 42.5826 149.433 42.8994C149.876 43.2479 150.13 43.3747 150.035 43.1846C149.908 42.9945 150.035 42.7727 150.288 42.6459C150.89 42.4241 150.922 41.1884 150.32 41.1884C150.066 41.1884 149.781 41.3152 149.686 41.4736Z" fill="#263238"/>
<path d="M153.426 41.5374C153.33 41.7274 153.394 42.0441 153.584 42.2341C153.837 42.4874 153.932 42.3924 153.932 41.8857C153.932 41.1257 153.774 40.999 153.426 41.5374Z" fill="#263238"/>
<path d="M154.566 42.0124C154.566 42.2658 154.724 42.3924 154.883 42.2974C155.073 42.2024 155.2 41.9807 155.2 41.7907C155.2 41.6324 155.073 41.5057 154.883 41.5057C154.724 41.5057 154.566 41.7274 154.566 42.0124Z" fill="#263238"/>
<path d="M146.772 42.3293C146.17 42.8043 146.17 42.8043 146.804 42.5193C147.152 42.3609 147.659 42.1393 147.913 42.0443C148.324 41.8859 148.324 41.8542 147.881 41.8542C147.627 41.8226 147.12 42.0443 146.772 42.3293Z" fill="#263238"/>
<path d="M174.845 42.4562C174.845 43.0579 175.478 43.3112 175.89 42.8678C176.144 42.6462 175.542 41.8228 175.13 41.8228C174.971 41.8228 174.845 42.1078 174.845 42.4562Z" fill="#263238"/>
<path d="M180.548 42.1396C180.168 42.3926 180.199 42.4558 180.77 42.4558C181.15 42.4558 181.562 42.2977 181.657 42.1396C181.91 41.7285 181.182 41.7285 180.548 42.1396Z" fill="#263238"/>
<path d="M151.714 42.5508C152.791 43.0261 152.76 42.9944 152.475 43.438C152.316 43.7232 152.126 43.6598 151.841 43.2479C151.239 42.4241 150.922 42.8994 151.366 43.9766C151.683 44.7371 151.651 45.2124 151.112 46.8283C150.288 49.2363 150.257 49.9968 150.922 49.4265C151.302 49.1096 151.397 49.1413 151.397 49.5849C151.397 50.8206 152.158 49.7116 152.665 47.6838C153.045 46.1946 153.457 45.3074 153.996 44.8638C155.453 43.6281 155.358 43.1528 153.552 42.6142C151.651 42.0439 150.542 42.0122 151.714 42.5508ZM154.186 43.3746C154.534 43.5964 154.534 43.6598 154.186 43.7865C153.964 43.8816 153.584 43.7548 153.362 43.5331C153.045 43.1845 153.045 43.0895 153.362 43.0895C153.584 43.0895 153.964 43.2162 154.186 43.3746Z" fill="#263238"/>
<path d="M158.114 42.5192C157.322 43.3113 157.924 44.6738 159.065 44.6738C159.92 44.6738 160.332 43.3747 159.667 42.836C159.382 42.5825 159.35 42.5192 159.603 42.6459C159.889 42.8043 159.984 42.741 159.825 42.5192C159.54 42.0439 158.589 42.0439 158.114 42.5192Z" fill="#263238"/>
<path d="M155.707 43.2485C155.39 44.1035 155.485 44.3252 156.15 44.2618C156.626 44.2302 156.784 44.0402 156.721 43.5968C156.594 42.8051 155.96 42.5834 155.707 43.2485Z" fill="#263238"/>
<path d="M180.991 43.4382C180.896 43.5966 180.991 43.9451 181.181 44.1986C181.371 44.4521 181.466 44.7689 181.403 44.9273C181.308 45.0541 181.498 45.8145 181.846 46.575C182.448 47.9057 182.448 48.0008 181.941 48.381C181.244 48.888 181.656 49.3632 182.385 48.888C182.67 48.6979 182.924 48.1909 182.924 47.7156C182.892 47.2403 183.082 46.8918 183.304 46.8918C183.526 46.8918 183.716 47.1136 183.716 47.3671C183.716 47.6206 183.938 47.8424 184.191 47.8424C184.825 47.8424 184.445 46.9552 183.431 45.9413L182.607 45.1491L183.494 45.0541C184.635 44.9273 184.286 44.357 183.05 44.357C182.48 44.357 182.132 44.1986 182.132 43.9134C182.132 43.3748 181.276 42.9946 180.991 43.4382Z" fill="#263238"/>
<path d="M147.596 43.8819C147.596 44.1352 147.817 44.3569 148.071 44.3569C148.324 44.3569 148.546 44.1352 148.546 43.8819C148.546 43.6286 148.324 43.4069 148.071 43.4069C147.817 43.4069 147.596 43.6286 147.596 43.8819Z" fill="#263238"/>
<path d="M178.964 43.692C178.964 43.9771 179.661 44.6738 179.978 44.6738C180.548 44.6738 180.2 43.5337 179.598 43.502C179.249 43.4704 178.964 43.5654 178.964 43.692Z" fill="#263238"/>
<path d="M172.31 44.1672C172.31 44.7055 172.753 45.0856 173.038 44.8005C173.292 44.5472 172.943 43.7238 172.595 43.7238C172.436 43.7238 172.31 43.9138 172.31 44.1672Z" fill="#263238"/>
<path d="M150.161 44.5472C150.161 44.8956 150.257 44.9906 150.352 44.7372C150.447 44.5155 150.415 44.2305 150.32 44.1355C150.225 44.0089 150.13 44.1989 150.161 44.5472Z" fill="#263238"/>
<path d="M177.537 44.6426C177.284 45.1176 177.632 45.6243 178.203 45.6243C178.488 45.6243 178.646 45.4025 178.583 45.086C178.456 44.4525 177.822 44.1992 177.537 44.6426Z" fill="#263238"/>
<path d="M144.933 45.3708C144.585 46.7332 144.68 46.9867 145.536 46.7649C146.454 46.5431 146.486 46.6699 145.852 48.4759C145.377 49.8067 145.472 50.5671 146.042 50.2186C146.201 50.0919 146.328 50.1869 146.328 50.3453C146.328 50.5354 146.454 50.6939 146.644 50.6939C146.803 50.6939 147.215 49.8384 147.5 48.7611L148.039 46.8283L148.577 47.5887C149.243 48.4759 149.655 48.1591 149.94 46.5748L150.098 45.4658L149.75 46.4798C149.211 48.1274 148.831 47.8105 148.482 45.4658C148.324 44.5153 147.151 44.4836 146.518 45.4342C145.821 46.5431 144.965 46.5431 145.25 45.4658C145.345 45.0223 145.377 44.6737 145.282 44.6737C145.219 44.6737 145.06 44.9906 144.933 45.3708Z" fill="#263238"/>
<path d="M156.688 45.1812C156.245 45.6246 156.467 46.2896 157.037 46.1946C157.322 46.1313 157.576 45.8779 157.576 45.6562C157.576 45.1495 157.005 44.8645 156.688 45.1812Z" fill="#263238"/>
<path d="M153.742 45.7833C153.615 46.0683 153.678 46.4483 153.868 46.6383C154.344 47.1133 155.263 46.67 155.136 46.0366C155.009 45.3083 153.995 45.1182 153.742 45.7833Z" fill="#263238"/>
<path d="M158.78 46.0368C157.988 46.3851 157.545 47.2085 158.147 47.2085C158.527 47.2085 159.794 45.9735 159.573 45.7834C159.509 45.7518 159.161 45.8468 158.78 46.0368Z" fill="#263238"/>
<path d="M178.868 46.1946C178.298 46.8283 178.139 48.0006 178.646 47.6838C178.836 47.5887 178.963 47.2402 178.963 46.8917C178.963 46.5748 179.153 46.258 179.407 46.1629C179.724 46.0362 179.914 46.3213 180.072 47.0818C180.199 47.7788 180.389 48.0957 180.611 47.969C180.801 47.8422 180.864 47.8739 180.769 48.064C180.674 48.2224 180.104 48.3175 179.533 48.2858C178.551 48.2224 178.52 48.2541 179.09 48.666C179.85 49.2047 180.294 49.2364 180.928 48.6977C181.593 48.1591 181.783 47.4937 181.466 46.6065C181.276 46.1312 181.023 45.9411 180.674 46.0679C180.421 46.1629 180.294 46.1312 180.389 45.9411C180.738 45.3708 179.407 45.6243 178.868 46.1946ZM181.086 46.7649C180.991 46.86 180.706 46.8917 180.484 46.7966C180.231 46.7016 180.326 46.6065 180.674 46.6065C181.023 46.5748 181.213 46.6699 181.086 46.7649ZM181.403 47.3986C181.308 47.4937 181.023 47.5254 180.801 47.4303C180.547 47.3353 180.642 47.2402 180.991 47.2402C181.34 47.2085 181.53 47.3036 181.403 47.3986Z" fill="#263238"/>
<path d="M155.231 46.955C154.946 47.7471 154.788 47.8739 154.598 47.557C154.439 47.3035 154.091 47.2085 153.806 47.3035C153.52 47.4303 153.299 47.3352 153.299 47.1451C153.299 46.955 153.203 46.86 153.108 46.9867C152.697 47.3986 153.362 48.4759 154.027 48.4759C154.661 48.4759 154.629 48.5393 153.774 49.1096C152.918 49.6799 152.887 49.7433 153.52 49.7433C153.901 49.7433 154.503 49.3948 154.819 48.9512C155.516 48.064 156.023 48.3492 155.675 49.4264C155.548 49.775 155.612 50.0601 155.77 50.0601C156.245 50.0601 156.499 49.1413 156.277 48.2858C156.119 47.7155 156.214 47.5253 156.594 47.5253C157.259 47.5253 157.227 47.1134 156.53 46.4797C155.738 45.751 155.643 45.7827 155.231 46.955Z" fill="#263238"/>
<path d="M174.654 46.4483C174.084 46.8916 174.084 46.9233 174.781 46.575C175.161 46.3849 175.478 46.1633 175.478 46.0999C175.478 45.8466 175.32 45.9099 174.654 46.4483Z" fill="#263238"/>
<path d="M172.087 47.3987C171.517 48.0324 171.105 48.6661 171.2 48.7929C171.264 48.9196 172.056 48.7929 172.911 48.5394L174.495 48.0324L173.957 47.1452C173.672 46.67 173.355 46.2581 173.26 46.2581C173.165 46.2581 172.626 46.765 172.087 47.3987Z" fill="#263238"/>
<path d="M177.062 46.7652C177.062 47.3035 177.76 47.2085 177.95 46.6385C178.013 46.4168 177.855 46.2585 177.569 46.2585C177.284 46.2585 177.062 46.4801 177.062 46.7652Z" fill="#263238"/>
<path d="M175.003 47.526C174.908 47.6841 175.098 47.8422 175.446 47.8422C175.827 47.8422 176.112 47.6841 176.112 47.526C176.112 47.3363 175.922 47.2098 175.668 47.2098C175.415 47.2098 175.098 47.3363 175.003 47.526Z" fill="#263238"/>
<path d="M143.793 48.001C143.793 48.286 143.951 48.4127 144.142 48.286C144.332 48.191 144.585 48.2227 144.712 48.4127C144.839 48.6344 145.092 48.666 145.377 48.476C145.916 48.1277 145.789 48.001 144.68 47.716C143.983 47.5576 143.793 47.621 143.793 48.001Z" fill="#263238"/>
<path d="M176.777 48.2541C176.429 49.1413 175.193 49.9968 173.894 50.282C172.468 50.5671 172.278 51.1375 173.672 50.9157C175.098 50.6939 175.193 50.9157 173.894 51.3593C173.387 51.5494 172.943 51.8662 172.943 52.0246C172.943 52.4999 174.369 52.0563 175.731 51.2008C176.365 50.7889 177.442 50.3453 178.108 50.2503C179.153 50.0602 179.502 49.4265 178.551 49.4265C178.044 49.4265 177.316 48.2225 177.538 47.8422C177.664 47.6521 177.569 47.5254 177.379 47.5254C177.189 47.5254 176.935 47.8422 176.777 48.2541Z" fill="#263238"/>
<path d="M169.458 48.3175C169.458 48.6027 169.173 48.7928 168.698 48.7928C167.811 48.7928 167.272 49.3948 167.874 49.7433C168.381 50.0602 168.317 50.1552 167.209 51.3592C166.416 52.2147 166.195 52.3098 165.941 51.9296C165.561 51.3276 165.719 50.9157 166.416 50.8206C167.177 50.7255 167.367 50.5038 167.113 49.8701C166.987 49.5532 166.733 49.4265 166.416 49.5532C166.131 49.6483 165.434 49.4582 164.864 49.1096L163.818 48.4759L162.994 49.4582C162.487 50.0602 162.171 50.2503 162.171 49.9334C162.171 49.3631 160.967 48.4759 160.27 48.5076C160.016 48.5076 160.174 48.666 160.681 48.8561C161.632 49.2047 162.139 50.4404 161.569 51.1375C161.378 51.3592 161.283 51.6127 161.378 51.6761C161.442 51.7712 161.03 51.7712 160.428 51.7078C159.541 51.6127 159.256 51.3909 159.097 50.7572C159.002 50.3136 159.097 49.6799 159.319 49.2997C159.699 48.6977 159.667 48.666 159.256 49.0462C158.97 49.268 158.685 49.7116 158.59 50.0602C158.4 50.7572 159.161 51.9613 159.826 51.9613C160.079 51.9613 160.27 52.1197 160.27 52.3098C160.27 52.4682 160.396 52.5316 160.586 52.4365C160.745 52.3415 160.808 52.4365 160.713 52.7217C160.491 53.2603 161.41 53.8307 162.297 53.6723C162.646 53.6406 163.121 53.8624 163.375 54.2109C164.008 55.1298 165.624 54.908 166.258 53.8307C168.127 50.8206 168.698 50.4404 168.317 52.4365C168.191 53.197 168.222 53.292 168.634 52.9435C168.92 52.7217 169.078 52.2147 169.015 51.8345C168.888 51.0107 169.363 50.3453 169.933 50.5671C170.155 50.6622 170.504 50.4404 170.726 50.0918C171.011 49.5532 170.979 49.4265 170.567 49.4265C170.028 49.4265 169.933 48.9195 170.409 48.6343C170.821 48.3809 170.504 47.8422 169.902 47.8422C169.648 47.8422 169.458 48.064 169.458 48.3175ZM163.121 51.1691C162.899 51.4543 162.646 51.581 162.551 51.486C162.456 51.4226 162.583 51.1375 162.804 50.8523C163.026 50.5671 163.28 50.4404 163.375 50.5354C163.47 50.5988 163.343 50.884 163.121 51.1691ZM165.339 51.1691C165.339 51.2642 165.054 51.3276 164.705 51.3276C164.357 51.3276 164.072 51.1058 164.072 50.8523C164.072 50.4404 164.198 50.4087 164.705 50.6939C165.054 50.884 165.339 51.1058 165.339 51.1691ZM165.593 52.0246C165.814 52.2464 165.973 52.69 165.973 53.0702C165.973 54.4644 164.072 55.0664 163.438 53.894C162.994 53.0386 163.026 52.7217 163.628 52.1514C164.198 51.5494 165.054 51.486 165.593 52.0246ZM162.519 53.0069C162.202 53.292 162.171 53.2603 162.361 52.8168C162.456 52.4999 162.646 52.3415 162.741 52.4365C162.836 52.5316 162.741 52.7851 162.519 53.0069Z" fill="#263238"/>
<path d="M174.021 48.8249C173.767 49.2682 174.369 49.8699 174.813 49.6166C175.003 49.4899 175.161 49.1732 175.161 48.9199C175.161 48.4132 174.337 48.3182 174.021 48.8249Z" fill="#263238"/>
<path d="M172.499 49.0152C172.119 49.3952 172.309 50.0602 172.784 50.0602C173.038 50.0602 173.26 49.8702 173.26 49.6169C173.26 49.0785 172.816 48.7302 172.499 49.0152Z" fill="#263238"/>
<path d="M141.226 49.6483C140.814 50.1236 140.846 50.1552 141.511 49.9968C142.589 49.7117 142.335 50.1869 141.068 50.8206C140.244 51.2008 139.8 51.2642 139.579 51.0424C139.389 50.8523 139.103 50.6939 138.913 50.6939C138.755 50.6939 138.723 50.7889 138.818 50.9157C138.945 51.0107 138.882 51.2959 138.691 51.5177C138.185 52.1514 139.389 53.197 140.434 53.0069C141.543 52.7851 142.304 53.4188 141.86 54.2109C141.638 54.6228 141.321 54.7812 140.846 54.6545C140.054 54.4644 138.945 55.0664 139.579 55.3199C140.022 55.51 139.769 56.3972 139.23 56.3972C138.66 56.3972 136.664 58.3933 137.107 58.5518C137.329 58.6151 138.026 58.2032 138.628 57.6329L139.769 56.5556L139.61 57.4111C139.515 57.8864 139.61 58.33 139.8 58.425C139.991 58.4884 139.832 58.5834 139.452 58.5834C138.66 58.6151 138.406 59.2488 139.167 59.2488C139.674 59.2488 140.086 58.7419 140.181 58.0448C140.307 57.2844 141.004 56.6507 141.353 56.9992C141.765 57.4111 142.842 56.8408 142.842 56.2071C142.842 55.9536 142.715 55.8269 142.525 55.9219C142.367 56.017 142.208 55.9853 142.208 55.7952C142.208 55.6367 142.367 55.3833 142.525 55.2882C142.715 55.1932 142.842 54.8129 142.842 54.4644C142.842 53.6089 143.698 53.3554 144.395 53.9891C145.124 54.6545 145.282 54.6228 145.472 53.8941C145.567 53.5139 145.345 52.9752 144.965 52.595L144.331 51.8979L145.06 52.1197C145.567 52.2781 145.726 52.2465 145.63 51.9296C145.535 51.6761 145.187 51.4543 144.807 51.391C144.236 51.2959 144.141 51.1375 144.3 50.4721C144.49 49.7117 144.458 49.68 143.698 49.8067C143.191 49.9018 142.811 49.8067 142.715 49.5532C142.494 48.9512 141.733 49.0146 141.226 49.6483ZM143.793 51.993C143.793 52.4366 142.652 52.3415 142.24 51.8662C141.987 51.5177 142.082 51.4543 142.842 51.5811C143.381 51.6444 143.793 51.8345 143.793 51.993Z" fill="#263238"/>
<path d="M148.102 49.7116C147.373 50.5355 147.912 51.6444 149.052 51.6444C150.161 51.6444 150.605 50.4087 149.718 49.6483C148.926 48.9512 148.767 48.9829 148.102 49.7116Z" fill="#263238"/>
<path d="M129.218 50.3776L125.257 50.5674L129.63 50.6306C132.355 50.6622 133.971 50.5674 133.971 50.3776C133.971 50.1879 133.781 50.093 133.59 50.1247C133.369 50.1563 131.404 50.2828 129.218 50.3776Z" fill="#263238"/>
<path d="M170.535 50.853C170.314 51.3914 170.916 52.2781 171.486 52.2781C172.215 52.2781 172.627 51.5814 172.278 50.948C171.898 50.2513 170.789 50.188 170.535 50.853Z" fill="#263238"/>
<path d="M146.486 51.3596C146.17 51.8346 146.581 52.1513 146.993 51.7396C147.215 51.5179 147.215 51.3279 147.025 51.2012C146.835 51.1062 146.581 51.1695 146.486 51.3596Z" fill="#263238"/>
<path d="M159.477 52.6269C159.16 53.102 159.572 53.4187 159.984 53.007C160.206 52.7853 160.206 52.5953 160.016 52.4686C159.826 52.3736 159.572 52.4369 159.477 52.6269Z" fill="#263238"/>
<path d="M137.393 53.4823C136.886 53.7674 136.506 54.1476 136.506 54.3378C136.506 54.4962 136.062 55.2249 135.555 55.8903C134.509 57.2845 134.224 58.3617 135.111 57.633C135.365 57.4112 135.872 56.7141 136.189 56.1121C136.727 55.0982 136.791 55.0665 136.759 55.7636C136.727 56.2072 136.569 56.7458 136.411 56.9676C135.967 57.5379 136.411 57.8231 136.981 57.3478C137.298 57.0627 137.424 56.6508 137.329 56.2072C137.171 55.6052 137.329 55.3517 138.09 54.9715C139.135 54.4328 139.326 54.0843 138.533 54.2427C138.217 54.3061 137.931 54.1476 137.836 53.8942C137.773 53.6407 137.836 53.5456 138.026 53.6724C138.185 53.7674 138.407 53.6407 138.533 53.3872C138.755 52.7852 138.47 52.7852 137.393 53.4823Z" fill="#263238"/>
<path d="M160.111 53.5461C159.889 53.9261 160.174 54.4962 160.618 54.4962C160.998 54.4962 160.998 53.6411 160.618 53.3878C160.46 53.2928 160.238 53.3561 160.111 53.5461Z" fill="#263238"/>
<path d="M162.582 55.415C162.392 56.1437 161.537 56.2705 160.618 55.7001C159.794 55.1932 158.939 55.6051 159.065 56.4606C159.129 57.0309 159.35 57.1893 160.111 57.1576C161.093 57.1259 161.125 57.1576 161.315 59.3122C161.347 59.5974 161.473 59.7558 161.6 59.6924C161.727 59.5974 161.854 59.6607 161.854 59.8509C161.854 60.0093 161.6 60.3261 161.315 60.4846C160.998 60.6747 160.903 60.8331 161.093 60.8331C161.663 60.8331 162.139 60.0726 162.044 59.4073C161.917 58.6785 162.424 57.9181 162.867 58.1716C163.279 58.4567 164.072 57.6646 164.072 56.9675C164.072 56.6507 163.945 56.4289 163.786 56.5556C163.596 56.6507 163.501 56.3338 163.533 55.8902C163.596 54.8446 162.836 54.4644 162.582 55.415Z" fill="#263238"/>
<path d="M121.138 56.239L112.583 56.619L121.582 56.5873C128.489 56.5556 130.612 56.4606 130.739 56.144C130.802 55.9223 130.612 55.7956 130.264 55.8273C129.947 55.8589 125.859 56.0489 121.138 56.239Z" fill="#263238"/>
<path d="M109.035 56.9356C109.32 56.9992 109.827 56.9992 110.144 56.9356C110.429 56.8402 110.175 56.7765 109.573 56.7765C108.971 56.7765 108.718 56.8402 109.035 56.9356Z" fill="#263238"/>
<path d="M159.794 59.1854C158.971 60.4528 158.876 61.1499 159.604 60.6746C160.111 60.3895 160.967 58.6468 160.808 58.2032C160.745 58.0131 160.301 58.425 159.794 59.1854Z" fill="#263238"/>
<path d="M133.495 60.4211C132.925 61.3717 132.608 61.5935 132.006 61.4984C131.847 61.4984 131.752 61.6251 131.752 61.8153C131.752 62.0054 132.038 62.0687 132.45 61.942C132.988 61.7519 133.083 61.8153 132.893 62.2588C132.45 63.4629 132.291 64.4134 132.608 64.2233C132.798 64.0966 133.178 64.2867 133.495 64.6352C134.129 65.3323 134.604 65.459 134.604 64.9521C134.604 64.762 134.319 64.5085 134.002 64.3817C133.432 64.1599 133.432 64.0649 133.875 62.7975C134.129 62.0371 134.287 60.9598 134.224 60.4211L134.129 59.4072L133.495 60.4211Z" fill="#263238"/>
<path d="M137.14 59.8198C137.14 59.9781 137.361 60.3265 137.647 60.5482C138.09 60.9282 138.154 60.8965 138.059 60.3898C137.932 59.7564 137.14 59.2814 137.14 59.8198Z" fill="#263238"/>
<path d="M136.094 60.9283C135.999 61.15 136.189 61.34 136.537 61.3717C136.918 61.4033 137.044 61.2767 136.918 60.96C136.727 60.39 136.316 60.39 136.094 60.9283Z" fill="#263238"/>
<path d="M135.111 61.6258C134.984 62.1325 134.763 62.3541 134.541 62.2275C134.319 62.1008 134.287 62.1325 134.414 62.3541C134.541 62.5758 134.763 62.7341 134.921 62.7341C135.206 62.7341 135.681 61.1507 135.46 60.9291C135.365 60.8657 135.206 61.1824 135.111 61.6258Z" fill="#263238"/>
<path d="M128.997 62.7027C128.68 63.2094 128.711 63.2727 129.25 63.1461C129.567 63.0511 129.852 62.7661 129.852 62.5444C129.852 61.911 129.44 62.006 128.997 62.7027Z" fill="#263238"/>
<path d="M130.264 63.3045C130.169 63.653 129.852 64.0015 129.535 64.0966C128.774 64.2867 127.951 66.7898 128.553 67.1384C128.838 67.3285 128.838 67.6136 128.616 68.2156C128.204 69.3246 127.887 69.3246 128.141 68.2156C128.331 67.5186 128.267 67.4235 127.824 67.5819C127.507 67.7087 127.19 67.8037 127.127 67.8037C127.032 67.8037 127.063 67.9305 127.158 68.1206C127.253 68.279 127.158 68.4374 126.905 68.4374C126.24 68.4374 126.018 69.2296 126.493 69.895C126.747 70.2118 127.127 70.3702 127.444 70.2435C127.824 70.0851 127.951 70.2435 127.951 70.8455C127.951 71.4792 127.824 71.6376 127.444 71.4792C127.158 71.3841 126.873 71.2891 126.81 71.2891C126.747 71.2891 126.683 71.0673 126.683 70.8138C126.683 70.2435 126.303 70.2118 125.796 70.7188C125.447 71.0673 125.669 71.6693 126.747 73.507C126.905 73.7605 127.095 74.2358 127.19 74.521C127.444 75.218 127.919 75.2497 128.141 74.616C128.267 74.3625 128.489 74.2358 128.679 74.3625C128.869 74.4893 128.933 74.2992 128.838 73.8873C128.711 73.507 128.774 73.1902 128.933 73.1902C129.091 73.1902 129.218 72.9684 129.218 72.7149C129.218 72.4614 129.091 72.2396 128.964 72.2396C128.838 72.2396 128.711 71.9545 128.711 71.6376C128.711 71.2891 128.838 71.099 128.996 71.194C129.471 71.4792 130.105 70.6237 130.327 69.3246C130.485 68.4691 130.739 67.9939 131.151 67.8988C131.816 67.7087 132.291 65.9026 131.879 65.0472C131.753 64.7303 131.626 64.1283 131.626 63.6847C131.594 62.7025 130.517 62.3856 130.264 63.3045Z" fill="#263238"/>
<path d="M126.557 63.653C125.511 64.8254 126.874 66.0294 127.983 64.9204L128.616 64.2867L127.919 63.653C127.064 62.9243 127.222 62.9243 126.557 63.653Z" fill="#263238"/>
<path d="M132.767 65.7128C132.798 66.0295 133.02 66.2512 133.178 66.2512C133.654 66.2195 133.559 65.4911 133.083 65.3328C132.798 65.2378 132.672 65.3961 132.767 65.7128Z" fill="#263238"/>
<path d="M127.032 66.3151C126.747 66.6634 126.778 66.8534 127.127 67.1385C127.475 67.4235 127.602 67.3918 127.761 66.9801C128.046 66.2517 127.507 65.7767 127.032 66.3151Z" fill="#263238"/>
<path d="M26.9788 29.2245C26.5988 29.2245 26.2738 29.1795 26.0038 29.0895C25.7238 28.9995 25.4938 28.8745 25.3138 28.7145L25.7938 27.7095C26.1338 28.0195 26.5138 28.1745 26.9338 28.1745C27.2538 28.1745 27.5338 28.0845 27.7738 27.9045C28.0238 27.7245 28.2688 27.4445 28.5088 27.0645L29.2138 25.9395L27.8938 18.4995H29.0788L29.7688 22.7895L30.0688 24.6645L31.1188 22.9095L33.7738 18.4995H35.1388L29.4688 27.4695C29.2088 27.8795 28.9388 28.2145 28.6588 28.4745C28.3888 28.7345 28.1138 28.9245 27.8338 29.0445C27.5538 29.1645 27.2688 29.2245 26.9788 29.2245Z" fill="#263238"/>
<path d="M13.465 25.9995L15.205 18.4995H16.255L15.97 20.1795L15.82 20.1045C16.02 19.5145 16.38 19.0745 16.9 18.7845C17.42 18.4945 17.985 18.3495 18.595 18.3495C19.135 18.3495 19.595 18.4745 19.975 18.7245C20.365 18.9745 20.64 19.3345 20.8 19.8045C20.96 20.2745 20.96 20.8445 20.8 21.5145L19.75 25.9995H18.55L19.6 21.4995C19.76 20.8395 19.71 20.3245 19.45 19.9545C19.2 19.5845 18.8 19.3995 18.25 19.3995C17.79 19.3995 17.38 19.5045 17.02 19.7145C16.67 19.9145 16.375 20.2095 16.135 20.5995C15.905 20.9895 15.72 21.4745 15.58 22.0545L14.665 25.9995H13.465ZM23.65 25.9995L24.685 21.4995C24.835 20.8395 24.785 20.3245 24.535 19.9545C24.285 19.5845 23.885 19.3995 23.335 19.3995C22.875 19.3995 22.47 19.5045 22.12 19.7145C21.77 19.9145 21.475 20.2095 21.235 20.5995C20.995 20.9895 20.805 21.4745 20.665 22.0545L20.515 20.4645C20.805 19.7545 21.235 19.2245 21.805 18.8745C22.385 18.5245 23.01 18.3495 23.68 18.3495C24.22 18.3495 24.68 18.4745 25.06 18.7245C25.45 18.9745 25.725 19.3345 25.885 19.8045C26.045 20.2745 26.045 20.8445 25.885 21.5145L24.85 25.9995H23.65Z" fill="#263238"/>
<path d="M282.28 71.2245C281.9 71.2245 281.575 71.1795 281.305 71.0895C281.025 70.9995 280.795 70.8745 280.615 70.7145L281.095 69.7095C281.435 70.0195 281.815 70.1745 282.235 70.1745C282.555 70.1745 282.835 70.0845 283.075 69.9045C283.325 69.7245 283.57 69.4445 283.81 69.0645L284.515 67.9395L283.195 60.4995H284.38L285.07 64.7895L285.37 66.6645L286.42 64.9095L289.075 60.4995H290.44L284.77 69.4695C284.51 69.8795 284.24 70.2145 283.96 70.4745C283.69 70.7345 283.415 70.9245 283.135 71.0445C282.855 71.1645 282.57 71.2245 282.28 71.2245Z" fill="#263238"/>
<path d="M276.621 68.1195C276.041 68.1195 275.531 67.9795 275.091 67.6995C274.651 67.4195 274.306 67.0345 274.056 66.5445C273.806 66.0445 273.681 65.4695 273.681 64.8195C273.681 64.1995 273.776 63.6195 273.966 63.0795C274.156 62.5395 274.421 62.0645 274.761 61.6545C275.101 61.2445 275.506 60.9245 275.976 60.6945C276.446 60.4645 276.956 60.3495 277.506 60.3495C277.946 60.3495 278.341 60.4245 278.691 60.5745C279.041 60.7245 279.331 60.9395 279.561 61.2195C279.791 61.4895 279.951 61.8145 280.041 62.1945L280.431 60.4995H281.631L279.891 67.9995H278.841L279.096 66.6045C278.856 67.0645 278.511 67.4345 278.061 67.7145C277.621 67.9845 277.141 68.1195 276.621 68.1195ZM276.936 67.0995C277.286 67.0995 277.616 67.0095 277.926 66.8295C278.246 66.6495 278.526 66.4045 278.766 66.0945C279.016 65.7745 279.211 65.4045 279.351 64.9845C279.491 64.5545 279.561 64.0945 279.561 63.6045C279.561 63.1545 279.476 62.7645 279.306 62.4345C279.146 62.0945 278.916 61.8345 278.616 61.6545C278.326 61.4745 277.981 61.3845 277.581 61.3845C277.181 61.3845 276.816 61.4745 276.486 61.6545C276.156 61.8245 275.871 62.0645 275.631 62.3745C275.391 62.6845 275.201 63.0495 275.061 63.4695C274.931 63.8795 274.866 64.3245 274.866 64.8045C274.866 65.2945 274.946 65.7095 275.106 66.0495C275.266 66.3895 275.496 66.6495 275.796 66.8295C276.106 67.0095 276.486 67.0995 276.936 67.0995Z" fill="#263238"/>
<path d="M270.982 68.1045C270.292 68.1045 269.812 67.8995 269.542 67.4895C269.272 67.0695 269.217 66.5245 269.377 65.8545L271.417 57.0495H272.617L270.562 65.8995C270.462 66.3095 270.492 66.6045 270.652 66.7845C270.812 66.9645 271.087 67.0545 271.477 67.0545C271.627 67.0545 271.757 67.0495 271.867 67.0395C271.977 67.0295 272.082 67.0145 272.182 66.9945L271.882 67.9545C271.722 68.0145 271.577 68.0545 271.447 68.0745C271.317 68.0945 271.162 68.1045 270.982 68.1045Z" fill="#263238"/>
<path d="M258.964 71.1495L261.424 60.4995H262.474L262.144 62.3445L261.949 62.5245C262.069 62.0745 262.264 61.6895 262.534 61.3695C262.814 61.0495 263.154 60.8045 263.554 60.6345C263.954 60.4645 264.384 60.3795 264.844 60.3795C265.374 60.3795 265.849 60.5095 266.269 60.7695C266.689 61.0295 267.019 61.4045 267.259 61.8945C267.509 62.3845 267.634 62.9695 267.634 63.6495C267.634 64.2895 267.534 64.8845 267.334 65.4345C267.144 65.9845 266.874 66.4645 266.524 66.8745C266.174 67.2745 265.764 67.5895 265.294 67.8195C264.834 68.0395 264.329 68.1495 263.779 68.1495C263.289 68.1495 262.854 68.0545 262.474 67.8645C262.094 67.6645 261.794 67.3845 261.574 67.0245C261.354 66.6645 261.229 66.2495 261.199 65.7795L261.424 65.6595L260.164 71.1495H258.964ZM263.794 67.1145C264.154 67.1145 264.494 67.0295 264.814 66.8595C265.134 66.6895 265.414 66.4495 265.654 66.1395C265.904 65.8195 266.099 65.4495 266.239 65.0295C266.379 64.6095 266.449 64.1495 266.449 63.6495C266.449 63.1695 266.364 62.7645 266.194 62.4345C266.024 62.0945 265.789 61.8395 265.489 61.6695C265.189 61.4995 264.839 61.4145 264.439 61.4145C264.049 61.4145 263.689 61.5045 263.359 61.6845C263.039 61.8545 262.759 62.0945 262.519 62.4045C262.279 62.7145 262.089 63.0845 261.949 63.5145C261.819 63.9445 261.754 64.4145 261.754 64.9245C261.754 65.5745 261.924 66.1045 262.264 66.5145C262.614 66.9145 263.124 67.1145 263.794 67.1145Z" fill="#263238"/>
<path d="M253.877 57.4995C254.177 57.4995 254.417 57.6145 254.597 57.8445C254.777 58.0645 254.867 58.3545 254.867 58.7145C254.867 59.0945 254.767 59.4845 254.567 59.8845C254.377 60.2745 254.097 60.6195 253.727 60.9195C253.357 61.2195 252.912 61.4245 252.392 61.5345L252.017 60.8145C252.407 60.7545 252.732 60.6545 252.992 60.5145C253.262 60.3745 253.477 60.2045 253.637 60.0045C253.797 59.7945 253.912 59.5695 253.982 59.3295L253.967 59.3145C253.917 59.3545 253.862 59.3845 253.802 59.4045C253.752 59.4145 253.672 59.4195 253.562 59.4195C253.322 59.4195 253.137 59.3345 253.007 59.1645C252.887 58.9845 252.827 58.7895 252.827 58.5795C252.827 58.2595 252.927 57.9995 253.127 57.7995C253.337 57.5995 253.587 57.4995 253.877 57.4995Z" fill="#263238"/>
<path d="M247.413 68.1645C246.833 68.1645 246.308 68.0745 245.838 67.8945C245.378 67.7145 244.983 67.4595 244.653 67.1295C244.333 66.7995 244.088 66.4095 243.918 65.9595L245.058 65.4645C245.248 66.0145 245.543 66.4295 245.943 66.7095C246.343 66.9795 246.853 67.1145 247.473 67.1145C248.003 67.1145 248.403 66.9995 248.673 66.7695C248.953 66.5295 249.093 66.2395 249.093 65.8995C249.093 65.6395 249.018 65.4345 248.868 65.2845C248.718 65.1345 248.483 65.0145 248.163 64.9245L246.828 64.5495C246.208 64.3795 245.743 64.1245 245.433 63.7845C245.123 63.4345 244.968 63.0345 244.968 62.5845C244.968 62.1645 245.083 61.7895 245.313 61.4595C245.543 61.1195 245.873 60.8495 246.303 60.6495C246.733 60.4495 247.243 60.3495 247.833 60.3495C248.543 60.3495 249.168 60.5095 249.708 60.8295C250.248 61.1495 250.633 61.6145 250.863 62.2245L249.768 62.7495C249.678 62.4695 249.538 62.2295 249.348 62.0295C249.158 61.8195 248.928 61.6595 248.658 61.5495C248.398 61.4395 248.098 61.3845 247.758 61.3845C247.208 61.3845 246.798 61.4845 246.528 61.6845C246.268 61.8845 246.138 62.1495 246.138 62.4795C246.138 62.7595 246.233 62.9845 246.423 63.1545C246.623 63.3145 246.868 63.4345 247.158 63.5145L248.628 63.9345C249.138 64.0745 249.538 64.3045 249.828 64.6245C250.128 64.9445 250.278 65.3145 250.278 65.7345C250.278 66.2345 250.153 66.6695 249.903 67.0395C249.653 67.3995 249.313 67.6795 248.883 67.8795C248.453 68.0695 247.963 68.1645 247.413 68.1645Z" fill="#263238"/>
<path d="M241.123 68.1195C240.643 68.1195 240.233 68.0245 239.893 67.8345C239.553 67.6445 239.313 67.3695 239.173 67.0095C239.033 66.6495 239.018 66.2195 239.128 65.7195L240.703 58.8495L242.008 58.4745L240.298 65.7795C240.198 66.2395 240.258 66.5695 240.478 66.7695C240.708 66.9595 240.993 67.0545 241.333 67.0545C241.583 67.0545 241.803 67.0195 241.993 66.9495C242.183 66.8795 242.348 66.7895 242.488 66.6795L242.728 67.6695C242.478 67.8395 242.223 67.9545 241.963 68.0145C241.703 68.0845 241.423 68.1195 241.123 68.1195ZM238.573 61.5345L238.813 60.4995H243.853L243.613 61.5345H238.573Z" fill="#263238"/>
<path d="M233.534 68.1345C232.844 68.1345 232.249 67.9845 231.749 67.6845C231.259 67.3845 230.884 66.9795 230.624 66.4695C230.364 65.9595 230.234 65.3895 230.234 64.7595C230.234 63.9795 230.389 63.2545 230.699 62.5845C231.009 61.9145 231.459 61.3795 232.049 60.9795C232.649 60.5695 233.374 60.3645 234.224 60.3645C234.834 60.3645 235.354 60.4895 235.784 60.7395C236.224 60.9895 236.559 61.3345 236.789 61.7745C237.019 62.2045 237.134 62.6945 237.134 63.2445C237.134 63.4445 237.114 63.6545 237.074 63.8745C237.044 64.0845 236.994 64.3045 236.924 64.5345H230.819V63.4845H236.399L235.874 63.9045C235.904 63.7845 235.924 63.6645 235.934 63.5445C235.954 63.4245 235.964 63.3095 235.964 63.1995C235.964 62.8395 235.889 62.5245 235.739 62.2545C235.599 61.9845 235.394 61.7745 235.124 61.6245C234.854 61.4745 234.529 61.3995 234.149 61.3995C233.659 61.3995 233.239 61.4995 232.889 61.6995C232.549 61.8895 232.269 62.1495 232.049 62.4795C231.839 62.8095 231.684 63.1795 231.584 63.5895C231.494 63.9895 231.449 64.3945 231.449 64.8045C231.449 65.2545 231.539 65.6545 231.719 66.0045C231.909 66.3445 232.169 66.6145 232.499 66.8145C232.829 67.0045 233.219 67.0995 233.669 67.0995C234.179 67.0895 234.599 66.9795 234.929 66.7695C235.259 66.5595 235.529 66.2845 235.739 65.9445L236.684 66.5745C236.464 66.8945 236.199 67.1745 235.889 67.4145C235.579 67.6445 235.224 67.8245 234.824 67.9545C234.434 68.0745 234.004 68.1345 233.534 68.1345Z" fill="#263238"/>
<path d="M227.52 68.1045C226.83 68.1045 226.35 67.8995 226.08 67.4895C225.81 67.0695 225.755 66.5245 225.915 65.8545L227.955 57.0495H229.155L227.1 65.8995C227 66.3095 227.03 66.6045 227.19 66.7845C227.35 66.9645 227.625 67.0545 228.015 67.0545C228.165 67.0545 228.295 67.0495 228.405 67.0395C228.515 67.0295 228.62 67.0145 228.72 66.9945L228.42 67.9545C228.26 68.0145 228.115 68.0545 227.985 68.0745C227.855 68.0945 227.7 68.1045 227.52 68.1045Z" fill="#263238"/>
</svg>
